<?xml version="1.0" encoding="UTF-8"?>
<svg id="icons" xmlns="http://www.w3.org/2000/svg" viewBox="0 0 100 100">
  <defs>
    <style>
      .cls-1 {
        fill: none;
      }

      .cls-1, .cls-2, .cls-3, .cls-4, .cls-5 {
        stroke-miterlimit: 10;
      }

      .cls-1, .cls-3, .cls-4, .cls-5 {
        stroke: #000;
      }

      .cls-2 {
        fill: #c2d832;
        stroke: #231f20;
      }

      .cls-3 {
        fill: #231f20;
      }

      .cls-4 {
        fill: #fff;
      }
    </style>
  </defs>
  <g>
    <g>
      <circle class="cls-3" cx="46.73" cy="23.86" r="9.32"/>
      <circle class="cls-3" cx="31.31" cy="35.58" r="14.72"/>
      <circle class="cls-1" cx="46.68" cy="24.37" r="13.4"/>
      <circle class="cls-1" cx="31.3" cy="35.68" r="18.75"/>
    </g>
    <circle class="cls-4" cx="31.31" cy="35.54" r="13.2"/>
    <circle class="cls-4" cx="46.73" cy="23.86" r="8.11"/>
    <circle class="cls-4" cx="31.3" cy="35.68" r="9.99"/>
    <circle class="cls-4" cx="46.74" cy="23.74" r="5.29"/>
  </g>
  <g>
    <polygon class="cls-2" points="9.66 54.46 4.58 54.46 7.12 42.71 12.21 42.71 9.66 54.46"/>
    <polygon class="cls-2" points="23.92 54.46 18.84 54.46 21.38 42.71 26.47 42.71 23.92 54.46"/>
    <polygon class="cls-2" points="16.79 54.46 11.71 54.46 14.25 42.71 19.34 42.71 16.79 54.46"/>
  </g>
  <polygon class="cls-2" points="85.87 53.37 85.54 65.57 60.32 42.99 29.77 42.99 27.25 54.62 58.13 54.62 77.22 71.08 66.47 70.77 77.53 80.51 94.32 80.51 94.32 61.94 85.87 53.37"/>
  <path class="cls-5" d="M73.26,33.11c-12.84-12.62-39.35,5.07-47.42,21.61l-3.6,1.92-.63,1.88-1.26,1.53s-1.19,15.91,9.63,23.15c.44.08,8.68-.95,8.68-.95l1.05-.77,2.34-1.19s.88,6.06,6.28,8.2c.64.26,11.51,7.4,22.87-13.62.79-2.55,1.89-6.08,2.65-9.35.32-1.35.53-2.3.53-2.3,0,0,11.73-17.49-1.11-30.11ZM68.48,58.2c-1.04.93-6.87-2.24-6.87-2.24,0,0-9.42-3.72-16.1,5.32-.75.82-2.57,3.38-2.87,4.2-.29.83-1.83-9.49-6.54-12.15-.21-.12,13.58-20.68,25.8-17.96,5.63,1.84,14.81,7.92,6.57,22.83Z"/>
</svg>