<?xml version="1.0" encoding="UTF-8"?>
<svg id="icons" xmlns="http://www.w3.org/2000/svg" xmlns:xlink="http://www.w3.org/1999/xlink" viewBox="0 0 100 100">
  <defs>
    <style>
      .cls-1 {
        fill: none;
      }

      .cls-1, .cls-2 {
        stroke: #010101;
        stroke-miterlimit: 10;
      }

      .cls-2 {
        fill: url(#linear-gradient);
      }
    </style>
    <linearGradient id="linear-gradient" x1="63.75" y1="50.49" x2="62.86" y2="77.24" gradientTransform="translate(-9.68 11.97) rotate(-12.13)" gradientUnits="userSpaceOnUse">
      <stop offset=".18" stop-color="#fff"/>
      <stop offset=".2" stop-color="#fcfdf5"/>
      <stop offset=".32" stop-color="#ecf3c2"/>
      <stop offset=".43" stop-color="#dfeb96"/>
      <stop offset=".54" stop-color="#d5e471"/>
      <stop offset=".66" stop-color="#ccde55"/>
      <stop offset=".77" stop-color="#c6db41"/>
      <stop offset=".89" stop-color="#c3d835"/>
      <stop offset="1" stop-color="#c2d832"/>
    </linearGradient>
  </defs>
  <g>
    <path d="M42.04,30.19l7.47-17.49-16.33,9.76-14.32-12.51,4.23,18.54-16.33,9.76,18.94,1.7,4.23,18.54,7.47-17.49,18.94,1.7-14.32-12.51ZM36.03,38.44l-5.3,12.4-3-13.15-13.43-1.21,11.58-6.92-3-13.15,10.16,8.87,11.58-6.92-5.3,12.4,10.16,8.87-13.43-1.21Z"/>
    <path d="M36.85,31.54l3.73-8.73-8.15,4.87-7.15-6.25,2.11,9.26-8.15,4.87,9.46.85,2.11,9.26,3.73-8.73,9.46.85-7.15-6.25ZM33.85,35.66l-2.65,6.19-1.5-6.56-6.71-.6,5.78-3.45-1.5-6.56,5.07,4.43,5.78-3.45-2.65,6.19,5.07,4.43-6.71-.6Z"/>
  </g>
  <path class="cls-2" d="M46.86,88.95c18.27,10.51,40.69-4.98,40.69-4.98,0,0-1.91-55.98-2.18-57.23-26.09-2.91-50.89,5.34-50.89,5.34l12.38,56.87Z"/>
  <g>
    <path d="M67.43,92.25l.12-.41c-.48.33-.76.38-1.33.24l.26.34-1.82.23.04-.3c-.46.29-.74.43-1.28.23l-.07.22-3.05.04c-.96-1.92,2.2-2.21,1.63-.08.37-.35.87-.44,1.33-.24-.02-.21-.22-.29-.28-.49-.34-1.06,1.1-1.75,1.69-.88.3.44.18.62.11,1.1.37-.35.87-.44,1.33-.24-.02-.21-.22-.29-.28-.49-.34-1.06,1.1-1.75,1.69-.88.3.44.18.62.11,1.1.37-.35.87-.44,1.33-.24-.02-.21-.22-.29-.28-.49-.34-1.06,1.1-1.75,1.69-.88.3.44.18.62.11,1.1.37-.35.87-.44,1.33-.24.04-.08-.57-.6-.22-1.27.84-1.61,3.08.89.97,1.34-.22.05-.47-.03-.58,0-.06.01-.01.18-.08.21-.17.08-1.46.42-1.53.38l.04-.3c-.48.33-.76.38-1.33.24l.16.36-1.8.33Z"/>
    <circle cx="73.6" cy="88.48" r=".94"/>
    <circle cx="70.75" cy="89" r=".94"/>
    <circle cx="67.91" cy="89.52" r=".94"/>
    <circle cx="65.06" cy="90.04" r=".94"/>
    <circle cx="59.37" cy="91.07" r=".94"/>
    <circle cx="62.22" cy="90.56" r=".94"/>
    <circle cx="76.44" cy="87.96" r=".94"/>
    <circle cx="79.29" cy="87.44" r=".94"/>
    <circle cx="56.53" cy="91.59" r=".94"/>
    <circle cx="66.23" cy="88.35" r=".91"/>
    <circle cx="83.29" cy="85.24" r=".91"/>
    <circle cx="60.54" cy="89.39" r=".91"/>
    <circle cx="80.45" cy="85.76" r=".91"/>
    <circle cx="77.61" cy="86.28" r=".91"/>
    <circle cx="69.07" cy="87.84" r=".91"/>
    <circle cx="74.76" cy="86.8" r=".91"/>
    <circle cx="71.92" cy="87.32" r=".91"/>
    <circle cx="54.85" cy="90.43" r=".91"/>
    <circle cx="57.69" cy="89.91" r=".91"/>
    <circle cx="63.38" cy="88.87" r=".91"/>
    <circle cx="53.16" cy="89.27" r=".9"/>
    <circle cx="58.85" cy="88.23" r=".9"/>
    <circle cx="50.32" cy="89.79" r=".9"/>
    <circle cx="56.01" cy="88.75" r=".9"/>
    <circle cx="60.02" cy="86.55" r=".87"/>
    <circle cx="75.92" cy="85.11" r=".87"/>
    <circle cx="48.64" cy="88.62" r=".87"/>
    <circle cx="51.48" cy="88.1" r=".87"/>
    <circle cx="54.33" cy="87.59" r=".87"/>
    <circle cx="62.86" cy="86.03" r=".87"/>
    <circle cx="57.17" cy="87.07" r=".87"/>
    <circle cx="64.54" cy="87.19" r=".87"/>
    <circle cx="84.46" cy="83.56" r=".87"/>
    <circle cx="81.61" cy="84.08" r=".87"/>
    <circle cx="78.77" cy="84.6" r=".87"/>
    <circle cx="73.08" cy="85.63" r=".87"/>
    <circle cx="70.23" cy="86.15" r=".87"/>
    <circle cx="67.39" cy="86.67" r=".87"/>
    <circle cx="61.7" cy="87.71" r=".87"/>
    <circle cx="77.09" cy="83.43" r=".86"/>
    <circle cx="71.4" cy="84.47" r=".86"/>
    <circle cx="68.55" cy="84.99" r=".86"/>
    <circle cx="65.71" cy="85.51" r=".86"/>
    <circle cx="74.24" cy="83.95" r=".86"/>
    <path d="M76.27,89.75l-1.58.58c-.69-.34-.31-1.42.29-1.61s1.32.36,1.3,1.03Z"/>
    <circle cx="85.62" cy="81.87" r=".84"/>
    <circle cx="82.78" cy="82.39" r=".84"/>
    <circle cx="79.93" cy="82.91" r=".84"/>
    <circle cx="52.64" cy="86.42" r=".84"/>
    <circle cx="49.8" cy="86.94" r=".84"/>
    <circle cx="66.87" cy="83.83" r=".83"/>
    <circle cx="64.02" cy="84.35" r=".83"/>
    <circle cx="61.18" cy="84.87" r=".83"/>
    <circle cx="58.33" cy="85.38" r=".83"/>
    <circle cx="55.49" cy="85.9" r=".83"/>
    <path d="M51.54,90.17c1.27-.54,1.67,1,1.16,1.39-.18.13-1.26-.35-1.51-.47-.22-.3.02-.78.35-.92Z"/>
    <circle cx="75.4" cy="82.27" r=".8"/>
    <circle cx="50.96" cy="85.26" r=".8"/>
    <circle cx="53.81" cy="84.74" r=".8"/>
    <circle cx="81.09" cy="81.23" r=".8"/>
    <circle cx="78.25" cy="81.75" r=".8"/>
    <circle cx="72.56" cy="82.79" r=".8"/>
    <circle cx="69.71" cy="83.31" r=".8"/>
    <circle cx="83.94" cy="80.71" r=".8"/>
    <circle cx="48.12" cy="85.78" r=".8"/>
    <circle cx="60.66" cy="82.02" r=".78"/>
    <circle cx="49.28" cy="84.1" r=".78"/>
    <circle cx="79.41" cy="80.07" r=".78"/>
    <circle cx="56.65" cy="84.22" r=".78"/>
    <circle cx="59.5" cy="83.7" r=".78"/>
    <circle cx="62.34" cy="83.18" r=".78"/>
    <circle cx="65.19" cy="82.66" r=".78"/>
    <circle cx="82.26" cy="79.55" r=".78"/>
    <circle cx="68.03" cy="82.15" r=".78"/>
    <circle cx="70.88" cy="81.63" r=".78"/>
    <circle cx="73.72" cy="81.11" r=".78"/>
    <circle cx="76.57" cy="80.59" r=".78"/>
    <circle cx="85.1" cy="79.03" r=".78"/>
    <circle cx="57.82" cy="82.54" r=".78"/>
    <circle cx="54.97" cy="83.06" r=".78"/>
    <circle cx="52.13" cy="83.58" r=".78"/>
    <path d="M46.68,86.64c.42-.15,1.01.19,1.12.62.19.78-.98,1.44-1.22.8-.14-.37-.36-1.26.11-1.42Z"/>
    <path d="M86.34,79.51c.27-.14.8-.19.98.1.08.14.09,1.18-.08,1.27-1.05.59-1.69-.97-.9-1.37Z"/>
    <circle cx="80.57" cy="78.39" r=".76"/>
    <circle cx="77.73" cy="78.91" r=".76"/>
    <circle cx="74.89" cy="79.42" r=".76"/>
    <circle cx="72.04" cy="79.94" r=".76"/>
    <circle cx="63.51" cy="81.5" r=".76"/>
    <path d="M46.09,83.92c1.25-.51,1.62,1.52.27,1.48-.56-.02-.79-1.27-.27-1.48Z"/>
    <circle cx="66.35" cy="80.98" r=".76"/>
    <circle cx="69.2" cy="80.46" r=".76"/>
    <circle cx="83.42" cy="77.87" r=".74"/>
    <circle cx="50.44" cy="82.41" r=".74"/>
    <circle cx="47.6" cy="82.93" r=".74"/>
    <circle cx="86.26" cy="77.35" r=".74"/>
    <circle cx="67.51" cy="79.3" r=".73"/>
    <circle cx="64.67" cy="79.82" r=".73"/>
    <circle cx="53.29" cy="81.9" r=".73"/>
    <circle cx="61.82" cy="80.34" r=".73"/>
    <circle cx="56.13" cy="81.38" r=".73"/>
    <circle cx="58.98" cy="80.86" r=".73"/>
    <path d="M81.35,87.45c-.62-1.21,1.09-2.1,1.6-.84l-1.6.84Z"/>
    <circle cx="81.74" cy="76.7" r=".72"/>
    <circle cx="73.2" cy="78.26" r=".72"/>
    <circle cx="78.89" cy="77.22" r=".72"/>
    <circle cx="76.05" cy="77.74" r=".72"/>
    <circle cx="70.36" cy="78.78" r=".72"/>
    <circle cx="68.68" cy="77.62" r=".7"/>
    <circle cx="71.52" cy="77.1" r=".7"/>
    <circle cx="84.58" cy="76.19" r=".7"/>
    <circle cx="45.92" cy="81.77" r=".7"/>
    <circle cx="48.76" cy="81.25" r=".7"/>
    <circle cx="51.61" cy="80.73" r=".7"/>
    <circle cx="54.45" cy="80.21" r=".7"/>
    <circle cx="57.3" cy="79.7" r=".7"/>
    <circle cx="60.14" cy="79.18" r=".7"/>
    <circle cx="62.99" cy="78.66" r=".7"/>
    <circle cx="65.83" cy="78.14" r=".7"/>
    <path d="M86.93,82.24c.15-.06.43-.14.51.04-.07.57.4,2.25-.66,1.44-.53-.4-.44-1.24.15-1.48Z"/>
    <circle cx="85.74" cy="74.5" r=".68"/>
    <circle cx="82.9" cy="75.02" r=".68"/>
    <circle cx="47.08" cy="80.09" r=".68"/>
    <circle cx="74.37" cy="76.58" r=".68"/>
    <circle cx="77.21" cy="76.06" r=".68"/>
    <circle cx="80.06" cy="75.54" r=".68"/>
    <path d="M86.65,83.98c.08.05.34.32.3.4l-1.6.88c-.44-.88.46-1.83,1.3-1.28Z"/>
    <path d="M59.19,92.77c-.04.06-1.27-.07-1.46-.1-.35-.05-.66-.05-.3-.5.59-.74,1.73-.33,1.77.6Z"/>
    <circle cx="78.37" cy="74.38" r=".66"/>
    <circle cx="75.53" cy="74.9" r=".66"/>
    <circle cx="72.68" cy="75.42" r=".66"/>
    <circle cx="69.84" cy="75.94" r=".66"/>
    <circle cx="66.99" cy="76.46" r=".66"/>
    <circle cx="64.15" cy="76.97" r=".66"/>
    <circle cx="61.3" cy="77.49" r=".66"/>
    <circle cx="58.46" cy="78.01" r=".66"/>
    <circle cx="55.61" cy="78.53" r=".66"/>
    <circle cx="52.77" cy="79.05" r=".66"/>
    <circle cx="49.92" cy="79.57" r=".66"/>
    <circle cx="81.22" cy="73.86" r=".66"/>
    <circle cx="51.09" cy="77.89" r=".64"/>
    <circle cx="84.06" cy="73.34" r=".64"/>
    <circle cx="45.4" cy="78.93" r=".64"/>
    <circle cx="48.24" cy="78.41" r=".64"/>
    <circle cx="53.93" cy="77.37" r=".64"/>
    <circle cx="56.78" cy="76.85" r=".64"/>
    <path d="M78.93,88.68l-1.73.71c-.19-1.1,1.13-1.74,1.73-.71Z"/>
    <circle cx="68.16" cy="74.77" r=".61"/>
    <circle cx="71" cy="74.25" r=".61"/>
    <circle cx="59.62" cy="76.33" r=".61"/>
    <circle cx="62.47" cy="75.81" r=".61"/>
    <circle cx="65.31" cy="75.29" r=".61"/>
    <circle cx="52.25" cy="76.21" r=".6"/>
    <circle cx="49.41" cy="76.73" r=".6"/>
    <circle cx="46.56" cy="77.24" r=".6"/>
    <circle cx="85.23" cy="71.66" r=".6"/>
    <circle cx="82.38" cy="72.18" r=".6"/>
    <circle cx="79.54" cy="72.7" r=".6"/>
    <circle cx="76.69" cy="73.22" r=".6"/>
    <circle cx="73.85" cy="73.74" r=".6"/>
    <circle cx="55.1" cy="75.69" r=".6"/>
    <circle cx="57.94" cy="75.17" r=".6"/>
    <circle cx="60.78" cy="74.65" r=".6"/>
    <path d="M54.67,92.13l-.85-.15c-.14-.11-.95-.15-.91-.36.15-.81,1.85-.42,1.76.51Z"/>
    <circle cx="47.72" cy="75.56" r=".58"/>
    <circle cx="44.88" cy="76.08" r=".58"/>
    <circle cx="86.39" cy="69.98" r=".58"/>
    <circle cx="83.54" cy="70.5" r=".58"/>
    <circle cx="80.7" cy="71.01" r=".58"/>
    <circle cx="50.57" cy="75.04" r=".58"/>
    <circle cx="75.01" cy="72.05" r=".58"/>
    <circle cx="72.16" cy="72.57" r=".58"/>
    <circle cx="69.32" cy="73.09" r=".58"/>
    <circle cx="66.47" cy="73.61" r=".58"/>
    <circle cx="63.63" cy="74.13" r=".58"/>
    <circle cx="77.85" cy="71.53" r=".58"/>
    <circle cx="56.26" cy="74" r=".55"/>
    <circle cx="53.41" cy="74.52" r=".55"/>
    <circle cx="67.64" cy="71.93" r=".53"/>
    <circle cx="64.79" cy="72.45" r=".53"/>
    <circle cx="61.95" cy="72.97" r=".53"/>
    <circle cx="59.1" cy="73.49" r=".53"/>
    <circle cx="70.48" cy="71.41" r=".53"/>
    <path d="M87.09,72.2l.03,1.27c-1.12.11-1.16-1.39-.03-1.27Z"/>
    <circle cx="73.33" cy="70.89" r=".51"/>
    <circle cx="84.71" cy="68.81" r=".51"/>
    <circle cx="57.42" cy="72.32" r=".51"/>
    <circle cx="60.27" cy="71.8" r=".51"/>
    <circle cx="46.04" cy="74.4" r=".51"/>
    <circle cx="48.89" cy="73.88" r=".51"/>
    <circle cx="51.73" cy="73.36" r=".51"/>
    <circle cx="54.58" cy="72.84" r=".51"/>
    <circle cx="63.11" cy="71.28" r=".51"/>
    <circle cx="76.17" cy="70.37" r=".51"/>
    <circle cx="79.02" cy="69.85" r=".51"/>
    <circle cx="81.86" cy="69.33" r=".51"/>
    <circle cx="68.8" cy="70.25" r=".49"/>
    <circle cx="65.96" cy="70.77" r=".49"/>
    <circle cx="83.03" cy="67.65" r=".49"/>
    <circle cx="74.49" cy="69.21" r=".49"/>
    <circle cx="80.18" cy="68.17" r=".49"/>
    <circle cx="77.34" cy="68.69" r=".49"/>
    <circle cx="71.65" cy="69.73" r=".49"/>
    <circle cx="44.36" cy="73.24" r=".47"/>
    <circle cx="47.2" cy="72.72" r=".47"/>
    <circle cx="85.87" cy="67.13" r=".47"/>
    <circle cx="55.74" cy="71.16" r=".47"/>
    <circle cx="52.89" cy="71.68" r=".47"/>
    <circle cx="50.05" cy="72.2" r=".47"/>
    <circle cx="58.58" cy="70.64" r=".45"/>
    <circle cx="61.43" cy="70.12" r=".45"/>
    <circle cx="64.27" cy="69.6" r=".45"/>
    <circle cx="67.12" cy="69.08" r=".45"/>
    <circle cx="75.65" cy="67.53" r=".45"/>
    <circle cx="72.81" cy="68.04" r=".45"/>
    <circle cx="69.96" cy="68.56" r=".45"/>
    <circle cx="84.19" cy="65.97" r=".43"/>
    <circle cx="81.34" cy="66.49" r=".43"/>
    <circle cx="78.5" cy="67.01" r=".43"/>
    <circle cx="48.37" cy="71.04" r=".43"/>
    <circle cx="45.52" cy="71.55" r=".43"/>
    <circle cx="85.35" cy="64.29" r=".39"/>
    <circle cx="79.66" cy="65.33" r=".39"/>
    <circle cx="76.82" cy="65.84" r=".39"/>
    <circle cx="71.13" cy="66.88" r=".39"/>
    <circle cx="43.84" cy="70.39" r=".39"/>
    <circle cx="68.28" cy="67.4" r=".39"/>
    <circle cx="65.44" cy="67.92" r=".39"/>
    <circle cx="62.59" cy="68.44" r=".39"/>
    <circle cx="59.75" cy="68.96" r=".39"/>
    <circle cx="56.9" cy="69.48" r=".39"/>
    <circle cx="54.06" cy="70" r=".39"/>
    <circle cx="51.21" cy="70.52" r=".39"/>
    <circle cx="46.69" cy="69.87" r=".39"/>
    <circle cx="73.97" cy="66.36" r=".39"/>
    <circle cx="82.51" cy="64.81" r=".39"/>
    <path d="M87.21,75.02c-.06.31,0,.63,0,.95,0,.07.12.4-.1.35-.46-.12-.52-1.23.11-1.29Z"/>
    <circle cx="52.38" cy="68.83" r=".37"/>
    <circle cx="49.53" cy="69.35" r=".37"/>
    <circle cx="63.75" cy="66.76" r=".37"/>
    <circle cx="60.91" cy="67.28" r=".37"/>
    <circle cx="58.07" cy="67.8" r=".37"/>
    <circle cx="55.22" cy="68.32" r=".37"/>
    <circle cx="50.69" cy="67.67" r=".31"/>
    <circle cx="47.85" cy="68.19" r=".31"/>
    <circle cx="45" cy="68.71" r=".31"/>
    <circle cx="59.23" cy="66.11" r=".31"/>
    <circle cx="56.38" cy="66.63" r=".31"/>
    <circle cx="83.67" cy="63.12" r=".31"/>
    <circle cx="80.82" cy="63.64" r=".31"/>
    <circle cx="77.98" cy="64.16" r=".31"/>
    <circle cx="75.13" cy="64.68" r=".31"/>
    <circle cx="72.29" cy="65.2" r=".31"/>
    <circle cx="69.44" cy="65.72" r=".31"/>
    <circle cx="53.54" cy="67.15" r=".31"/>
    <circle cx="66.6" cy="66.24" r=".31"/>
    <polygon points="86.65 62.29 86.75 62.86 86.36 62.88 86.26 62.79 86.23 62.45 86.65 62.29"/>
  </g>
  <path class="cls-1" d="M46.86,88.95c17.94,11.08,40.69-4.98,40.69-4.98,0,0-1.95-55.97-2.18-57.23-25.99-3.72-50.89,5.34-50.89,5.34l12.38,56.87Z"/>
</svg>