<?xml version="1.0" encoding="UTF-8"?>
<svg id="icons" xmlns="http://www.w3.org/2000/svg" viewBox="0 0 100 100">
  <defs>
    <style>
      .cls-1 {
        fill: #4a5a2d;
      }

      .cls-1, .cls-2 {
        stroke: #000;
        stroke-miterlimit: 10;
      }

      .cls-2 {
        fill: #c2d832;
      }
    </style>
  </defs>
  <polygon class="cls-1" points="22.95 29.1 81.81 27.2 81.6 72.81 28.7 71.15 22.95 29.1"/>
  <polygon class="cls-2" points="28.67 71.85 21.95 32.6 49.82 31.17 54.63 39.21 82.8 37.97 82.46 72.84 28.67 71.85"/>
  <g>
    <path d="M36.25,74.29l14.34-5.98-15.11-3.59-1.26-15.48-8.08,13.26-15.11-3.59,10.12,11.79-8.08,13.26,14.34-5.98,10.12,11.79-1.26-15.48ZM28.02,75.7l-10.16,4.24,5.73-9.4-7.17-8.36,10.71,2.55,5.73-9.4.89,10.98,10.71,2.55-10.16,4.24.89,10.98-7.17-8.36Z"/>
    <path d="M32.44,72.13l7.16-2.99-7.55-1.79-.63-7.73-4.04,6.62-7.55-1.79,5.05,5.89-4.04,6.62,7.16-2.99,5.05,5.89-.63-7.73ZM28.33,72.83l-5.08,2.12,2.86-4.7-3.58-4.17,5.35,1.27,2.86-4.7.44,5.48,5.35,1.27-5.08,2.12.44,5.48-3.58-4.17Z"/>
  </g>
</svg>