<?xml version="1.0" encoding="UTF-8"?>
<svg id="icons" xmlns="http://www.w3.org/2000/svg" viewBox="0 0 100 100">
  <defs>
    <style>
      .cls-1, .cls-2, .cls-3, .cls-4, .cls-5, .cls-6 {
        stroke: #000;
        stroke-miterlimit: 10;
      }

      .cls-2 {
        fill: #d3d3d3;
      }

      .cls-3 {
        fill: #969696;
      }

      .cls-4 {
        fill: #515251;
      }

      .cls-5 {
        fill: #c2d832;
      }

      .cls-6 {
        fill: #e0e0e0;
      }
    </style>
  </defs>
  <g>
    <polygon class="cls-2" points="77.42 73.73 40.36 82.78 27.25 44.63 65.42 38.19 77.42 73.73"/>
    <polygon class="cls-3" points="77.42 73.73 66.46 76.19 73.31 61.94 77.42 73.73"/>
    <polygon class="cls-6" points="73.4 61.63 66.46 76.19 66.22 59.31 73.4 61.63"/>
    <polygon class="cls-3" points="27.5 48.51 28.19 56.26 38.3 88.15 40.37 82.98 27.5 48.51"/>
    <polygon class="cls-3" points="74.65 78.92 77.15 73.58 40.36 82.78 39.03 89.01 74.65 78.92"/>
  </g>
  <path class="cls-4" d="M62.8,33.72l-2.98,9.12c-.11.33.35.55.54.26l5.11-7.86c.09-.14.05-.34-.1-.42l-2.13-1.25c-.17-.1-.38-.02-.44.17Z"/>
  <path class="cls-5" d="M58.13,29.79s5.79,8.83,14.25,4.46c.42-1.06.9-5.1-1.08-6.03.15-.55,2.98-8.96,2.98-8.96,0,0,9.79-1.4-2.18-6.21-1.98-.72-11.71-3.18-5.86,3.44-.16.9-3.03,9.02-3.03,9.02,0,0-3.96-.76-5.08,4.27Z"/>
  <g>
    <polygon class="cls-1" points="24.85 15.68 16.87 22.23 16.87 30.35 24.85 23.8 32.83 30.35 32.83 22.23 24.85 15.68"/>
    <polygon class="cls-1" points="24.85 28.43 16.87 34.99 16.87 43.11 24.85 36.55 32.83 43.11 32.83 34.99 24.85 28.43"/>
    <polygon class="cls-1" points="24.85 40.59 16.87 47.14 16.87 55.26 24.85 48.71 32.83 55.26 32.83 47.14 24.85 40.59"/>
  </g>
</svg>