<?xml version="1.0" encoding="UTF-8"?>
<svg id="icons" xmlns="http://www.w3.org/2000/svg" viewBox="0 0 100 100">
  <defs>
    <style>
      .cls-1 {
        fill: none;
      }

      .cls-1, .cls-2, .cls-3, .cls-4, .cls-5 {
        stroke: #000;
        stroke-miterlimit: 10;
      }

      .cls-2 {
        fill: #231f20;
      }

      .cls-3 {
        fill: #fff;
      }

      .cls-4 {
        fill: #848484;
      }

      .cls-5 {
        fill: #c2d832;
      }
    </style>
  </defs>
  <g>
    <g>
      <circle class="cls-2" cx="30.78" cy="37.18" r="8.74"/>
      <circle class="cls-2" cx="46.37" cy="27.81" r="13.81"/>
      <circle class="cls-1" cx="30.88" cy="36.71" r="12.58"/>
      <circle class="cls-1" cx="46.39" cy="27.73" r="17.6"/>
    </g>
    <circle class="cls-3" cx="46.36" cy="27.86" r="12.39"/>
    <circle class="cls-3" cx="30.78" cy="37.18" r="7.62"/>
    <circle class="cls-3" cx="46.39" cy="27.73" r="9.38"/>
    <circle class="cls-3" cx="30.76" cy="37.29" r="4.97"/>
  </g>
  <g>
    <g>
      <circle class="cls-2" cx="66.96" cy="61.18" r="9.15"/>
      <circle class="cls-1" cx="66.96" cy="60.98" r="13.16"/>
    </g>
    <circle class="cls-3" cx="66.96" cy="61.18" r="7.97"/>
  </g>
  <path class="cls-4" d="M62.71,79.05l-5.49-5.71c.6-.96,1.14-1.97,1.6-3.04,1.66-3.82,2.2-7.84,1.78-11.7l7.12-2.86-4.41-10.98-6.97,2.8c-2.19-3.03-5.14-5.55-8.72-7.27l1.38-7.29-11.62-2.2-1.38,7.28c-3.46.25-6.81,1.28-9.8,2.98l-5.18-5.39-8.53,8.2,5.3,5.51c-.47.8-.91,1.64-1.29,2.52-1.75,4.03-2.26,8.29-1.7,12.34l-7.32,2.94,4.41,10.98,7.47-3c2.15,2.8,4.97,5.14,8.35,6.76l-1.52,8.01,11.62,2.2,1.52-8.01c3.25-.24,6.4-1.16,9.25-2.69l5.6,5.83,8.53-8.2ZM28.72,58.48c2.04-4.68,7.48-6.83,12.17-4.79s6.83,7.48,4.79,12.17-7.48,6.83-12.17,4.79-6.83-7.48-4.79-12.17Z"/>
  <path class="cls-5" d="M86,20.98l-4.36,2.14c-.45-.53-.94-1.03-1.48-1.5-1.92-1.68-4.17-2.74-6.5-3.21l-.34-4.69-7.23.53.34,4.59c-2.17.71-4.2,1.97-5.87,3.74l-4-2.16-3.45,6.38,4,2.16c-.5,2.07-.52,4.22-.08,6.28l-4.12,2.02,3.2,6.51,4.2-2.07c.38.43.79.84,1.23,1.22,2.03,1.77,4.42,2.86,6.89,3.29l.35,4.82,7.23-.53-.36-4.92c2.04-.73,3.93-1.94,5.5-3.62l4.4,2.38,3.45-6.38-4.4-2.38c.47-1.94.51-3.96.15-5.9l4.45-2.19-3.2-6.51ZM67.66,37.02c-2.36-2.06-2.6-5.64-.54-8s5.64-2.6,8-.54,2.6,5.64.54,8-5.64,2.6-8,.54Z"/>
</svg>