<?xml version="1.0" encoding="UTF-8"?>
<svg id="icons" xmlns="http://www.w3.org/2000/svg" viewBox="0 0 100 100">
  <defs>
    <style>
      .cls-1 {
        fill: #c2d832;
      }

      .cls-1, .cls-2, .cls-3, .cls-4, .cls-5, .cls-6 {
        stroke-miterlimit: 10;
      }

      .cls-1, .cls-3, .cls-4, .cls-5, .cls-6 {
        stroke: #231f20;
      }

      .cls-7 {
        fill: #231f20;
      }

      .cls-2 {
        fill: none;
        stroke: #000;
        stroke-width: 2px;
      }

      .cls-3 {
        fill: #4a5a2d;
      }

      .cls-4 {
        fill: #818181;
      }

      .cls-5 {
        fill: #686868;
      }

      .cls-6 {
        fill: #4c4c4c;
      }
    </style>
  </defs>
  <g>
    <polyline class="cls-2" points="61.04 13.67 30.93 13.67 30.93 36.22"/>
    <polygon points="22.75 29.59 24.21 28.22 30.93 35.45 37.64 28.22 39.11 29.59 30.93 38.38 22.75 29.59"/>
  </g>
  <g>
    <polygon class="cls-4" points="93.44 58.19 34.21 79.73 3.83 59.65 59.36 37.29 93.44 58.19"/>
    <polygon class="cls-5" points="93.44 58.19 34.21 79.73 34.25 90.57 93.44 67.12 93.44 58.19"/>
    <polygon class="cls-6" points="34.21 90.17 4.89 70.53 3.83 59.65 34.21 79.86 34.21 90.17"/>
  </g>
  <path class="cls-3" d="M17.71,59.92s24.14,19.57,59.2-.4c-.11-.13-2.47-10.69-2.47-10.69H19.39l-1.68,11.1Z"/>
  <ellipse class="cls-1" cx="46.91" cy="48.82" rx="27.52" ry="9.36"/>
  <path class="cls-7" d="M48.62,44.41c1.98.14,3.96.43,5.83,1.13,1.27.47,2.78,1.16,3.48,2.38,1.53,2.65-3.02,4.18-4.77,4.63-3.2.82-6.65.88-9.9.33-2.05-.35-7.81-1.69-6.77-4.8.41-1.23-1.76-1.29-2.09-.3-1.03,3.1,2.19,5.02,4.69,5.9,3.04,1.07,6.38,1.38,9.59,1.2s6.71-.82,9.42-2.65c1.91-1.29,3.19-3.6,1.57-5.65-2.27-2.89-6.91-3.6-10.32-3.84-.52-.04-1.2.14-1.41.68-.19.48.18.95.68.99h0Z"/>
  <path class="cls-7" d="M47.83,47.52c-1.94-1.22-3.87-2.43-5.81-3.65l-.81-.51c-.4-.25-1.01-.12-1.42.05-.14.06-1,.5-.62.74,1.94,1.22,3.87,2.43,5.81,3.65l.81.51c.4.25,1.01.12,1.42-.05.14-.06,1-.5.62-.74h0Z"/>
  <path d="M71.84,38.09l-3.65-2.62,6.96-11.4-11.63-4.56,1.48-4.33,12.09,3.31.91-13.11h4.56l.91,13,12.2-3.19,1.37,4.33-11.63,4.56,7.07,11.4-3.76,2.62-8.32-10.49-8.55,10.49Z"/>
</svg>