<?xml version="1.0" encoding="UTF-8"?>
<svg id="icons" xmlns="http://www.w3.org/2000/svg" viewBox="0 0 100 100">
  <defs>
    <style>
      .cls-1 {
        fill: none;
      }

      .cls-1, .cls-2, .cls-3, .cls-4, .cls-5 {
        stroke-miterlimit: 10;
      }

      .cls-1, .cls-3, .cls-4, .cls-5 {
        stroke: #000;
      }

      .cls-2 {
        stroke: #231f20;
      }

      .cls-2, .cls-6 {
        fill: #c2d832;
      }

      .cls-3 {
        fill: #231f20;
      }

      .cls-4 {
        fill: #fff;
      }

      .cls-7 {
        fill: #4a5a2d;
      }
    </style>
  </defs>
  <g>
    <path class="cls-6" d="M34.9,29.79l.76,1.33,1.46-.49c-.58-.41-.85-1.53-.28-2.02,1.26-1.09,2.81.3,1.98,1.68l-1.26.56c.39.41.69.87.66,1.46,1.39-1.43,3.39.71,1.87,1.94-.49.4-.69.14-1.22.28.74.5,1.07,1.48.4,2.18-.88.91-2.31.37-2.33-.89l-1.29.49c1.36,2.55-2.62,3.43-2.42.58l-.77.68c-.73.15-1.29-.07-1.73-.66l-.12-1.02c-1.71,1.87-3.54-1.24-1.43-1.87.99-.3,1.74.74,1.51,1.67l.65-.63,1.02-.12c-.1-.32-.47-.36-.63-.65-.13-.25-.04-.57-.2-.82-.71.4-1.24.61-1.94.08-.75-.99-.36-2.02.86-2.25.87.08,1.12.58,1.39,1.36l1.26-.56c-.87-1.39-.11-2.33,1.41-2.47-1.98-1.94,1.64-3.55,1.91-1.18.1.85-.76,1.3-1.51,1.33ZM35.27,32.13l-1.12.5c.4.26.35.56.44.98l1.18-.36-.5-1.12ZM34.06,34.68c-.37.53-.96.44-1.52.34l.68.77.07.9,1.13-.84-.36-1.18ZM37.9,33.14l-1.32.42c.4.45.57.79.62,1.4.44-.44.85-.53,1.46-.48-.4-.48-.77-.61-.76-1.33Z"/>
    <circle class="cls-6" cx="37.25" cy="38.45" r="1.24"/>
    <circle class="cls-6" cx="31.46" cy="29.98" r="1.24"/>
    <circle class="cls-6" cx="40.41" cy="30.51" r="1.2"/>
    <circle class="cls-6" cx="33.56" cy="39.93" r="1.18"/>
    <circle class="cls-6" cx="40.88" cy="36.83" r="1.18"/>
    <circle class="cls-6" cx="32.53" cy="27.5" r="1.16"/>
    <circle class="cls-6" cx="41.89" cy="34.2" r="1.16"/>
    <circle class="cls-6" cx="30.94" cy="38.93" r="1.16"/>
    <circle class="cls-6" cx="39.88" cy="39.46" r="1.11"/>
    <circle class="cls-6" cx="28.84" cy="28.98" r="1.11"/>
    <circle class="cls-6" cx="36.16" cy="25.88" r="1.11"/>
    <circle class="cls-6" cx="36.19" cy="40.94" r="1.11"/>
    <circle class="cls-6" cx="27.83" cy="31.61" r="1.11"/>
    <circle class="cls-6" cx="38.79" cy="26.88" r="1.11"/>
    <circle class="cls-6" cx="26.83" cy="34.23" r="1.08"/>
    <circle class="cls-6" cx="28.31" cy="37.92" r="1.08"/>
    <circle class="cls-6" cx="42.89" cy="31.58" r="1.08"/>
    <circle class="cls-6" cx="41.41" cy="27.89" r="1.05"/>
    <circle class="cls-6" cx="33.54" cy="24.87" r="1.05"/>
    <circle class="cls-6" cx="29.91" cy="26.49" r="1.05"/>
    <circle class="cls-6" cx="38.88" cy="42.08" r="1.02"/>
    <circle class="cls-6" cx="43.51" cy="37.83" r="1.02"/>
    <circle class="cls-6" cx="29.93" cy="41.55" r="1.02"/>
    <circle class="cls-6" cx="32.56" cy="42.56" r="1.02"/>
    <circle class="cls-6" cx="44.52" cy="35.21" r="1"/>
    <circle class="cls-6" cx="35.18" cy="43.56" r=".97"/>
    <circle class="cls-6" cx="25.83" cy="36.85" r=".97"/>
    <circle class="cls-6" cx="26.21" cy="27.97" r=".95"/>
    <circle class="cls-6" cx="24.2" cy="33.23" r=".95"/>
    <circle class="cls-6" cx="39.79" cy="24.26" r=".95"/>
    <circle class="cls-6" cx="30.91" cy="23.87" r=".95"/>
    <circle class="cls-6" cx="44.04" cy="28.89" r=".95"/>
    <circle class="cls-6" cx="37.17" cy="23.25" r=".95"/>
    <circle class="cls-6" cx="27.31" cy="40.55" r=".95"/>
    <circle class="cls-6" cx="45.52" cy="32.58" r=".95"/>
    <circle class="cls-6" cx="42.51" cy="40.46" r=".95"/>
    <circle class="cls-6" cx="25.21" cy="30.6" r=".95"/>
    <circle class="cls-6" cx="41.5" cy="43.09" r=".91"/>
    <circle class="cls-6" cx="34.54" cy="22.25" r=".91"/>
    <circle class="cls-6" cx="37.81" cy="44.57" r=".91"/>
    <circle class="cls-6" cx="42.42" cy="25.26" r=".91"/>
    <circle class="cls-6" cx="27.22" cy="25.35" r=".91"/>
    <circle class="cls-6" cx="23.2" cy="35.85" r=".85"/>
    <circle class="cls-6" cx="46.52" cy="29.96" r=".85"/>
    <circle class="cls-6" cx="28.93" cy="44.18" r=".85"/>
    <circle class="cls-6" cx="47.14" cy="36.21" r=".85"/>
    <circle class="cls-6" cx="24.68" cy="39.54" r=".85"/>
    <circle class="cls-6" cx="31.55" cy="45.18" r=".85"/>
    <circle class="cls-6" cx="46.14" cy="38.84" r=".85"/>
    <circle class="cls-6" cx="40.5" cy="45.71" r=".81"/>
    <circle class="cls-6" cx="23.59" cy="26.97" r=".81"/>
    <circle class="cls-6" cx="28.28" cy="22.86" r=".81"/>
    <circle class="cls-6" cx="45.13" cy="41.47" r=".81"/>
    <circle class="cls-6" cx="34.18" cy="46.19" r=".81"/>
    <circle class="cls-6" cx="45.04" cy="26.27" r=".81"/>
    <circle class="cls-6" cx="48.15" cy="33.59" r=".81"/>
    <circle class="cls-6" cx="40.8" cy="21.63" r=".81"/>
    <circle class="cls-6" cx="26.3" cy="43.17" r=".81"/>
    <circle class="cls-6" cx="22.58" cy="29.6" r=".81"/>
    <circle class="cls-6" cx="31.91" cy="21.24" r=".81"/>
    <circle class="cls-6" cx="38.17" cy="20.63" r=".81"/>
    <circle class="cls-6" cx="44.13" cy="44.09" r=".78"/>
    <circle class="cls-6" cx="36.8" cy="47.19" r=".78"/>
    <circle class="cls-6" cx="43.42" cy="22.63" r=".78"/>
    <circle class="cls-6" cx="22.19" cy="38.48" r=".78"/>
    <circle class="cls-6" cx="24.59" cy="24.34" r=".78"/>
    <circle class="cls-6" cx="35.55" cy="19.62" r=".78"/>
    <circle class="cls-6" cx="47.53" cy="27.33" r=".78"/>
    <circle class="cls-6" cx="21.58" cy="32.22" r=".78"/>
    <circle class="cls-6" cx="29.29" cy="20.24" r=".75"/>
    <circle class="cls-6" cx="23.68" cy="42.17" r=".75"/>
    <circle class="cls-6" cx="49.15" cy="30.96" r=".75"/>
    <circle class="cls-6" cx="20.57" cy="34.85" r=".75"/>
    <circle class="cls-6" cx="33.17" cy="48.81" r=".71"/>
    <circle class="cls-6" cx="27.92" cy="46.8" r=".71"/>
    <circle class="cls-6" cx="32.92" cy="18.62" r=".71"/>
    <circle class="cls-6" cx="25.6" cy="21.72" r=".71"/>
    <circle class="cls-6" cx="49.77" cy="37.22" r=".71"/>
    <circle class="cls-6" cx="47.76" cy="42.47" r=".71"/>
    <circle class="cls-6" cx="30.55" cy="47.81" r=".71"/>
    <circle class="cls-6" cx="46.05" cy="23.64" r=".71"/>
    <circle class="cls-6" cx="48.76" cy="39.84" r=".71"/>
    <circle class="cls-6" cx="39.43" cy="48.2" r=".71"/>
    <circle class="cls-6" cx="43.12" cy="46.72" r=".71"/>
    <circle class="cls-6" cx="19.96" cy="28.59" r=".68"/>
    <circle class="cls-6" cx="41.8" cy="19" r=".68"/>
    <circle class="cls-6" cx="50.77" cy="34.59" r=".68"/>
    <circle class="cls-6" cx="25.3" cy="45.8" r=".68"/>
    <circle class="cls-6" cx="19.57" cy="37.47" r=".68"/>
    <circle class="cls-6" cx="39.17" cy="18" r=".68"/>
    <circle class="cls-6" cx="20.96" cy="25.96" r=".68"/>
    <circle class="cls-6" cx="50.15" cy="28.34" r=".68"/>
    <circle class="cls-6" cx="21.19" cy="41.1" r=".68"/>
    <circle class="cls-6" cx="35.8" cy="49.82" r=".68"/>
    <circle class="cls-6" cx="33.92" cy="15.99" r=".62"/>
    <circle class="cls-6" cx="21.97" cy="23.34" r=".62"/>
    <circle class="cls-6" cx="36.55" cy="17" r=".62"/>
    <circle class="cls-6" cx="18.95" cy="31.22" r=".62"/>
    <circle class="cls-6" cx="44.43" cy="20.01" r=".62"/>
    <circle class="cls-6" cx="17.95" cy="33.84" r=".62"/>
    <circle class="cls-6" cx="47.05" cy="21.01" r=".62"/>
    <circle class="cls-6" cx="18.56" cy="40.1" r=".62"/>
    <circle class="cls-6" cx="51.16" cy="25.71" r=".62"/>
    <circle class="cls-6" cx="20.05" cy="43.79" r=".62"/>
    <circle class="cls-6" cx="48.67" cy="24.64" r=".62"/>
    <circle class="cls-6" cx="50.38" cy="43.47" r=".62"/>
    <circle class="cls-6" cx="22.67" cy="44.8" r=".62"/>
    <circle class="cls-6" cx="51.78" cy="31.97" r=".62"/>
    <circle class="cls-6" cx="26.92" cy="49.43" r=".62"/>
    <circle class="cls-6" cx="52.39" cy="38.22" r=".62"/>
    <circle class="cls-6" cx="29.54" cy="50.44" r=".62"/>
    <circle class="cls-6" cx="51.39" cy="40.85" r=".62"/>
    <circle class="cls-6" cx="22.97" cy="20.71" r=".62"/>
    <circle class="cls-6" cx="32.17" cy="51.44" r=".62"/>
    <circle class="cls-6" cx="26.66" cy="19.23" r=".62"/>
    <circle class="cls-6" cx="30.29" cy="17.61" r=".62"/>
    <circle class="cls-6" cx="46.75" cy="45.1" r=".62"/>
    <circle class="cls-6" cx="38.42" cy="50.82" r=".62"/>
    <circle class="cls-6" cx="42.12" cy="49.34" r=".62"/>
    <circle class="cls-6" cx="45.75" cy="47.72" r=".62"/>
    <circle class="cls-6" cx="17.33" cy="27.59" r=".58"/>
    <circle class="cls-6" cx="52.78" cy="29.34" r=".58"/>
    <circle class="cls-6" cx="16.94" cy="36.47" r=".58"/>
    <circle class="cls-6" cx="53.4" cy="35.6" r=".58"/>
    <circle class="cls-6" cx="27.67" cy="16.61" r=".58"/>
    <circle class="cls-6" cx="18.34" cy="24.96" r=".58"/>
    <circle class="cls-6" cx="42.81" cy="16.38" r=".58"/>
    <circle class="cls-6" cx="23.98" cy="18.09" r=".58"/>
    <circle class="cls-6" cx="40.18" cy="15.37" r=".58"/>
    <circle class="cls-6" cx="31.3" cy="14.99" r=".58"/>
    <circle class="cls-6" cx="24.29" cy="48.43" r=".58"/>
    <circle class="cls-6" cx="16.33" cy="30.21" r=".58"/>
    <circle class="cls-6" cx="34.8" cy="52.44" r=".58"/>
    <circle class="cls-6" cx="49.68" cy="22.02" r=".58"/>
    <circle class="cls-6" cx="49.38" cy="46.1" r=".58"/>
    <circle class="cls-6" cx="41.05" cy="51.83" r=".58"/>
    <circle class="cls-6" cx="14.71" cy="26.58" r=".49"/>
    <circle class="cls-6" cx="37.55" cy="14.37" r=".49"/>
    <circle class="cls-6" cx="19.34" cy="22.34" r=".49"/>
    <circle class="cls-6" cx="15.71" cy="23.96" r=".49"/>
    <circle class="cls-6" cx="34.93" cy="13.36" r=".49"/>
    <circle class="cls-6" cx="20.34" cy="19.71" r=".49"/>
    <circle class="cls-6" cx="23.29" cy="51.05" r=".49"/>
    <circle class="cls-6" cx="56.02" cy="36.6" r=".49"/>
    <circle class="cls-6" cx="32.3" cy="12.36" r=".49"/>
    <circle class="cls-6" cx="14.93" cy="41.72" r=".49"/>
    <circle class="cls-6" cx="28.67" cy="13.98" r=".49"/>
    <circle class="cls-6" cx="25.04" cy="15.6" r=".49"/>
    <circle class="cls-6" cx="15.94" cy="39.09" r=".49"/>
    <circle class="cls-6" cx="25.91" cy="52.06" r=".49"/>
    <circle class="cls-6" cx="19.04" cy="46.42" r=".49"/>
    <circle class="cls-6" cx="55.02" cy="39.23" r=".49"/>
    <circle class="cls-6" cx="52.3" cy="23.02" r=".49"/>
    <circle class="cls-6" cx="55.41" cy="30.35" r=".49"/>
    <circle class="cls-6" cx="53.78" cy="26.72" r=".49"/>
    <circle class="cls-6" cx="17.56" cy="42.72" r=".49"/>
    <circle class="cls-6" cx="28.54" cy="53.06" r=".49"/>
    <circle class="cls-6" cx="50.68" cy="19.39" r=".49"/>
    <circle class="cls-6" cx="21.67" cy="47.42" r=".49"/>
    <circle class="cls-6" cx="54.01" cy="41.85" r=".49"/>
    <circle class="cls-6" cx="54.4" cy="32.97" r=".49"/>
    <circle class="cls-6" cx="45.43" cy="17.38" r=".49"/>
    <circle class="cls-6" cx="31.16" cy="54.07" r=".49"/>
    <circle class="cls-6" cx="14.32" cy="35.46" r=".49"/>
    <circle class="cls-6" cx="48.06" cy="18.39" r=".49"/>
    <circle class="cls-6" cx="21.35" cy="17.08" r=".49"/>
    <circle class="cls-6" cx="53.01" cy="44.48" r=".49"/>
    <circle class="cls-6" cx="15.32" cy="32.84" r=".49"/>
    <circle class="cls-6" cx="33.79" cy="55.07" r=".49"/>
    <circle class="cls-6" cx="37.42" cy="53.45" r=".49"/>
    <circle class="cls-6" cx="44.74" cy="50.35" r=".49"/>
    <circle class="cls-6" cx="48.37" cy="48.73" r=".49"/>
    <circle class="cls-6" cx="52" cy="47.1" r=".49"/>
    <circle class="cls-6" cx="40.05" cy="54.45" r=".49"/>
    <circle class="cls-6" cx="43.68" cy="52.83" r=".49"/>
    <circle class="cls-6" cx="47.37" cy="51.35" r=".49"/>
  </g>
  <g>
    <g>
      <circle class="cls-3" cx="63.69" cy="21.27" r="9.65"/>
      <circle class="cls-3" cx="77.66" cy="35.69" r="15.25"/>
      <circle class="cls-1" cx="63.67" cy="21.81" r="13.88"/>
      <circle class="cls-1" cx="77.65" cy="35.79" r="19.43"/>
    </g>
    <circle class="cls-4" cx="77.66" cy="35.64" r="13.68"/>
    <circle class="cls-4" cx="63.69" cy="21.27" r="8.41"/>
    <circle class="cls-4" cx="77.69" cy="34.97" r="10.35"/>
    <circle class="cls-4" cx="63.7" cy="21.15" r="5.48"/>
  </g>
  <g>
    <path class="cls-7" d="M35.99,78.93c.11-.03.49.03.61-.02.15-.06.41-.52.47-.08.04.32-.29.51-.28.54.01.08.63.56.68.68.05.14-.1.37-.11.53,0,.12.11.24.13.39.05.59-.35,1.04-.7,1.51-.25,0-1.4.61-1.51.55-.03-.02-.04-.32-.07-.4-.24.27-.68-.12-.89-.27-.15-.11-.26-.36-.36-.42-.03-.02-.11.12-.13.12-.41.04.03-.54.11-.89.05-.18-.05-.36.05-.55-.15-.1-.15.27-.33.32-.21.06-.33-.25-.49-.28-.1-.01-.75.54-.75.05,0-.41.69-.5.89-.41v-1.21s.31-2.09.31-2.09c.25.2.2.62.57.69.16-.06.07-1.06.56-.91.52.16,0,1.13-.31,1.46-.23.26-.41-.41-.66-.17.2.17.47.47.74.48.22,0,.46-.28.65-.07-.93,1.38.25.61.8.45Z"/>
    <path class="cls-7" d="M38.65,70.91c-.08.32.14.83.13,1.05,0,.2-.24.65-.14.77.27.34,1.08-.86,1.52-.91.24-.03.39.24.6-.22.18.35.15,1.27-.25,1.57-.21.15-1,.05-1.11.18s.06.35-.09.5c-.08-.11-.57-.6-.62-.59-.18.04-.43.64-.12.72-.52.24-.69-.16-1.08.56.39.38.47-.16.68-.24.41-.16.45.34.53.31l.08-.32c.43.16.91.2,1.39.17.25-.14-.15-.75.48-1.16,1.03-.67.9,1.1.2,1.58-.13.09-1.45.08-1.75.2-.13.25.89.4.6.64-.13.11-.84.09-1.07.2.62-1.39-.46-.47-.43-.25,0,.05.39.3.1.67-.34-.29-.69-.59-.76-1.12-.54.15-1.28-.2-1.73-.13-.22.04-.29.3-.36.27-.23-.07-.48-.72-.35-1,.22-.49,1.44-.19,1.7.04l.07-.2c-.43.14-.73-.51-.59-.9.04-.1.31-.27.44-.46.2-.3.32-.85.5-1,.14-.12.43-.04.58-.17.3-.24.18-.89.73-.2.1-.4-.12-.3-.19-.35.15-.43.27-.18.3-.2Z"/>
    <path class="cls-7" d="M22.87,70.02l.26.39c.29-.77.61-.61.91-.13.21.33.02,1.45-.56,1.33-.4-.08-.81-.81-1.09,0-.08.22-.03.83-.23.88-.1.02-.76-.09-.82-.14-.08-.07.11-.39.08-.44-.13-.33-.36.11-.5.17-.31.13-.84-.15-1.09.45-.2.48.19.36.32.51.25.28-.28,1.25-.81,1.1-.29-.09-.1-.36-.57-.06.46-.64-.04-.94-.28-1.38-.31.44-.63.96-.85.32-.24-.72.64-.83.59-1.07-.18-.11-.54-.18-.38-.52.23-.49.7-.25.83-.7.15-.49-.11-.61-.4-.77,1.29-.42.47.88.58,1.18.02.05.6.17.69.32-.12.28-.4.03-.42.5.4-.05.8-.35,1.18-.32.11-.22-.29-.15-.29-.35,0-.17.24-.7.42-.74.2-.04.56.31.76.37l-.35.54,1.65-.48c.06-.11-.4-.34.22-.91.02-.02.08-.02.12-.05Z"/>
    <path class="cls-7" d="M36.64,84.57c.58.17,1.19.86.9,1.66-.05.12-.49,1.07-.53,1.12-.1.13-2.11.7-2.28.62-.47-.23-.87-1.37-.63-2.01.09-.24.49-1,.65-1.17.21-.23,1.62-.3,1.9-.21Z"/>
    <path class="cls-7" d="M25.93,78.57s-.09.27-.03.34c.09.1.31-.12.46-.09.41.07.51,1.23.37,1.67-.07.24-.19.41-.27.61-.06.15,0,.34-.07.43-.17.24-1.17.58-1.44.6-.29.02-1.05-.16-1.25-.31-.05-.04-.43-1.28-.42-1.36.03-.36,1.41-2.01,1.69-1.94.08.02.13.2.24.22.09.02.64-.42.73-.18Z"/>
    <path class="cls-7" d="M21.92,75.83c-.06.66-.27.54-.63.87-.12.11-.2.31-.33.42-.19.16-.5.08-.63.22-.36.37-.16,1.26-.9,1.25.21-.34.32-.68,0-.85-.26.35-.02.87-.11,1.14-.14.42-.64.27-.21-.23-.63.38-.32-.01-.4-.1-.2-.23-.36.02.02-.6-.18-.17-.38.2-.54.17-.11-.02-.27-.29-.45-.37-.23-.11-.58.1-.59-.25,0-.81.35-.25.46-.21s.24-.24.31-.26.19.1.31.09c.3-.04,1.14-1.17,1.99-.89.13.04.51.31.55.3.04-.02.22-.48.4-.63.11-.1.73-.15.75-.07Z"/>
    <path class="cls-7" d="M55.16,62.44c.13-.07.09-.69.73-.05.48.48-.34.45-.53.93-.35.86.3.4.41.62.02.05.11,1.05.1,1.1-.15.91-1.25.9-1.53.42-.04-.07-.13-.71-.1-.81.15-.54.83-.74.69-1.36-.1-.47-1.41-.36-.62-1.38.55-.71.72.6.85.53Z"/>
    <path class="cls-7" d="M60.93,50.91c.03.24.02.47.08.71.04.14.2.29.2.31,0,.07-.94,1.06-1.05,1.11-.16.08-1.28-.38-1.56-.38-.12.14.11.12.07.22-.12.3-1.16.66-.79.1.22-.34.52-.53.7-1,.09-.23-.02-.58.15-.76.21-.23.77.4,1.06.34.23-.05.39-.71.6-.84.19-.12.39.15.53.18Z"/>
    <path class="cls-7" d="M50.51,60.61c.02.14-.13.44-.04.62.21.37.9-.04.49,1-.43-.17-.15-.97-.86-.18.36.19.76.31.77.86l-.51.35c-.33-.12-.56.42-.6.43-.31.13-.08-.41-.1-.43-.2-.22-.83-.48-.93-.81-.06-.21.22-.5.22-.55-.02-.17-.82-.09-.3-.66.28.09.8.61,1.1.44.65-.37-.06-.6-.07-.73-.03-.33.73-.97.83-.35Z"/>
    <path class="cls-7" d="M48.32,69.72s.35.1.36.32c-.28.64-.38.1-.74-.05-.21-.09-.43.01-.61-.09-.53-.33-.57-2.08.13-2.48.49-.28.45.23.64.44.16.18.78.57.81.66.08.22-.6,1.11-.58,1.21Z"/>
    <path class="cls-7" d="M58.57,50.33c-.16.25-.27.55-.44.78-.16.21-2.06,1.48-2.29,1.55-.77.22-.37-.59-.19-1.15.34-.09,2.84-1.71,2.91-1.18Z"/>
    <path class="cls-7" d="M32.22,76.11s-.17.22-.32.3c-.73.37-.61-.81-.01-1.11-.26-.26-.26.08-.54.19-.15-.45-.21-.54-.66-.61.32-.51.29-1.01.82-1.37.86-.59.47.09.46.44-.02.47.23.92.25,1.18.01.15-.17.63.07.74.08.03.51-.3.67.09.21.53-.7.14-.75.16Z"/>
    <path class="cls-7" d="M53.98,62.15c-.11.47-.77.31-.87.38s-.29,1.04-.72,1.11-.24-.48-.44-.67c-.27-.25-.67-.23-.96-.42.38-.45.98-.51,1.24-1.02.32.09-.15.31.1.42.37.17,1.3-.37,1.66.2Z"/>
    <path class="cls-7" d="M20.57,48.24c.39.06.76-.23,1.08.12.03.17-.75.5-.82.49-.22-.03-1.32-.83-1.36-1.01-.01-.07.05-.42.08-.5.59-1.52,2.18-.25,1.01.9Z"/>
    <path class="cls-7" d="M13.63,73.52c.33-.46.39-.87.99-1.1.43-.16.47.19.63-.43.35.2.17.58-.05.95.15.2.23-.1.35-.11.64-.09.04.41.04.45,0,.02.4-.06.34.25-.18.14-.39-.09-.53,0-.24.15-.29.62-.92.54-.29-.04-.54-.4-.85-.54Z"/>
    <path class="cls-7" d="M56.6,68.61c.18.13.46-.16.69-.08.63.2.17,2.01-.73,1.49-.39-.22-.18-.6-.44-.89-.12-.14-.48-.3-.49-.33s.31-.58.39-.67c.29-.33.94.01.58.48Z"/>
    <path class="cls-7" d="M32.08,78.63l.44-.17-.22.48c.95-.73.9,0,.25.75-.3.35-1.06.61-1.09.67-.04.08.26.7-.16,1.07-.28.24-.68-.24-.59-.54.25-.88.96-.9,1.16-1.62.06-.23-.18-.48.23-.64Z"/>
    <path class="cls-7" d="M16.97,65.98c-.06.03-1.08-.2-1.15-.32-.15-.26.19-.99.41-1.22s.54.16.7-.42c.17.26.34.15.61.1-.06.36-.24,1.7-.57,1.86Z"/>
    <g>
      <path class="cls-7" d="M59.48,47.17c.53-.46.13-1.04.44-1.65.14-.28.82-1.08,1.06-1.21.39-.21,1.75.36,1.92.68.12.22-.07,1.29-.22,1.59-.2.41-.77,1.06-1.13,1.25-.05.03-1,.11-1.05.1-.1-.03-.18-.39-.36-.51-.19-.13-.48-.09-.66-.25Z"/>
      <path class="cls-7" d="M60.93,50.91c-.02-.12-.16-.57-.13-.62.03-.05.7-.22.75-.49,0-.05-.6-.02-.63,0-.21.13-.2.8-.69.47l1.22-2.18c.05-.09.6-.15.71-.12.9.25.26,1.17-.14,1.85.21-.05.76-.03.67.33-.15.58-1.37.84-1.76.77Z"/>
      <path class="cls-7" d="M63.96,49.22c.96.25.32,2.01-.67,1.66s-.41-1.94.67-1.66Z"/>
    </g>
    <path class="cls-7" d="M26.29,78.23c-.75.45-1.79-.73-.67-1.48s1.58.93.67,1.48Z"/>
    <path class="cls-7" d="M40.97,82.69c-.71.77-.2.69-.17,1.18.02.32-.9.64-1.11.61-.28-.04-.91-.38-.59-.76.2-.24,1.81-1.45,1.87-1.03Z"/>
    <path class="cls-7" d="M56.83,60.1c.73.23.08,2.01-.82,1.59-.81-.38-.1-1.88.82-1.59Z"/>
    <path class="cls-7" d="M20.49,69.16s.29-.73.35-.83c.52-.92,1.44-.08,1.05.86-.15.36-.72.54-.96.44-.05-.02-.43-.43-.43-.47Z"/>
    <path class="cls-7" d="M18.39,69.47c.1-.32.1-.63.32-.92-.87,0-.21-1.36.43-.86.06.05-.23.48.05.52l.28-.51c.04-.08.19.02.21.06.04.06-.39,1.68-.45,1.74-.16.18-.63-.07-.84-.03Z"/>
    <path class="cls-7" d="M17.42,68.8s-.36.7-.34.79c0,.05.29.03.39.09.28.15.34.97-.05,1.2.24,0,.23.33.06.4-.14.06-.2-.33-.24-.35-.15-.08-.67.53-.68-.66,0-.62.12-1.01.63-1.42.06-.05.22-.3.23-.05Z"/>
    <path class="cls-7" d="M44.14,68.12s-.11.29-.19.26c-.54-.15-.03-.29.07-.42.17-.21.22-.87.7-.61.28.15,1.34,1.36.51,1.56-.65.16-.97-.84-1.09-.79Z"/>
    <path class="cls-7" d="M38.43,28.1c-.3.33-.14.69-.28,1.01-.32.75-2.05,1.26-1.68.27.4-1.06,1.04-.33,1.17-.39.03-.01.42-.48.45-.54.03-.04.02-.58.34-.36Z"/>
    <path class="cls-7" d="M53.28,64.94s-.16.51-.06.56c.02.01.24-.16.38-.02.11.12.07.76.28,1.03.15.19.77.29.42.75-.1.13-1.11-.25-1.14-.34,0-.04.1-.23.1-.36-.02-.32-.24-.6-.16-1l-.19.26c-.58-.26.21-1.3.38-.87Z"/>
    <path class="cls-7" d="M40.2,26.42c.24.08-.04.89-.23,1.11-.15.19-1.1.74-1.31.58-.16-.19.64-1.51,1-1.64.04-.01.51-.06.53-.05Z"/>
    <path class="cls-7" d="M58.21,70.99c.51.09.3,1.69-.27,1.73-.28.02-.79-.65-.72-.91.08-.33.73-.86.99-.81Z"/>
    <path class="cls-7" d="M68.88,39.4c0,.07-.39.76-.48.87-.34.44-1.22.24-1.23-.13s1.01-1.15,1.38-1.05c.1.03.33.21.32.3Z"/>
    <path class="cls-7" d="M32.47,87.23c.29.04.8.45.6.83-.52.95-1.96.52-1.33-.48.09-.14.61-.37.74-.35Z"/>
    <path class="cls-7" d="M50.08,65.49c.02.17-.16.57-.29.7-.18.19-.47.04-.49.05-.08.05-.05.57-.3.84-.15.17-.86.37-.94.17.08-.81.84-.97,1.21-1.39.15-.18.33-.57.4-.62.1-.07.38.09.41.24Z"/>
    <path class="cls-7" d="M59.35,48.93s-.32.34-.41.35c-.11.01-.45-.2-.49-.3-.07-.18.32-.7.43-.92.17.2,1.3.22,1.35.32.12.21,0,.54-.22.71-.63.48-.52-.2-.66-.17Z"/>
    <path class="cls-7" d="M23.22,76.92c-.14-.1.05-.33.03-.44-.03-.2-.35-.24-.11-.78.51-1.16,1.51-.74.99.38-.25.54-.55.5-.91.84Z"/>
    <path class="cls-7" d="M37.79,76.18s0,.5-.05.56c-.06.09-.78.79-.87.84-.35.19-.14-.14-.17-.27-.09-.42-.39-.82.06-1.29.18-.19.94-.05,1.03.15Z"/>
    <path class="cls-7" d="M37.63,27.31s-.2.4-.59.24c-.25-.1.29-.76.46-.91.57-.54.95,0,1.17.47.5,1.11-.95.16-1.03.2Z"/>
    <path class="cls-7" d="M35.92,25.73c.09.26-.42.53-.43.6,0,.03.21.22.17.47-.11.65-.99.27-1.23.04.06-.24.37-.48.43-.65.04-.12-.04-.29.09-.44.09-.11.9-.19.96-.02ZM35.45,26.07l-.22-.12-.1.18c.08.08.22.06.32-.06Z"/>
    <path class="cls-7" d="M51.53,66.52c.05.11-.3.5-.3.55.01.12.43.23.1.85-.35.66-1.08.22-.94-.18.05-.15.23-.26.3-.41.12-.25.15-1.02.52-.98.08,0,.29.11.32.17Z"/>
    <path class="cls-7" d="M19.01,40.03c-.75.31-1.19-1.62-.19-1.39.66.15.82,1.12.19,1.39Z"/>
    <path class="cls-7" d="M21.02,74.14s-.17-.51.21-.4c-.08.72.69.54.39,1.26-.42,1-1.34.48-1.07-.13.11-.26.43-.43.48-.73Z"/>
    <path class="cls-7" d="M54.86,81.81c0,.13-.23.4-.3.55l-.7-.63c-.12.51-.32,1.42-.84.99.29-.25.47-1.33.66-1.46.36-.25,1.18.31,1.17.55Z"/>
    <path class="cls-7" d="M51.62,64.21c.02.26.28.24-.21.41v-.36c-.34.11-.7.44-1,.17.16-.46.49-.29.71-.58l-.49-.15.39-.88c.13.1.44.17.49.33.03.1-.08.28-.07.39.01.14.15.32.18.67Z"/>
    <path class="cls-7" d="M52.2,77.65c.03.06-.07.55-.12.66-.27.64-1.55.49-1.03-.42.27-.47.97-.64,1.15-.24Z"/>
    <path class="cls-7" d="M44.08,89.7c.66-.28.93,1.02.11,1.32-.95.35-.73-1.06-.11-1.32Z"/>
    <path class="cls-7" d="M22.92,79.65c-.42.31-1.32-.45-.54-1.13s1.17.67.54,1.13Z"/>
    <path class="cls-7" d="M53.86,51.23l-.6-.46c-.21.85-.54,1-1.1.6.11-.15.47-.91.52-.93.04-.02.32.23.47.24.19.02,1.24-.84.72.54Z"/>
    <path class="cls-7" d="M33,73.62c.57.21.02,1.45-.54,1.23-.45-.18-.45-1.59.54-1.23Z"/>
    <path class="cls-7" d="M55.58,70.6c-.65.04-1.46-.43-.62-1.2.68-.62.84.65.62,1.2Z"/>
    <path class="cls-7" d="M11.37,70.15c-.08.08-.66.6-.78.77-.21.3-.13.58-.27.71-.21.2-.79.32-.83.06-.02-.13,1.79-1.91,2.03-2.08.07-.05.15-.12.22-.08-.13.2-.2.45-.38.61Z"/>
    <path class="cls-7" d="M34.75,32.41c.43.17.11,1.13-.59.97-1.16-.26-.1-1.24.59-.97Z"/>
    <path class="cls-7" d="M27.43,27.18c-.1.02-.23-.12-.32-.17l-.57-.62c.48.11.58-.52,1.07-.41.68.14,0,1.17-.18,1.2Z"/>
    <path class="cls-7" d="M42.46,76.23c.04.08-.04.85.02,1.02-.59.3-1.35-.75-.72-1.2.17-.12.63.02.7.18Z"/>
    <path class="cls-7" d="M50.73,84.6c.87-.45.68.99.11.85-.5-.12-.22-.66-.25-.7-.13-.15-.65-.16-.67-.24.46-.34,1.15-.91.81.09Z"/>
    <path class="cls-7" d="M33.3,34.02c-.12.05-.54-.59-.64-.7-.1-.1-.7-.19-.34-.64.14-.17.27.13.41.12.21-.02.31-.38.49-.14.09.12.25,1.29.07,1.36Z"/>
    <path class="cls-7" d="M31.69,78.71s-.15-.08-.24-.05c-.16.05-.33.28-.44.17-.02-.02-.13-.7-.12-.74.1-.29.54-.05.61-.1.19-.12.24-.77.46-.71s-.15,1.36-.28,1.42Z"/>
    <path class="cls-7" d="M35.99,78.93c-1.13-.08-.27-3.09-.28-.52.18.07.25-.4.39-.5.06-.04.48.08.49.13-.16.21-.32.91-.59.89Z"/>
    <path class="cls-7" d="M40.51,22.95c.52.21-.1,1.45-.67,1.03-.4-.29.22-1.21.67-1.03Z"/>
    <path class="cls-7" d="M41.24,78.45c-.18-.03-.28-.31-.41-.36-.04-.01-.27.35-.37-.06-.08-.35.44-.64,0-.75.26-.42.29.21.53-.43.19-.1.28,1.41.25,1.6Z"/>
    <path class="cls-7" d="M42.91,67.92s.17-.62.2-.69c.43-1.02,1.23-.56.52.39-.14.19-.65.59-.72.3Z"/>
    <path class="cls-7" d="M19.64,36.64c.5.08.6,1.63-.2,1.29-.17-.07-.15-1.35.2-1.29Z"/>
    <path class="cls-7" d="M37.4,24.11c-.32-.19,0-.62.01-.97,0-.26-.35-.7-.16-.82.12-.08.64,0,.68.25.02.14-.44,1.49-.53,1.54Z"/>
    <path class="cls-7" d="M20.24,39.12c0,.44.07.51-.37.94-.17-.03-.1-.15-.12-.27-.04-.24-.24-1.31.18-1.26.51.06.31.3.31.6Z"/>
    <path class="cls-7" d="M29.97,87.41c.51.06.41,1.24-.3,1.11-.5-.09-.1-1.16.3-1.11Z"/>
    <path class="cls-7" d="M15.59,37.21s-.17-.6.14-.45c.29.14.55,1.8-.32,1.77-.26-.06.1-.57.15-.77.03-.14.04-.4.03-.55Z"/>
    <path class="cls-7" d="M55.53,82.53c-.02-.16,0-.58.21-.63,1.45.16-.08,1.91-.21.63Z"/>
    <path class="cls-7" d="M28.41,87.16c.09.21-.44,1.19-.88.84-.02-.02-.01-.55,0-.59.15-.55.74-.58.88-.26Z"/>
    <path class="cls-7" d="M18.2,37.05c-.1.13-.16.33-.26.46-.09.04-.67-.62-.61-.78.24-.26.44-.5.74-.37.25.11.09.36.13.68Z"/>
    <path class="cls-7" d="M32.87,82.8c-.37.3-.19.81-.22.91-.18.53-.84-.49-.77-.68s.86-.44.99-.23Z"/>
    <path class="cls-7" d="M45.13,67.06s-.08-.47-.08-.5c.04-.58,1.46.1.83.58-.17.14-.64.07-.75-.09Z"/>
    <path class="cls-7" d="M50.8,87.35c.28.15.07.94-.46.89-.82-.09-.08-1.18.46-.89Z"/>
    <path class="cls-7" d="M31.2,33.33c-.16.06-.92-1.43-.87-1.52.25-.49,1.35,1.33.87,1.52Z"/>
    <path class="cls-7" d="M15.5,40.67c-.05.22-.18.65-.37.77-.08.05-.61-.09-.63-.17-.17-.5.71-.98,1-.6Z"/>
    <path class="cls-7" d="M10.35,74.24c.73-.09.34,1.07-.16.86-.44-.19,0-1.4.28-1.16.11.1-.12.29-.12.3Z"/>
    <path class="cls-7" d="M5.82,58.54c.24-.67.7-.51,1.16-.47.4.03-.1.53-.37.61-.15.04-.77-.02-.79-.13Z"/>
    <path class="cls-7" d="M41.76,84.71c.41-.81,1.81-.14.94.29-.38.19-.64-.17-.94-.29Z"/>
    <path class="cls-7" d="M11.86,79.6c-.01-.08.8-1.59,1.12-1.07.21.26-1.06,1.5-1.12,1.07Z"/>
    <path class="cls-7" d="M11.33,38.92s.08-.53.18-.61c.3-.25.86-.1.65.45-.17.46-.73.4-.83.16Z"/>
    <path class="cls-7" d="M60.76,54.07c-.46.16-.55-.59.1-.83.88-.32.57.6-.1.83Z"/>
    <path class="cls-7" d="M27.23,76.6c-.12-.03-.16-.13-.23-.23-.73-1.08,1.4-1.46.23.23Z"/>
    <path class="cls-7" d="M50.65,30.05c-.26.65-.77,1.13-1.36,1.07.14-.36.38-.52.65-.74.07-.06.7-.54.71-.33Z"/>
    <path class="cls-7" d="M34.4,29.14c-.27.14-.04-1.27,0-1.39.1-.42.32-.13.38.13.1.45-.1.85-.37,1.26Z"/>
    <path class="cls-7" d="M36.97,25.21c-.29-.05.06-.3-.02-.39-.2-.21-.5-.07-.73-.16.52-1.03,1.59-.27.75.54Z"/>
    <path class="cls-7" d="M42.62,32.73c.12-.06.26-.56.5-.29.1.11.06.59-.06.73-.25.23-.35-.13-.5-.14-.1,0-.27.19-.38.09-.1-.63.34-.34.44-.39Z"/>
    <path class="cls-7" d="M47.1,85.26c-.24.54-.56.24-.86.24-.36,0-.74.15-1.05-.09.49-.54.83-.13,1.22-.08.18.03.5-.24.69-.08Z"/>
    <path class="cls-7" d="M28.33,62.46c-.34.32.03.65-.1.84-.18.29-.62.24-.82.11.16-.15.19-.54.26-.64.05-.08.19,0,.27-.04.11-.07.13-.47.39-.27Z"/>
    <path class="cls-7" d="M52.16,68.18c-.08-.16.11-.92.48-.81.64.2-.17,1.48-.48.81Z"/>
    <path class="cls-7" d="M54.42,67.88c-.04-.31.93-.8,1.06-.26.17.72-1.05.36-1.06.26Z"/>
    <path class="cls-7" d="M21.36,67.01c.02.13-.08.62-.22.7-.73.04-.71-.77.05-.93.07.02.15.14.17.23Z"/>
    <path class="cls-7" d="M53.93,60.68c-.02.45-1.14,1.01-.85.17.24-.68.86-.37.85-.17Z"/>
    <path class="cls-7" d="M27.32,77.99c.22-.41.09-.96.21-1.34.19-.59.35.14.34.43-.01.33-.15,1.11-.55.91Z"/>
    <path class="cls-7" d="M48.43,85.64c-.06-.23.94-.3,1.05-.29.48.04-.34.75-.49.72-.07-.02-.29-.49-.56-.43Z"/>
    <path class="cls-7" d="M49.54,80.04c-.5.08-1.08-.67-.37-.87.51-.14.41.45.37.87Z"/>
    <path class="cls-7" d="M54.92,53.78c-.05-.3,1.47-.96,1.32-.3-.3-.06-.75.43-.93.46-.1.01-.38-.11-.39-.16Z"/>
    <path class="cls-7" d="M39.94,79.92c0,.11.11.25.07.36-.19.56-.5,0-.66-.05-.07-.02-.53.26-.4-.07.01-.03.53-.45.56-.46.12-.02.3.18.43.22Z"/>
    <path class="cls-7" d="M38.61,25.89c-.18.6-1.15.36-1.03-.03.16-.54.83-.12,1.03.03Z"/>
    <path class="cls-7" d="M15.34,58.13c.13-.32.41-.31.62-.53.2-.21.2-.61.38-.49l.19.78c-.4.24-.78.06-1.19.25Z"/>
    <path class="cls-7" d="M40.88,75.09c.11.05.08.12.08.23.01.93-.86.77-.65-.01.09-.16.46-.26.57-.22Z"/>
    <path class="cls-7" d="M29.77,34.5c.04.11-.49,2.4-.54,1.26-.02-.34.28-1.88.54-1.26Z"/>
    <path class="cls-7" d="M5.61,57.68c-.58.1.14-.36.14-.39l-.27-.03c.16-.56.71-.31,1.11-.36l-.02.29c-.29-.11-.9.48-.96.49Z"/>
    <path class="cls-7" d="M18.18,50.81l-.58-1.36c.53-.53.84,1.21.58,1.36Z"/>
    <path class="cls-7" d="M56.12,63.47c.1-.71,1.33-.15,1.18.11-.12.21-1.03.01-1.18-.11Z"/>
    <path class="cls-7" d="M30.79,79.96c.03.22-.2.57-.31.77-.99-.44.22-1.43.31-.77Z"/>
    <path class="cls-7" d="M37.33,82.99c.18.04.28.35.27.56-1.05.82-.87-.68-.27-.56Z"/>
    <path class="cls-7" d="M46.04,33.33c-.14.21-.35.42-.56.48-.82.23-.24-1.24.56-.48Z"/>
    <path class="cls-7" d="M19.53,69.98s-.26-.12-.28-.16c-.04-.15.47-1.18.72-1.05.16.09-.24,1.13-.44,1.21Z"/>
    <path class="cls-7" d="M57.89,60.95c.03.19-.16.5-.26.68-.13-.1-.5-.19-.5-.4,0-.31.7-.76.76-.28Z"/>
    <path class="cls-7" d="M29.28,20.29c-.38-.19-.5-.36-.09-.78.57-.59.63.42.09.78Z"/>
    <path class="cls-7" d="M29.48,80.3c-.51.7-1.29.31-.6-.46l.6.46Z"/>
    <path class="cls-7" d="M40.71,84.37c.16-.45,1.15-.57,1.01-.1s-.84.31-1.01.1Z"/>
    <path class="cls-7" d="M18.54,48.09c.03.07-.15.57-.33.61-.15.03-.72-.32-1.01-.26.19-.77.69.07.86,0,.06-.03.29-.77.47-.34Z"/>
    <path class="cls-7" d="M20.28,75.16c-.56.05-.2-.86-.02-.98.07-.04.42.02.41.21,0,.21-.29.55-.38.77Z"/>
    <path class="cls-7" d="M52.12,83.1c.15.62-.9.82-.61-.19.22-.23.56-.03.61.19Z"/>
    <path class="cls-7" d="M16.48,67.55s-.05.27-.1.3c-.06.03-.87.15-.96.07.2-.08.45-.69.49-.7.03-.02.56.3.57.33Z"/>
    <path class="cls-7" d="M35.9,28.51c-.08.03-.47-.44-.46-.52.05-.67,1.23-.35.46.52Z"/>
    <path class="cls-7" d="M28.41,73.95c-.1.07-.77-.07-.45-.51.44-.62.99.14.45.51Z"/>
    <path class="cls-7" d="M50.49,69.59c.08.54-1.02-.33-1.05-.35.09-.21.32-.27.47-.23.11.03.58.53.58.57Z"/>
    <path class="cls-7" d="M5.16,68.29c.09-.47,1.54-.85,1.24-.34-.04.06-1.22.51-1.24.34Z"/>
    <path class="cls-7" d="M14.2,40.75c-.18.07-.42-.08-.56-.16.49-1.26,1.13-.05.56.16Z"/>
    <path class="cls-7" d="M24.66,32.85s-.2.95-.3,1.05c-.28-.16-.4-.86,0-1.1.1-.06.29-.01.31.05Z"/>
    <path class="cls-7" d="M57.42,48.81c-.14-.34.6-.69.76-.36.04.59-.62.73-.76.36Z"/>
    <path class="cls-7" d="M38.13,78.18c-.07.04-.7-.21-.71-.27.44-.97,1.14,0,.71.27Z"/>
    <path class="cls-7" d="M15.7,64.47s-.04.11-.02.15c.04.09.17.13.17.14.04.24-1.14.94-.48.09l-.46.23c.22-.27.61-.97.8-.61Z"/>
    <path class="cls-7" d="M7.61,54.3c-.48.35-1.07.33-1.51.13-.07-.32,1.4-.22,1.51-.13Z"/>
    <path class="cls-7" d="M18.26,45c-.36.5-.83-.02-1.16-.16.24-.6.8.07,1.16.16Z"/>
    <path class="cls-7" d="M24.44,77.48c-.23.1-.35-.88-.14-1.05.03-.02.24-.11.25-.1.09.05.13.99-.12,1.15Z"/>
    <path class="cls-7" d="M28.73,22.57c.16.07.74,1.45.1,1.03-.23-.15-.47-1.2-.1-1.03Z"/>
    <path class="cls-7" d="M51.54,85.55c.6-.17.52-.6.69-.7.2-.12.4.19.18.49-.02.03-.49.44-.52.46-.15.09-.26-.12-.33-.11-.17.07-.18,0-.02-.13Z"/>
    <path class="cls-7" d="M49.16,64.95c-.52,1.21-1.12.87-.37-.2l.37.2Z"/>
    <path class="cls-7" d="M28.19,37.86c-.32-.07-.28-.42-.41-.65-.03-.06-.32-.11-.23-.26.3-.49.94.42.64.91Z"/>
    <path class="cls-7" d="M44.54,32.24c-.43-.15-.49-.46-.15-.94.43.15.49.46.15.94Z"/>
    <path class="cls-7" d="M44.73,83.69s-.22-.11-.21-.23c0-.08.15-.18.19-.29.04-.14.05-.63.23-.7.03-.01.24.13.27.21.02.05-.43,1-.48,1.02Z"/>
    <path class="cls-7" d="M43.28,30.56l-.51-.29c.41-.76,1.17-.62.51.29Z"/>
    <path class="cls-7" d="M40.16,70.77s-.11-.01-.12-.09c0-.03.05-.61.06-.64.09-.32.72-.73.58-.24-.07.27-.38.68-.52.97Z"/>
    <path class="cls-7" d="M50.92,52.88c-.19.54-.54.56-.93.46.19-.48.59-.72.93-.46Z"/>
    <path class="cls-7" d="M66.03,40.23c.03.11-1.2.74-1.35.71.1-.33,1.26-1.07,1.35-.71Z"/>
    <path class="cls-7" d="M51.15,68.96s-.06-.38-.05-.4c.07-.48.32-.37.52-.11.34.44-.34.79-.47.51Z"/>
    <path class="cls-7" d="M18.26,47.93c-.2.06-.66-1.08-.19-1.2.25-.07.25.98.19,1.2Z"/>
    <path class="cls-7" d="M14.16,42.23c-.15-.34-.48.37-.52.08-.01-.08.28-.51-.08-.71.35-.32.94.21.6.64Z"/>
    <path class="cls-7" d="M18.2,37.05c.47-.62.91.06.35.56-.31-.11-.31-.26-.35-.56Z"/>
    <path class="cls-7" d="M17.14,52.67c-.64-.2-.29-1.15.27-.65l-.27.65Z"/>
    <path class="cls-7" d="M18.21,75.95l-.84.39-.36.04c.28-.59.8-.74,1.2-.43Z"/>
    <path class="cls-7" d="M51.63,61.21c-.06.08-.18.36-.21.37-.05.02-.72-.44-.88-.49.39-.31.79-.06,1.08.12Z"/>
    <path class="cls-7" d="M63.07,55.61c-.41.17-.58-.35-.13-.6s.61.4.13.6Z"/>
    <path class="cls-7" d="M19.26,48.15c.52.13.33.71-.12.53-.51-.2-.35-.65.12-.53Z"/>
    <path class="cls-7" d="M25.46,71.86c.02.2-.16.5-.26.68-.53-.08-.37-.75.15-.86.04.05.11.12.11.18Z"/>
    <path class="cls-7" d="M46.05,68.45s-.32-.03-.33-.07.04-.79.08-.86c.25-.35.51.76.25.93Z"/>
    <path class="cls-7" d="M44.81,79.59c0,.07-.23.25-.28.37-.04.1.04.26-.04.36-.12.17-.8-.05-.34-.43.08-.06.63-.49.65-.31Z"/>
    <path class="cls-7" d="M29,85.27c.01.08-.29.98-.37,1.01-.3-.1-.33-.19-.15-.55.05-.11.47-.77.52-.46Z"/>
    <path class="cls-7" d="M18.08,37.95c.03-.8.65.19.85.36-.34.5-.5-.2-.85-.36Z"/>
    <path class="cls-7" d="M16.97,41.48c-.06.54-.93.03-.94-.04,0-.03.11-.22.19-.27.19-.12.56.23.75.3Z"/>
    <path class="cls-7" d="M33.41,74.81c-.18-.07-.2-.09-.19-.31.06-1,1.04-.46.19.31Z"/>
    <path class="cls-7" d="M17.34,42.54c.04.25-.32.22-.33.24-.07.14.03.46-.08.5-.14.05-.32-.47-.33-.61.08-.24.72-.27.74-.13Z"/>
    <path class="cls-7" d="M21.52,66.09s-.12.2-.16.28c-.36-.4-.17-.17-.49.03-.12.08-.32.16-.42.07.04-.63,1.05-.56,1.07-.38Z"/>
    <path class="cls-7" d="M8.44,64.64c-.04-.21.9-.59.94-.57.28.14-.76.99-.94.57Z"/>
    <path class="cls-7" d="M49.18,63.37l-.44.61c-.51-.3-.06-1.09.44-.61Z"/>
    <path class="cls-7" d="M8.99,77.74c0-.12.19-.32.24-.46,1.1.51-.28.96-.24.46Z"/>
    <path class="cls-7" d="M10.2,55.14l-.31.56c-1.08-.44.26-.89.31-.56Z"/>
    <path class="cls-7" d="M18.88,42.18l-.44-.25c.34-.84.97-.48.44.25Z"/>
    <path class="cls-7" d="M7.89,52.26c-.05-.34.59-.22.74-.2.09.02.31-.03.23.19-.11.29-.94.16-.96,0Z"/>
    <path class="cls-7" d="M30.66,83.15c-.15.06-.5-.45-.14-.69.58-.4.41.59.14.69Z"/>
    <path class="cls-7" d="M41.4,79.02c.15-.41.94-.54.82-.09-.11.41-.64.16-.82.09Z"/>
    <path class="cls-7" d="M54.64,84.48c.34-.07.45.75-.06.66-.46-.08-.11-.63.06-.66Z"/>
    <path class="cls-7" d="M17.82,74.76c-.39-.13-.12-.49.07-.81.59.27.34.36-.07.81Z"/>
    <path class="cls-7" d="M24.43,84.55c.33-.14.22.94-.21.98-.12-.18.05-.91.21-.98Z"/>
    <path class="cls-7" d="M54.66,52.53c-.08.38-.88.55-.74.13.12-.38.57-.31.74-.13Z"/>
    <path class="cls-7" d="M25.47,70.5c-.27.34-.34.47-.39.88l-.44-.24c.23-.19.56-.78.83-.63Z"/>
    <path class="cls-7" d="M55.49,51.04c-.11.03-.78-.44-.52-.78.26.15.77.27.52.78Z"/>
    <path class="cls-7" d="M52.31,81.95c-.23.52-.39.59-.75.31.18-.43.47-.54.75-.31Z"/>
    <path class="cls-7" d="M7.9,50.68c-.44.4-.69.1-1.02.07-.17-.02-.34.2-.49.07l.91-.31.59.18Z"/>
    <path class="cls-7" d="M62.73,36.55c-.24-.25.43-1.06.63-.87.26.26-.57.66-.63.87Z"/>
    <path class="cls-7" d="M50.82,85.63c-.15.23-1.1.33-.96.01.34-.31.69-.22.96-.01Z"/>
    <path class="cls-7" d="M42.39,41.27c-.02-.06.13-.48.17-.5.21-.02.49.49.4.65-.08.14-.52-.03-.57-.15Z"/>
    <path class="cls-7" d="M49.7,78.91c.19.04.62.53.42.78-.15.2-.21-.04-.26-.1-.13-.16-.34-.41-.16-.68Z"/>
    <path class="cls-7" d="M14.14,56.24c.29.05.22.71-.1.67-.46-.06-.14-.7.1-.67Z"/>
    <path class="cls-7" d="M18.08,37.95c0,.13.18.22-.09.48-.47.47-.65-.81.09-.48Z"/>
    <path class="cls-7" d="M38.01,87.99c0,.06-.21.35-.25.46-.4,0-.46-.67-.08-.72.02,0,.33.23.33.26Z"/>
    <path class="cls-7" d="M35.36,77.48c-.65-.19.11-1.27.2-.62.03.18-.1.45-.2.62Z"/>
    <path class="cls-7" d="M34.39,71.33c-.23.52-.4.59-.75.31.15-.46.43-.38.75-.31Z"/>
    <path class="cls-7" d="M16.42,76.17c.36.07-.09.93-.44.61-.17-.15.32-.63.44-.61Z"/>
    <path class="cls-7" d="M14.01,74.21c-.12.35-.3.42-.58.35-.52-.12.32-.72.58-.35Z"/>
    <path class="cls-7" d="M29.51,80.07c-.04-.11.39-.88.58-.35.13.35-.46.67-.58.35Z"/>
    <path class="cls-7" d="M28.71,38.64c.06.03.33-.01.34.07.03.23-.36.35-.5.21.04-.09.13-.19.16-.28-.38-.18-.18-1,.09-.93.22.06-.03.75-.09.93Z"/>
    <path class="cls-7" d="M10.99,52.53c-.39.52-.37.61-.82.27.31-.25.52-.55.82-.27Z"/>
    <path class="cls-7" d="M48.08,64.6c.33.04.34.47-.05.56-.53.12-.23-.59.05-.56Z"/>
    <path class="cls-7" d="M7.28,62.77l-.66.37c-.39.09-.19-.42.21-.48.18-.03.32.03.45.12Z"/>
    <path class="cls-7" d="M49.36,84.82c.06.36-.97.66-.56.05.21-.31.53-.22.56-.05Z"/>
    <path class="cls-7" d="M63.93,44.17c.02.14-.44.68-.62.51-.27-.27.57-.85.62-.51Z"/>
    <path class="cls-7" d="M40.61,85.41c-.36-.15-.23-.7.18-.75.25.06-.08.59-.18.75Z"/>
    <path class="cls-7" d="M29.81,33.2c.04.4-.36,1.14-.39.41-.02-.54.34-.82.39-.41Z"/>
    <path class="cls-7" d="M12.97,74.36l-.37-.2.31-.56c.31.12.27.45.05.76Z"/>
    <path class="cls-7" d="M42.76,74.18c-.15.37-.51.11-.64.16-.08.03-.14.22-.32.27-.08.02-.57-.03-.58-.07-.05-.44.71-.22.79-.23.22-.04.46-.45.75-.13Z"/>
    <path class="cls-7" d="M39.21,81.22l-.29-.16c.4-1.02.85-.67.29.16Z"/>
    <path class="cls-7" d="M27.72,68.35c-.02.42-.73.22-.63-.06.17-.47.63-.08.63.06Z"/>
    <path class="cls-7" d="M33.94,34.25c-.09-.03-.58-.32-.38-.52.37-.35.64.1.38.52Z"/>
    <path class="cls-7" d="M45.98,76.82s-.55-.13-.56-.19c.43-.83.78.06.56.19Z"/>
    <path class="cls-7" d="M54.46,82.54s-.39.76-.52.68c-.09-.05.03-.55.15-.69s.36-.07.37,0Z"/>
    <path class="cls-7" d="M65.88,52.33l-.79.05c-.03-.29,1.15-.7.79-.05Z"/>
    <path class="cls-7" d="M32.47,71.39c.54-.22.29.62-.01.57-.22-.04-.28-.46.01-.57Z"/>
    <path class="cls-7" d="M30.53,81.85c-.08.08-.33.8-.47.59-.2-.31.12-1.01.47-.59Z"/>
    <path class="cls-7" d="M20.24,80.38c.05.22-1.18.62-.43-.23l.43.23Z"/>
    <path class="cls-7" d="M50.93,66.42c-.08.08-.33.8-.47.59-.2-.31.07-.9.47-.59Z"/>
    <path class="cls-7" d="M33.42,83.35c.17-.47.62-.31.64.05-.11.3-.52.04-.64-.05Z"/>
    <path class="cls-7" d="M39.94,79.92c.02-.31.05-.46.29-.69.22-.07.24.87-.29.69Z"/>
    <path class="cls-7" d="M40.15,32.69s-.62.2-.51-.08c.07-.17.58-.38.74-.38.03.11-.15.4-.23.46Z"/>
    <path class="cls-7" d="M43.39,33.8c-.25.89-1.22.88-.28.09.13-.11.12-.24.28-.09Z"/>
    <polygon class="cls-7" points="44.88 76.21 44.51 76.62 44.31 76.2 44.88 76.21"/>
    <path class="cls-7" d="M53.99,54.59c.09-.4.73-.45.62-.08s-.46.21-.62.08Z"/>
    <path class="cls-7" d="M17.25,45.78c-.73-.16-.34-1.04.03-.41.06.1.06.28-.03.41Z"/>
    <path class="cls-7" d="M36.28,83.73c.05.28-.74.48-.62.08s.6-.18.62-.08Z"/>
    <path class="cls-7" d="M37.84,78.87c-.12.07-.81-.08-.48-.51.12.02.85.3.48.51Z"/>
    <path class="cls-7" d="M26.42,33.83c.02.06-.23.52-.34.54-.41-.51.21-.92.34-.54Z"/>
    <path class="cls-7" d="M19.25,82.5c.37-.5.59-.16.61.28l-.61-.28Z"/>
    <path class="cls-7" d="M40.16,70.77c.18.37.17.42-.12.91-.3-.2-.01-.63.12-.91Z"/>
    <path class="cls-7" d="M8.84,61.69l-.36-.2c.46-.62.84-.6.36.2Z"/>
    <path class="cls-7" d="M50.68,82.63c.04-.11.39-.64.49-.46.17.31-.16.83-.49.46Z"/>
    <path class="cls-7" d="M37.24,35.33c-.49.19-.37-.51.02-.51.16,0,.3.38-.02.51Z"/>
    <path class="cls-7" d="M18.82,49.83c.06.36-.67.4-.59-.15.04-.26.58.11.59.15Z"/>
    <path class="cls-7" d="M29.72,26.67c.45.08-.08.68-.34.4-.16-.17.13-.44.34-.4Z"/>
    <path class="cls-7" d="M22.35,66.31c-.57-.12-.11-.84.15-.52.1.11-.06.4-.15.52Z"/>
    <path class="cls-7" d="M54.59,63.47c.05.32-.61.35-.64.13-.05-.32.61-.35.64-.13Z"/>
    <path class="cls-7" d="M52.04,67.17c-.27.12-.3-.74.13-.66.23.04-.06.63-.13.66Z"/>
    <path class="cls-7" d="M48.08,85.57c-.11.31-.73.23-.64-.05.1-.31.54-.02.64.05Z"/>
    <path class="cls-7" d="M35.84,20.7c.03.06-.17.56-.22.59-.36-.16-.02-1.17.22-.59Z"/>
    <path class="cls-7" d="M40.73,33.41c.06.41-.91.55-.37-.2.07.06.36.17.37.2Z"/>
    <path class="cls-7" d="M39.95,86.52c.36.15-.35.93-.39.07.03-.05.33-.1.39-.07Z"/>
    <path class="cls-7" d="M26.54,70.48c-.12.22-.29.68-.54.55-.16-.08.39-.93.54-.55Z"/>
    <path class="cls-7" d="M43.88,66.51c-.21.12-.12-.83.18-.75.25.06-.07.59-.18.75Z"/>
    <path class="cls-7" d="M12.75,45.1c-.06-.08-.65-.22-.43-.42.29-.27.63.03.43.42Z"/>
    <path class="cls-7" d="M61.81,69.57c.03.14-.66.63-.62.08.15-.19.58-.28.62-.08Z"/>
    <path class="cls-7" d="M42.66,68.87c-.7.03-.1-.94.11-.37.05.14-.03.24-.11.37Z"/>
    <path class="cls-7" d="M20.94,73.82c-.13.31-.3.37-.5.21l.17-.64c.07.2.13.37.33.43Z"/>
    <path class="cls-7" d="M21.75,73.9c.07-.08.35-.81.47-.59.15.27-.17.76-.47.59Z"/>
    <path class="cls-7" d="M18.31,40.28c-.16.41-.5.58-.54.12l.54-.12Z"/>
    <path class="cls-7" d="M39.07,32.14c.25-.1.36.24.23.4-.2.26-.7-.22-.23-.4Z"/>
    <path class="cls-7" d="M35.44,92.77c-.23.09-.3-.57-.05-.76.22.02.16.72.05.76Z"/>
    <path class="cls-7" d="M62.41,69.18c.04.19-.74.34-.77.18-.04-.2.68-.37.77-.18Z"/>
    <path class="cls-7" d="M9.17,60.42c.04.26-.61.41-.62.26-.03-.3.58-.54.62-.26Z"/>
    <path class="cls-7" d="M52.28,76.69c-.22-.03-.43-.07-.49-.33.29-.2.71-.11.49.33Z"/>
    <path class="cls-7" d="M15.63,65.49c.02.14-.42.71-.6.39.07-.19.55-.73.6-.39Z"/>
    <path class="cls-7" d="M39.42,70.73c.06.04.21.1.22.12,0,.03-.33.64-.36.65-.02.01-.15-.1-.22-.12.13-.21.23-.44.36-.65Z"/>
    <path class="cls-7" d="M15.06,67.36c0-.05.54-.51.6-.64.16.37-.53,1.01-.6.64Z"/>
    <path class="cls-7" d="M59.39,65.42c.09.07.01.38-.21.35-.13-.02-.4-.21-.32-.35.04-.07.5-.02.53,0Z"/>
    <path class="cls-7" d="M18.92,35.25c-.21.09-.31-.58-.11-.67s.31.58.11.67Z"/>
    <path class="cls-7" d="M24.44,39.43c-.02-.38.7-.12.41.29-.14.2-.41-.26-.41-.29Z"/>
    <path class="cls-7" d="M15.07,68.71c-.38.62-.77.57-.29-.16l.29.16Z"/>
    <path class="cls-7" d="M59.29,62.93c-.1.49-.66.46-.54.12.07-.2.54-.2.54-.12Z"/>
    <path class="cls-7" d="M8.99,58.85c.03.14-.61.41-.62.26-.03-.3.56-.54.62-.26Z"/>
    <path class="cls-7" d="M11.5,51.96c-.25.61-.96.26-.37-.02.07-.04.36-.05.37.02Z"/>
    <path class="cls-7" d="M33.49,81.68l-.36-.38c.36-.25.54-.04.36.38Z"/>
    <path class="cls-7" d="M59.36,69.67c.03.41-.67.43-.54.12.09-.23.54-.24.54-.12Z"/>
    <path class="cls-7" d="M46.31,78.11s-.44-.41-.23-.62c.25.1.51.25.23.62Z"/>
    <path class="cls-7" d="M56.49,81.24c.16.02.25.13.25.31-.16.08-.32.17-.46.05-.09-.18.03-.39.21-.36Z"/>
    <path class="cls-7" d="M52.03,64.96c-.11.05-.43-.13-.11-.47.34-.37.33.38.11.47Z"/>
    <path class="cls-7" d="M33.26,76.43c-.34.63-.78.48-.29-.16l.29.16Z"/>
    <path class="cls-7" d="M43.83,84.78c.03.23-.5.41-.62.26.04-.29.6-.45.62-.26Z"/>
    <path class="cls-7" d="M15.77,45.69c.02.11-.38.29-.45.3-.44.03.12-.67.45-.3Z"/>
    <path class="cls-7" d="M23.66,79.24c-.29-.09.05-.57.14-.77l-.14.77Z"/>
    <path class="cls-7" d="M33.9,85.93c-.14.2-.53.74-.6.39,0-.05.46-.74.6-.39Z"/>
    <path class="cls-7" d="M54.07,74.52c-.08.03-.4-.23-.24-.43.26-.32.52.32.24.43Z"/>
    <path class="cls-7" d="M28.04,80.47c.29-.12.25.64-.08.56-.21-.05,0-.53.08-.56Z"/>
    <path class="cls-7" d="M11.8,63.59s-.12.2-.15.28l-.44-.24c.09-.33.58-.13.59-.03Z"/>
    <path class="cls-7" d="M26.18,71.62c.07-.18.43-.55.56-.42.22.21-.45.51-.56.42Z"/>
    <path class="cls-7" d="M11.7,55.73l-.36-.2.28-.33c.24.08.28.26.08.53Z"/>
    <path class="cls-7" d="M51.58,76.05c.05.31-.55.3-.57.17-.04-.28.54-.38.57-.17Z"/>
    <path class="cls-7" d="M41.87,33.43s-.19.36-.21.37c-.06.03-.36-.21-.29-.34.12-.22.47-.17.49-.03Z"/>
    <path class="cls-7" d="M36.16,29.76c-.08.03-.4-.23-.24-.43.26-.32.52.32.24.43Z"/>
    <path class="cls-7" d="M34.32,76.78c.04.28-.45.49-.5.21s.45-.49.5-.21Z"/>
    <path class="cls-7" d="M16.5,66.58c.1.02.14.23.05.33l-.38.09c-.1-.31.1-.33.33-.42Z"/>
    <path class="cls-7" d="M33.01,82.39c-.14.05-.38-.55,0-.61v.61Z"/>
    <path class="cls-7" d="M19.32,36.08c.04.28-.45.49-.5.21s.45-.49.5-.21Z"/>
    <path class="cls-7" d="M43.24,35.42c.04.28-.45.49-.5.21s.45-.49.5-.21Z"/>
    <path class="cls-7" d="M33.96,70.73l-.21.37-.36-.2c.05-.24.56-.26.57-.17Z"/>
    <path class="cls-7" d="M40.03,73.75c-.23.47-.39.31-.44-.07.22-.32.27-.03.44.07Z"/>
    <path class="cls-7" d="M45.81,30.13c-.4.07-.04-.56.15-.51.25.06-.03.49-.15.51Z"/>
    <path class="cls-7" d="M44.56,64.45c-.05-.31.59-.53.47-.16-.1.31-.45.29-.47.16Z"/>
    <path class="cls-7" d="M39.83,28.15c.02.13-.31.35-.44.36-.07-.19.03-.33.15-.52.06.05.29.13.29.16Z"/>
    <path class="cls-7" d="M18.33,41.63c.04.28-.45.49-.5.21s.45-.49.5-.21Z"/>
    <path class="cls-7" d="M16.98,74.04c-.08.16-.21.41-.37.4-.42-.02.11-.6.37-.4Z"/>
    <path class="cls-7" d="M42.94,78.91c.23.05.02.55-.19.5-.23-.05-.02-.55.19-.5Z"/>
    <path class="cls-7" d="M57.97,49.87c0,.06-.2.53-.39.27-.23-.32.34-.58.39-.27Z"/>
    <path class="cls-7" d="M50.67,65.67l-.22-.12.31-.56c.14.2.07.45-.09.68Z"/>
    <path class="cls-7" d="M23.96,82.46c0,.06-.2.53-.39.27-.23-.32.34-.58.39-.27Z"/>
    <path class="cls-7" d="M53.53,71.53c.04.2-.56.33-.64.13.11-.14.61-.3.64-.13Z"/>
    <path class="cls-7" d="M15.13,54.72c-.05.14-.15.19-.26.22-.56.15-.19-.58.26-.22Z"/>
    <path class="cls-7" d="M52.95,69.14c.05.34-.64.33-.49.03.11-.23.47-.15.49-.03Z"/>
    <path class="cls-7" d="M59.56,34.17c.24-.06.11.59-.15.52s.05-.5.15-.52Z"/>
    <path class="cls-7" d="M18.75,79.79c-.44.08-.01-.44.17-.64.16.11-.04.61-.17.64Z"/>
    <path class="cls-7" d="M43.8,68.54s-.12.19-.15.28l-.36-.2c.1-.3.52-.27.52-.07Z"/>
    <path class="cls-7" d="M61.45,70.72c.26-.06.28.53-.02.47s-.11-.44.02-.47Z"/>
    <path class="cls-7" d="M54.8,44.56c.26-.06.28.53-.02.47s-.11-.44.02-.47Z"/>
    <path class="cls-7" d="M16.93,53.04c.04.28-.45.49-.5.21-.03-.21.46-.42.5-.21Z"/>
    <path class="cls-7" d="M26.67,75.55c-.22.09-.34-.51.08-.56.06.12.05.52-.08.56Z"/>
    <path class="cls-7" d="M29.74,73.49c-.03-.23.53-.5.49-.03-.12.1-.47.16-.49.03Z"/>
    <path class="cls-7" d="M40.92,80.22c-.35-.09-.42-.54.02-.47.02.17.1.31-.02.47Z"/>
    <path class="cls-7" d="M46.19,65.97c.03.23-.53.5-.49.03.12-.1.47-.16.49-.03Z"/>
    <path class="cls-7" d="M17.51,72.75c-.11.26-.29.45-.53.44l.31-.56.22.12Z"/>
    <path class="cls-7" d="M44.06,79.05c.03.21-.46.42-.5.21-.04-.28.45-.49.5-.21Z"/>
    <path class="cls-7" d="M38.93,29.6c.06-.17.29-.51.44-.36.2.2-.42.55-.44.36Z"/>
    <path class="cls-7" d="M24.29,72.27c.08-.11.13-.26.21-.37l.11.49-.37-.02c-.05-.06-.03-.09.05-.09Z"/>
    <path class="cls-7" d="M49.35,88.96c0-.06.2-.53.39-.27.21.29-.35.49-.39.27Z"/>
    <path class="cls-7" d="M19,81.39c.1-.18.33-.52.44-.36.17.25-.26.51-.44.36Z"/>
    <path class="cls-7" d="M10.63,76.23c.15.08-.14.61-.33.42s.24-.47.33-.42Z"/>
    <path class="cls-7" d="M36.97,25.82c.34.06.1.47-.14.41-.2-.05-.08-.45.14-.41Z"/>
    <path class="cls-7" d="M61.53,51.73c0-.4.69-.32.32.12-.12.13-.32-.05-.32-.12Z"/>
    <path class="cls-7" d="M65.29,56.64c-.14.3-.35.2-.52.07l.15-.28.36.2Z"/>
    <path class="cls-7" d="M61.97,57.1c.28-.74.84-.15.11.06l-.11-.06Z"/>
    <path class="cls-7" d="M55.13,79.99l-.15.28-.36-.2c.14-.3.35-.2.52-.07Z"/>
    <path class="cls-7" d="M28.03,29.38s-.08.39-.12.41l-.29-.16c.1-.26.29-.53.41-.24Z"/>
    <path class="cls-7" d="M38.89,76.65c-.17.34-.41.16-.59.03.21-.2.42-.17.59-.03Z"/>
    <path class="cls-7" d="M36.92,27.63c.15.08-.14.61-.33.42s.24-.47.33-.42Z"/>
    <path class="cls-7" d="M47.38,82.37c0,.06-.2.53-.39.27-.21-.29.35-.49.39-.27Z"/>
    <path class="cls-7" d="M47.78,65.88s-.09.22-.08.32c-.76-.11-.01-.63.08-.32Z"/>
    <path class="cls-7" d="M45.85,65.05l.16-.28c.16.07.29.12.29.34-.19.12-.29.03-.44-.06Z"/>
    <path class="cls-7" d="M16.6,60.66s-.26.31-.28.32c-.41.06-.07-.64.28-.32Z"/>
    <path class="cls-7" d="M53.5,80.67c-.02-.1.32-.29.39-.27.32.08-.13.54-.39.27Z"/>
    <path class="cls-7" d="M10.3,66.29l-.26.46-.22-.12c.14-.22.32-.53.48-.34Z"/>
    <path class="cls-7" d="M4.59,52.85c.02.18-.54.35-.57.17s.56-.29.57-.17Z"/>
    <path class="cls-7" d="M26.86,75.05c.08-.13.14-.29.24-.4.3-.33.3.42-.24.4Z"/>
    <path class="cls-7" d="M24.54,38.39c-.06-.05-.49-.3-.31-.47.24-.24.36.33.31.47Z"/>
    <path class="cls-7" d="M48.13,36.45c-.14.44-.68.39-.42.07.06-.07.41-.17.42-.07Z"/>
    <path class="cls-7" d="M52.78,39.78c.02.1-.26.4-.39.27-.23-.23.35-.53.39-.27Z"/>
    <path class="cls-7" d="M40.84,93.22c-.13.05-.43-.26-.14-.44.24-.15.36.35.14.44Z"/>
    <path class="cls-7" d="M55.51,43.13l-.26.46-.22-.12c.14-.22.32-.53.48-.34Z"/>
    <path class="cls-7" d="M13.63,73.52c-.21.29-.29.22-.52.07.17-.33.34-.16.52-.07Z"/>
    <path class="cls-7" d="M51.56,85.68s-.43.49-.41.14c.02-.41.19-.21.39-.27l.02.13Z"/>
    <path class="cls-7" d="M15.5,48.22c-.13.38-.43-.07-.61-.1l.61.1Z"/>
    <path class="cls-7" d="M14.78,65.98c-.11.24-.27.49-.48.34.11-.24.27-.49.48-.34Z"/>
    <path class="cls-7" d="M27.44,34.4c0,.06-.2.53-.39.27-.17-.23.35-.53.39-.27Z"/>
    <path class="cls-7" d="M28.13,69.17c.03.18-.37.43-.5.21.08-.23.46-.43.5-.21Z"/>
    <path class="cls-7" d="M30.82,79.09c.04.26-.55.44-.42.07.08-.21.4-.17.42-.07Z"/>
    <path class="cls-7" d="M7.8,55.5c.03.13-.84.89-.22-.12.05.05.21.09.22.12Z"/>
    <rect class="cls-7" x="40.68" y="85.2" width=".43" height=".25" transform="translate(-53.54 79.42) rotate(-60.81)"/>
    <path class="cls-7" d="M28.35,19.05s-.17.28-.21.37c-.45-.35.17-.64.21-.37Z"/>
    <rect class="cls-7" x="66.11" y="64.16" width=".32" height=".33" transform="translate(-22.2 90.81) rotate(-60.81)"/>
    <path class="cls-7" d="M27.22,37.45c.21.05.06.46-.14.41s-.06-.46.14-.41Z"/>
    <rect class="cls-7" x="48.94" y="63.72" width=".43" height=".25" transform="translate(-30.56 75.63) rotate(-60.81)"/>
    <path class="cls-7" d="M32.73,81.5c-.26.07-.09-.75.17-.39.09.12-.1.37-.17.39Z"/>
    <path class="cls-7" d="M32.13,38.61c.21.05.06.46-.14.41s-.06-.46.14-.41Z"/>
    <path class="cls-7" d="M43.45,87.86c-.05.2-.48.33-.5.21.13-.31.3-.37.5-.21Z"/>
    <path class="cls-7" d="M27.61,32.55c-.13.31-.3.37-.5.21.05-.2.48-.33.5-.21Z"/>
    <path class="cls-7" d="M33.1,75c-.09.12,0,.49-.11.55-.19.08-.24-.8.11-.55Z"/>
    <path class="cls-7" d="M27.39,70.83c-.24-.08-.28-.26-.08-.53.11-.05.23.39.08.53Z"/>
    <path class="cls-7" d="M18.62,45.57c.13-.37.55-.13.44.06-.07.13-.36.02-.44-.06Z"/>
    <path class="cls-7" d="M17.46,58.95s-.36-.31.11-.37c.26-.03.15.1.02.32-.03,0-.08.05-.12.05Z"/>
    <path class="cls-7" d="M10.55,73.38c-.02.22-.45.55-.48.34,0-.07.39-.58.48-.34Z"/>
    <rect class="cls-7" x="30.44" y="84.85" width=".43" height=".25" transform="translate(-58.48 70.29) rotate(-60.81)"/>
    <path class="cls-7" d="M39.42,70.73s-.1-.05-.15-.08l.26-.47c.39.13.09.22-.11.55Z"/>
    <path class="cls-7" d="M30.65,30.71c.05-.14.27-.46.37-.4.15.09-.14.63-.37.4Z"/>
    <path class="cls-7" d="M7.93,58.01c.04.16-.56.34-.49.03.06-.24.48-.07.49-.03Z"/>
    <path class="cls-7" d="M20.21,68.77c-.35.08-.14-.49.1-.43s-.02.41-.1.43Z"/>
    <path class="cls-7" d="M16.98,59.29c.02.1-.26.4-.39.27-.19-.19.34-.55.39-.27Z"/>
    <path class="cls-7" d="M41.99,73.5c-.14.06-.31-.34-.14-.44.26-.14.35.35.14.44Z"/>
    <path class="cls-7" d="M45.64,82.49c.21.05.06.46-.14.41s-.06-.46.14-.41Z"/>
    <path class="cls-7" d="M51.98,41.04c-.25-.09-.27-.27-.08-.53.11-.05.23.39.08.53Z"/>
    <rect class="cls-7" x="16.97" y="49.64" width=".43" height=".25" transform="translate(-34.65 40.5) rotate(-60.81)"/>
    <path class="cls-7" d="M50.95,69.97c-.2-.09-.41-.15-.16-.39.26-.26.28.35.16.39Z"/>
    <path class="cls-7" d="M48.14,80.84l-.16.28-.29-.16.08-.14c.16-.1.25-.07.37.02Z"/>
    <path class="cls-7" d="M39.83,25.59c.06.27-.58.19-.44-.06.07-.12.42-.02.44.06Z"/>
    <path class="cls-7" d="M34.13,37.16l-.16.28c-.15-.05-.22-.11-.21-.3l.08-.14.29.16Z"/>
    <path class="cls-7" d="M54.39,65.79c.37.09-.28.61-.31.13.08-.02.26-.14.31-.13Z"/>
    <path class="cls-7" d="M38.73,30.47c-.08.18-.15.28-.32.31l-.11-.06.21-.37.22.12Z"/>
    <path class="cls-7" d="M50.76,37.91l-.08.14c-.58.35-.36-.45.08-.14Z"/>
    <path class="cls-7" d="M62.96,54.48c-.29.61-.72.09-.11-.06l.11.06Z"/>
    <path class="cls-7" d="M43.31,31.19l-.22-.12.21-.37.11.06c.06.16.02.27-.1.43Z"/>
    <path class="cls-7" d="M41.4,76.1c-.08.18-.15.28-.32.31l-.11-.06.21-.37.22.12Z"/>
    <path class="cls-7" d="M54.61,40.79c-.21.06-.16-.49.1-.43.22.05,0,.4-.1.43Z"/>
    <path class="cls-7" d="M21.98,67.32c-.08.23-.45.43-.5.21-.02-.12.4-.35.5-.21Z"/>
    <path class="cls-7" d="M44.55,32.74c.13.15.34,0,.06.4l-.29-.16c.04-.16.17-.17.23-.24Z"/>
    <path class="cls-7" d="M41.91,34.56c.03-.1.16-.26.21-.37l.22.12c-.14.42-.3.21-.43.25Z"/>
    <path class="cls-7" d="M13.27,39.53l-.16.28-.29-.16.08-.14c.16-.1.25-.07.37.02Z"/>
    <path class="cls-7" d="M34.66,69.65l-.21.37-.22-.12c.08-.18.15-.28.32-.31l.11.06Z"/>
    <path class="cls-7" d="M33.58,72.1l-.16.28c-.15-.05-.22-.11-.21-.3l.08-.14.29.16Z"/>
    <path class="cls-7" d="M16.59,37.36l-.16.28c-.15-.05-.22-.11-.21-.3l.08-.14.29.16Z"/>
    <path class="cls-7" d="M44.24,85.25l-.29-.16.16-.28c.15.05.22.11.21.3l-.08.14Z"/>
    <path class="cls-7" d="M19.48,70.93c-.01-.08.24-.35.32-.31.28.16-.26.65-.32.31Z"/>
    <path class="cls-7" d="M57.7,77.27c-.08.03-.27-.2-.21-.3.2-.36.54.17.21.3Z"/>
    <path class="cls-7" d="M32.92,70.88l-.16.28-.29-.16.08-.14c.16-.1.25-.07.37.02Z"/>
    <path class="cls-7" d="M61.35,52.73c0-.05.27-.39.37-.4.16.32-.34.59-.37.4Z"/>
    <path class="cls-7" d="M51.8,81.66l-.16.28-.29-.16.08-.14c.16-.1.25-.07.37.02Z"/>
    <path class="cls-7" d="M33,22.39c.03.24-.46.42-.42.07l.31-.13s.11.04.11.06Z"/>
    <path class="cls-7" d="M44.61,29.72l.21-.37c.29.16.08.53-.21.37Z"/>
    <path class="cls-7" d="M20.82,33.39c-.05.14-.27.46-.37.4-.14-.08.23-.63.37-.4Z"/>
    <path class="cls-7" d="M24.14,34.14c-.12.31-.19.25-.43.25l.21-.37.22.12Z"/>
    <path class="cls-7" d="M57.5,52.41l-.21.37c-.29-.16-.08-.53.21-.37Z"/>
    <rect class="cls-7" x="52.61" y="85.38" width=".21" height=".42" transform="translate(-47.72 89.87) rotate(-60.81)"/>
    <path class="cls-7" d="M29.65,23.07c-.2.37-.5.21-.29-.16l.29.16Z"/>
    <g>
      <path class="cls-7" d="M16.37,59.19c-.13.23-.16.63-.38.77s-.77-.19-1.03.03c.29.26.39.69.79.81-.76.64-.04.89-.24,1.24-.43.78-.46.05-.61.11-.07.03-.57.73-.62.75-.06.02-.21-.17-.29-.14-.06.02-.79,1.16-.81.75.26-.42.43-.93.8-1.26-.07-.25-1.43.3-.43-.61-1.3.11-.71-1.4-.06-2.28.43-.58.67-.2.8-.26.05-.02.1-.2.16-.23s.23.1.38.08c.27-.04.68-.29.89-.1s.16.46.65.34Z"/>
      <rect class="cls-7" x="12.67" y="63.71" width=".53" height=".17" transform="translate(-49.07 43.98) rotate(-60.81)"/>
    </g>
    <path class="cls-7" d="M41.04,86.51c.02.1-.18.4-.34.18-.19-.26.31-.35.34-.18Z"/>
    <path class="cls-7" d="M53.15,68.27c-.09.04-.32-.12-.09-.35.27-.27.25.28.09.35Z"/>
    <path class="cls-7" d="M49.5,35.63c.14.08-.11.5-.28.33s.22-.36.28-.33Z"/>
    <path class="cls-7" d="M55.53,82.53c-.2.37-.5.21-.29-.16l.29.16Z"/>
    <path class="cls-7" d="M12.86,67.35l-.21.37-.22-.12c.13-.19.29-.41.43-.25Z"/>
    <path class="cls-7" d="M15.58,74.48c-.2.37-.5.21-.29-.16l.29.16Z"/>
    <path class="cls-7" d="M16.81,66.63c-.02-.12.48-.43.48-.34-.02.21-.44.56-.48.34Z"/>
    <path class="cls-7" d="M10.29,59.45c-.16.11-.29.37-.48.34l.26-.47.22.12Z"/>
    <path class="cls-7" d="M14.44,48.24c-.02-.1.18-.4.34-.18.19.26-.31.35-.34.18Z"/>
    <path class="cls-7" d="M22.33,26.06l-.16.28-.29-.16c.21-.19.25-.3.45-.11Z"/>
    <path class="cls-7" d="M50.67,30.79c.29.07-.08.44-.21.37-.1-.06.02-.41.21-.37Z"/>
    <path class="cls-7" d="M13.92,52.34c.05.03.1.46-.13.41s0-.49.13-.41Z"/>
    <path class="cls-7" d="M29.37,64.38l-.21.37c-.29-.16-.08-.53.21-.37Z"/>
    <path class="cls-7" d="M43.8,78.66c.01.09-.2.32-.32.31-.32-.02.28-.57.32-.31Z"/>
    <path class="cls-7" d="M54.38,77.99c.05.03.1.46-.13.41s0-.49.13-.41Z"/>
    <path class="cls-7" d="M33.05,32.41c-.09.04-.32-.12-.09-.35.27-.27.25.28.09.35Z"/>
    <path class="cls-7" d="M24.29,72.27s-.03.06-.05.09c-.15.21-.13.16-.37.16.17-.33.17-.46.43-.25Z"/>
    <path class="cls-7" d="M30.95,87.09c.03.18-.44.48-.35.11.08-.32.33-.21.35-.11Z"/>
    <path class="cls-7" d="M13.96,39.67c-.09.04-.32-.12-.09-.35.27-.27.25.28.09.35Z"/>
    <path class="cls-7" d="M33.58,71.24c-.07.25-.28.18-.45.12l.16-.28.29.16Z"/>
    <path class="cls-7" d="M13.86,51.08c.05.03.1.46-.13.41s0-.49.13-.41Z"/>
    <path class="cls-7" d="M59.82,73.46c.02.1-.18.4-.34.18-.19-.26.31-.35.34-.18Z"/>
    <path class="cls-7" d="M17.76,65.09l-.21.37c-.29-.16-.08-.53.21-.37Z"/>
    <path class="cls-7" d="M20.07,43.82c.03.18-.44.48-.35.11.08-.32.33-.21.35-.11Z"/>
    <path class="cls-7" d="M22.33,67.89c.05.26-.65.25-.37-.02.1-.1.35-.06.37.02Z"/>
    <path class="cls-7" d="M41.04,69.19l-.21.37-.22-.12c.13-.19.29-.41.43-.25Z"/>
    <path class="cls-7" d="M50.6,78.31c.01.09-.2.32-.32.31-.32-.02.28-.57.32-.31Z"/>
    <path class="cls-7" d="M31.76,87.18c.03.18-.44.48-.35.11.08-.32.33-.21.35-.11Z"/>
    <path class="cls-7" d="M26.05,70.33c.05.26-.65.25-.37-.02.1-.1.35-.06.37.02Z"/>
    <path class="cls-7" d="M35.06,72.19c-.06.05-.4.12-.32-.12.12-.33.48-.04.32.12Z"/>
    <path class="cls-7" d="M44.78,74.33c.03.21-.34.37-.37.16s.34-.37.37-.16Z"/>
    <path class="cls-7" d="M45.37,30.76c.03.21-.34.37-.37.16s.34-.37.37-.16Z"/>
    <path class="cls-7" d="M49.51,34.66c.01.09-.24.35-.32.31-.22-.12.29-.56.32-.31Z"/>
    <path class="cls-7" d="M44.55,32.74c-.16-.18.05-.57.17-.39.14.2-.09.29-.17.39Z"/>
    <path class="cls-7" d="M38.71,29.48c-.21.19-.25.3-.45.11.11-.24.29-.25.45-.11Z"/>
    <path class="cls-7" d="M12.87,56.02c.01.09-.24.35-.32.31-.22-.12.29-.56.32-.31Z"/>
    <path class="cls-7" d="M17.13,74.98c-.06.08-.17.35-.21.37-.21.1-.13-.61.21-.37Z"/>
    <path class="cls-7" d="M41.47,68.94c-.01-.09.24-.35.32-.31.22.12-.29.56-.32.31Z"/>
    <path class="cls-7" d="M31.4,77.71c-.22.06-.08-.47-.01-.49.15-.06.19.35.01.49Z"/>
    <path class="cls-7" d="M18.96,80.27c.05.22-.58.28-.29-.16.06.05.28.13.29.16Z"/>
    <path class="cls-7" d="M16.31,45.75c.09-.03.14.15.14.26-.49.33-.34-.2-.14-.26Z"/>
    <path class="cls-7" d="M5.08,49.23c.05.24-.52.25-.37-.02.05-.1.35-.06.37.02Z"/>
    <path class="cls-7" d="M42.49,75c.07-.28.14-.39.4-.38-.09.18-.21.42-.4.38Z"/>
    <path class="cls-7" d="M55.99,74.49l-.36-.2c.1-.34.43-.08.36.2Z"/>
    <path class="cls-7" d="M59.82,44.32c-.33.33-.5-.13-.24-.26.07-.04.15.23.24.26Z"/>
    <path class="cls-7" d="M38.08,83.76c0,.09-.27.46-.4.38l.26-.46s.14.06.15.08Z"/>
    <path class="cls-7" d="M54.19,85.44c.01.24-.44.19-.45.12-.02-.16.35-.29.45-.12Z"/>
    <path class="cls-7" d="M54.65,43.99c-.24.08-.06-.29.06-.45.24.04.09.4-.06.45Z"/>
    <path class="cls-7" d="M34.53,34.22c.03.21-.34.37-.37.16s.34-.37.37-.16Z"/>
    <path class="cls-7" d="M49.89,52.67c.05.24-.52.25-.37-.02.05-.1.35-.06.37.02Z"/>
    <path class="cls-7" d="M38.91,81.42c.05.24-.52.25-.37-.02.05-.1.35-.06.37.02Z"/>
    <path class="cls-7" d="M29.41,84.89c.07-.28.14-.39.4-.38-.09.18-.21.42-.4.38Z"/>
    <path class="cls-7" d="M44.82,64.84c-.08.04-.09.45-.37.16.19-.48.23-.15.37-.16Z"/>
    <path class="cls-7" d="M19.94,78.87c-.24.08-.06-.29.06-.45.24.04.09.4-.06.45Z"/>
    <path class="cls-7" d="M30.82,73.61c-.05-.24.52-.25.37.02-.05.1-.35.06-.37-.02Z"/>
    <path class="cls-7" d="M23.39,18.85c.03.13-.36.29-.37.16-.02-.22.33-.36.37-.16Z"/>
    <path class="cls-7" d="M30.69,37.68c-.2.07-.26-.3-.06-.4.13-.06.19.36.06.4Z"/>
    <path class="cls-7" d="M26.11,66.1c.02.22-.33.36-.37.16-.03-.13.36-.29.37-.16Z"/>
    <path class="cls-7" d="M41.43,93.19c.02.22-.33.36-.37.16-.03-.13.36-.29.37-.16Z"/>
    <path class="cls-7" d="M20.74,81.88c.03.13-.36.29-.37.16-.02-.22.33-.36.37-.16Z"/>
    <path class="cls-7" d="M44.82,64.84s.35-.23.4-.02c.09.41-.37,0-.4.02Z"/>
    <path class="cls-7" d="M39.98,81.04c-.2.07-.26-.3-.06-.4.13-.06.19.36.06.4Z"/>
    <path class="cls-7" d="M48.95,67.64c.13.07-.08.44-.21.37s.08-.44.21-.37Z"/>
    <path class="cls-7" d="M25.77,65.17c-.03-.33.42-.08.32.12-.08.14-.31-.03-.32-.12Z"/>
    <path class="cls-7" d="M36.92,75.55c.03.13-.36.29-.37.16-.02-.22.33-.36.37-.16Z"/>
    <path class="cls-7" d="M10.32,77.4c.03.13-.36.29-.37.16-.02-.22.33-.36.37-.16Z"/>
    <path class="cls-7" d="M28.97,71.96c.23-.29.44.18.24.26-.04.02-.19-.14-.22-.12,0-.05-.02-.09-.02-.13Z"/>
    <path class="cls-7" d="M49.39,30.08c.03.13-.36.29-.37.16-.02-.22.33-.36.37-.16Z"/>
    <path class="cls-7" d="M30.66,73.03c.02.22-.33.36-.37.16-.03-.13.36-.29.37-.16Z"/>
    <path class="cls-7" d="M16.87,50.33c.13.07-.08.44-.21.37s.08-.44.21-.37Z"/>
    <path class="cls-7" d="M35.79,28.7c.03.13-.36.29-.37.16-.02-.22.33-.36.37-.16Z"/>
    <path class="cls-7" d="M30.93,89.52c.03.13-.36.29-.37.16-.02-.22.33-.36.37-.16Z"/>
    <path class="cls-7" d="M12.66,55.54c.02.16-.35.29-.45.11.09-.11.43-.23.45-.11Z"/>
    <rect class="cls-7" x="15.66" y="44.67" width=".21" height=".33" transform="translate(-31.06 36.74) rotate(-60.81)"/>
    <path class="cls-7" d="M8.76,69.21c-.3.1.02-.47.17-.39.11.06-.09.36-.17.39Z"/>
    <path class="cls-7" d="M38.87,85.78s-.15.38-.26.22c-.19-.28.23-.45.26-.22Z"/>
    <path class="cls-7" d="M61.99,57.24c.03.13-.36.29-.37.16-.02-.22.33-.37.37-.16Z"/>
    <path class="cls-7" d="M12.92,42.39c.02.22-.33.37-.37.16-.03-.13.36-.29.37-.16Z"/>
    <path class="cls-7" d="M22.93,77.61c.03.13-.36.29-.37.16-.02-.22.33-.36.37-.16Z"/>
    <path class="cls-7" d="M34.46,36.49c.13.07-.08.44-.21.37s.08-.44.21-.37Z"/>
    <path class="cls-7" d="M59.51,38.53c.02.11-.32.28-.43.25.03-.23.4-.41.43-.25Z"/>
    <path class="cls-7" d="M18.8,34.09s-.15.38-.26.22c-.19-.28.23-.45.26-.22Z"/>
    <rect class="cls-7" x="26.79" y="80.53" width=".42" height=".17" transform="translate(-56.55 64.88) rotate(-60.81)"/>
    <path class="cls-7" d="M42.16,88.97c.03.13-.36.29-.37.16-.02-.22.33-.36.37-.16Z"/>
    <path class="cls-7" d="M34.52,84.82c.03.13-.36.29-.37.16-.02-.22.33-.36.37-.16Z"/>
    <path class="cls-7" d="M30.1,82.96c.02.22-.33.36-.37.16-.03-.13.36-.29.37-.16Z"/>
    <rect class="cls-7" x="17.95" y="69.72" width=".21" height=".33" transform="translate(-51.76 51.57) rotate(-60.81)"/>
    <path class="cls-7" d="M3.94,61.03c.03.13-.36.29-.37.16-.02-.22.33-.36.37-.16Z"/>
    <rect class="cls-7" x="32.14" y="76.45" width=".42" height=".17" transform="translate(-50.24 67.45) rotate(-60.81)"/>
    <path class="cls-7" d="M33.75,86.46c.13.07-.08.44-.21.37s.08-.44.21-.37Z"/>
    <path class="cls-7" d="M32.75,86.27c.03.13-.36.29-.37.16-.02-.22.33-.36.37-.16Z"/>
    <path class="cls-7" d="M52.27,81.68c-.2.07-.26-.3-.06-.4.13-.06.19.36.06.4Z"/>
    <path class="cls-7" d="M52.9,60.82c.02.22-.33.37-.37.16-.03-.13.36-.29.37-.16Z"/>
    <path class="cls-7" d="M27.64,69.88s.15-.37.26-.22c.17.23-.25.35-.26.22Z"/>
    <path class="cls-7" d="M41.17,72.07s.15-.37.26-.22c.17.23-.25.35-.26.22Z"/>
    <path class="cls-7" d="M41.7,75.05s.15-.37.26-.22c.17.23-.25.35-.26.22Z"/>
    <path class="cls-7" d="M50.74,70.34s-.15.37-.26.22c-.17-.23.25-.35.26-.22Z"/>
    <path class="cls-7" d="M48.48,76.28s-.15.37-.26.22c-.17-.23.25-.35.26-.22Z"/>
    <path class="cls-7" d="M55.71,73.12c.03.13-.37.35-.29.02.05-.23.29-.06.29-.02Z"/>
    <path class="cls-7" d="M39.31,72.13c.03.13-.37.35-.29.02.05-.23.29-.06.29-.02Z"/>
    <path class="cls-7" d="M13.15,75.07s-.15.37-.26.22c-.17-.23.25-.35.26-.22Z"/>
    <path class="cls-7" d="M27.94,64.19s.15-.37.26-.22c.17.23-.25.35-.26.22Z"/>
    <path class="cls-7" d="M15.7,71.01s-.31-.09-.14-.26c.24-.24.27.21.14.26Z"/>
    <path class="cls-7" d="M53.67,64.42s-.15.37-.26.22c-.17-.23.25-.35.26-.22Z"/>
    <path class="cls-7" d="M16.99,35.27l-.16.28-.22-.12c.18-.14.23-.31.37-.16Z"/>
    <path class="cls-7" d="M53.16,53.16s-.15.37-.26.22c-.17-.23.25-.35.26-.22Z"/>
    <path class="cls-7" d="M46.24,65.39c.03.13-.37.35-.29.02.05-.23.29-.06.29-.02Z"/>
    <path class="cls-7" d="M22.72,72.86s.15-.37.26-.22c.17.23-.25.35-.26.22Z"/>
    <path class="cls-7" d="M21.81,25.28l-.29-.16.1-.18c.15.05.25.14.19.35Z"/>
    <path class="cls-7" d="M25.75,38.46c.02.14-.35.29-.37.16s.35-.29.37-.16Z"/>
    <path class="cls-7" d="M11.04,64.27c.02.14-.35.29-.37.16s.35-.29.37-.16Z"/>
    <path class="cls-7" d="M40.84,70.42l-.15-.08.21-.37c.12.13.05.29-.06.45Z"/>
    <path class="cls-7" d="M38.44,78.83s-.15.37-.26.22c-.17-.23.25-.35.26-.22Z"/>
    <path class="cls-7" d="M30.38,64.46l-.22-.12c.08-.25.18-.14.37-.16l-.16.28Z"/>
    <path class="cls-7" d="M16.54,68.31l-.16.28-.22-.12c.18-.14.23-.31.37-.16Z"/>
    <path class="cls-7" d="M40.04,69.97c-.13.05-.19-.35-.06-.4s.19.35.06.4Z"/>
    <path class="cls-7" d="M30.07,64.16s-.15.37-.26.22c-.17-.23.25-.35.26-.22Z"/>
    <path class="cls-7" d="M29.74,83.61c.02.14-.35.29-.37.16s.35-.29.37-.16Z"/>
    <path class="cls-7" d="M45.01,66.9c.02.13-.35.29-.37.16s.35-.29.37-.16Z"/>
    <g>
      <path class="cls-7" d="M51.36,73.01c-.77-.32-.31-.41-.39-.65-.11-.34-1.36-.42-1.67-.62.28-.27.51-.1.74.05.06-.02.17-1.32.74-.89.09.07.09.88.28,1.07.16.15.87.34,1.18.57.29.22.84.87.7,1.35-.15.54-1.64,1.22-1.94,1.68-.13.2.22.55-.39.92-.64.39-.59-.31-.92-.37-.17-.03-.57.28-.76.04l.53-.43c-.11-.03-.36-.26-.44-.23-.07.02-.12.39-.26.21-.02-.03-.34-.74-.33-.79.02-.17.19-.27.23-.24l1.24.69c.49.27,2.63-.97,2.74-1.64.01-.07-.02-.23-.06-.27-.08-.07-1.87.23-2.21.24-.44.01-3.22-.08-3.32-.31-.02-.05.09-.5-.03-.57-.08-.04-.59-.02-.58.26l.49.15c.01.13-.58.59-.37.75.13.11.93.08,1.24.34.22.18.16.45.19.71.02.22.23.1-.05.48-.49.65-.39.08-.79.08-.23,0-.75.46-.87.43-.13-.03-.06-.86-.1-1.1-.02-.14-.15-.24-.15-.26,0-.14.42-.25.4-.38s-.87.25-1.08.13c-.16-.1-.11-.54-.16-.57-.04-.02-.71.3-.96.26-.17-.03-.51-.25-.54-.24s-.21.44-.37.4c-.1-.03-.08-.27-.19-.35-.3-.22-.67.08-.64-.73,0-.11.11-.28.11-.29,0-.02-.26-.01-.38-.08-.68-.37-.21-.56-.29-1.03-.03-.17-.22-.35-.31-.51-.06-.12-.08-.41-.12-.45-.1-.09-.56.2-.76.18-.05-.32.73-.76.89-.71.17.05.24.9.39,1.03.17.15.7-.26,1.03.14.14.17.14.71-.13.88.13.29.78-.03.82,0,.04.02.05.27.13.36.47.57,1.22.14,1.67.62.15-.19.08-.15.02-.26-.03-.06-.36-.53-.39-.55-.03-.02-.75.58-.12-.2-.53-.06-.26-.8-.29-.88-.04-.09-.69-.46-.83-.6-.08-.09.11-.39.04-.54-.08-.18-.52-.02-.39-.48.03-.1.23-.48.26-.5s.56.19.58.22c.08.09.02.75.25,1.04.28.36.3.05.54,0,.2-.03.47.06.57.03.33-.1.56-.81,1.17-.17-.68.98-.5,1.32.32,1.65l-.24.35c.51-.03.5.49.99-.05.21.21-.05.35.05.51.17-.43.47-.64.83-.51.3.11-.03.51.23.69.74-.17,1.53.05,2.23-.05q.51-.08,0,0Z"/>
      <path class="cls-7" d="M49.26,70.75c0,.1-.24.48-.33.54s-.22-.06-.3-.02c-.06.03-.11.2-.21.23-.32.09-.54-.2-.38-.56s.29-.14.48-.21c.15-.05.77-.43.75.02Z"/>
      <path class="cls-7" d="M48.27,74.09s-.12.19-.16.28c-.7-.62.16-.5.16-.28Z"/>
      <path class="cls-7" d="M44.14,71.53s-.31-.09-.14-.26c.24-.24.27.21.14.26Z"/>
    </g>
    <path class="cls-7" d="M28.96,74.03s-.15.37-.26.22c-.17-.23.25-.35.26-.22Z"/>
    <path class="cls-7" d="M33.27,77.29c.03.13-.37.35-.29.02.05-.23.29-.06.29-.02Z"/>
    <rect class="cls-7" x="4.49" y="58.48" width=".32" height=".17" transform="translate(-48.74 34.07) rotate(-60.81)"/>
    <path class="cls-7" d="M44.66,34.26c-.01-.08.22-.24.26-.22.2.11-.23.42-.26.22Z"/>
    <path class="cls-7" d="M6.52,64.3c.01.08-.22.24-.26.22-.2-.11.23-.42.26-.22Z"/>
    <path class="cls-7" d="M11.38,77.38c.07-.03.17.2.14.26-.14.26-.33-.18-.14-.26Z"/>
    <path class="cls-7" d="M42.27,86.71c-.05.14-.18.23-.3.2l.16-.28.15.08Z"/>
    <path class="cls-7" d="M16.17,41.89l-.1.18c-.12-.03-.13-.13-.14-.26l.24.08Z"/>
    <g>
      <path class="cls-7" d="M10.31,58.73c.18-.54.4-.28.55-.33s.66-.82.91-.38c-.11.13-.4.06-.42.07-.08.05-.09.31-.04.34.16.1.91-.42,1.14-.34.2.07-.14.48.04.63.04.03.86-.15.23.65-.06.08-1.12,1.1-1.19,1.12-.09.02-.26-.18-.46-.18-.08,0-.91.41-.92.28.24-.76.85-1.31.25-1.81-.06.07-.09.05-.07-.04Z"/>
      <path class="cls-7" d="M9.57,57.25c.03.16-.06.25.02.58.07.28-1,.54-1.18.52-.67-.1-.37-1.15.18-1.43.3-.16.93-.02.99.33Z"/>
      <path class="cls-7" d="M10.55,56.7c.29.09.56.55.54.88-.02.51-1.65.63-1.24-.42.18-.46.29-.6.69-.47Z"/>
      <path class="cls-7" d="M10.38,58.77c-.21.51-.36.42-.49.03-.26-.77.56-.73.44-.46-.04.09-.17.26-.17.31,0,.02.11.05.15.08.02.02.05.02.07.04Z"/>
    </g>
    <g>
      <path class="cls-7" d="M44.26,36.22c-.02.07.23,1.3.27,1.35.12.14.61.28.81.27.25-.02.55-.52.67.04.02.09,0,.44-.04.52-.11.26-1.37.25-1.6.7.14.06.18.36.29.42.08.04.27-.33.42-.14-.11.34-.5.65-.56.97-.12.67.3.99.53,1.43.19.35-.37.26-.51.35-.23.17-.36.81-.82.74-.6-.09-.23-1.04-.31-1.13-.67.06-.39.19-.28.54.33,1.09.26,1.87.3,3.01,0,.28-.06,1.1-.31,1.28-.04.03-.89.1-.96.07.06-.11.21-.2.28-.36.26-.65-.39-.73-.4-.8-.01-.06.52-.76.51-1.24-.01-.54-.28-.31-.45-.46-.12-.11-.24-1.92-.18-2.2.15-.66.83-1.34,1.36-1.14.27.1-.3.43.05.51.07-.14.52-.49.51-.57-.02-.19-.6-.43-.04-1.12-.71.06.02-.77.12-.05.26-.5.99-1.37.21-1.46-.11-.01-.97.48-1.21.16.6-.23.23-.7.52-1.1.1-.13.67-.55.81-.59Z"/>
      <path class="cls-7" d="M41.65,35.74c.14.07.2-.22.39-.28.22-.07.79.53.84.72.05.17-.4.61.22.74.03.15-1.46,1.48-1.59,1.84-.14.4.43.17.49.22.12.15-.18.54-.28.56-.18.03-.32-.32-.49-.36-.17-.04-1.05.37-.93-.42.09-.61.33-.25.39-.28.03-.02.31-.52.46-.69.35-.4.81-.58,1.15-.97-.36-.12-.49-.65-.73-.86-.15-.13-.5-.12-.64-.46-.06-.15.54-.59.61-.8.26-.44.32.11.3.34-.01.22-.1.46-.17.68Z"/>
      <path class="cls-7" d="M40.17,33.93c-.11.13.07.13.06.24-.02.2-.17.41-.17.63,0,.38.63.69-.13,1.24-.47.34-1.09-.23-.76-.83l-.07-.04c-.2.43-.33-.15-.36-.39-.19-1.57,1.11-1.31,2.04-1.84.31.42-.1,1.3-.61.99Z"/>
      <path class="cls-7" d="M38.4,41.73c.71-.29.16.5-.18.81-.2.31.1,1.22.39,1.38.02.09.09.35.08.37-.02.19-.2.46-.19.53.01.08.36.08.07.36-.11.1-.36.05-.37-.02-.02-.1.42-.33-.33-.43.02-.1.15-.65.13-.66-.56-.34-.82,1.15-1.44.39-.34-.41.33-1.02.42-1.25.06-.17-.14-.47.21-.86.08-.09.29.11.4-.04.08-.1.04-.39.25-.53.15-.11.38.05.56-.05Z"/>
      <path class="cls-7" d="M48.35,37.28c-.38.61-.2,1.44-.64,2.02-.21.27-.47.12-.67.21-.12.06-.18.2-.25.24-.33.22-.04-.27-.04-.3-.02-.09-.6-.36-.65-.62-.1-.52.72-1.1.92-1.56.24-.02.21.48.25.5.06.03.29-.25.42-.31.08-.04.21-.02.33-.07.14-.05.19-.3.34-.11Z"/>
      <path class="cls-7" d="M45.52,42.53l.32.11.25-1.14c.2.03.33.34.49.38.21.05.5-.38.61-.02.36,1.2-1.55,1.84-1.67.66Z"/>
      <path class="cls-7" d="M53.61,56.68c.33-.47-.05-.21-.27-.41-.44-.4.15-1.49.49-1.41.11.03.14.36.33.42.35-.48.26-.13.45.06.11.1.34-.09.05.33l-.19-.35c-.4.42-.13.8-.37,1.19s-.28.17-.48.16Z"/>
      <path class="cls-7" d="M25.88,38.9c.45.09.33.89-.23,1.14-1.01.45-.71-1.33.23-1.14Z"/>
      <path class="cls-7" d="M42.43,39.83s-.1.25-.09.36c0,.14.08.19.09.23.06.37-.21.09-.27.12-.23.1-.49,1.02-1.01.4.04-.41,1.11-1.61,1.29-1.11Z"/>
      <path class="cls-7" d="M43.32,38.5c.17.04.06.71-.06.85-.14.16-.88.4-1.02.24-.21-.4.85-1.14,1.08-1.09Z"/>
      <path class="cls-7" d="M53.47,46.97c-.15.87-1.3.87-1.2.18.12-.82.81-.32,1.2-.18Z"/>
      <path class="cls-7" d="M35.65,40.31c-.23-.24-.51-.13-.8-.2.04-.18.15-.66.21-.8.07-.18.19-.34.28-.51.33.22.25.72-.1,1.04.5-.3.74-.13.41.47Z"/>
      <path class="cls-7" d="M33.88,41.05c-.02.21-.57.68-.79.52-.36-.27.3-1.02.56-1.28.08-.03.23.72.23.76Z"/>
      <path class="cls-7" d="M27.84,40.59s.14.11.21.09c.17-.06.33-.69.6-.19.34.62-.97,1.15-.98.55,0-.13.09-.42.17-.46Z"/>
      <path class="cls-7" d="M53.11,50.55c-.23.11-.26-2.16.36-1.33.32.43-.13.86-.36,1.33Z"/>
      <path class="cls-7" d="M36.31,40.93c.7.14.16,1.48-.21.8-.07-.12-.04-.84.21-.8Z"/>
      <path class="cls-7" d="M37.88,44.73c-.06.28-.13.56-.27.82-.5-.12-.71-.36-.09-.77.18-.12.21-.07.36-.05Z"/>
      <path class="cls-7" d="M36.79,42.9c-.36.14-.29-.76-.02-.99.58-.04.22.91.02.99Z"/>
      <path class="cls-7" d="M51.84,46.08c.5.08.09.76-.23.69-.34-.07-.17-.76.23-.69Z"/>
      <path class="cls-7" d="M43.25,35.55c.37.07.02.67-.17.62-.26-.07-.26-.69.17-.62Z"/>
      <path class="cls-7" d="M52.87,52c-.1.24-.35.66-.57.41s.37-.69.57-.41Z"/>
      <path class="cls-7" d="M52.06,48.14c-.22-.15-.35-.51-.13-.8.35.1.34.44.13.8Z"/>
      <path class="cls-7" d="M39.06,36.61c0,.06-.15.28-.26.29s-.32-.3-.53-.25l.26-.46c.05-.03.13.4.19.43.05.03.33-.14.34-.01Z"/>
      <path class="cls-7" d="M35.54,41.71c.51-.03.15.57-.08.57-.36-.01,0-.36.08-.57Z"/>
      <rect class="cls-7" x="38.77" y="39.05" width=".53" height=".33" transform="translate(-14.24 54.17) rotate(-60.81)"/>
      <path class="cls-7" d="M52.9,45.44c.06.41-.6-.1-.48-.33.18-.22.48.29.48.33Z"/>
      <path class="cls-7" d="M53.43,51.34c-.3.75-.74.22-.25-.07.13-.08.17.04.25.07Z"/>
      <path class="cls-7" d="M48.06,44.32l-.53.43c.16-.17.26-.62.53-.43Z"/>
      <g>
        <path class="cls-7" d="M53.43,51.34c.07-.17.01-.49.09-.64.1-.2.49-.25.62-.48s.15-.71.36-.97l-.45.12.16-.28c-.15-.2-.21.08-.25.09-.32.06,0-.37.02-.42.22-.49-.33-.2-.5-.32-.15-.1-.39-.6-.27-.82.13-.25.79-.55.86-1.04-.27-.06-.37-.55-.55-.63-.14-.06-.54.17-.6-.02,0-.02.12-.34.08-.57-.02-.11-.52-1.22-.56-1.27-.18-.17-.53.05-.69-.07-.06-.04-.69-.71-.72-.76-.11-.22,0-.45-.04-.56-.09-.23-1.11.05-1.32.31.18.28.7.18.87.27.23.12-.03.2.52.32.67.14-.06.6-.13.76-.14.32.13.86.06,1.05-.06.17-.32.25-.33.28-.02.05.37.94-.33.24-.04.48-.54.6-.72.27-.16-.28.24-1.22.5-1.5-.53-.03-1.17.7-1.59.31-.45-.42-.16-1.43.12-2.05.06-.14.29-.31.29-.37,0-.03-.21-.2-.24-.44-.03-.26.14-.5.09-.75-1.14.22-.26-.27-.14-.5.4-.84-1.15-.64-.82-1.59.5-1.42,1.03.27,1.47.24.35-.02.47-.66.73-.88.07.18.04.59.12.73s.26.18.32.3c.05.11-.17.21-.14.41,0,.07.38,1.21.42,1.25.19.18,1.41.02,1.74.27.3.23.38,1.3.56,1.41.05.03.1-.11.19-.14.59-.14.73.06,1.2.12.34.05.91-.29.56.37.73-.32.14.8,0,1.21l.47.02c-.19.32-.21.7.05.88.62.42.33-.51.66-.85v1.71c.2.17.15-.38.3-.44.03-.01.37.16.49.15-.48.77-.25.45.06.79.35.37.12,1.31.25,1.82.07.04.91-.64.98-.3.03.14-1.01.51-1.11.76l-.53.64c.32-.06.5-.45.8-.65.08-.06.63-.29.69-.29.26,0,.28.26.44.29.11.02.28-.14.38-.11s.17.22.31.27c.17.06.34-.12.46-.1.37.06.14,1.05-.44,1.02l-.09.5c-.3-.51-.84-.76-1.3-1.09-.29.47-.32,1.03-.83,1.31-.17.05-.23-.67-.26-.82-.1.24-.72.3-.73.55,0,.03.16.59.18.6.09.05.66-.49.8.02.25.94-1.06.71-1.1-.07l-.14.41c-.17-.16-.66-.18-.79-.35-.02-.03-.26-.57-.26-.6,0-.2.31-.4.03-.47-.16.22-.11.46-.2.69-.46,1.11-.53.58-1.09.42ZM50.94,43.97c-.21-.2-.46.37-.58.53.3.19.35-.36.58-.53ZM55.78,51.07l-.5-.65-.03.83.53-.19Z"/>
        <path class="cls-7" d="M55.67,44.67c.42.07,0,.51-.21.37-.1-.07.02-.4.21-.37Z"/>
      </g>
      <path class="cls-7" d="M48.17,44.99l-.16.28c-.16-.07-.29-.12-.29-.34.19-.12.29-.03.44.06Z"/>
      <path class="cls-7" d="M50.88,46.74c.21.05.06.46-.14.41s-.06-.46.14-.41Z"/>
      <path class="cls-7" d="M42.74,39.88c.21.05.06.46-.14.41s-.06-.46.14-.41Z"/>
      <path class="cls-7" d="M53.97,54.32c.12.03.44.24.36.38-.15.27-.48-.35-.36-.38Z"/>
      <path class="cls-7" d="M47.15,40.64c-.1.04-.35-.37-.08-.53.03-.02.26.46.08.53Z"/>
      <path class="cls-7" d="M40.96,45.72c.43-.68.4.03.22.12-.01,0-.17-.09-.22-.12Z"/>
      <path class="cls-7" d="M42.24,45.82c-.2.37-.5.21-.29-.16l.29.16Z"/>
      <path class="cls-7" d="M53.03,48.8c-.01-.09.24-.35.32-.31.22.12-.29.56-.32.31Z"/>
      <path class="cls-7" d="M38.57,39.02c.01.07-.36.46-.43.25.03-.23.4-.41.43-.25Z"/>
      <path class="cls-7" d="M53.67,51.6c.03.13-.36.29-.37.16-.02-.22.33-.37.37-.16Z"/>
      <path class="cls-7" d="M49.94,46.95c.02.22-.33.36-.37.16-.03-.13.36-.29.37-.16Z"/>
      <path class="cls-7" d="M53.81,46.55c.03.13-.36.29-.37.16-.02-.22.33-.36.37-.16Z"/>
      <path class="cls-7" d="M38.12,39.49s-.15.37-.26.22c-.17-.23.25-.35.26-.22Z"/>
      <path class="cls-7" d="M51.09,57.59s.15-.37.26-.22c.17.23-.25.35-.26.22Z"/>
      <rect class="cls-7" x="40.3" y="34.19" width=".32" height=".17" transform="translate(-9.2 52.88) rotate(-60.81)"/>
      <g>
        <path class="cls-7" d="M35.65,40.31c.77-.79,1.23-1.78,1.95-2.59.56-.63.96-.93,1.56-.44-.08.25-.36.33-.48.52-.1.17-.09.43-.18.64-.2.45-.4.99-.72.62-.34,1.03-.4.61-1,.64-.55.02-.35.31-.47.57-.25.55-.48.6-.78,1.44-.38.02-1,.54-1.33.84.27.27.65-.57.84-.39.21.2-.22.77-.22.84,0,.05.24.16.27.32s-.16.73-.22.95c.39.23.29-.66.37-.77.08-.1.75-.49.86-.49.14,0,.04.54.01.64-.07.2-.28.41-.27.43.01.06.86.17.3.66l.42.11c-.2.21-.3.37-.36.65.23.03.38-.33.57-.42.52-.23.19.35-.11.58-.15.12-.28.06-.38.13-.12.08-.19.27-.28.33-.16.1-.8-.24-1.1.17.06.3.31-.13.38-.09.05.03.07.39-.05.51-.17.18-.7-.2-.85.33.2.21.2-.17.35-.18.14,0,.85.16.91.13.09-.04.26-.5.37-.63l-.06.45c.58.25,1.02-.82,1.24-.99.1-.07.75-.08.78-.1.1-.06.16-.32.31-.36.06-.01.15.21.35.09.16-.1.43-.54.49-.71.05-.14-.34-.1-.09-.36.27.12.53.38.61.71.13.47-.39,1.46.24,1.1.38-.22.27-.46.41-.81.09-.22.3-.47.35-.63.04-.14-.6-.37.15-1.18.47-.51,1.22-.83.47.23l.71.27c-.32.58-.86.94-1.27,1.42-.01.02.22.18.27.21-.07.12-.51,1.01-.5,1.06,0,.04.43.21.51.28l.14-.77c.32.48.4.08.58.1.17.02.32.2.47.25-.04.08-.05.22-.12.34-.34.53-.72-.12-.77-.11-.18.6-.44,1.26-1.05,1.36l.51.29c-.04-.39.17-.66.37-1.01l.67.86c.1-.15-.12-.16-.07-.36.23-.96.71-1.09,1.23-.52.65.71-.47,1.89-1.12,1.15l-.08.32c.08.11.27-.34.32-.06,0,.03-.11.33-.13.41.53-.09,1.47-.18,1.93-.63.06-.06.57-.66.59-.71.28-.53-.58-.46-.77-.75.2-.32-.14-.62.08-.85.24-.26.2.31.34.25.01,0,.16-.26.16-.28,0-.05-.39-.34-.48-.69-.13-.51.14-.58.19-.94.02-.14-.3-.51.05-.59.04-.01.49.04.52.07.11.11-.06.42-.01.59.11.43.62.42.63.47.01.09-.36.31.14.44-.16.42-.6.25-.76.67.51.39.99.72.23,1.47.53.17.53.53.24,1.11.39-.09.55.04.78.31.06-.02.04-1.23.02-1.33-.03-.17-.19-.21-.2-.24-.09-.36.47.05.54.04.04,0,.64-.56.64-.6-1.33.16-1.96-.65-.93-2.11-.95.2-.1-.52.03-1.08.24-.11.02.85.15.93.29-.27.4-.96.76-.86.41.11.05.73-.29.88l.89-.23c-.4.63-.84.39-.44,1.22l.47-.83c.34.04.02.33.03.38.05.21.6,0,.61.1l-.56.66c.1.09.17-.13.27-.15.1-.02.36.1.38.17,0,.02-.29.51,0,.35.05-.03.27-1.03.77-.53.08.39-.59.83-.58.88,0,.02.16.09.21.23.2.6-.03.42-.3.66-.39.35-.98,1.6-.76,2,.04.07.9-.04.61.45-.1.17-.63-.14-.8-.03-.46.73.2.29.5.23.36-.07.5.2.75-.32.36-.72-.48-.64-.48-.7.52-.7,1.12-1.12-.02-.74-.14-.42.39-.44.61-.37.14.05.24.24.26.23.04,0,.13-.19.27-.18.53.04.15.38.18.69.04.45.56-.32.87-.36l-.17.39c.81.53,1.54-.26,2.37-.14l-.8.4c.54.23,1.23.91.94,1.71-.33.93-.59.45-.87.64-.2.13-.09.66-.11.91-.06.59-.4.8.25,1,.04.12-1.44.91-1.56,1.08-.14.18-.32.31-.22.03l.22-.03c.37.1,1.8.05,1.9.12.03.03.16.7.15.77-.06.44-.82.24-.9.31s-.5.68-.5.73l.42.11c-.45.63-.77.7-1.3.43-.04.21-.27.72-.2.87.06.13.27.05.35.13.15.17-.21.68-.17.93.04.29.52.62.75.72.11-.04-.06-.69.43-.87.38-.13.12.59.46.63.02-.19.39-.49.39-.52,0-.02-.2-.14-.26-.28-.09-.21-.05-.53-.17-.72-.07-.12-.28-.12-.28-.23.01-.14.73-1.45.8-1.5.49.07.94.26,1.45.3l-.17.64c.27-.62,1.12-.67.47.02.32-.06.64-.3.92-.1.06-.03-.14-.45.12-.71.16-.17.81.2.74-.15,0-.05-.78,0-.65-.55.06-.26.34.08.57-.19.14-.15.12-.36.21-.53.1-.04.5.64.49.76,0,.13-.21.26-.27.46-.1.35.21.86-.09,1.29.26,0,.62-.33.86-.25.32.11.2.42.3.51.12.11.56.09.67.4.1-.54.16-.65.57-1.02-.66.23-.36-.26-.37-.81,0-.26-.08-.49-.1-.74.6-.28,1.16-.61,1.69-1.07-.15.56.45.38.75.54.14.07.21.25.35.32.01.13-.44.33-.17.39.1.02.81.12.85.09.11-.07.31-.71.57-.4.22.26-.44.68-.53.87-.07.14,0,.28-.03.37-.09.24-2.85,1.1-2.98,1.45-.03.07.01.22-.04.38-.07.19-.34.48-.22.66.23.35.24-.29.45-.52.55-.61,1.05,1.07.44,1.5-.27.19-.78-.11-.91.35.5.11,1.06.1,1.54.26.1.03.26.08.1.23-.58.54-3.44-.48-3.62-.37-.04.02-.15.58-.29.69l-.48-.51c-.23.09.04,1.14-.58,1.17-.4.02-.42-.16-.29-.56-.64.56-1.12-.08-1.76-.2-.33-.06-.94.13-1.05.09-.2-.07.07-.22-.08-.29-.18.63-.95.93-1.23,1.34-.17.25-.18.57-.34.75-.1.12-.55.27-.73.48-.2.22.25.22.33.43.19.45-.31.75-.57,1.05-.13.15-.26.49-.34.55-.11.08-.46-.16-.59-.17-.19-.02-.35.33-.54.16l.4-.38c-.16-.31-.52.27-.68.11-.04-.04.12-1.07-.28-1.13-.18.86-.79,2.05-1.47,1.25l-.22.73c.18-.12.64-.08.72-.12.02-.01.3-.46.37-.12.03.13-.28.2-.31.25-.02.03.05.42.02.62-.07.44-.5,1.77-.95,1.83-.08.01-.17-.11-.23-.1-.1,0-.16.15-.2.13-.11-.06-.18-.53-.24-.51-.19.35.15.43,0,.82-.09.24-.79,1.53-.92,1.61-.11.07-.68-.13-.78-.07-.06.03-.11.48-.24.59-.13,0-.34-.36-.38-.34-.03.01-.25.39-.44.36-.11-.06.43-.92-.17-.64-.04.34-.35,1.78-.59,1.92-.07.1-.17.16-.3.2-.11-.08-.56-.45-.6-.44-.03,0-.37.3-.51.37-.43.22-.77.15-.91.77l-.19-.35c-.25.24-.35.75-.54.98-.09.11-.26-.21-.33.06-.02.06.02.26-.02.44-.03.15-.21.45-.2.48.01.08.41.06.49.15-.18.26-.46.31-.68.56-.33.39-.26.68-.89.63-.08-.26-.05-.81.15-1.04.11-.13.45-.17.53-.34.03-.07-.02-.22.04-.35.07-.16.24-.24.3-.41.04-.11-.04-.31.06-.42,0,0,.13.02.22-.08.44-.47.08-.4-.03-.66-.08-.2.17-.68-.28-.65-.01-.19.89-1.17,1.01-1.45s-.14-.34-.04-.63c.12-.32.37-.73.68-.78.29.07-.31.85-.07,1.06.19-.24.21-.59.36-.82.22-.33.8-.33.5-.89-.33.66-.69.27-1.18.31-.32.03-1.06.26-1.15.7.17.09.4-.17.58-.15.37.06.24.48-.02.75-.09.09-.91.05-1.13.21-.1.07-.16.25-.31.35-.19.12-.42.11-.62.28-.28.24-.36.53-.55.74-.11.12-.34.15-.49.26-.13.09-.41.4-.44.41-.05.01-.2-.27-.34-.32-.04-.02-.54.06-.56.08-.08.06-.03.42-.41.53-.07.02-.18-.06-.23-.04-.11.05-.59.71-.92.67-.03-.09-.06-.57-.12-.55-.08.02-.26.46-.47-.02-.12.16-.08.3-.06.45.08.01.09.06.02.13-.03.02-.14.29-.21.37-.59-.91-1.2,1.04-1.96.25.11.72-.65.66-.81.94-.12.2-.19,1.31-.41,1.42-.24-.07-.03-.4-.14-.55-.64-.84-1.77.75-2.63.46-.05-.03.14-.6.14-.78,0-.26-.41-.89.09-.68.19.08.24.16.49.16.11,0,1.98-.66,2.08-.73.52-.37.97-1.61,1.62-1.36-.84.73-.01.46.22-.05.14-.31,0-.88.22-1.21.14-.21.67-.39.75-.87l.38.7c.39-.44-.37-.32-.03-.78.5-.69.5-.05.59-.05.38-.01,1.21-1.47,1.2-1.79-.01-.53-.49-.06-.69-.1-.14-.02-.32-.2-.39-.18-.04.01-.16.26-.32.31-.19.06-.59-.21-.87-.01-.14.1.05.47-.26.47-.23,0,.05-.29.05-.34,0-.05-.62-.13-.68-.11-.12.04-1,.99-1.18,1.01-.12.01-.18-.23-.27-.25-.12-.03-.43.35-.59.48-.19.15-.41.15-.51.36.53.21.24,1.55-.41,1.43-.52-.09-.13-1.28-.2-1.28-.44.19-.98.4-1.39.69.01.19-.06.22-.12.05-.26.08-1.05-.03-1.03-.35,0-.14,1.02-1.89,1.01-2.34l.72.77c-.03-.43.22-.52.44-.82.09-.12.1-.35.2-.41.06-.04,1.12-.09,1.26-.08.23.02.46.08.66.18,0-.54.5-.88.59-1.35.05-.29-.3-.31-.12-.52.04-.05.83.07.93-.64.21-.11-.04.98.6,1.05.39.04.59-1.26.82-1.11.14.09-.25.71-.02.72.11,0,.19-.54.51.04.16-.57.8-.89.79-.26,0,.08-.07.15-.07.17q-.32.44,0,0c.18-.07.3.17.48-.34l.21.48c0-.3.26-.73.27-.99,0-.16-.52-.91-.58-1.2-.05-.25.23-.78.13-.84-.34-.19-.55.88-.64,1.05-.52,1-1.65.8-1.2-.07.2-.4.78-.61,1.09-.91-.11-.04-.47-.3-.51-.29-.05.02-.19.51-.43.49-.33-.04-.17-.52-.41-.6-.08.09-.33.16-.35.18q-.32-.21,0,0s-.01.25-.11.35c-.1.11-.27,0-.34.09-.08.1-.11.4-.22.59-.27.47-.31.22-.36.74-.06.6-.46.23-.49.24-.11.03-.32.34-.53.44-.27.14-.57.04-.84.14.34.18.53.88.05,1.13s-.85-.77-.95-.72c-.19.68-.66.19-.7.22-.08.06-.09.3-.05.34.1.1.49-.17.63-.01-.24.45-.59.47-.95.51.44.26.22.76-.3.63.18-.38.28-1.71.46-1.94q.33.01,0,0c-.11-.14-.13-.3-.26-.39-.53,1.06-.3-.7-.5-.65-.53.28-.79,1.35-.98,1.57-.21.24-.39-.22-.47-.19-.06.03-.01.5-.62.54-.22.02-.35-.23-.59.07s.4.17.41.29c-.11.22-.36.68-.59.71-.74.1-.07-.64-.08-.72,0-.02-.29-.14-.37-.24s-.11-.26-.22-.34c-.44-.31-1.53.38-1.02-.82.19.26.22.54.64.23-.27-.07-.75-.73-.72-1.02.01-.15.17-.36.16-.39-.01-.07-.3-.1-.34-.21-.01-.03.14-.51.16-.67.02-.18-.09-.41-.04-.54.18-.47.65-.61.61-1.47-.03-.65-.43-.63-.61-1.13-.36.78.01.34.25.71.32.51-.94,1.08-1.28.79,0-.05.58-.73.67-1.02.02-.08-.4-.34.05-.78-.6,0-.17-.18-.17-.21-.02-.19.05-.21.12-.05.18-.01.23.04.41-.14l-.09.26.12.13c.3-.88.83-.21,1.26-.03-.43.32-.15.6.07.89.43-.36.47-.98.75-1.34.23-.3.61-.15.75-.33.1-.13,0-.37.12-.47.28-.24,1.19-.08,1.45.08.27-.5.08-.52-.13-.69-.04-.03.12-.4-.09-.29-.09.05-.13.48-.19.5-.24-.29-.64-.6-1.05-.34l.36.21c-.33.58-.64-.06-.74-.04-.1.03-.38.47-.48.52-.06.03-1.23.25-1.3.25-.2-.01-.34-.32-.41-.29-.02,0-.17.29-.3.41-.09.07-.59.31-.62.29-.04-.03.11-.47-.17-.46.31-.31.58.01.7-.47.14-.57-.22-.2-.5-.4l.38-.52c-.37-.35-.36.07-.45.12-.23.12-.02-.45-.13-.53-.06-.04-.4.1-.49-.06l.73-.45c-.46-.29-.62-.15-1.06.26-.18-.04,0-.34-.07-.41-.12-.11-.45-.07-.59-.2-.11.18.17.16.22.3.09.25-.43.81-.55,1.05-.05.11.07.25-.07.38-.1-.07-.14-.19-.26-.22-.2-.04-.5.26-.6.04-.08-.17.27-.28.38-.51s.04-.5.12-.69c.12-.27.38-.25.17-.44-.28-.25.28-.24.42-.31.13-.07.23-.26.35-.3.14-.04.03.3.19.39.36.2,1.21.09,1.61.32.11-.17-.15-.14-.21-.3-.02-.06.04-.19.02-.26-.03-.09-.17-.11-.18-.14,0-.03.41-.32.41-.63,0-.35-.67,0,.28-.93-.49.16-1.46-.19-.59-.58.45-.2.45.13.57-.59.26-.17.31.06.46.2.3-.41.31-.96.49-1.38.1-.22.64-1.1.63-1.16,0-.04-.46-.29-.3-.66.22.09.33.37.56.44.17.05.33-.11.46-.09s.35.21.4.19c.02,0,.14-.26.37-.41.35-.23.68-.14,1.03-.21.19-.28-.37-.21-.27-.53.07-.25.54-.54.73-.38.03.03-.07.21-.03.24.14.12.51.05.68-.12-.56-.23-1.34-1.37-.59-2.04-.3.13-1.5.5-1.58.09-.02-.09.37-.32.29-.51-.12-.29-.71-.15-.33-.61-1.09.38-.58-.89-.69-1.12-.16-.31-1.38-1.04-1.4-1.15.08-.2.61-.74.59-.89-.02-.13-1.13-.82-.29-1.68.1-.11.71-.05.81,0,.19.12-.04.34.09.42.1-.18.2-.37.35-.51.22-.19.89-.32.94-.35.13-.08.21-.36.33-.44.13-.09.34.12.47.04.3-.18.3-1,1.1-.61.22.1-.08.33-.15.53.79.01.62.54.88.95.16.24.59.29.65.58.03.13-.37,1.26-.43,1.28l-.34-.07.57.68.74-.8c-.29-.12-.61.73-.81.52-.13-.14.21-.89.29-1.12.37.23.32-.38.6-.22-.22-.85.66-1.17,1.11-1.82.21.04.07.43.24.48.03.01.67-.04.73-.06.42-.16.21-.61.48-.96.15.21.1.99.21,1.15.14.2.77-.07.6.4.24-.16,1.08-.1,1.23-.23s-.04-.19-.04-.23c0-.16.32-.44.46-.45.2-.01-.04.27,0,.42.05.2.37.23.03.6-.1.11-.27.08-.33.27.18.04.71-.44.83-.37.05.03.02.29.09.27.02,0,.13-.32.4-.02l-.22.49.44-.18-.23-.44.43-.25c-.51-.15.18-.84.48-1,.48-.27.31.14.95-.52ZM41.14,44.72l.26-.46-.07-.04-.26.46.07.04ZM34.68,43.07c-.02-.14-.39.02-.37.16s.39-.02.37-.16ZM38.15,46.46l-.29-.16c-.1.18-.23.29-.05.34l.34-.17ZM28.91,41.91c0-.21-.14-.06-.22.06-.2.28-.4.68-.3.99l.45-.05c-.14-.34-.18-.6.08-.99ZM49.89,57.17c.09-.12.1-.27.01-.36l-.16.28.15.08ZM23.92,46.56c.19-.29.49-.39.61-.75-.11-.09-.18.18-.34.16-.11-.01-.29-.18-.33-.17-.16.06-.15.73.05.76ZM49.2,63.37c.08-.26-.14-.44-.34-.22-.1.1-.97,1.18-1.01,1.25-.11.2-.09.33-.04.52.15-.16.58-.13.61-.15.1-.06.03-.32.06-.41.13-.32.46-.58.4-1.1l.32.12ZM41.91,63.56c.49.34.82-.66.01-.54-.05,0-.81.58-.83.63-.19.32.17.25.24.33.21.25-.43,1-.62,1.23.82,0,.51-.44.7-.9.14-.35.29-.49.51-.75ZM43.91,66.14c.17-.11.23-1.03.08-1.17-.2.27-.39.84-.6,1.05-.13.13-.27.01-.39.05-.3.09-.73.52-.41-.3l-.39.02.1-.43c-.64.54-.45-.12-.83-.23-.07-.02-.18.39-.44.18.61.78.07.63-.08,1.04-.13.35.41,1.24.71,1.27,0-.35-.47-1.34-.03-1.65.02-.01.39,0,.41.01.07.05.06.3.18.39.13.1.99.33,1.01.48-.25.42-.74.6-1.09.92-.05.1.47.58.55.62.06.02.35-.29.43-.25.15.08-.22.6-.26.75-.15.53,1.24-.09.54-.48.62-.43.16-.24.16-.47,0-.2.22-.38.22-.4,0-.14-.45-.51-.36-1.1.1-.64.35-.23.48-.31ZM45.24,65.67c-.13-.17-.78-.04-.87.18-.11.29.51.07.48.33l.39-.52ZM44.2,66.67c.15-.21.19-.41-.01-.49-.2.27-.12.29.01.49ZM20.62,54.35l.21-.37-.07-.04-.28.33.15.08ZM38.24,67.88c-.03-.08-.19-.11-.24-.22-.08-.19.15-.64-.28-.7-.03.6-.73.54-.3,1.05.14-.47.67-.27.57.01-.09.25-.43.15-.48.17-.06.04-.04.24-.08.29-.02.02-.38-.02-.47.36.63-.27.72-.07,1,.44.05-.2.31-1.34.29-1.4ZM34.57,68.12c.16.39.42.06.57.1.08.02.76.68.98.34.03-.04.1-.4.08-.45-.01-.03-.47-.47-.51-.46s-.44.47-.64.5c-.33.05-.42-.52-1.02.18-.35.41.12.83.46.78-.17-.33-.1-.6.08-.99ZM34.95,69.68c0-.07-.31-.04-.37-.1-.13-.12.17-.4.02-.47-.91,1.15-.08.57,0,.61.06.03.02.28-.07.38-.18.2-.3-.13-.32-.11-.09.06-.09.35-.17.45-.03.03-.5.16-.68.31s-.38.47-.6.63c.33-.05.23.2.33.43l.47-.84c.49.09.05.54.27.88.37-.49.43-.95.63-1.47.23.11.07.49.27.64.16.13.79.26.53-.09-.15-.2-.34-.23-.44-.53-.13-.38.13-.69.13-.73ZM30.54,68.31c-.36-.09-.22-.36-.3-.66-.12.22-.28.37-.49.46-.39.15-.71-.21-.86.25l.32-.06-.38.52c.3-.06.53.01.76.18.05-.24-.26-.3.08-.57l.88-.11ZM28.77,68.91c-.33-.07-.36-.35-.65.13l.31.3.33-.42ZM27.6,69.47s-.22-.2-.27-.03c.31.17-.38.58.13.8-.13-.24.15-.73.14-.77ZM27.14,69.95c-.34-.18-.74.13-.67.6l.12-.3c.27.26.29-.09.55-.3Z"/>
        <path class="cls-7" d="M57.67,57.98c-.24-.27-.15-.5.22-.48l-.22.48Z"/>
        <path class="cls-7" d="M41.91,63.56c-.41-.29.26-.47.28-.33-.07.14-.19.22-.28.33Z"/>
      </g>
      <g>
        <path class="cls-7" d="M38.4,41.73c-.08-.07-.23-.08-.27-.21-.07-.21,1.1-2.23,1.39-2.2.61.06.68.82.75,1.38l.4-.38c-.05.54.16.96.23,1.4.02.1-.09.27-.08.35s.16.14.17.25c.05.51-.4-.01-.43,0-.06.03-.28.62-.69.55-.27-.05.02-1.1-.56-.63-.65.52.92,1.05.43,1.89-.28.48-.93-.08-1.13-.21-.83-.72-.02-1.91.66-2.73l-.18-.19c-.2.53-.43.77-.69.73Z"/>
        <path class="cls-7" d="M39.05,41.6c-.44.1.02-.6.17-.39.09.12-.1.37-.17.39Z"/>
      </g>
    </g>
  </g>
  <g>
    <polygon class="cls-2" points="11.19 55.76 6.11 55.76 8.65 44.01 13.74 44.01 11.19 55.76"/>
    <polygon class="cls-2" points="25.45 55.76 20.37 55.76 22.91 44.01 28 44.01 25.45 55.76"/>
    <polygon class="cls-2" points="18.32 55.76 13.24 55.76 15.78 44.01 20.87 44.01 18.32 55.76"/>
  </g>
  <polygon class="cls-2" points="86.28 54.67 85.94 66.87 60.73 44.29 30.17 44.29 27.65 55.92 58.54 55.92 77.62 72.38 66.87 72.07 77.93 81.81 94.73 81.81 94.73 63.25 86.28 54.67"/>
  <path class="cls-5" d="M72.01,26.9c-16.34-10.73-41.76,12.38-47.37,30.95l-3.55,2.64-.33,2.06-1.08,1.82s1.73,16.67,14.86,22.2c.49,0,9.24-2.56,9.24-2.56l.99-.99,2.31-1.65s2.11,6.11,8.38,7.34c.75.15,13.91,5.57,22.24-18.24.37-2.78.89-6.63,1.1-10.16.09-1.46.14-2.47.14-2.47,0,0,9.41-20.22-6.93-30.95ZM71.59,53.73c-.95,1.15-7.88-1.07-7.88-1.07,0,0-10.93-2.15-16.46,8.42-.66.99-2.15,3.96-2.31,4.87-.16.91-3.8-9.49-9.41-11.39-.25-.08,10.81-23.85,24.59-23.26,6.46.89,17.58,5.51,11.47,22.43Z"/>
</svg>