<?xml version="1.0" encoding="UTF-8"?>
<svg id="icons" xmlns="http://www.w3.org/2000/svg" xmlns:xlink="http://www.w3.org/1999/xlink" viewBox="0 0 100 100">
  <defs>
    <style>
      .cls-1, .cls-2 {
        fill: #c2d832;
      }

      .cls-3, .cls-4 {
        fill: none;
      }

      .cls-3, .cls-4, .cls-5, .cls-2 {
        stroke-miterlimit: 10;
      }

      .cls-3, .cls-5 {
        stroke: #010101;
      }

      .cls-4 {
        stroke: #c2d832;
        stroke-width: 2px;
      }

      .cls-6 {
        fill: #4a5a2d;
      }

      .cls-5 {
        fill: url(#linear-gradient);
      }

      .cls-2 {
        stroke: #000;
      }
    </style>
    <linearGradient id="linear-gradient" x1="60.25" y1="46.87" x2="59.39" y2="72.86" gradientUnits="userSpaceOnUse">
      <stop offset=".18" stop-color="#fff"/>
      <stop offset=".2" stop-color="#fcfdf5"/>
      <stop offset=".32" stop-color="#ecf3c2"/>
      <stop offset=".43" stop-color="#dfeb96"/>
      <stop offset=".54" stop-color="#d5e471"/>
      <stop offset=".66" stop-color="#ccde55"/>
      <stop offset=".77" stop-color="#c6db41"/>
      <stop offset=".89" stop-color="#c3d835"/>
      <stop offset="1" stop-color="#c2d832"/>
    </linearGradient>
  </defs>
  <g>
    <path d="M43.88,26.09l7.74-17.55-16.58,9.65-14.3-12.79,4.05,18.75-16.58,9.65,19.08,1.94,4.05,18.75,7.74-17.55,19.08,1.94-14.3-12.79ZM37.71,34.35l-5.49,12.44-2.87-13.29-13.53-1.38,11.76-6.84-2.87-13.29,10.14,9.07,11.76-6.84-5.49,12.44,10.14,9.07-13.53-1.38Z"/>
    <path d="M38.63,27.4l3.87-8.76-8.28,4.82-7.14-6.39,2.02,9.36-8.28,4.82,9.53.97,2.02,9.36,3.87-8.76,9.53.97-7.14-6.39ZM35.55,31.52l-2.74,6.21-1.43-6.64-6.76-.69,5.87-3.41-1.43-6.64,5.06,4.53,5.87-3.41-2.74,6.21,5.06,4.53-6.76-.69Z"/>
  </g>
  <g>
    <path class="cls-6" d="M83.84,83.49c.06-.08.36-.23.42-.33.08-.12.02-.58.29-.3.19.2.06.51.08.53.05.05.73.07.83.13.11.07.12.32.19.43.06.09.2.11.29.21.34.39.29.91.29,1.42-.18.12-.67,1.15-.78,1.16-.03,0-.19-.21-.25-.25-.03.32-.54.26-.77.27-.16,0-.37-.12-.47-.12-.03,0-.02.14-.03.15-.27.24-.26-.39-.38-.69-.06-.15-.22-.23-.25-.41-.16,0,.04.26-.07.39-.12.15-.36,0-.49.06-.08.04-.25.77-.51.42-.21-.29.23-.71.42-.74l-.63-.84-.85-1.64c.28.01.46.33.76.19.08-.13-.5-.78-.07-.93.45-.15.58.8.54,1.19-.03.3-.5-.08-.55.22.22.02.57.09.77-.04.16-.11.18-.43.43-.38.06,1.45.49.3.8-.1Z"/>
    <path class="cls-6" d="M81.59,76.47c.11.27.52.51.63.67.1.15.17.58.3.61.37.1.32-1.16.6-1.42.15-.14.4-.03.31-.46.31.15.76.82.63,1.23-.07.21-.68.55-.69.69s.22.21.19.39c-.11-.04-.71-.13-.74-.1-.1.12.03.67.29.57-.24.44-.56.24-.47.95.46.07.25-.35.35-.52.21-.33.49,0,.53-.06l-.11-.27c.39-.11.74-.33,1.07-.59.11-.23-.49-.45-.26-1.07.38-1,1.2.31.95,1.01-.04.13-.98.8-1.13,1.04.04.24.83-.18.75.14-.04.15-.55.5-.65.69-.28-1.3-.57-.09-.43.05.03.03.43.01.41.42-.39-.03-.79-.06-1.11-.4-.3.39-1,.51-1.29.8-.14.14-.05.36-.11.38-.2.07-.71-.26-.76-.52-.1-.46.91-.87,1.22-.85l-.06-.18c-.23.32-.77.02-.87-.33-.03-.09.08-.35.07-.55-.01-.31-.21-.76-.16-.96.04-.16.28-.25.32-.42.09-.32-.34-.72.41-.51-.14-.33-.24-.15-.31-.15-.11-.38.1-.27.11-.29Z"/>
    <path class="cls-6" d="M70.02,83.95l.38.14c-.19-.69.12-.74.57-.56.32.12.76,1.01.29,1.22-.33.15-.99-.15-.77.57.06.19.41.6.29.73-.06.07-.59.33-.65.32-.1,0-.12-.33-.17-.35-.26-.16-.19.26-.26.38-.15.25-.67.33-.54.88.1.44.32.16.49.19.32.07.44,1.03,0,1.19-.25.09-.25-.2-.43.25,0-.69-.51-.64-.91-.82,0,.46.05,1-.43.66-.54-.39.03-.91-.13-1.06-.19.02-.48.15-.54-.17-.09-.47.36-.53.23-.92-.15-.42-.39-.37-.67-.34.69-.96.78.38,1.02.54.04.03.51-.19.65-.13.06.26-.27.22-.04.56.25-.24.38-.66.67-.83-.03-.21-.28.05-.39-.1-.09-.12-.19-.62-.09-.74.12-.13.55-.07.72-.13l.03.56.92-1.19c-.02-.11-.46-.03-.31-.76,0-.02.05-.06.06-.1Z"/>
    <path class="cls-6" d="M87.2,87.12c.49-.17,1.28,0,1.48.71.03.11.2,1.01.2,1.06,0,.14-1.12,1.58-1.29,1.61-.45.08-1.31-.52-1.48-1.09-.06-.22-.17-.96-.14-1.16.03-.27.99-1.04,1.22-1.13Z"/>
    <path class="cls-6" d="M76.58,88.4s.07.24.15.25c.12.02.16-.24.27-.3.33-.16.99.6,1.12.99.07.21.07.39.12.57.04.14.17.24.17.34,0,.26-.52,1.01-.7,1.16-.19.16-.82.42-1.03.42-.06,0-.96-.68-.99-.74-.16-.27-.04-2.14.2-2.23.07-.03.2.07.28.03.07-.04.23-.63.42-.5Z"/>
    <path class="cls-6" d="M72.34,88.53c.29.49.09.52,0,.93-.03.14.02.32-.02.47-.05.21-.31.31-.33.48-.06.44.54.97,0,1.34-.03-.35-.13-.64-.44-.6,0,.38.44.62.51.86.12.37-.31.52-.27-.05-.25.59-.23.16-.33.13-.26-.06-.25.2-.29-.43-.21-.03-.16.33-.29.4-.09.05-.34-.06-.51-.03-.22.05-.36.37-.54.13-.42-.57.12-.35.22-.38s.04-.29.08-.34.19-.03.27-.1c.19-.18.2-1.41.94-1.65.12-.04.52-.04.54-.07.02-.03-.09-.45-.04-.65.03-.13.43-.48.5-.43Z"/>
    <path class="cls-6" d="M88.86,62.03c.06-.12-.29-.53.48-.41.58.09,0,.49.1.92.2.79.41.13.6.22.04.02.61.68.64.73.36.72-.42,1.27-.86,1.08-.07-.03-.46-.44-.49-.52-.17-.46.21-.94-.21-1.31-.32-.28-1.18.47-1.14-.65.02-.78.81.05.87-.06Z"/>
    <path class="cls-6" d="M87,50.95c.15.15.25.32.43.46.1.08.29.1.3.11.04.05-.12,1.23-.17,1.32-.07.14-1.09.39-1.29.53-.01.16.14.03.16.12.07.27-.48,1.06-.5.48-.02-.35.1-.64-.02-1.07-.06-.21-.31-.39-.29-.61.03-.27.75-.11.92-.3.14-.15-.09-.7,0-.9.07-.18.35-.09.46-.14Z"/>
    <path class="cls-6" d="M84.65,63.13c.09.09.13.38.29.46.34.16.61-.49.86.46-.39.1-.6-.61-.69.32.35-.05.69-.17.98.21l-.18.51c-.29.08-.18.58-.2.61-.15.26-.27-.25-.29-.25-.25-.05-.83.09-1.07-.09-.15-.11-.1-.47-.13-.5-.1-.11-.63.36-.55-.31.25-.08.88.02,1-.25.27-.59-.35-.39-.42-.48-.19-.22.01-1.06.41-.67Z"/>
    <path class="cls-6" d="M87.79,70.67s.3-.11.41.04c.13.59-.22.26-.55.34-.19.05-.3.23-.48.25-.54.04-1.47-1.17-1.18-1.81.2-.44.44-.07.67-.02.2.04.84,0,.91.05.17.12.15,1.09.21,1.15Z"/>
    <path class="cls-6" d="M85.04,51.75c.02.25.09.53.09.78,0,.23-.69,2.1-.81,2.26-.43.55-.56-.23-.72-.71.19-.24,1.12-2.66,1.45-2.33Z"/>
    <path class="cls-6" d="M63.89,95.8c-.18.32-.62.26-.89.15-1.23-.51,0-2.76.73-1.54.17.29.31,1.12.16,1.39Z"/>
    <path class="cls-6" d="M79.74,83.44s0,.24-.07.37c-.32.64-.84-.26-.58-.78-.32-.05-.14.19-.28.41-.34-.25-.42-.27-.78-.09-.03-.52-.31-.86-.13-1.38.3-.86.38-.18.55.07.23.34.63.53.78.7.09.1.2.54.43.48.07-.02.2-.48.52-.28.42.27-.42.46-.44.49Z"/>
    <path class="cls-6" d="M87.88,62.43c.16.39-.38.61-.42.72s.33.88.06,1.15-.42-.22-.66-.25c-.31-.04-.59.18-.89.2.04-.51.43-.86.35-1.35.27-.1.06.29.29.25.34-.07.72-.92,1.27-.72Z"/>
    <path class="cls-6" d="M57.22,69.81c.31-.16.42-.55.82-.47.11.1-.27.74-.32.77-.17.09-1.36.1-1.47-.01-.04-.04-.18-.32-.2-.39-.36-1.38,1.41-1.3,1.17.11Z"/>
    <path class="cls-6" d="M65.32,91.16c0-.49-.17-.82.13-1.28.22-.33.43-.11.22-.63.35-.04.42.32.45.69.21.06.11-.19.19-.26.41-.39.24.27.26.3.01.02.25-.25.37,0-.06.19-.32.14-.37.27-.09.23.12.59-.37.85-.23.12-.58,0-.88.05Z"/>
    <path class="cls-6" d="M93.05,65.63c.19,0,.24-.35.44-.41.55-.18,1.15,1.33.25,1.43-.39.04-.43-.33-.76-.4-.15-.03-.49.04-.51.02s-.08-.57-.07-.67c.04-.38.67-.47.65.04Z"/>
    <path class="cls-6" d="M80.94,85.28l.22-.34.09.46c.29-1,.63-.46.57.4-.03.41-.43.97-.43,1.03,0,.08.55.36.43.83-.08.31-.6.18-.69-.07-.27-.75.21-1.13-.02-1.74-.07-.19-.37-.25-.17-.57Z"/>
    <path class="cls-6" d="M63.8,84.14c-.03.05-.86.42-.98.36-.24-.11-.38-.8-.34-1.07s.46-.17.28-.66c.25.09.32-.07.48-.24.14.29.7,1.32.56,1.61Z"/>
    <g>
      <path class="cls-6" d="M84.05,49.06c.14-.6-.44-.8-.54-1.38-.05-.27.02-1.18.12-1.4.17-.35,1.42-.64,1.71-.51.2.09.61.95.67,1.23.07.39,0,1.14-.16,1.46-.02.05-.65.59-.69.61-.08.03-.33-.18-.51-.17-.2,0-.38.18-.6.16Z"/>
      <path class="cls-6" d="M87,50.95c-.07-.08-.4-.31-.41-.37,0-.05.38-.51.28-.73-.03-.03-.43.29-.44.33-.08.2.27.67-.24.69l-.26-2.16c-.01-.09.34-.42.44-.45.76-.29.78.69.85,1.37.12-.15.52-.41.64-.11.19.48-.53,1.3-.84,1.45Z"/>
      <path class="cls-6" d="M88.26,48.2c.81-.32,1.26,1.25.38,1.52s-1.28-1.16-.38-1.52Z"/>
    </g>
    <path class="cls-6" d="M76.66,87.98c-.3.71-1.64.4-1.23-.7s1.59-.16,1.23.7Z"/>
    <path class="cls-6" d="M89.28,83.57c-.11.91.22.59.48.92.18.22-.31.91-.47,1-.21.12-.84.2-.81-.23.02-.28.53-1.95.79-1.68Z"/>
    <path class="cls-6" d="M88.83,59.52c.63-.22,1.09,1.38.24,1.54-.76.15-1.03-1.27-.24-1.54Z"/>
    <path class="cls-6" d="M67.91,84.57s-.17-.67-.18-.76c-.11-.92.97-.8,1.18.07.08.33-.23.75-.45.8-.04.01-.52-.08-.54-.11Z"/>
    <path class="cls-6" d="M66.59,85.87c-.1-.27-.26-.49-.25-.81-.61.44-.85-.85-.14-.83.07,0,.09.45.3.34l-.06-.51c-.01-.08.15-.08.18-.07.06.03.59,1.38.58,1.46-.02.21-.47.28-.6.41Z"/>
    <path class="cls-6" d="M65.56,85.9s.11.68.16.73c.03.03.22-.13.32-.14.27-.04.74.51.58.87.17-.12.33.11.25.25-.06.11-.31-.13-.35-.12-.14.02-.2.72-.82-.11-.32-.43-.43-.77-.28-1.32.02-.06,0-.32.13-.15Z"/>
    <path class="cls-6" d="M84.02,71.69s.07.26,0,.28c-.46.17-.17-.19-.16-.33.01-.23-.29-.72.18-.79.28-.04,1.64.27,1.16.83-.38.45-1.12-.09-1.17,0Z"/>
    <path class="cls-6" d="M59.44,46.45c-.04.39.25.56.32.86.16.69-.8,1.94-1.04,1.05-.26-.95.56-.77.62-.87.01-.02.05-.55.04-.61,0-.04-.29-.42.05-.43Z"/>
    <path class="cls-6" d="M88.82,64.75s.15.44.24.43c.02,0,.09-.24.25-.21.14.03.44.5.73.58.21.06.7-.19.68.31,0,.14-.91.4-.98.34-.03-.02-.05-.22-.12-.3-.18-.22-.48-.3-.63-.62v.28c-.54.12-.52-1.02-.18-.81Z"/>
    <path class="cls-6" d="M59.82,44.36c.21-.07.42.65.41.9-.01.21-.4,1.09-.62,1.08-.21-.05-.32-1.39-.14-1.67.02-.03.33-.3.35-.31Z"/>
    <path class="cls-6" d="M95.4,66.48c.41-.2,1.08,1.04.7,1.35-.19.15-.89-.05-.98-.27-.11-.27.07-.98.28-1.08Z"/>
    <path class="cls-6" d="M86.68,38.75c.04.05.12.73.11.86-.01.48-.74.8-.93.54s.12-1.33.43-1.45c.08-.03.34-.02.38.05Z"/>
    <path class="cls-6" d="M85.63,91.14c.22-.12.8-.1.85.28.13.94-1.11,1.37-1.19.35-.01-.14.24-.57.34-.62Z"/>
    <path class="cls-6" d="M86.85,66.78c.1.11.18.48.16.64-.03.22-.31.27-.32.29-.03.08.26.43.22.75-.02.2-.42.71-.57.6-.36-.61.09-1.11.13-1.6.02-.2-.06-.57-.04-.64.03-.1.31-.14.41-.04Z"/>
    <path class="cls-6" d="M84.87,50.36s-.05.4-.11.46c-.07.07-.42.09-.5.04-.14-.09-.13-.66-.17-.87.22.05,1.03-.51,1.12-.47.19.08.28.38.21.62-.2.66-.47.13-.55.22Z"/>
    <path class="cls-6" d="M73.82,88.63c-.15,0-.14-.25-.21-.32-.12-.12-.37,0-.48-.49-.24-1.08.69-1.3.89-.24.1.51-.12.64-.21,1.06Z"/>
    <path class="cls-6" d="M83.7,80.63s.25.35.26.42c0,.09-.14.96-.18,1.04-.15.32-.17-.02-.26-.1-.28-.25-.7-.37-.62-.94.03-.23.63-.52.8-.42Z"/>
    <path class="cls-6" d="M58.47,46.3s.06.38-.29.48c-.23.06-.18-.68-.15-.88.13-.67.67-.49,1.06-.27.92.52-.58.6-.62.67Z"/>
    <path class="cls-6" d="M56.45,46.07c.2.14-.03.59.01.64.01.02.26.05.36.24.26.51-.56.7-.84.66-.08-.2.01-.52-.03-.68-.03-.11-.18-.18-.17-.36.01-.12.54-.6.66-.51ZM56.29,46.55l-.22.03.02.18c.1.02.19-.07.19-.21Z"/>
    <path class="cls-6" d="M88.41,66.77c.1.05.05.51.07.54.07.08.42-.06.51.55.09.65-.65.71-.76.36-.04-.13.03-.3,0-.44-.04-.23-.42-.8-.14-.96.06-.03.26-.07.31-.04Z"/>
    <path class="cls-6" d="M51.89,64.83c-.37.61-1.67-.53-.85-.88.54-.23,1.16.37.85.88Z"/>
    <path class="cls-6" d="M70.84,87.81s-.38-.27-.06-.39c.31.54.76.02.92.69.22.92-.7,1.02-.82.46-.06-.25.08-.52-.04-.76Z"/>
    <path class="cls-6" d="M98.61,75.81c.06.09.04.4.07.54l-.82-.09c.18.42.5,1.17-.08,1.13.07-.33-.35-1.18-.28-1.37.13-.36.99-.39,1.11-.22Z"/>
    <path class="cls-6" d="M87.28,65.09c.15.17.32.03.06.4l-.18-.26c-.19.26-.28.67-.62.64-.12-.4.2-.45.2-.77l-.42.14-.17-.82c.14,0,.39-.11.52-.02.07.05.09.24.15.31.08.1.27.15.47.38Z"/>
    <path class="cls-6" d="M94.59,74.25c.05.03.23.42.25.53.14.58-.83,1.14-.94.24-.06-.47.35-.95.69-.76Z"/>
    <path class="cls-6" d="M95.07,86.91c.32-.53,1.18.24.76.87-.49.74-1.06-.37-.76-.87Z"/>
    <path class="cls-6" d="M75.02,90.71c-.13.43-1.16.36-.96-.52s1.16-.13.96.52Z"/>
    <path class="cls-6" d="M82.18,54.8h-.66c.29.69.13.97-.47.98,0-.16-.14-.89-.11-.92.02-.03.35,0,.46-.07.15-.09.44-1.23.78.01Z"/>
    <path class="cls-6" d="M79.01,81.29c.51-.15.76,1.01.26,1.14-.41.11-1.13-.89-.26-1.14Z"/>
    <path class="cls-6" d="M93.35,67.56c-.43.36-1.25.45-1.05-.52.16-.79.93.02,1.05.52Z"/>
    <path class="cls-6" d="M61.99,89.96c-.02.1-.16.76-.15.94,0,.32.2.47.17.64-.05.25-.39.63-.55.47-.08-.08.28-2.27.36-2.51.02-.07.05-.16.12-.17.01.21.09.42.05.63Z"/>
    <path class="cls-6" d="M59.06,51.37c.39-.1.66.74.09.98-.95.41-.71-.82-.09-.98Z"/>
    <path class="cls-6" d="M51.23,51.46c-.06.06-.22.04-.31.05l-.72-.14c.39-.17.14-.66.54-.84.55-.25.6.82.49.93Z"/>
    <path class="cls-6" d="M87.01,78.26c.07.04.41.62.54.71-.26.51-1.34.17-1.12-.47.06-.17.45-.31.58-.24Z"/>
    <path class="cls-6" d="M97.13,79.9c.38-.76.99.35.51.54-.41.17-.5-.35-.54-.36-.17-.04-.54.22-.6.17.14-.47.34-1.23.62-.35Z"/>
    <path class="cls-6" d="M58.87,53.25c-.06.1-.68-.14-.81-.16-.12-.02-.6.23-.57-.28.01-.19.26-.05.35-.13.14-.12.02-.43.27-.35.13.04.84.78.75.92Z"/>
    <path class="cls-6" d="M54.73,94.61c.23.31-.29,1.78-.45,2.1-.06.12-.09.24-.23.22.05-.78.19-1.47.5-2.13.05-.1-.03-.23.17-.2Z"/>
    <path class="cls-6" d="M80.71,85.54s-.15.02-.19.09c-.09.12-.09.37-.22.35-.03,0-.45-.42-.46-.46-.08-.25.36-.31.38-.38.07-.18-.22-.67-.04-.73s.59,1.03.53,1.14Z"/>
    <path class="cls-6" d="M83.84,83.49c-.84.52-1.78-2.04-.47-.22.16-.05-.03-.41.02-.55.02-.06.38-.19.41-.16,0,.23.24.81.04.93Z"/>
    <path class="cls-6" d="M58.25,41.75c.47-.12.68,1.07.06,1.07-.43,0-.47-.97-.06-1.07Z"/>
    <path class="cls-6" d="M87.29,80.45c-.14.07-.36-.08-.47-.04-.03,0,0,.38-.29.14-.24-.2-.02-.68-.39-.52-.03-.43.31,0,.15-.58.09-.17.92.85,1,1Z"/>
    <path class="cls-6" d="M83.05,72.18s-.2-.53-.22-.59c-.22-.94.58-1.02.57,0,0,.21-.16.75-.35.58Z"/>
    <path class="cls-6" d="M50.6,62.12c.39-.2,1.26.84.52,1.01-.16.04-.8-.87-.52-1.01Z"/>
    <path class="cls-6" d="M56.66,44.17c-.32.03-.32-.44-.49-.68-.13-.19-.61-.31-.53-.5.05-.12.44-.33.61-.17.09.09.46,1.28.42,1.35Z"/>
    <path class="cls-6" d="M52.3,63.55c.23.3.31.33.22.85-.13.06-.15-.06-.22-.13-.15-.15-.85-.8-.52-.98.39-.22.37.06.53.26Z"/>
    <path class="cls-6" d="M83.97,92.55c.39-.22.93.66.36.94-.4.19-.67-.76-.36-.94Z"/>
    <path class="cls-6" d="M48.04,64.6s-.43-.34-.13-.39c.28-.05,1.31.98.68,1.41-.21.09-.22-.45-.29-.62-.05-.11-.18-.3-.26-.4Z"/>
    <path class="cls-6" d="M99.44,75.98c-.1-.11-.29-.41-.17-.55,1.1-.63.92,1.38.17.55Z"/>
    <path class="cls-6" d="M82.74,93.17c.17.1.3,1.07-.19,1.05-.02,0-.29-.38-.3-.41-.17-.46.22-.79.49-.63Z"/>
    <path class="cls-6" d="M49.8,63.14c0,.14.05.31.06.46-.04.07-.79-.09-.83-.23.04-.31.05-.58.33-.64.23-.05.25.21.44.41Z"/>
    <path class="cls-6" d="M83.63,87.81c-.1.4.28.67.31.76.14.46-.84.09-.89-.08s.38-.75.58-.68Z"/>
    <path class="cls-6" d="M84.18,70.43s-.3-.29-.31-.31c-.26-.43,1.08-.68.89-.02-.05.19-.42.38-.57.32Z"/>
    <path class="cls-6" d="M98.59,81.8c.28-.04.53.63.13.86-.62.36-.66-.79-.13-.86Z"/>
    <path class="cls-6" d="M57.03,53.85c-.08.12-1.38-.53-1.4-.62-.07-.47,1.63.24,1.4.62Z"/>
    <path class="cls-6" d="M49.76,67.08c.08.18.21.55.14.73-.03.08-.47.25-.53.21-.38-.26,0-1.06.4-.94Z"/>
    <path class="cls-6" d="M63.39,93.36c.47-.44.79.58.33.69-.41.09-.71-.99-.4-.96.13.01.06.27.07.27Z"/>
    <path class="cls-6" d="M52.12,84.64c-.18-.59.23-.71.57-.93.3-.19.2.42.05.62-.08.11-.55.38-.62.31Z"/>
    <path class="cls-6" d="M90.88,84.59c-.13-.78,1.2-1.03.82-.28-.17.33-.54.21-.82.28Z"/>
    <path class="cls-6" d="M67.2,96.36c-.05-.05-.26-1.53.23-1.33.28.08.02,1.6-.23,1.33Z"/>
    <path class="cls-6" d="M45.92,67.99s-.22-.41-.19-.52c.09-.33.55-.51.69-.02.12.41-.3.66-.5.54Z"/>
    <path class="cls-6" d="M88.51,53.26c-.24.35-.69-.13-.36-.64.45-.68.71.13.36.64Z"/>
    <path class="cls-6" d="M76.48,86.35c-.1.04-.18,0-.28-.04-1.07-.38.23-1.74.28.04Z"/>
    <path class="cls-6" d="M69.04,41.54c.15.6.04,1.19-.41,1.45-.08-.33,0-.56.08-.85.02-.08.21-.74.33-.6Z"/>
    <path class="cls-6" d="M57.13,49.26c-.12.24-.68-.88-.72-.97-.15-.35.16-.25.33-.1.3.26.37.65.39,1.07Z"/>
    <path class="cls-6" d="M56.93,45.17c-.23.12-.12-.24-.22-.26-.25-.05-.39.21-.59.26-.16-1,.98-1.01.81,0Z"/>
    <path class="cls-6" d="M64.77,47.56c.05-.1-.11-.53.21-.46.13.03.35.38.33.55-.06.29-.31.09-.42.16-.07.04-.09.28-.22.26-.39-.39.06-.41.11-.5Z"/>
    <path class="cls-6" d="M94.92,82.23c.11.51-.27.46-.48.61-.25.19-.45.49-.78.47.07-.63.52-.52.82-.68.14-.07.23-.43.44-.41Z"/>
    <path class="cls-6" d="M69.99,75.83c-.08.4.35.44.36.64.02.3-.31.49-.52.5.03-.19-.14-.48-.15-.58,0-.08.14-.1.17-.17.04-.1-.15-.4.13-.39Z"/>
    <path class="cls-6" d="M89.7,67.61c-.14-.08-.39-.71-.08-.82.55-.19.65,1.13.08.82Z"/>
    <path class="cls-6" d="M91.14,66.24c-.18-.2.24-1.05.61-.73.49.42-.55.79-.61.73Z"/>
    <path class="cls-6" d="M67.42,82.62c.08.08.27.48.21.61-.5.4-.9-.18-.44-.68.06-.02.18.02.24.07Z"/>
    <path class="cls-6" d="M87.09,61.42c.21.33-.28,1.3-.51.56-.18-.6.42-.7.51-.56Z"/>
    <path class="cls-6" d="M77.26,87.28c-.06-.4-.43-.72-.54-1.05-.17-.52.32-.08.46.13.16.24.46.86.08.92Z"/>
    <path class="cls-6" d="M96.04,81.81c-.16-.14.51-.69.6-.74.36-.22.15.71.02.76-.06.02-.46-.19-.62-.01Z"/>
    <path class="cls-6" d="M93.95,77.3c-.31.32-1.1.08-.71-.42.28-.36.52.1.71.42Z"/>
    <path class="cls-6" d="M84.24,56.05c-.19-.18.54-1.43.77-.89-.24.11-.31.69-.42.8-.06.06-.33.12-.36.09Z"/>
    <path class="cls-6" d="M87.13,82.15c.05.08.2.12.24.22.15.5-.35.26-.49.3-.06.02-.24.46-.32.16,0-.03.14-.59.16-.61.07-.07.31-.03.42-.07Z"/>
    <path class="cls-6" d="M58.43,44.8c.18.52-.62.84-.74.51-.17-.46.52-.51.74-.51Z"/>
    <path class="cls-6" d="M58.61,79.46c-.07-.29.13-.43.16-.69.03-.25-.18-.53.02-.54l.53.45c-.16.37-.51.44-.71.79Z"/>
    <path class="cls-6" d="M85.31,78.27c.1-.02.12.04.18.12.49.65-.21.99-.47.33-.02-.16.19-.42.29-.45Z"/>
    <path class="cls-6" d="M56.63,55.41c.09.05.89,1.94.27,1.16-.19-.23-.76-1.47-.27-1.16Z"/>
    <path class="cls-6" d="M51.54,84.14c-.35.37-.08-.33-.11-.35l-.21.12c-.17-.48.35-.58.6-.82l.14.22c-.26.07-.39.8-.42.83Z"/>
    <path class="cls-6" d="M56.85,72.85l-1.11-.66c.1-.64,1.22.42,1.11.66Z"/>
    <path class="cls-6" d="M90.07,62.26c-.29-.56.86-.79.89-.53.02.21-.72.54-.89.53Z"/>
    <path class="cls-6" d="M80.71,86.88c.13.14.15.5.18.7-.92.2-.58-1.12-.18-.7Z"/>
    <path class="cls-6" d="M86.87,85.65c.15-.07.38.1.48.25-.31,1.12-.97-.03-.48-.25Z"/>
    <path class="cls-6" d="M67.48,46.22c.01.22-.03.47-.15.63-.46.59-.8-.75.15-.63Z"/>
    <path class="cls-6" d="M67.66,85.64s-.25.05-.28.03c-.11-.09-.27-1.08-.03-1.1.16-.02.41.92.31,1.08Z"/>
    <path class="cls-6" d="M90.01,59.58c.12.12.14.43.17.61-.14,0-.45.12-.56-.02-.16-.21.1-.9.39-.59Z"/>
    <path class="cls-6" d="M48.98,45.66c-.37.07-.53,0-.46-.5.1-.71.66-.02.46.5Z"/>
    <path class="cls-6" d="M79.96,87.79c0,.76-.75.88-.66-.01h.66Z"/>
    <path class="cls-6" d="M89.96,84.89c-.12-.4.52-.99.66-.59s-.44.65-.66.59Z"/>
    <path class="cls-6" d="M55.71,70.75c.05.03.19.48.08.6-.09.1-.67.14-.84.33-.26-.64.52-.3.61-.45.03-.05-.19-.69.15-.48Z"/>
    <path class="cls-6" d="M70.85,88.9c-.37.33-.59-.5-.52-.67.02-.06.3-.2.4-.06.1.15.08.54.12.74Z"/>
    <path class="cls-6" d="M97.34,78.13c.42.36-.21,1.04-.53.18.04-.28.38-.31.53-.18Z"/>
    <path class="cls-6" d="M64.26,85.51s.1.22.08.26c-.02.05-.53.56-.64.54.1-.16-.04-.71-.02-.75.02-.03.55-.08.57-.06Z"/>
    <path class="cls-6" d="M57.87,48.04c-.04.07-.56-.07-.59-.13-.31-.49.69-.88.59.13Z"/>
    <path class="cls-6" d="M75.95,83.87c-.04.1-.58.34-.58-.13,0-.66.77-.41.58.13Z"/>
    <path class="cls-6" d="M89.25,69.46c.34.34-.88.29-.92.3-.04-.19.08-.36.21-.4.1-.03.68.07.71.1Z"/>
    <path class="cls-6" d="M56.67,91.84c-.18-.38.65-1.39.7-.88,0,.06-.6.98-.7.88Z"/>
    <path class="cls-6" d="M48.88,67.81c-.09.14-.33.16-.48.17-.3-1.14.77-.61.48-.17Z"/>
    <path class="cls-6" d="M52.19,56.87s.35.77.33.89c-.28.03-.72-.4-.57-.77.04-.1.2-.16.24-.12Z"/>
    <path class="cls-6" d="M83.45,51.27c-.27-.17.07-.8.35-.64.33.4-.06.83-.35.64Z"/>
    <path class="cls-6" d="M84.96,81.85c-.03.07-.6.21-.64.17-.18-.91.8-.59.64-.17Z"/>
    <path class="cls-6" d="M62.12,83.73s.03.09.06.12c.08.05.18,0,.19.01.15.15-.32,1.25-.29.31l-.21.4c.02-.3-.07-1,.25-.84Z"/>
    <path class="cls-6" d="M51.21,80.73c-.16.49-.59.78-1,.87-.21-.19.87-.87,1-.87Z"/>
    <path class="cls-6" d="M53.93,68.72c0,.53-.59.42-.9.48-.14-.54.6-.36.9-.48Z"/>
    <path class="cls-6" d="M74.97,88.4c-.11.19-.7-.44-.64-.67,0-.03.12-.2.13-.2.09-.01.6.63.51.87Z"/>
    <path class="cls-6" d="M49.77,47.54c.15-.03,1.27.64.6.67-.24,0-.95-.6-.6-.67Z"/>
    <path class="cls-6" d="M98.19,80.15c.33-.43.06-.69.12-.85.08-.18.38-.07.38.25,0,.03-.12.56-.13.59-.06.14-.24.05-.29.09-.09.13-.13.09-.08-.08Z"/>
    <path class="cls-6" d="M85.93,66.87c.26,1.12-.34,1.19-.36.04l.36-.04Z"/>
    <path class="cls-6" d="M57.24,58.59c-.26.11-.42-.15-.62-.25-.05-.02-.28.08-.29-.06-.04-.5.88-.19.92.31Z"/>
    <path class="cls-6" d="M65.87,46.23c-.38.11-.58-.07-.58-.58.38-.11.58.07.58.58Z"/>
    <path class="cls-6" d="M92.44,82.35s-.21.04-.27-.06c-.04-.06.02-.2-.02-.3-.04-.12-.29-.47-.2-.61.02-.03.24-.04.3,0,.04.02.21.92.19.96Z"/>
    <path class="cls-6" d="M64.12,45.69l-.51.06c-.1-.74.51-1.04.51-.06Z"/>
    <path class="cls-6" d="M82.59,75.6s-.08.04-.13,0c-.02-.02-.28-.45-.29-.48-.1-.27.13-.88.29-.47.09.23.08.67.13.95Z"/>
    <path class="cls-6" d="M80.97,57.48c.14.48-.09.67-.42.8-.11-.44.05-.81.42-.8Z"/>
    <path class="cls-6" d="M85.1,40.8c.08.06-.46,1.14-.59,1.19-.1-.28.34-1.4.59-1.19Z"/>
    <path class="cls-6" d="M89.39,68.68s-.24-.24-.24-.25c-.2-.37.04-.42.31-.35.47.13.17.73-.06.6Z"/>
    <path class="cls-6" d="M55.43,70.78c-.11.14-1.02-.42-.75-.75.14-.17.68.56.75.75Z"/>
    <path class="cls-6" d="M49.61,68.87c-.28-.16-.15.5-.33.32-.05-.05-.07-.51-.42-.46.08-.41.77-.33.75.14Z"/>
    <path class="cls-6" d="M49.8,63.14c.01-.68.67-.42.54.21-.27.08-.35-.02-.54-.21Z"/>
    <path class="cls-6" d="M57.08,74.69c-.56.19-.8-.66-.14-.6l.14.6Z"/>
    <path class="cls-6" d="M69.8,90.53l-.39.7-.23.21c-.11-.56.18-.94.62-.92Z"/>
    <path class="cls-6" d="M85.75,62.97c0,.09.06.34.04.37-.03.04-.74.06-.87.11.12-.42.52-.45.82-.47Z"/>
    <path class="cls-6" d="M90.92,53.15c-.2.33-.59.05-.4-.36s.63-.03.4.36Z"/>
    <path class="cls-6" d="M56.24,70.41c.44-.18.6.33.18.43-.46.12-.58-.28-.18-.43Z"/>
    <path class="cls-6" d="M72.79,83.92c.12.13.14.43.17.61-.42.22-.65-.34-.34-.68.05.02.14.03.18.07Z"/>
    <path class="cls-6" d="M85.54,70.94s-.24.14-.27.12-.38-.58-.38-.64c0-.37.75.27.65.52Z"/>
    <path class="cls-6" d="M90.39,79.42s-.03.3,0,.41c.02.09.16.16.16.27,0,.18-.59.37-.46-.13.02-.09.2-.67.3-.55Z"/>
    <path class="cls-6" d="M82.18,91.54c.05.05.3.84.26.9-.26.08-.32.04-.39-.31-.02-.11-.06-.79.13-.6Z"/>
    <path class="cls-6" d="M50.18,63.84c-.39-.58.56-.2.78-.19.02.52-.45.12-.78.19Z"/>
    <path class="cls-6" d="M51.21,66.9c.24.42-.64.5-.68.46-.02-.02-.03-.21,0-.28.08-.18.51-.12.68-.17Z"/>
    <path class="cls-6" d="M79.9,81.91c-.16.04-.19.04-.29-.12-.47-.73.5-.86.29.12Z"/>
    <path class="cls-6" d="M52.01,67.45c.16.16-.11.32-.11.34.02.14.26.31.2.4-.07.11-.46-.17-.55-.26-.07-.21.37-.56.46-.47Z"/>
    <path class="cls-6" d="M67.06,81.89s.02.2.03.28c-.45-.09-.21-.03-.33.28-.05.12-.14.28-.26.26-.3-.47.45-.93.56-.82Z"/>
    <path class="cls-6" d="M57.11,87.58c-.14-.13.33-.88.37-.88.27-.04-.03,1.09-.37.88Z"/>
    <path class="cls-6" d="M85.13,65.76v.65c-.51.05-.6-.73,0-.65Z"/>
    <path class="cls-6" d="M64.22,96.52c-.05-.09-.03-.32-.06-.45,1.04-.21.3.82.06.45Z"/>
    <path class="cls-6" d="M53.46,79.99l.07.55c-.99.25-.28-.76-.07-.55Z"/>
    <path class="cls-6" d="M52.91,66.41l-.43.05c-.19-.76.44-.84.43-.05Z"/>
    <path class="cls-6" d="M50.35,79.15c-.21-.21.3-.46.42-.52.07-.03.2-.18.26.02.07.26-.58.59-.67.5Z"/>
    <path class="cls-6" d="M82.26,89.19c-.08.12-.58-.06-.46-.41.2-.58.59.2.46.41Z"/>
    <path class="cls-6" d="M87.7,80.77c-.1-.37.39-.86.53-.48.13.35-.37.44-.53.48Z"/>
    <path class="cls-6" d="M99.82,77.81c.2-.22.71.3.3.5-.36.18-.4-.38-.3-.5Z"/>
    <path class="cls-6" d="M68.91,89.89c-.34.11-.34-.28-.37-.61.55-.11.42.08.37.61Z"/>
    <path class="cls-6" d="M78.59,93.38c.16-.27.64.55.35.8-.17-.07-.43-.67-.35-.8Z"/>
    <path class="cls-6" d="M83.42,55.31c.14.31-.33.84-.46.47-.11-.33.24-.52.46-.47Z"/>
    <path class="cls-6" d="M72.1,82.95c-.01.38,0,.5.17.82l-.43.05c.06-.25,0-.84.26-.87Z"/>
    <path class="cls-6" d="M83.24,53.83c-.06.08-.77.09-.77-.28.26-.03.68-.21.77.28Z"/>
    <path class="cls-6" d="M96.88,77.22c.11.48.03.62-.37.6-.09-.4.05-.62.37-.6Z"/>
    <path class="cls-6" d="M49.56,78.04c-.1.51-.43.43-.68.57-.13.08-.14.31-.31.3l.48-.69.51-.18Z"/>
    <path class="cls-6" d="M80.88,39.91c-.29-.05-.24-.97,0-.93.32.05-.06.76,0,.93Z"/>
    <path class="cls-6" d="M97.73,80.58c.01.24-.61.8-.67.5.08-.39.37-.51.67-.5Z"/>
    <path class="cls-6" d="M68.99,53.69s-.16-.4-.14-.44c.14-.13.59.09.62.25.02.14-.38.24-.48.18Z"/>
    <path class="cls-6" d="M93.48,76.42c.15-.07.7.05.7.33,0,.22-.17.08-.24.06-.18-.04-.45-.11-.46-.39Z"/>
    <path class="cls-6" d="M56.8,78.74c.23-.12.52.38.27.52-.36.19-.46-.42-.27-.52Z"/>
    <path class="cls-6" d="M50.18,63.84c.06.09.24.06.19.38-.09.57-.88-.24-.19-.38Z"/>
    <path class="cls-6" d="M89.92,88.83s.03.35.06.46c-.28.21-.67-.23-.42-.47.01-.01.35,0,.37.01Z"/>
    <path class="cls-6" d="M82.66,82.79c-.55.2-.57-.95-.17-.54.11.11.16.37.17.54Z"/>
    <path class="cls-6" d="M78.81,78.96c.11.49.02.62-.37.6-.13-.4.11-.49.37-.6Z"/>
    <path class="cls-6" d="M68.64,91.6c.29-.13.42.7,0,.65-.2-.02-.1-.61,0-.65Z"/>
    <path class="cls-6" d="M65.95,91.46c.1.31,0,.45-.22.55-.43.18-.14-.67.22-.55Z"/>
    <path class="cls-6" d="M79.87,87.61c-.08-.06-.18-.82.23-.54.27.18.02.71-.23.54Z"/>
    <path class="cls-6" d="M58.01,58.87c.06-.01.23-.18.28-.13.14.15-.07.43-.24.4-.02-.08-.01-.2-.03-.28-.36.07-.64-.61-.41-.7.19-.07.37.54.41.7Z"/>
    <path class="cls-6" d="M52.68,77.75c0,.57.06.62-.44.61.08-.34.08-.66.44-.61Z"/>
    <path class="cls-6" d="M84.98,67.18c.25-.14.48.15.25.42-.31.36-.47-.3-.25-.42Z"/>
    <path class="cls-6" d="M55.33,86.87l-.27.6c-.23.27-.34-.2-.1-.45.11-.11.24-.15.38-.15Z"/>
    <path class="cls-6" d="M96.28,80.76c.23.22-.34.97-.37.32-.01-.33.26-.43.37-.32Z"/>
    <path class="cls-6" d="M85.65,44.66c.09.09.04.71-.17.67-.33-.05-.03-.9.17-.67Z"/>
    <path class="cls-6" d="M90.42,85.68c-.33.08-.52-.37-.26-.62.21-.08.25.46.26.62Z"/>
    <path class="cls-6" d="M55.99,54.47c.23.26.33.98-.06.49-.29-.37-.18-.75.06-.49Z"/>
    <path class="cls-6" d="M65.29,92.1l-.36.05-.07-.55c.28-.08.42.18.43.51Z"/>
    <path class="cls-6" d="M86.17,76.66c.08.34-.31.34-.37.44-.04.06.02.22-.09.35-.05.06-.42.27-.44.25-.26-.29.39-.52.44-.57.13-.14.09-.56.46-.47Z"/>
    <path class="cls-6" d="M87.29,83.44l-.29.04c-.24-.92.26-.91.29-.04Z"/>
    <path class="cls-6" d="M72.58,80.28c.2.31-.4.53-.47.28-.12-.42.41-.38.47-.28Z"/>
    <path class="cls-6" d="M59.44,53.09c-.08.03-.58.07-.53-.17.08-.44.51-.26.53.17Z"/>
    <path class="cls-6" d="M89.79,76.87s-.45.19-.49.15c-.12-.8.58-.36.49-.15Z"/>
    <path class="cls-6" d="M98.7,76.53s.11.73-.02.75c-.09,0-.26-.4-.25-.56s.22-.23.26-.19Z"/>
    <path class="cls-6" d="M91.22,49.4l-.53.44c-.17-.18.45-1.08.53-.44Z"/>
    <path class="cls-6" d="M77.49,79.99c.27-.43.52.29.29.41-.17.09-.43-.18-.29-.41Z"/>
    <path class="cls-6" d="M81.5,88.35c-.01.1.18.74-.03.66-.3-.11-.44-.77.03-.66Z"/>
    <path class="cls-6" d="M73.5,92.6c.15.13-.52,1.04-.43.06l.43-.06Z"/>
    <path class="cls-6" d="M87.93,67c-.02.1.18.74-.03.66-.3-.11-.41-.67.03-.66Z"/>
    <path class="cls-6" d="M84.31,87.92c-.12-.41.28-.54.48-.29.08.27-.35.29-.48.29Z"/>
    <path class="cls-6" d="M87.13,82.15c-.15-.22-.2-.35-.15-.64.12-.16.62.49.15.64Z"/>
    <path class="cls-6" d="M61.75,94.97l.06.46c-.93.26-.19-.61-.06-.46Z"/>
    <path class="cls-6" d="M63.01,48.8s-.34.46-.4.21c-.04-.15.21-.56.33-.64.08.06.1.36.07.44Z"/>
    <path class="cls-6" d="M65.85,47.91c.29.76-.4,1.24-.15.21.03-.14-.04-.23.15-.21Z"/>
    <polygon class="cls-6" points="88.7 77.01 88.65 77.48 88.3 77.29 88.7 77.01"/>
    <path class="cls-6" d="M84.01,57.11c-.14-.33.28-.69.39-.37s-.21.38-.39.37Z"/>
    <path class="cls-6" d="M53.62,69.78c-.6.27-.77-.55-.18-.3.09.04.19.17.18.3Z"/>
    <path class="cls-6" d="M86.51,86.71c.18.17-.28.72-.39.37s.33-.43.39-.37Z"/>
    <path class="cls-6" d="M85.12,82.49c-.05.11-.61.36-.6-.11.1-.05.75-.23.6.11Z"/>
    <path class="cls-6" d="M53.92,56.66s.11.49.03.55c-.55-.14-.33-.76-.03-.55Z"/>
    <path class="cls-6" d="M73.89,94.61c0-.54.33-.41.57-.12l-.57.12Z"/>
    <path class="cls-6" d="M82.59,75.6c.32.16.33.21.38.7-.32.02-.33-.44-.38-.7Z"/>
    <path class="cls-6" d="M55.87,85.3l-.36.04c0-.67.28-.86.36-.04Z"/>
    <path class="cls-6" d="M96.09,78.54c-.03-.1-.06-.65.11-.57.28.13.31.67-.11.57Z"/>
    <path class="cls-6" d="M62.31,52.15c-.24.39-.52-.17-.25-.37.11-.08.41.12.25.37Z"/>
    <path class="cls-6" d="M56.8,71.82c.23.22-.27.62-.49.2-.11-.21.47-.22.49-.2Z"/>
    <path class="cls-6" d="M52.57,49.92c.36-.18.29.52-.03.46-.2-.04-.13-.38.03-.46Z"/>
    <path class="cls-6" d="M67.76,81.61c-.46.21-.51-.53-.16-.45.13.03.16.31.16.45Z"/>
    <path class="cls-6" d="M88.99,63.04c.2.2-.25.56-.39.42-.2-.2.25-.56.39-.42Z"/>
    <path class="cls-6" d="M89.1,66.95c-.13.23-.59-.37-.25-.53.19-.09.28.47.25.53Z"/>
    <path class="cls-6" d="M95.77,81.94c.08.27-.4.54-.48.29-.09-.27.37-.29.48-.29Z"/>
    <path class="cls-6" d="M53.81,42.57s.17.48.15.53c-.34.07-.62-.81-.15-.53Z"/>
    <path class="cls-6" d="M63.79,49.01c.25.26-.36.86-.36.04.08,0,.34-.07.36-.04Z"/>
    <path class="cls-6" d="M90.53,86.8c.33-.08.23.84-.24.25,0-.05.18-.24.24-.25Z"/>
    <path class="cls-6" d="M72.84,82.4c.03.22.15.63-.1.67-.15.02-.2-.86.1-.67Z"/>
    <path class="cls-6" d="M83.02,70.69c-.09.19-.51-.52-.26-.62.21-.08.25.46.26.62Z"/>
    <path class="cls-6" d="M50.09,71.61c-.08-.03-.57.18-.52-.07.06-.34.46-.3.52.07Z"/>
    <path class="cls-6" d="M97.21,63.63c.09.08-.14.78-.39.38,0-.21.26-.49.39-.38Z"/>
    <path class="cls-6" d="M83.37,72.98c-.47.38-.55-.61-.11-.31.11.07.1.19.11.31Z"/>
    <path class="cls-6" d="M70.62,87.62c.07.28-.02.42-.24.4l-.21-.53c.16.11.28.19.46.13Z"/>
    <path class="cls-6" d="M71.24,87.27c.01-.09-.17-.75.03-.66.24.11.27.62-.03.66Z"/>
    <path class="cls-6" d="M51.54,65.36c.1.37-.05.67-.32.36l.32-.36Z"/>
    <path class="cls-6" d="M61.96,48.97c.13-.2.38-.02.37.17,0,.29-.61.21-.37-.17Z"/>
    <path class="cls-6" d="M90.57,93.51c-.12.18-.5-.24-.43-.51.16-.1.48.43.43.51Z"/>
    <path class="cls-6" d="M97.43,63.04c.13.11-.34.62-.45.52-.13-.12.29-.61.45-.52Z"/>
    <path class="cls-6" d="M55.45,84.23c.16.16-.22.6-.3.5-.18-.2.13-.67.3-.5Z"/>
    <path class="cls-6" d="M94.16,73.54c-.17.09-.34.17-.51.02.1-.29.44-.44.51-.02Z"/>
    <path class="cls-6" d="M62.6,84.48c.09.09.07.72-.22.59-.05-.17,0-.8.22-.59Z"/>
    <path class="cls-6" d="M82.04,75.95c.06,0,.2-.04.22-.03.02.02.09.62.08.64-.01.02-.16,0-.22.03-.02-.21-.07-.43-.08-.65Z"/>
    <path class="cls-6" d="M63.17,86.1s.12-.64.09-.76c.3.18.15.98-.09.76Z"/>
    <path class="cls-6" d="M93.37,61.95c.1,0,.2.26.03.35-.1.05-.39.06-.4-.08,0-.07.34-.27.37-.27Z"/>
    <path class="cls-6" d="M49.38,61.51c-.1.17-.52-.25-.42-.42s.52.25.42.42Z"/>
    <path class="cls-6" d="M55.41,61.62c-.21-.26.43-.45.44,0,0,.21-.42.03-.44,0Z"/>
    <path class="cls-6" d="M63.87,87.04c.05.63-.25.8-.29.03l.29-.03Z"/>
    <path class="cls-6" d="M92.02,60.24c.18.4-.23.67-.32.36-.06-.18.28-.42.32-.36Z"/>
    <path class="cls-6" d="M54.52,83.23c.1.08-.22.6-.3.5-.17-.2.12-.67.3-.5Z"/>
    <path class="cls-6" d="M52.74,77.09c.13.56-.54.68-.27.18.03-.06.23-.22.27-.18Z"/>
    <path class="cls-6" d="M83.5,86.71l-.45-.08c.13-.36.36-.3.45.08Z"/>
    <path class="cls-6" d="M95.53,64.96c.23.27-.25.65-.32.36-.05-.2.26-.44.32-.36Z"/>
    <path class="cls-6" d="M90.69,77.6s-.52-.06-.48-.31c.23-.06.49-.09.48.31Z"/>
    <path class="cls-6" d="M99.46,74.58c.12-.07.25-.04.34.09-.07.14-.14.28-.29.27-.15-.08-.18-.29-.04-.36Z"/>
    <path class="cls-6" d="M87.95,65.41c-.06.09-.37.13-.32-.28.05-.44.43.1.32.28Z"/>
    <path class="cls-6" d="M80.64,83.13c.08.62-.3.74-.29.03l.29-.03Z"/>
    <path class="cls-6" d="M92.37,83.57c.14.14-.14.54-.3.5-.12-.23.19-.63.3-.5Z"/>
    <path class="cls-6" d="M52.53,70.48c.07.07-.12.4-.17.44-.3.25-.26-.53.17-.44Z"/>
    <path class="cls-6" d="M75.32,90.04c-.25.09-.26-.43-.29-.62l.29.62Z"/>
    <path class="cls-6" d="M85.97,89.49c0,.21,0,.79-.22.59-.03-.03-.06-.76.22-.59Z"/>
    <path class="cls-6" d="M94.3,71.09c-.04.07-.4.05-.39-.18.02-.36.53-.05.39.18Z"/>
    <path class="cls-6" d="M79.04,88.65c.14-.23.5.32.24.44-.17.07-.27-.37-.24-.44Z"/>
    <path class="cls-6" d="M58.93,85.12s.02.2.03.28l-.43.05c-.11-.28.34-.39.4-.33Z"/>
    <path class="cls-6" d="M73.19,83.38c-.04-.16.02-.6.18-.58.26.03-.05.59-.18.58Z"/>
    <path class="cls-6" d="M54.82,79.64l-.36.04.03-.38c.21-.07.33.04.33.33Z"/>
    <path class="cls-6" d="M93.34,73.45c.2.2-.23.5-.32.41-.17-.18.18-.55.32-.41Z"/>
    <path class="cls-6" d="M64.6,48.44s.05.35.04.37c-.03.05-.36.03-.38-.09-.03-.21.24-.36.33-.27Z"/>
    <path class="cls-6" d="M58.69,48.78c-.04.07-.4.05-.39-.18.02-.36.53-.05.39.18Z"/>
    <path class="cls-6" d="M81.56,82.83c.17.17-.07.58-.24.4s.07-.58.24-.4Z"/>
    <path class="cls-6" d="M63.78,84.81c.08-.04.21.09.21.21l-.23.26c-.23-.16-.1-.28.02-.47Z"/>
    <path class="cls-6" d="M83.52,87.45c-.07.11-.55-.19-.31-.43l.31.43Z"/>
    <path class="cls-6" d="M50.09,61.89c.17.17-.07.58-.24.4s.07-.58.24-.4Z"/>
    <path class="cls-6" d="M66.59,49.13c.17.17-.07.58-.24.4s.07-.58.24-.4Z"/>
    <path class="cls-6" d="M78.2,78.75l.05.37-.36.04c-.09-.19.26-.47.32-.41Z"/>
    <path class="cls-6" d="M84.03,77.76c.08.45-.12.42-.35.18-.01-.34.18-.16.35-.18Z"/>
    <path class="cls-6" d="M65.67,44.09c-.25.26-.32-.37-.15-.44.2-.08.23.36.15.44Z"/>
    <path class="cls-6" d="M97.29,92.04c-.07.12-.45-.12-.41-.32.18-.14.51.14.41.32Z"/>
    <path class="cls-6" d="M82.43,68.89c-.19-.2.14-.67.25-.36.09.27-.17.44-.25.36Z"/>
    <path class="cls-6" d="M60.45,45.77c.08.08-.04.41-.12.48-.15-.1-.15-.25-.16-.45.07,0,.27-.06.29-.04Z"/>
    <path class="cls-6" d="M52.24,66.3c.17.17-.07.58-.24.4s.07-.58.24-.4Z"/>
    <path class="cls-6" d="M67.95,89.82c.03.15.06.4-.05.47-.3.2-.23-.48.05-.47Z"/>
    <path class="cls-6" d="M88.73,79.9c.19-.08.3.38.13.45-.19.08-.3-.38-.13-.45Z"/>
    <path class="cls-6" d="M84.38,51.73s.13.48-.14.39c-.33-.11-.06-.58.14-.39Z"/>
    <path class="cls-6" d="M87.36,66.6l-.22.03-.07-.55c.2.07.28.28.28.53Z"/>
    <path class="cls-6" d="M77.19,92.15s.13.48-.14.39c-.33-.11-.06-.58.14-.39Z"/>
    <path class="cls-6" d="M92.39,69.27c.13.12-.22.52-.39.42,0-.15.28-.52.39-.42Z"/>
    <path class="cls-6" d="M56.72,77.16c.03.12,0,.21-.07.29-.32.39-.43-.32.07-.29Z"/>
    <path class="cls-6" d="M90.75,67.88c.21.21-.28.56-.33.27-.04-.22.26-.35.33-.27Z"/>
    <path class="cls-6" d="M77.43,39.87c.14-.17.38.35.16.45s-.22-.38-.16-.45Z"/>
    <path class="cls-6" d="M72.15,92.95c-.26.28-.23-.3-.21-.53.17,0,.29.45.21.53Z"/>
    <path class="cls-6" d="M84,72.16s.01.2.03.27l-.36.04c-.09-.26.23-.45.33-.32Z"/>
    <path class="cls-6" d="M97.55,64.62c.15-.18.47.23.22.35s-.3-.26-.22-.35Z"/>
    <path class="cls-6" d="M79.42,49.63c.15-.18.47.23.22.35s-.3-.26-.22-.35Z"/>
    <path class="cls-6" d="M57.12,75.06c.17.17-.07.58-.24.4-.14-.13.11-.54.24-.4Z"/>
    <path class="cls-6" d="M61.67,94.32s.04.28.12.36c-.61.16-.32-.54-.12-.36Z"/>
    <path class="cls-6" d="M75.55,85.9c-.11.17-.5-.19-.24-.44.1.05.3.34.24.44Z"/>
    <path class="cls-6" d="M76.65,82.87c-.14-.15.12-.62.33-.27-.03.13-.25.36-.33.27Z"/>
    <path class="cls-6" d="M87.97,81.86c-.29.12-.57-.16-.23-.35.1.11.23.17.23.35Z"/>
    <path class="cls-6" d="M84.37,69.12c.14.15-.12.62-.33.27.03-.13.25-.36.33-.27Z"/>
    <path class="cls-6" d="M67.66,88.64c.06.24.03.46-.15.58l-.07-.55.22-.03Z"/>
    <path class="cls-6" d="M89.59,79.42c.14.13-.11.54-.24.4-.17-.17.07-.58.24-.4Z"/>
    <path class="cls-6" d="M60.56,47.25c-.05-.15-.06-.51.12-.48.24.04-.01.6-.12.48Z"/>
    <path class="cls-6" d="M72.18,84.81c0-.11-.04-.25-.04-.37l.33.29-.27.17c-.07-.02-.07-.05-.01-.09Z"/>
    <path class="cls-6" d="M98.4,83.68s-.13-.48.14-.39c.29.1,0,.53-.14.39Z"/>
    <path class="cls-6" d="M73.15,93.95c-.02-.18-.03-.53.12-.48.25.09.07.49-.12.48Z"/>
    <path class="cls-6" d="M64.61,94.62c.15-.02.21.5-.02.47s-.07-.46.02-.47Z"/>
    <path class="cls-6" d="M57.24,45.6c.27-.13.31.28.12.36-.16.07-.29-.28-.12-.36Z"/>
    <path class="cls-6" d="M87.84,51.22c-.21-.28.32-.58.28-.08-.01.15-.25.13-.28.08Z"/>
    <path class="cls-6" d="M93.02,52.74c.05.28-.15.32-.33.32l-.03-.28.36-.04Z"/>
    <path class="cls-6" d="M90.92,54.77c-.18-.66.51-.54.11-.01h-.11Z"/>
    <path class="cls-6" d="M97.86,74.39l.03.28-.36.04c-.05-.28.15-.32.33-.32Z"/>
    <path class="cls-6" d="M52.77,52.69s.14.32.12.35l-.29.04c-.07-.24-.06-.52.17-.38Z"/>
    <path class="cls-6" d="M84.71,80.39c.06.32-.21.32-.4.33.04-.25.21-.34.4-.33Z"/>
    <path class="cls-6" d="M58.13,46.89c.15-.02.21.5-.02.47s-.07-.46.02-.47Z"/>
    <path class="cls-6" d="M93.63,80.05s.13.48-.14.39c-.29-.1,0-.53.14-.39Z"/>
    <path class="cls-6" d="M85.43,68.24s.05.2.11.26c-.59.31-.33-.44-.11-.26Z"/>
    <path class="cls-6" d="M83.65,68.65l-.03-.28c.15-.03.27-.07.38.09-.07.18-.19.17-.34.18Z"/>
    <path class="cls-6" d="M60.81,80.59s-.02.36-.04.37c-.25.25-.37-.41.04-.37Z"/>
    <path class="cls-6" d="M97.06,75.71c-.06-.06.08-.37.14-.39.26-.11.19.45-.14.39Z"/>
    <path class="cls-6" d="M59.26,87.79l.06.46-.22.03c-.01-.22-.05-.53.16-.49Z"/>
    <path class="cls-6" d="M48.33,81.27c.11.11-.2.52-.32.41s.24-.49.32-.41Z"/>
    <path class="cls-6" d="M75.42,85.45c-.01-.13-.05-.28-.04-.4.04-.38.43.14.04.4Z"/>
    <path class="cls-6" d="M54.95,60.83c-.07,0-.49.04-.46-.18.04-.29.42.04.46.18Z"/>
    <path class="cls-6" d="M70.56,47.34c.13.38-.28.62-.26.27,0-.08.2-.33.26-.27Z"/>
    <path class="cls-6" d="M75.54,47.29c.06.06.02.41-.13.39-.28-.04-.03-.55.13-.39Z"/>
    <path class="cls-6" d="M94.6,91.06c-.06.1-.44.04-.32-.24.09-.23.43.06.32.24Z"/>
    <path class="cls-6" d="M79.18,48.25l.06.46-.22.03c-.01-.22-.05-.53.16-.49Z"/>
    <path class="cls-6" d="M65.32,91.16c0,.31-.09.31-.33.32-.05-.32.16-.28.33-.32Z"/>
    <path class="cls-6" d="M98.27,80.23s-.05.57-.22.31c-.19-.3.03-.25.14-.39l.08.08Z"/>
    <path class="cls-6" d="M53.64,72.4c.1.33-.34.17-.48.24l.48-.24Z"/>
    <path class="cls-6" d="M62.26,85.28c.05.23.06.48-.16.49-.05-.23-.06-.48.16-.49Z"/>
    <path class="cls-6" d="M54.94,56.53s.13.47-.14.39c-.24-.07-.03-.55.14-.39Z"/>
    <path class="cls-6" d="M73.29,80.66c.11.11-.04.49-.24.4-.07-.2.1-.54.24-.4Z"/>
    <path class="cls-6" d="M80.29,86.26c.16.16-.16.6-.26.26-.06-.19.2-.32.26-.26Z"/>
    <path class="cls-6" d="M51.96,81.48c.09.07-.14,1.06-.22.03.06,0,.2-.04.22-.03Z"/>
    <rect class="cls-6" x="90.47" y="85.28" width=".22" height=".37" transform="translate(-9.67 11.58) rotate(-6.95)"/>
    <path class="cls-6" d="M47.69,45.26s.02.28.04.37c-.49-.01-.21-.53-.04-.37Z"/>
    <rect class="cls-6" x="97.51" y="57.5" width=".29" height=".28" transform="translate(-6.25 12.23) rotate(-6.95)"/>
    <path class="cls-6" d="M56.35,58.79c.17-.07.28.29.11.36s-.28-.29-.11-.36Z"/>
    <rect class="cls-6" x="85.25" y="65.92" width=".22" height=".37" transform="translate(-7.37 10.81) rotate(-6.95)"/>
    <path class="cls-6" d="M82.87,86.97c-.14.18-.45-.48-.08-.36.12.04.12.31.08.36Z"/>
    <path class="cls-6" d="M60.4,57.08c.17-.07.28.29.11.36s-.28-.29-.11-.36Z"/>
    <path class="cls-6" d="M93.68,85.93c.07.16-.17.48-.24.4-.07-.28.02-.42.24-.4Z"/>
    <path class="cls-6" d="M54.11,55.14c.07.28-.02.42-.24.4-.07-.16.17-.48.24-.4Z"/>
    <path class="cls-6" d="M79.79,82.2c0,.13.26.35.2.44-.09.15-.58-.44-.2-.44Z"/>
    <path class="cls-6" d="M73.63,82.21c-.21.07-.33-.04-.33-.33.05-.09.36.16.33.33Z"/>
    <path class="cls-6" d="M54.47,68.93c-.1-.33.32-.37.34-.18.02.12-.24.2-.34.18Z"/>
    <path class="cls-6" d="M60.53,78.94s-.41-.04-.11-.31c.17-.16.15,0,.17.21-.02.02-.04.08-.06.1Z"/>
    <path class="cls-6" d="M63.08,92.65c.1.16-.03.62-.16.49-.04-.05-.02-.61.16-.49Z"/>
    <rect class="cls-6" x="83.08" y="90.3" width=".22" height=".37" transform="translate(-10.33 10.72) rotate(-6.95)"/>
    <path class="cls-6" d="M82.04,75.95s-.1.02-.14.02l-.06-.46c.35-.11.18.11.2.44Z"/>
    <path class="cls-6" d="M55.3,52.28c-.04-.12-.05-.46.05-.47.15-.02.22.52-.05.47Z"/>
    <path class="cls-6" d="M53.34,83.18c.11.09-.22.53-.33.27-.08-.2.31-.29.33-.27Z"/>
    <path class="cls-6" d="M67.51,84.45c-.2.23-.35-.27-.15-.35s.2.3.15.35Z"/>
    <path class="cls-6" d="M60.37,79.43c.06.06.02.41-.13.39-.23-.04-.04-.56.13-.39Z"/>
    <path class="cls-6" d="M85.28,76.58c-.07.11-.4-.08-.32-.24.11-.23.43.06.32.24Z"/>
    <path class="cls-6" d="M92.46,81.03c.17-.07.28.29.11.36s-.28-.29-.11-.36Z"/>
    <path class="cls-6" d="M75.63,48.59c-.22.07-.33-.05-.33-.33.05-.09.36.16.33.33Z"/>
    <rect class="cls-6" x="55.5" y="72.44" width=".22" height=".37" transform="translate(-8.37 7.26) rotate(-6.95)"/>
    <path class="cls-6" d="M89.77,69.49c-.19.04-.36.11-.32-.19.05-.32.38.1.32.19Z"/>
    <rect class="cls-6" x="61.95" y="94.65" width=".22" height=".37" transform="translate(-11.01 8.2) rotate(-6.95)"/>
    <path class="cls-6" d="M93.38,78.59l.03.28-.29.04-.02-.14c.06-.15.14-.18.27-.17Z"/>
    <path class="cls-6" d="M59.13,43.96c.18.16-.31.43-.34.18-.01-.12.29-.23.34-.18Z"/>
    <path class="cls-6" d="M61.07,55.04l.03.28c-.13.04-.21.03-.31-.1l-.02-.14.29-.04Z"/>
    <path class="cls-6" d="M90.04,64.78c.3-.13.11.58-.15.25.05-.05.11-.24.15-.25Z"/>
    <path class="cls-6" d="M60.87,47.96c.04.17.04.27-.06.38h-.11s-.04-.35-.04-.35l.22-.03Z"/>
    <path class="cls-6" d="M73.16,47.02l.02.14c-.23.54-.48-.13-.02-.14Z"/>
    <path class="cls-6" d="M90.26,52.42c.11.58-.46.43-.11.01h.11Z"/>
    <path class="cls-6" d="M64.46,46.12l-.22.03-.04-.37h.11c.13.07.15.17.15.34Z"/>
    <path class="cls-6" d="M86.2,78.71c.04.17.04.27-.06.38h-.11s-.04-.35-.04-.35l.22-.03Z"/>
    <path class="cls-6" d="M77.35,47.07c-.12.15-.37-.26-.15-.35.18-.08.21.29.15.35Z"/>
    <path class="cls-6" d="M68.01,82.52c.06.2-.1.54-.24.4-.08-.07.1-.45.24-.4Z"/>
    <path class="cls-6" d="M66.13,46.57c.17.04.24-.18.25.25l-.29.04c-.05-.13.03-.2.04-.28Z"/>
    <path class="cls-6" d="M65.2,49.21c-.03-.08-.02-.26-.04-.37l.22-.03c.11.37-.11.31-.17.39Z"/>
    <path class="cls-6" d="M47.6,67.43l.03.28-.29.04-.02-.14c.06-.15.14-.18.27-.17Z"/>
    <path class="cls-6" d="M78.14,77.64l.04.37-.22.03c-.04-.17-.04-.27.06-.38h.11Z"/>
    <path class="cls-6" d="M60.98,94.68l-.02-.14c.23-.54.48.13.02.14Z"/>
    <path class="cls-6" d="M78.64,79.91l.03.28c-.13.04-.21.03-.31-.1l-.02-.14.29-.04Z"/>
    <path class="cls-6" d="M48.82,64.2l.03.28c-.13.04-.21.03-.31-.1l-.02-.14.29-.04Z"/>
    <path class="cls-6" d="M92.9,83.69l-.29.04-.03-.28c.13-.04.21-.03.31.1l.02.14Z"/>
    <path class="cls-6" d="M68.11,86.34c-.05-.05-.01-.37.06-.38.28-.03.15.59-.06.38Z"/>
    <path class="cls-6" d="M98.27,71.17c-.04.06-.29,0-.3-.1-.04-.36.46-.16.3.1Z"/>
    <path class="cls-6" d="M77.54,79.39l.03.28-.29.04-.02-.14c.06-.15.14-.18.27-.17Z"/>
    <path class="cls-6" d="M88.23,52.01s0-.42.05-.47c.28.14.07.59-.05.47Z"/>
    <path class="cls-6" d="M96.37,77.29l.03.28-.29.04-.02-.14c.06-.15.14-.18.27-.17Z"/>
    <path class="cls-6" d="M52.68,45.22c.15.16-.11.53-.26.26l.15-.25s.09-.03.11-.01Z"/>
    <path class="cls-6" d="M64.62,44.42l-.04-.37c.29-.03.33.33.04.37Z"/>
    <path class="cls-6" d="M49.76,59.22c.04.12.04.46-.05.47-.14.02-.16-.57.05-.47Z"/>
    <path class="cls-6" d="M52.48,58.05c.08.28,0,.28-.17.39l-.05-.37.22-.03Z"/>
    <path class="cls-6" d="M85.36,53.76l.04.37c-.29.03-.33-.33-.04-.37Z"/>
    <rect class="cls-6" x="98.86" y="79.49" width=".36" height=".18" transform="translate(-8.9 12.56) rotate(-6.95)"/>
    <path class="cls-6" d="M50.67,47.43c.04.36-.24.4-.29.04l.29-.04Z"/>
    <g>
      <path class="cls-6" d="M59.89,79.67c.03.22.21.53.13.74s-.64.26-.71.55c.34.04.63.29.97.16-.21.84.42.65.47,1,.1.76-.3.27-.37.39-.04.06-.03.81-.05.84-.03.05-.23-.01-.28.05-.03.04.04,1.22-.19.95-.03-.43-.18-.88-.08-1.3-.18-.14-.86.95-.61-.21-.86.74-1.22-.62-1.21-1.58,0-.62.36-.49.43-.59.03-.04-.03-.2,0-.24s.21-.05.31-.14c.17-.17.33-.55.57-.53s.35.24.63-.09Z"/>
      <rect class="cls-6" x="59.76" y="84.45" width=".14" height=".46" transform="translate(-9.8 7.86) rotate(-6.95)"/>
    </g>
    <path class="cls-6" d="M91.3,86.22c.06.06.08.37-.15.3-.26-.08.04-.41.15-.3Z"/>
    <path class="cls-6" d="M90.44,67.16c-.05.08-.29.08-.24-.2.05-.33.32.07.24.2Z"/>
    <path class="cls-6" d="M71.1,46.06c.14-.02.18.41-.03.37s-.03-.37.03-.37Z"/>
    <path class="cls-6" d="M99.44,75.98c.04.36-.24.4-.29.04l.29-.04Z"/>
    <path class="cls-6" d="M61.61,87.22l.04.37-.22.03c0-.2,0-.44.17-.39Z"/>
    <path class="cls-6" d="M67.19,90.84c.04.36-.24.4-.29.04l.29-.04Z"/>
    <path class="cls-6" d="M64.02,84.69c-.07-.07.11-.55.16-.49.09.16-.03.62-.16.49Z"/>
    <path class="cls-6" d="M55.74,82.99c-.05.16-.01.41-.16.49l-.06-.46.22-.02Z"/>
    <path class="cls-6" d="M52.9,72.95c-.06-.06-.08-.37.15-.3.26.08-.04.41-.15.3Z"/>
    <path class="cls-6" d="M47.05,53.29l.03.28-.29.03c.05-.24.02-.34.26-.31Z"/>
    <path class="cls-6" d="M69.44,42.06c.24-.1.17.35.04.37-.1.01-.19-.3-.04-.37Z"/>
    <path class="cls-6" d="M54.64,76.11c.05,0,.31.28.12.36s-.26-.34-.12-.36Z"/>
    <path class="cls-6" d="M71.7,76.65l.04.37c-.29.03-.33-.33-.04-.37Z"/>
    <path class="cls-6" d="M89.2,79.28c.05.06.02.32-.06.38-.24.15-.09-.55.06-.38Z"/>
    <path class="cls-6" d="M96.3,73.37c.05,0,.31.28.12.36s-.26-.34-.12-.36Z"/>
    <path class="cls-6" d="M57.87,52.25c-.05.08-.29.08-.24-.2.05-.33.32.07.24.2Z"/>
    <path class="cls-6" d="M72.18,84.81s.01.06.01.09c0,.22,0,.18-.18.3-.05-.32-.12-.41.17-.39Z"/>
    <path class="cls-6" d="M49.45,88.05c.07.16-.17.48-.24.4-.07-.16.17-.48.24-.4Z"/>
    <path class="cls-6" d="M84.49,91.82c.11.11-.06.56-.19.26-.11-.26.13-.32.19-.26Z"/>
    <path class="cls-6" d="M48.16,67.17c-.05.08-.29.08-.24-.2.05-.33.32.07.24.2Z"/>
    <path class="cls-6" d="M78.19,79.31c.08.21-.1.27-.26.31l-.03-.28.29-.04Z"/>
    <path class="cls-6" d="M53.95,75.26c.05,0,.31.28.12.36s-.26-.34-.12-.36Z"/>
    <path class="cls-6" d="M97.81,67.39c.06.06.08.37-.15.3-.26-.08.04-.41.15-.3Z"/>
    <path class="cls-6" d="M63.9,83.11l.04.37c-.29.03-.33-.33-.04-.37Z"/>
    <path class="cls-6" d="M54.59,66.95c.11.11-.06.56-.19.26-.11-.26.13-.32.19-.26Z"/>
    <path class="cls-6" d="M68.55,82.73c.17.16-.33.51-.27.17.02-.12.22-.23.27-.17Z"/>
    <path class="cls-6" d="M82.4,74.03l.04.37-.22.03c0-.2,0-.44.17-.39Z"/>
    <path class="cls-6" d="M93.81,75.54c.05.06.02.32-.06.38-.24.15-.09-.55.06-.38Z"/>
    <path class="cls-6" d="M85.11,91.47c.11.11-.06.56-.19.26-.11-.26.13-.32.19-.26Z"/>
    <path class="cls-6" d="M72.42,82.54c.17.16-.33.51-.27.17.02-.12.22-.23.27-.17Z"/>
    <path class="cls-6" d="M79.73,79.22c-.01.07-.22.29-.28.08-.09-.29.32-.28.28-.08Z"/>
    <path class="cls-6" d="M87.67,75.73c.13.13-.05.43-.18.3s.05-.43.18-.3Z"/>
    <path class="cls-6" d="M65.69,44.76c.13.13-.05.43-.18.3s.05-.43.18-.3Z"/>
    <path class="cls-6" d="M70.61,45.37c.05.06.01.37-.06.38-.22.03-.09-.54.06-.38Z"/>
    <path class="cls-6" d="M66.13,46.57c-.21-.05-.26-.42-.08-.36.2.07.09.25.08.36Z"/>
    <path class="cls-6" d="M60.34,47.28c-.05.24-.02.34-.26.31-.05-.23.08-.33.26-.31Z"/>
    <path class="cls-6" d="M55.8,79.24c.05.06.01.37-.06.38-.22.03-.09-.54.06-.38Z"/>
    <path class="cls-6" d="M61.26,95.77c.11-.19.37.33.15.35-.07,0-.19-.29-.15-.35Z"/>
    <path class="cls-6" d="M68.53,90.4c0,.09.06.34.04.37-.1.18-.41-.36-.04-.37Z"/>
    <path class="cls-6" d="M82.57,73.64c-.05-.06-.01-.37.06-.38.22-.03.09.54-.06.38Z"/>
    <path class="cls-6" d="M79.99,84.98c-.12.15-.29-.29-.26-.34.07-.12.31.15.26.34Z"/>
    <path class="cls-6" d="M72.54,93.18c.15.13-.26.5-.29.04.07,0,.26-.06.29-.04Z"/>
    <path class="cls-6" d="M52.94,70.24c.05-.06.18.03.23.11-.17.48-.34.03-.23-.11Z"/>
    <path class="cls-6" d="M46.82,78.46c.16.15-.24.45-.27.17-.01-.09.22-.22.27-.17Z"/>
    <path class="cls-6" d="M86.4,77.38c-.09-.24-.1-.34.09-.48.03.17.07.4-.09.48Z"/>
    <path class="cls-6" d="M95.64,70.08l-.36.04c-.11-.29.26-.28.36-.04Z"/>
    <path class="cls-6" d="M82.83,46.87c-.06.4-.42.17-.3-.06.03-.06.23.08.3.06Z"/>
    <path class="cls-6" d="M87.8,85.81c.05.06.05.46-.09.48l-.06-.46s.13-.03.14-.02Z"/>
    <path class="cls-6" d="M100,78.71c.13.16-.21.36-.26.31-.1-.1.1-.38.26-.31Z"/>
    <path class="cls-6" d="M79.02,49.3c-.13.18-.2-.17-.19-.35.19-.1.27.23.19.35Z"/>
    <path class="cls-6" d="M59.84,52.76c.13.13-.05.43-.18.3s.05-.43.18-.3Z"/>
    <path class="cls-6" d="M80.13,57.86c.16.15-.24.45-.27.17-.01-.09.22-.22.27-.17Z"/>
    <path class="cls-6" d="M87.18,83.74c.16.15-.24.45-.27.17-.01-.09.22-.22.27-.17Z"/>
    <path class="cls-6" d="M82.27,91.06c-.09-.24-.1-.34.09-.48.03.17.07.4-.09.48Z"/>
    <path class="cls-6" d="M82.82,69.03c-.04.07.17.36-.18.3-.11-.43.08-.22.18-.3Z"/>
    <path class="cls-6" d="M72.51,91.69c-.13.18-.2-.17-.19-.35.19-.1.27.23.19.35Z"/>
    <path class="cls-6" d="M77.47,82.39c-.16-.15.24-.45.27-.17.01.09-.22.22-.27.17Z"/>
    <path class="cls-6" d="M44.09,47.67c.09.08-.1.39-.18.3-.13-.14.04-.43.18-.3Z"/>
    <path class="cls-6" d="M58.91,57.17c-.11.15-.34-.08-.25-.25.06-.11.32.15.25.25Z"/>
    <path class="cls-6" d="M70.29,79.53c.13.14-.04.43-.18.3-.09-.08.1-.39.18-.3Z"/>
    <rect class="cls-6" x="48.32" y="87.7" width=".29" height=".18" transform="translate(-10.26 6.51) rotate(-6.95)"/>
    <path class="cls-6" d="M95,90.73c.13.14-.04.43-.18.3-.09-.08.1-.39.18-.3Z"/>
    <path class="cls-6" d="M74.62,93.4c.09.08-.1.39-.18.3-.13-.14.04-.43.18-.3Z"/>
    <path class="cls-6" d="M82.82,69.03s.13-.34.27-.22c.27.25-.26.2-.27.22Z"/>
    <path class="cls-6" d="M87.74,82.92c-.11.15-.34-.08-.25-.25.06-.11.32.15.25.25Z"/>
    <path class="cls-6" d="M87.16,68.88c.13-.01.17.35.04.36s-.17-.35-.04-.36Z"/>
    <path class="cls-6" d="M69.57,79.05c-.19-.21.26-.27.28-.08.02.14-.23.14-.28.08Z"/>
    <path class="cls-6" d="M82.76,80.63c.09.08-.1.39-.18.3-.13-.14.04-.43.18-.3Z"/>
    <path class="cls-6" d="M64.98,95.6c.09.08-.1.39-.18.3-.13-.14.04-.43.18-.3Z"/>
    <path class="cls-6" d="M75.32,82.19c.01-.32.4-.1.3.06-.02.03-.2,0-.22.03-.03-.03-.06-.05-.08-.08Z"/>
    <path class="cls-6" d="M68.17,42.21c.09.08-.1.39-.18.3-.13-.14.04-.43.18-.3Z"/>
    <path class="cls-6" d="M77.06,82.07c.13.14-.04.43-.18.3-.09-.08.1-.39.18-.3Z"/>
    <path class="cls-6" d="M55.68,73.18c.13-.01.17.35.04.36s-.17-.35-.04-.36Z"/>
    <path class="cls-6" d="M57.89,48.23c.09.08-.1.39-.18.3-.13-.14.04-.43.18-.3Z"/>
    <path class="cls-6" d="M85.73,93.54c.09.08-.1.39-.18.3-.13-.14.04-.43.18-.3Z"/>
    <path class="cls-6" d="M55.4,79.01c.1.1-.1.38-.26.31,0-.12.19-.38.26-.31Z"/>
    <rect class="cls-6" x="51.94" y="69.78" width=".29" height=".18" transform="translate(-8.07 6.81) rotate(-6.95)"/>
    <path class="cls-6" d="M59.68,90.64c-.16.22-.23-.34-.08-.36.11-.01.12.3.08.36Z"/>
    <path class="cls-6" d="M89.39,86.83s.09.34-.07.29c-.28-.1-.07-.43.07-.29Z"/>
    <path class="cls-6" d="M91,54.85c.09.08-.1.39-.18.3-.13-.14.04-.43.18-.3Z"/>
    <path class="cls-6" d="M48.82,69.62c.13.14-.04.43-.18.3-.09-.08.1-.39.18-.3Z"/>
    <path class="cls-6" d="M73.98,89.27c.09.08-.1.39-.18.3-.13-.14.04-.43.18-.3Z"/>
    <path class="cls-6" d="M60.96,54.4c.13-.01.17.35.04.36s-.17-.35-.04-.36Z"/>
    <path class="cls-6" d="M79.64,42.96c.07.07-.08.36-.17.39-.09-.18.07-.49.17-.39Z"/>
    <path class="cls-6" d="M48.7,60.75s.09.34-.07.29c-.28-.1-.07-.43.07-.29Z"/>
    <rect class="cls-6" x="78.31" y="89.11" width=".14" height=".37" transform="translate(-10.22 10.13) rotate(-6.95)"/>
    <path class="cls-6" d="M93.35,87.38c.09.08-.1.39-.18.3-.13-.14.04-.43.18-.3Z"/>
    <path class="cls-6" d="M85.83,88.39c.09.08-.1.39-.18.3-.13-.14.04-.43.18-.3Z"/>
    <path class="cls-6" d="M81.77,89.35c.13.14-.04.43-.18.3-.09-.08.1-.39.18-.3Z"/>
    <rect class="cls-6" x="66.43" y="86.25" width=".29" height=".18" transform="translate(-9.95 8.68) rotate(-6.95)"/>
    <path class="cls-6" d="M52.09,87.36c.09.08-.1.39-.18.3-.13-.14.04-.43.18-.3Z"/>
    <rect class="cls-6" x="79.97" y="83.48" width=".14" height=".37" transform="translate(-9.53 10.29) rotate(-6.95)"/>
    <path class="cls-6" d="M86.13,89.94c.13-.01.17.35.04.36s-.17-.35-.04-.36Z"/>
    <path class="cls-6" d="M85.33,90.32c.09.08-.1.39-.18.3-.13-.14.04-.43.18-.3Z"/>
    <path class="cls-6" d="M96.71,77.06c-.11.15-.34-.08-.25-.25.06-.11.32.15.25.25Z"/>
    <path class="cls-6" d="M86.44,62.04c.13.14-.04.43-.18.3-.09-.08.1-.39.18-.3Z"/>
    <path class="cls-6" d="M73.31,81.4s-.09-.34.07-.29c.24.07,0,.38-.07.29Z"/>
    <path class="cls-6" d="M83.96,75.99s-.09-.34.07-.29c.24.07,0,.38-.07.29Z"/>
    <path class="cls-6" d="M85.87,77.82s-.09-.34.07-.29c.24.07,0,.38-.07.29Z"/>
    <path class="cls-6" d="M89.82,69.86s.09.34-.07.29c-.24-.07,0-.38.07-.29Z"/>
    <path class="cls-6" d="M91.27,75.2s.09.34-.07.29c-.24-.07,0-.38.07-.29Z"/>
    <path class="cls-6" d="M94.74,69.26c.09.08-.08.44-.2.16-.08-.19.17-.19.2-.16Z"/>
    <path class="cls-6" d="M82.68,76.99c.09.08-.08.44-.2.16-.08-.19.17-.19.2-.16Z"/>
    <path class="cls-6" d="M65.78,92.51s.09.34-.07.29c-.24-.07,0-.38.07-.29Z"/>
    <path class="cls-6" d="M70.6,77.25s-.09-.34.07-.29c.24.07,0,.38-.07.29Z"/>
    <path class="cls-6" d="M65.49,88.34s-.26.09-.23-.11c.05-.29.3.01.23.11Z"/>
    <path class="cls-6" d="M88.83,64.18s.09.34-.07.29c-.24-.07,0-.38.07-.29Z"/>
    <path class="cls-6" d="M48.03,62.52l.03.28-.22.03c.05-.19,0-.34.18-.3Z"/>
    <path class="cls-6" d="M82.69,56.52s.09.34-.07.29c-.24-.07,0-.38.07-.29Z"/>
    <path class="cls-6" d="M84.09,68.69c.09.08-.08.44-.2.16-.08-.19.17-.19.2-.16Z"/>
    <path class="cls-6" d="M71.38,86.03s-.09-.34.07-.29c.24.07,0,.38-.07.29Z"/>
    <path class="cls-6" d="M46.29,53.01l-.29.04-.02-.18c.13-.04.25-.03.31.15Z"/>
    <path class="cls-6" d="M55.83,60.26c.09.09-.1.39-.18.3s.1-.39.18-.3Z"/>
    <path class="cls-6" d="M58.75,85.98c.09.09-.1.39-.18.3s.1-.39.18-.3Z"/>
    <path class="cls-6" d="M82.88,75l-.14.02-.04-.37c.15.03.19.18.19.35Z"/>
    <path class="cls-6" d="M85.52,82.16s.09.34-.07.29c-.24-.07,0-.38.07-.29Z"/>
    <path class="cls-6" d="M72.45,76.18l-.22.03c-.07-.22.06-.19.18-.3l.03.28Z"/>
    <path class="cls-6" d="M64.69,86.01l.03.28-.22.03c.05-.19,0-.34.18-.3Z"/>
    <path class="cls-6" d="M82.09,75.1c-.06.1-.31-.15-.25-.25s.31.15.25.25Z"/>
    <path class="cls-6" d="M72.08,76.13s.09.34-.07.29c-.24-.07,0-.38.07-.29Z"/>
    <path class="cls-6" d="M81.84,89.99c.09.09-.1.39-.18.3s.1-.39.18-.3Z"/>
    <path class="cls-6" d="M84.01,70.38c.08.08-.1.39-.18.3s.1-.39.18-.3Z"/>
    <g>
      <path class="cls-6" d="M91.62,71.41c-.71.17-.43-.12-.61-.26-.26-.18-1.17.4-1.5.42.06-.33.31-.34.54-.35.03-.05-.56-1.02.06-1,.1,0,.52.57.75.61.19.03.78-.21,1.12-.2.32,0,1.04.18,1.19.59.17.46-.53,1.7-.5,2.18.01.21.44.27.2.84-.25.6-.58.08-.84.21-.14.07-.26.49-.52.42l.15-.58c-.1.04-.39,0-.43.06-.03.05.11.34-.08.28-.03-.01-.62-.35-.64-.39-.08-.13,0-.28.04-.29l1.23-.15c.49-.06,1.35-2.04,1.08-2.56-.03-.05-.13-.16-.18-.16-.09,0-1.19,1.12-1.43,1.3-.31.24-2.31,1.59-2.5,1.49-.04-.02-.19-.4-.32-.39-.08,0-.42.29-.27.48l.42-.14c.07.08-.1.71.12.72.15,0,.69-.42,1.05-.39.25.02.34.23.5.4.13.14.22-.05.21.37-.01.71-.23.25-.51.46-.16.12-.3.71-.39.75-.11.04-.49-.57-.63-.72-.09-.09-.23-.1-.24-.11-.07-.1.17-.39.09-.48s-.49.62-.69.64c-.17.02-.35-.33-.4-.32-.04,0-.34.57-.54.68-.14.07-.49.08-.5.11s.08.42-.06.47c-.08.03-.2-.15-.31-.15-.32,0-.43.4-.82-.19-.06-.08-.07-.25-.07-.26-.01-.01-.19.13-.31.14-.66.09-.44-.28-.73-.57-.11-.1-.33-.13-.48-.2-.11-.05-.26-.25-.32-.25-.11-.01-.29.43-.44.51-.19-.2.12-.91.26-.96.15-.05.63.51.8.53.19.02.36-.54.8-.43.19.05.46.43.36.69.24.14.53-.42.57-.43.04,0,.18.16.28.19.62.16.93-.53,1.49-.42,0-.21-.02-.15-.12-.19-.06-.03-.53-.19-.56-.19-.03,0-.23.79-.19-.07-.41.23-.6-.43-.66-.47-.08-.05-.72.03-.89,0-.1-.02-.13-.33-.25-.4-.15-.09-.38.26-.52-.14-.03-.09-.09-.46-.07-.48s.49-.15.52-.15c.1.02.4.52.71.61.39.11.24-.12.38-.27.12-.13.36-.2.42-.28.18-.24-.02-.85.74-.72.02,1.04.33,1.18,1.07.99v.37c.35-.28.61.09.68-.55.26.03.14.27.3.34-.1-.39,0-.69.32-.79.27-.08.24.37.52.36.43-.5,1.11-.75,1.54-1.18q.32-.32,0,0Z"/>
      <path class="cls-6" d="M88.98,70.91c.05.07.08.46.04.55s-.19.07-.23.14c-.03.05.03.19-.03.26-.18.22-.48.13-.56-.19s.13-.25.23-.39c.08-.12.32-.7.54-.37Z"/>
      <path class="cls-6" d="M90,73.76s.01.2.03.27c-.81-.08-.14-.44-.03-.27Z"/>
      <path class="cls-6" d="M85.78,74.09s-.26.09-.23-.11c.05-.29.3.01.23.11Z"/>
    </g>
    <path class="cls-6" d="M76.37,83.65s.09.34-.07.29c-.24-.07,0-.38.07-.29Z"/>
    <path class="cls-6" d="M58.66,93.1s.09.34-.07.29c-.24-.07,0-.38.07-.29Z"/>
    <path class="cls-6" d="M81.08,83.73c.09.08-.08.44-.2.16-.08-.19.17-.19.2-.16Z"/>
    <rect class="cls-6" x="51.24" y="85.11" width=".14" height=".28" transform="translate(-9.93 6.83) rotate(-6.95)"/>
    <path class="cls-6" d="M66.99,47.59s.03-.28.07-.29c.2-.02.05.41-.07.29Z"/>
    <path class="cls-6" d="M55.58,88.33s-.03.28-.07.29c-.2.02-.05-.41.07-.29Z"/>
    <path class="cls-6" d="M65.72,95.04c.04-.06.22.05.23.11.03.25-.32.04-.23-.11Z"/>
    <path class="cls-6" d="M92.26,85.73c.04.12,0,.25-.11.29l-.03-.28.14-.02Z"/>
    <path class="cls-6" d="M50.85,67.59l.02.18c-.1.04-.16-.02-.23-.11l.21-.07Z"/>
    <g>
      <path class="cls-6" d="M55.38,82.47c-.15-.48.14-.4.21-.52s.04-.92.44-.73c-.01.15-.25.25-.26.27-.03.08.09.26.14.26.16,0,.43-.76.63-.82.18-.05.15.41.35.42.05,0,.53-.54.5.34,0,.09-.22,1.35-.27,1.4-.05.06-.28,0-.42.11-.05.04-.43.76-.51.67-.22-.66-.08-1.36-.76-1.4,0,.08-.03.08-.07,0Z"/>
      <path class="cls-6" d="M54.11,81.8c.1.1.09.21.31.4.19.16-.43.9-.57.97-.52.27-.85-.62-.61-1.1.13-.27.65-.49.86-.27Z"/>
      <path class="cls-6" d="M54.51,80.91c.25-.08.67.1.84.34.25.37-.84,1.29-1.08.34-.11-.42-.1-.57.25-.69Z"/>
      <path class="cls-6" d="M55.45,82.46c.12.47-.04.48-.33.27-.58-.41.02-.81.08-.55.02.08.01.27.04.31,0,.01.1-.02.14-.02.02,0,.05-.01.07,0Z"/>
    </g>
    <g>
      <path class="cls-6" d="M67.71,49.17c.02.06.83.8.89.81.16.04.58-.12.71-.23.17-.14.12-.65.49-.32.06.06.22.31.24.38.06.24-.84.88-.76,1.31.13-.03.31.16.42.14.07-.01.02-.37.22-.31.1.3-.01.71.11.97.26.53.72.54,1.11.73.31.15-.13.37-.18.51-.08.24.16.76-.19.94-.47.24-.69-.61-.8-.63-.44.38-.17.34.08.53.79.6,1.14,1.18,1.76,1.97.15.19.52.81.43,1.06-.02.04-.58.52-.64.54-.01-.11.05-.25.01-.4-.15-.59-.65-.32-.69-.36-.04-.04-.03-.8-.28-1.14-.29-.37-.36-.08-.55-.09-.14-.01-1.16-1.23-1.25-1.45-.23-.54-.11-1.37.37-1.5.24-.07.01.46.3.34-.03-.14.12-.61.07-.66-.11-.12-.65,0-.61-.77-.47.41-.38-.55.06-.1-.07-.49,0-1.47-.6-1.13-.09.05-.44.84-.77.73.3-.47-.2-.61-.2-1.04,0-.14.19-.73.27-.83Z"/>
      <path class="cls-6" d="M65.63,50.17c.13-.02.03-.26.13-.4.12-.17.83-.03.96.07.13.09.03.64.54.41.1.09-.27,1.79-.17,2.12.1.35.39-.1.46-.1.17.04.16.47.09.54-.11.12-.39-.06-.53,0-.14.06-.55.8-.87.19-.25-.47.1-.35.13-.39.02-.03-.05-.52-.03-.72.04-.46.27-.82.31-1.27-.31.1-.68-.2-.96-.23-.17-.02-.41.18-.69,0-.12-.07.07-.69.02-.87-.05-.44.28-.09.39.09.1.16.17.38.23.57Z"/>
      <path class="cls-6" d="M63.66,49.66c-.01.15.12.05.17.13.09.15.09.38.2.53.2.27.79.16.54.94-.16.49-.89.4-.96-.19h-.07c.08.41-.31.07-.45-.08-.94-1.01.11-1.49.49-2.34.43.14.6.96.08,1.01Z"/>
      <path class="cls-6" d="M66.42,56.06c.35-.57.36.27.29.66.02.32.7.81.99.77.06.05.24.2.25.22.08.14.1.43.14.47.05.05.29-.13.23.22-.02.13-.22.22-.27.17-.06-.06.13-.45-.46-.13-.03-.08-.23-.53-.25-.53-.57.05.01,1.23-.82,1.02-.45-.11-.29-.89-.35-1.1-.04-.15-.34-.26-.3-.71.01-.11.26-.07.26-.23,0-.11-.17-.29-.1-.5.05-.15.29-.16.37-.32Z"/>
      <path class="cls-6" d="M71.14,47.82c.04.63.6,1.12.58,1.75,0,.3-.27.32-.36.49-.06.1-.03.23-.05.3-.12.33-.17-.17-.18-.19-.06-.05-.61.06-.78-.1-.34-.31-.06-1.14-.15-1.57.16-.14.4.23.43.23.06,0,.08-.32.13-.43.03-.07.14-.13.19-.22.07-.11-.02-.3.18-.26Z"/>
      <path class="cls-6" d="M71.84,52.97l.28-.08-.41-.93c.16-.08.41.07.54.01.18-.08.15-.52.42-.32.86.66-.15,2.09-.83,1.32Z"/>
      <path class="cls-6" d="M84.81,58.77c0-.5-.14-.12-.4-.15-.51-.05-.66-1.13-.38-1.24.09-.04.28.18.45.13,0-.52.12-.22.35-.19.13.02.19-.24.21.21l-.31-.15c-.06.5.32.63.35,1.03s-.11.27-.26.36Z"/>
      <path class="cls-6" d="M56.15,60.5c.36-.17.69.46.43.92-.48.84-1.18-.57-.43-.92Z"/>
      <path class="cls-6" d="M68.28,52.66s.06.23.12.3c.08.09.15.09.18.12.23.23-.1.17-.13.22-.11.19.18.97-.5.8-.18-.3-.05-1.71.34-1.44Z"/>
      <path class="cls-6" d="M68.23,51.26c.14-.06.41.47.39.63-.01.18-.41.74-.6.69-.35-.18.01-1.24.2-1.32Z"/>
      <path class="cls-6" d="M79.73,52.01c.34.69-.47,1.29-.75.75-.34-.64.4-.64.75-.75Z"/>
      <path class="cls-6" d="M63.76,56.48c-.29-.05-.42.17-.66.27-.07-.14-.23-.55-.26-.67-.04-.16-.04-.34-.06-.5.35-.02.55.37.46.78.19-.47.45-.47.53.12Z"/>
      <path class="cls-6" d="M62.89,57.91c.09.15-.05.77-.29.77-.39,0-.31-.87-.26-1.19.04-.07.53.39.55.42Z"/>
      <path class="cls-6" d="M58.4,60.68s.16,0,.19-.04c.09-.13-.12-.65.33-.44.56.26-.09,1.31-.41.9-.07-.09-.15-.34-.11-.41Z"/>
      <path class="cls-6" d="M81.31,54.71c-.11.2-1.3-1.39-.43-1.12.44.14.35.67.43,1.12Z"/>
      <path class="cls-6" d="M64.54,56.57c.57-.26.87.96.26.67-.11-.05-.46-.58-.26-.67Z"/>
      <path class="cls-6" d="M67.59,58.44c.1.23.2.46.23.72-.41.17-.69.11-.46-.5.07-.18.11-.16.23-.22Z"/>
      <path class="cls-6" d="M65.89,57.71c-.18.28-.59-.38-.52-.68.39-.32.62.53.52.68Z"/>
      <path class="cls-6" d="M78.12,52.22c.4-.2.45.49.19.61-.28.13-.51-.44-.19-.61Z"/>
      <path class="cls-6" d="M66.66,49.22c.3-.15.36.46.2.52-.22.08-.54-.36-.2-.52Z"/>
      <path class="cls-6" d="M81.89,55.86c.05.22.09.64-.18.58s-.1-.67.18-.58Z"/>
      <path class="cls-6" d="M79.33,53.55c-.23,0-.51-.18-.5-.5.3-.11.46.13.5.5Z"/>
      <path class="cls-6" d="M64.25,52.12s.03.27-.03.34-.38-.05-.5.1l-.06-.46s.3.22.36.21c.05,0,.16-.27.23-.19Z"/>
      <path class="cls-6" d="M64.4,57.52c.35-.29.4.32.24.44-.26.18-.18-.25-.24-.44Z"/>
      <rect class="cls-6" x="65.43" y="53.73" width=".29" height=".46" transform="translate(-6.04 8.33) rotate(-6.95)"/>
      <path class="cls-6" d="M78.53,51.22c.25.26-.47.24-.51.01.01-.24.48-.04.51-.01Z"/>
      <path class="cls-6" d="M81.94,55.1c.17.68-.41.53-.21.08.05-.12.14-.06.21-.08Z"/>
      <path class="cls-6" d="M74.55,52.92l-.15.58c.03-.2-.14-.57.15-.58Z"/>
      <g>
        <path class="cls-6" d="M81.94,55.1c-.04-.15-.24-.35-.27-.5-.03-.19.21-.43.19-.66s-.26-.58-.25-.86l-.25.31-.03-.28c-.21-.06-.11.17-.13.19-.19.2-.19-.26-.2-.31-.1-.46-.33.03-.52.04-.16,0-.58-.22-.61-.44-.03-.24.27-.79.07-1.18-.22.1-.54-.2-.71-.16-.13.02-.29.39-.44.29-.02-.01-.09-.3-.24-.44-.07-.06-.99-.59-1.05-.6-.21-.03-.34.31-.52.31-.06,0-.85-.14-.9-.17-.19-.09-.23-.32-.32-.37-.18-.11-.75.6-.77.89.27.1.59-.24.75-.26.22-.03.08.16.53-.04.54-.24.27.46.3.6.07.3.53.54.58.71.04.15-.1.34-.09.37,0,.05.74.47-.11.34.22.36-.07.7-.37.56-.26-.12-.46-.98-.42-1.31-.38.25-.46,1.1-.96,1.03-.53-.07-.85-.93-.97-1.51-.03-.13.05-.37.02-.41-.01-.02-.26-.03-.39-.19-.15-.17-.16-.43-.32-.57-.69.74-.32-.05-.36-.28-.15-.8-1.14.14-1.4-.7-.38-1.26.86-.34,1.16-.58.24-.19,0-.71.06-.99.14.09.33.4.46.45s.28,0,.38.05c.09.05,0,.23.11.36.04.04.89.66.94.66.22.03,1-.71,1.37-.71.33,0,.94.72,1.12.71.05,0,.01-.13.07-.2.35-.4.54-.33.91-.53.27-.14.49-.67.58-.03.35-.6.51.49.62.86l.34-.23c.03.32.21.6.48.59.65-.02-.03-.53.03-.94l.88,1.2c.23.02-.09-.34-.02-.46.01-.02.35-.08.42-.15.06.79.06.45.45.52.44.08.75.86,1.11,1.15.07,0,.31-.92.54-.72.09.08-.45.88-.39,1.11l-.05.72c.19-.21.12-.57.23-.86.03-.08.29-.53.33-.56.18-.13.33.04.46-.02.09-.04.12-.24.21-.27s.24.07.36.03c.15-.04.18-.26.27-.31.29-.15.64.67.21.95l.19.4c-.47-.21-.99-.1-1.48-.1.03.48.3.89.09,1.35-.1.12-.51-.35-.61-.44.05.22-.35.58-.23.76.02.02.41.34.44.33.09-.01.22-.68.57-.39.66.54-.38,1.04-.81.52l.12.36c-.2-.03-.56.21-.73.16-.03,0-.48-.26-.5-.29-.1-.14.01-.45-.22-.35,0,.23.16.38.21.59.25,1.02-.07.68-.55.86ZM76.4,51.2c-.25-.03-.13.5-.14.67.31-.02.06-.43.14-.67ZM83.46,53.7l-.68-.2.41.6.28-.41Z"/>
        <path class="cls-6" d="M80.09,49.25c.33-.16.27.36.04.37-.11,0-.19-.29-.04-.37Z"/>
      </g>
      <path class="cls-6" d="M74.97,53.33l.03.28c-.15.03-.27.07-.38-.09.07-.18.19-.17.34-.18Z"/>
      <path class="cls-6" d="M77.78,53.18c.17-.07.28.29.11.36s-.28-.29-.11-.36Z"/>
      <path class="cls-6" d="M68.52,52.53c.17-.07.28.29.11.36s-.28-.29-.11-.36Z"/>
      <path class="cls-6" d="M83.85,56.93c.1-.04.43-.06.45.08.03.27-.52,0-.45-.08Z"/>
      <path class="cls-6" d="M72.02,50.79c-.05.08-.44-.08-.33-.33.01-.03.42.19.33.33Z"/>
      <path class="cls-6" d="M70.27,57.55c-.05-.7.3-.18.22-.03,0,.01-.17.02-.22.03Z"/>
      <path class="cls-6" d="M71.23,56.97c.04.36-.24.4-.29.04l.29-.04Z"/>
      <path class="cls-6" d="M80.35,53.52c-.05-.06-.01-.37.06-.38.22-.03.09.54-.06.38Z"/>
      <path class="cls-6" d="M65.15,54.06s-.02.51-.17.39c-.09-.18.07-.49.17-.39Z"/>
      <path class="cls-6" d="M82.24,55.16c.09.08-.1.39-.18.3-.13-.14.04-.43.18-.3Z"/>
      <path class="cls-6" d="M77.23,53.81c.13.14-.04.43-.18.3-.09-.08.1-.39.18-.3Z"/>
      <path class="cls-6" d="M79.74,51.54c.09.08-.1.39-.18.3-.13-.14.04-.43.18-.3Z"/>
      <path class="cls-6" d="M65.07,54.63s.09.34-.07.29c-.24-.07,0-.38.07-.29Z"/>
      <path class="cls-6" d="M83.5,60.71s-.09-.34.07-.29c.24.07,0,.38-.07.29Z"/>
      <rect class="cls-6" x="63.97" y="49.62" width=".14" height=".28" transform="translate(-5.55 8.11) rotate(-6.95)"/>
      <g>
        <path class="cls-6" d="M63.76,56.48c.14-.96-.04-1.88.04-2.83.07-.73.2-1.15.87-1.11.07.22-.09.42-.07.61.02.17.16.35.2.55.09.42.23.91-.19.81.29.9.03.64-.38.96-.38.3-.09.39-.04.64.1.52-.03.67.19,1.41-.26.21-.43.9-.5,1.28.33.05.16-.73.39-.7.25.04.24.65.28.7.03.03.25-.01.35.08s.27.6.33.78c.39-.04-.14-.61-.13-.74,0-.11.27-.73.35-.78.1-.07.31.36.34.45.06.18.01.43.03.44.04.03.69-.32.55.31l.35-.14c-.04.25-.02.41.08.64.17-.1.1-.43.18-.58.24-.43.31.15.22.47-.05.16-.17.19-.2.28-.04.12,0,.29-.03.37-.06.15-.69.25-.69.69.2.18.15-.25.22-.26.05,0,.24.24.23.38-.02.21-.6.22-.43.67.25.05.05-.22.16-.3.09-.08.68-.32.71-.37.04-.08-.07-.49-.07-.63l.19.35c.53-.12.3-1.1.37-1.33.03-.1.49-.44.5-.47.04-.09-.05-.31.03-.41.03-.04.21.07.29-.11.06-.15.03-.6-.02-.75-.04-.13-.29.11-.25-.21.25-.05.57,0,.79.18.34.27.48,1.23.74.65.15-.35-.05-.46-.12-.78-.05-.2-.03-.49-.08-.63-.04-.12-.61.05-.5-.91.07-.6.43-1.21.45-.08l.64-.17c.07.57-.12,1.1-.17,1.65,0,.02.25.02.3.01,0,.12.16.97.2,1,.03.03.41-.07.51-.06l-.3-.62c.48.17.32-.15.46-.23.13-.08.32-.02.46-.07,0,.08.08.18.09.3.04.55-.57.29-.6.32.18.52.34,1.12-.04,1.5l.51-.06c-.23-.25-.22-.55-.26-.9l.91.26c0-.16-.17-.05-.24-.22-.33-.79-.06-1.13.6-1,.83.17.64,1.57-.2,1.38l.11.27c.11.04.02-.38.19-.21.02.02.09.29.12.36.32-.33.94-.88,1.04-1.43.01-.08.06-.76.05-.8-.07-.52-.65-.03-.93-.13-.02-.33-.41-.36-.38-.64.04-.31.3.12.37,0,0-.01-.02-.27-.03-.28-.03-.03-.45-.04-.69-.24-.35-.3-.2-.48-.35-.76-.06-.11-.47-.2-.27-.44.03-.03.37-.22.4-.22.13.02.17.32.29.43.3.24.65-.02.68,0,.05.06-.09.4.32.24.1.38-.29.48-.19.86.56.01,1.07,0,.92.92.46-.16.65.1.74.66.23-.27.41-.25.71-.18.03-.04-.6-.88-.67-.94-.11-.1-.25-.05-.26-.06-.25-.21.36-.21.4-.25.02-.02.16-.72.14-.75-.85.79-1.71.55-1.74-1-.56.63-.34-.31-.53-.78.11-.2.45.59.58.58.06-.34-.21-.88.09-1,.34-.14.41.49.25.77l.51-.62c.04.65-.39.71.32,1.08l-.1-.83c.26-.15.18.22.21.25.15.12.42-.31.48-.24l-.05.75c.12.02.05-.18.11-.25.06-.06.31-.12.35-.08.01.01.06.51.18.25.02-.05-.34-.86.27-.77.26.23.02.89.05.92.01.01.16-.02.27.06.45.32.19.31.13.62-.1.44.13,1.63.49,1.79.06.03.61-.49.66,0,.02.17-.51.22-.58.39.05.75.29.1.47-.09.22-.23.45-.12.37-.61-.12-.69-.66-.2-.7-.24,0-.76.21-1.36-.39-.51-.31-.22.05-.51.24-.57.12-.04.29.04.31.03.02-.02,0-.21.1-.27.4-.24.3.19.48.39.26.3.23-.51.43-.7l.08.36c.84-.04.95-.98,1.6-1.32l-.36.7c.5-.12,1.33,0,1.54.72.24.83-.18.62-.28.9-.07.2.28.51.39.7.26.44.13.77.69.58.09.06-.55,1.38-.54,1.56,0,.2-.06.38-.14.13l.14-.13c.31-.12,1.29-.89,1.4-.89.04,0,.47.41.5.47.19.34-.46.6-.47.68s0,.73.02.77l.35-.14c0,.67-.18.89-.69.97.08.17.18.64.31.72.1.06.21-.11.31-.08.19.04.21.59.36.74.18.18.68.17.9.12.06-.08-.4-.45-.14-.83.2-.29.39.36.65.21-.08-.14.02-.54,0-.56-.01-.01-.21,0-.33-.07-.17-.1-.31-.35-.49-.42-.11-.04-.26.06-.31-.02-.06-.1-.23-1.4-.2-1.47.38-.21.8-.3,1.17-.53l.21.53c-.13-.58.44-1.05.34-.23.19-.21.29-.54.59-.54.03-.05-.33-.24-.28-.56.03-.2.67-.28.45-.49-.03-.03-.55.4-.74-.05-.09-.21.28-.12.31-.43.02-.18-.1-.31-.12-.48.05-.08.68.19.74.28.06.1-.02.29.04.46.1.3.59.5.6.95.18-.13.27-.56.48-.62.28-.09.35.19.47.21.14.02.44-.22.68-.06-.21-.43-.22-.54-.12-1.01-.35.5-.39,0-.68-.38-.14-.18-.31-.3-.45-.47.28-.5.51-1.02.64-1.62.18.47.51.04.81,0,.13-.02.27.07.41.04.08.09-.14.46.08.36.08-.04.63-.33.64-.37.04-.11-.14-.66.2-.57.29.08.04.7.08.88.02.13.14.2.17.28.06.21-1.44,2.24-1.35,2.56.02.06.13.15.17.28.05.17,0,.52.18.58.34.12.02-.33.05-.59.07-.71,1.29.21,1.08.83-.09.27-.61.32-.46.71.41-.18.79-.48,1.22-.61.09-.03.22-.08.19.11-.13.67-2.67,1.43-2.74,1.6-.02.04.19.49.15.63l-.6-.11c-.11.18.62.78.19,1.12-.27.22-.38.1-.49-.24-.17.72-.83.52-1.34.77-.26.13-.59.57-.69.61-.18.05-.06-.19-.2-.17.2.54-.19,1.14-.18,1.57,0,.26.16.5.15.7-.01.14-.24.47-.27.71-.03.26.29.03.45.13.37.22.17.69.14,1.03-.01.17.07.48.04.57-.04.11-.41.12-.5.19-.14.09-.08.41-.3.39l.09-.48c-.27-.13-.22.46-.42.42-.05,0-.46-.81-.78-.65.32.7.49,1.85-.39,1.64l.22.63c.06-.18.41-.38.44-.45,0-.02-.02-.48.2-.28.08.08-.1.29-.09.34,0,.03.25.27.33.42.18.35.56,1.5.27,1.78-.05.05-.17.01-.22.05-.07.06-.04.19-.07.2-.11.01-.4-.28-.43-.23.04.35.32.23.42.57.06.21.23,1.48.18,1.6-.04.1-.54.26-.58.35-.02.05.17.4.14.54-.09.07-.42-.08-.44-.04-.01.02.03.4-.13.48-.11.01-.17-.87-.45-.36.15.26.67,1.43.57,1.66,0,.1-.04.2-.11.29-.12,0-.62-.03-.65,0-.02.02-.11.4-.17.52-.19.38-.47.5-.24,1.01l-.31-.15c-.05.3.14.71.12.96-.01.13-.29-.02-.2.21.02.05.15.18.21.32.05.13.09.42.1.44.05.05.32-.17.42-.14,0,.27-.16.46-.19.74-.03.45.16.61-.3.9-.19-.14-.45-.54-.43-.81.01-.15.23-.35.19-.51-.01-.07-.13-.15-.15-.27-.03-.15.05-.29,0-.44-.03-.09-.19-.2-.17-.33,0-.01.1-.05.11-.17.07-.56-.15-.32-.36-.45-.16-.1-.23-.56-.53-.31-.1-.13.03-1.28-.04-1.54s-.28-.17-.35-.43c-.08-.28-.12-.71.08-.9.24-.1.22.76.5.78,0-.27-.16-.52-.17-.77-.02-.35.39-.64-.11-.88.11.64-.35.55-.67.83-.21.18-.61.73-.45,1.09.17-.03.2-.33.33-.4.29-.15.42.21.37.53-.02.11-.61.5-.69.73-.03.1.02.26-.04.4-.07.18-.24.29-.29.52-.08.31.02.56,0,.8-.02.14-.16.28-.21.43-.05.13-.09.49-.1.51-.03.03-.28-.09-.4-.05-.04.01-.35.32-.36.34-.02.08.19.32-.02.59-.04.05-.16.05-.18.1-.05.09-.05.81-.3.95-.07-.04-.33-.37-.37-.33-.05.05.05.46-.34.23,0,.17.1.25.19.35.07-.03.09,0,.08.08-.02.03.05.28.04.37-.88-.34-.31,1.35-1.25,1.18.44.45-.12.8-.09,1.08.02.2.54,1.02.44,1.21-.2.07-.23-.27-.38-.31-.88-.26-.86,1.44-1.62,1.68-.05,0-.21-.5-.3-.62-.14-.18-.75-.41-.28-.53.18-.04.25-.01.43-.14.08-.06,1.05-1.48,1.09-1.59.18-.53-.15-1.63.44-1.79-.22.95.23.33.13-.15-.06-.29-.46-.62-.47-.97,0-.22.27-.61.08-1l.62.3c.05-.51-.42-.03-.42-.53,0-.74.33-.29.39-.34.26-.2.09-1.66-.08-1.87-.28-.36-.38.21-.54.29-.11.06-.33.02-.37.08-.02.03.02.26-.07.38-.1.14-.52.16-.62.44-.05.14.27.31.06.46-.16.12-.11-.24-.14-.26-.03-.03-.5.23-.54.27-.06.09-.2,1.21-.31,1.31-.08.07-.24-.07-.32-.03-.1.04-.12.47-.17.64-.06.2-.21.31-.17.51.48-.13.96.96.44,1.22-.41.2-.75-.83-.8-.8-.21.36-.48.78-.63,1.2.11.13.07.18-.06.1-.15.19-.76.52-.91.28-.07-.1-.26-1.85-.49-2.17l.9.17c-.24-.29-.11-.48-.12-.8,0-.13-.11-.3-.07-.39.02-.06.74-.64.84-.7.17-.11.36-.18.56-.21-.27-.38-.1-.88-.27-1.25-.11-.23-.38-.07-.36-.3,0-.06.62-.37.33-.93.09-.18.48.71.96.43.29-.17-.23-1.19.01-1.2.14,0,.19.63.36.52.08-.05-.14-.48.38-.23-.18-.48.1-1.04.43-.59.04.06.02.14.04.16q0,.47,0,0c.09-.14.3-.03.16-.49l.39.23c-.16-.21-.19-.65-.32-.83-.07-.11-.84-.37-1.02-.55-.16-.15-.24-.67-.34-.65-.34.04.06.9.09,1.07.15.97-.75,1.41-.89.57-.06-.39.24-.83.3-1.2-.09.03-.49.03-.51.06-.02.04.13.46-.05.56-.25.14-.39-.28-.6-.21,0,.11-.15.29-.15.31q-.33.01,0,0s.12.18.11.3c-.02.13-.19.14-.19.23,0,.11.13.34.15.53.05.47-.1.31.13.71.27.45-.2.4-.22.42-.07.08-.05.4-.14.58-.12.24-.38.32-.52.53.33-.05.82.34.62.77s-1-.11-1.04-.02c.22.58-.36.47-.38.51-.03.08.09.26.14.26.12.02.26-.37.43-.33.06.44-.18.63-.41.84.44-.05.54.42.11.6-.07-.36-.68-1.34-.68-1.6q.24-.16,0,0c-.15-.04-.25-.14-.38-.14.17,1.02-.57-.34-.68-.2-.23.47.14,1.35.12,1.61-.02.28-.39.04-.42.11-.03.05.25.35-.16.7-.15.13-.36.02-.38.35s.37-.09.44,0c.04.21.09.67-.05.8-.47.45-.38-.42-.42-.46-.02-.02-.27.05-.38.03s-.21-.13-.33-.12c-.47.01-.88,1.05-1.14-.05.26.09.43.26.57-.16-.22.09-.9-.13-1.03-.35-.07-.11-.06-.34-.08-.36-.04-.04-.26.08-.35.03-.02-.01-.16-.43-.23-.55-.08-.14-.28-.24-.31-.36-.12-.43.14-.77-.33-1.35-.36-.44-.63-.23-1.01-.48.14.74.18.23.54.37.49.19-.1,1.24-.49,1.21-.03-.03.04-.81-.05-1.06-.03-.07-.46-.03-.37-.57-.43.3-.21-.04-.23-.07-.11-.12-.07-.17.06-.1.12-.1.18-.09.22-.31l.06.23.15.03c-.24-.77.48-.57.87-.67-.14.44.21.5.51.59.12-.47-.17-.93-.16-1.33,0-.33.35-.42.36-.62,0-.15-.19-.27-.15-.39.08-.31.79-.67,1.06-.69-.07-.49-.21-.41-.45-.42-.04,0-.12-.35-.21-.16-.04.08.16.4.13.45-.32-.08-.76-.09-.92.3l.36-.04c.07.58-.48.28-.54.35-.06.07-.03.53-.07.61-.03.05-.74.81-.79.84-.15.09-.4-.05-.43,0-.01.02.03.29,0,.44-.02.1-.26.52-.28.52-.04,0-.17-.39-.36-.24.06-.38.42-.29.25-.69-.19-.47-.26-.02-.56-.02v-.56c-.43-.05-.21.23-.25.31-.1.2-.24-.31-.37-.31-.07,0-.23.27-.38.21l.28-.69c-.47.03-.51.21-.61.73-.15.06-.17-.24-.26-.25-.14-.02-.35.18-.52.16.01.18.2.02.31.1.19.13.11.8.15,1.02.02.11.18.14.15.3-.1,0-.19-.07-.3-.02-.16.07-.22.44-.4.34-.14-.08.04-.34,0-.55s-.23-.37-.27-.55c-.05-.25.14-.37-.11-.4-.33-.04.07-.31.13-.43.06-.11.03-.3.1-.39.08-.1.17.19.34.17.36-.04.9-.56,1.3-.61-.01-.17-.18-.03-.31-.11-.05-.03-.07-.15-.12-.19-.07-.05-.18.01-.2,0-.02-.02.12-.44-.04-.66-.18-.24-.47.34-.29-.8-.26.36-1.12.62-.71-.11.21-.37.38-.14.1-.71.09-.25.25-.12.43-.1,0-.44-.28-.84-.36-1.23-.05-.21-.11-1.1-.15-1.14-.03-.02-.47.03-.55-.31.2-.05.42.09.62.02.15-.05.17-.25.28-.3s.36-.03.38-.07c.01-.02-.03-.26.05-.48.13-.34.41-.45.62-.68-.01-.3-.36.04-.46-.23-.08-.21.11-.66.32-.64.04,0,.06.18.1.18.16.01.38-.23.42-.43-.51.13-1.64-.27-1.46-1.13-.15.25-.8,1.13-1.07.88-.06-.05.09-.41-.06-.51-.24-.14-.57.26-.55-.26-.57.83-.87-.33-1.06-.43-.27-.14-1.51-.03-1.57-.09-.05-.18.05-.83-.04-.93-.08-.08-1.22,0-1.07-1.03.02-.13.47-.4.57-.41.2-.02.14.26.28.25-.02-.18-.05-.36-.01-.54.06-.24.47-.68.48-.73.05-.13-.04-.36,0-.48.05-.13.3-.09.35-.22.12-.28-.3-.86.46-1,.21-.04.11.28.17.45.56-.4.71.06,1.11.22.23.09.56-.09.76.07.09.08.39,1.07.36,1.12l-.28.13.75.19.11-.95c-.27.07-.06.83-.31.78-.16-.03-.31-.74-.37-.93.38-.03.03-.43.31-.46-.59-.48-.14-1.16-.15-1.85.17-.08.27.26.41.22.03,0,.45-.37.48-.41.21-.33-.17-.54-.15-.92.22.07.58.65.74.7.2.07.51-.45.62-.03.09-.24.71-.62.75-.79s-.12-.11-.14-.14c-.08-.12,0-.48.1-.55.14-.11.11.21.22.3.14.11.38-.02.33.41-.01.13-.15.2-.09.36.15-.06.28-.67.39-.69.05,0,.16.19.2.15.01-.02-.07-.29.27-.22l.09.46.21-.35-.39-.19.17-.39c-.44.16-.3-.68-.18-.95.2-.44.29-.06.4-.86ZM69.88,56.76l-.06-.46h-.07s.06.47.06.47h.07ZM64.49,58.91c-.08-.08-.27.22-.18.3s.27-.22.18-.3ZM68.68,59.52l-.29.03c.02.18-.01.33.14.26l.15-.3ZM59.84,61.07c-.11-.14-.13.03-.13.16,0,.3.07.68.29.85l.29-.27c-.27-.16-.44-.33-.46-.74ZM82.44,61.02c0-.13-.07-.24-.18-.26l.03.28.14-.02ZM58.71,66.91c-.02-.3.15-.53.04-.85-.13,0-.04.22-.16.29-.09.05-.3.02-.32.05-.08.12.26.59.43.51ZM85.15,65.74c-.08-.23-.32-.24-.35.01-.02.12-.08,1.33-.07,1.4.03.2.11.28.24.39.02-.19.34-.39.35-.42.04-.09-.14-.24-.16-.32-.07-.29.03-.64-.29-.98l.28-.08ZM80.11,69.63c.52-.01.24-.89-.27-.39-.03.03-.27.83-.26.87.03.32.25.09.33.11.28.07.21.92.19,1.18.58-.42.14-.57.03-.99-.08-.31-.05-.5-.03-.79ZM82.85,70.41c.07-.16-.37-.84-.54-.86,0,.29.16.79.12,1.05-.02.16-.18.15-.25.24-.16.22-.25.74-.45,0l-.27.22-.15-.35c-.17.71-.38.15-.7.27-.06.02.07.36-.21.36.83.24.37.4.48.77.09.32.92.66,1.15.53-.19-.24-1.02-.71-.86-1.14,0-.02.27-.2.3-.2.08,0,.2.18.32.18.15,0,.87-.28.96-.19.04.42-.21.8-.29,1.2.02.09.63.17.71.15.05-.01.1-.38.18-.4.15-.02.16.54.2.66.16.45.82-.7.13-.61.21-.62,0-.25-.13-.41-.1-.14-.04-.38-.05-.4-.07-.09-.58-.13-.82-.59-.26-.5.13-.35.18-.47ZM83.53,69.4c-.18-.05-.57.37-.52.57.07.26.4-.21.51-.01v-.56ZM83.32,70.64c0-.22-.08-.39-.26-.34,0,.29.07.27.26.34ZM60.39,74.08l-.05-.37h-.07s-.03.38-.03.38l.14-.02ZM79.74,74.55c-.06-.04-.19.02-.28-.03-.15-.09-.23-.53-.56-.35.29.44-.23.75.33.89-.14-.4.33-.54.41-.28.06.22-.23.32-.24.37-.02.06.1.19.09.25,0,.03-.28.18-.15.5.3-.51.47-.42.93-.21-.07-.17-.47-1.1-.52-1.13ZM77.29,76.61c.31.19.33-.17.46-.22.07-.03.88.09.87-.26,0-.04-.14-.34-.18-.36-.03-.02-.58-.09-.6-.06s-.07.56-.19.68c-.21.2-.57-.15-.63.65-.04.47.51.52.72.31-.29-.14-.38-.37-.46-.74ZM78.36,77.5s-.24.13-.31.12c-.15-.02-.09-.37-.23-.34-.05,1.28.24.44.31.43.06,0,.16.19.15.31-.02.23-.28.07-.28.08-.03.08.12.3.11.4,0,.04-.27.37-.32.57s-.03.53-.1.75c.21-.2.27.03.46.13l-.1-.83c.39-.19.32.35.65.48,0-.53-.19-.89-.31-1.36.22-.04.3.3.52.31.18,0,.69-.23.33-.33-.21-.06-.36.01-.58-.15-.28-.2-.26-.56-.29-.58ZM74.55,78.81c-.3.12-.34-.14-.55-.31.03.22,0,.41-.11.58-.2.31-.61.22-.48.62l.19-.21v.56c.18-.2.37-.26.62-.26-.09-.2-.34-.08-.24-.44l.56-.53ZM73.61,80.14c-.27.12-.43-.06-.39.42l.37.05.02-.47ZM73.07,81.14s-.26-.03-.2.12c.3-.04.03.6.5.5-.21-.1-.27-.59-.3-.62ZM73,81.71c-.33.05-.46.47-.16.77l-.07-.27c.32.04.16-.21.23-.5Z"/>
        <path class="cls-6" d="M88.34,57.59c-.3-.07-.36-.27-.09-.46l.09.46Z"/>
        <path class="cls-6" d="M80.11,69.63c-.43,0-.06-.46.03-.38.02.13-.02.25-.03.38Z"/>
      </g>
      <g>
        <path class="cls-6" d="M66.42,56.06c-.09,0-.21.06-.3,0-.15-.11-.37-2.14-.15-2.26.46-.27.9.23,1.24.58l.09-.48c.24.41.6.59.88.87.07.07.07.24.12.29s.18.01.25.09c.3.34-.29.2-.3.23-.03.05.12.58-.2.74-.21.11-.55-.78-.72-.16-.19.7,1.19.27,1.28,1.11.05.48-.69.42-.9.43-.95-.08-1-1.34-.94-2.26l-.22-.04c.13.47.09.76-.11.87Z"/>
        <path class="cls-6" d="M66.81,55.64c-.26.3-.29-.43-.08-.36.12.04.12.32.08.36Z"/>
      </g>
    </g>
  </g>
  <path class="cls-5" d="M38.14,82.95c15.11,13.63,39.5,2.32,39.5,2.32,0,0,7.85-53.49,7.85-54.73-24.03-8.04-49.25-3.74-49.25-3.74l1.91,56.15Z"/>
  <g>
    <path d="M57.1,89.65l.19-.37c-.52.23-.79.23-1.3,0l.19.37-1.77-.09.09-.28c-.48.2-.78.28-1.25,0l-.1.2-2.9-.49c-.58-1.99,2.48-1.71,1.56.21.41-.27.9-.27,1.3,0,.01-.2-.16-.31-.18-.52-.14-1.07,1.35-1.47,1.76-.54.21.47.06.62-.08,1.06.41-.27.9-.27,1.3,0,.01-.2-.16-.31-.18-.52-.14-1.07,1.35-1.47,1.76-.54.21.47.06.62-.08,1.06.41-.27.9-.27,1.3,0,.01-.2-.16-.31-.18-.52-.14-1.07,1.35-1.47,1.76-.54.21.47.06.62-.08,1.06.41-.27.9-.27,1.3,0,.05-.07-.43-.67.01-1.24,1.08-1.38,2.77,1.38.68,1.44-.22,0-.44-.11-.55-.1-.06,0-.04.17-.12.19-.17.04-1.46.14-1.52.09l.09-.28c-.52.23-.79.23-1.3,0l.09.37h-1.77Z"/>
    <circle cx="63.62" cy="87.14" r=".91"/>
    <circle cx="60.82" cy="87.14" r=".91"/>
    <circle cx="58.03" cy="87.14" r=".91"/>
    <circle cx="55.24" cy="87.14" r=".91"/>
    <circle cx="49.66" cy="87.14" r=".91"/>
    <circle cx="52.45" cy="87.14" r=".91"/>
    <circle cx="66.41" cy="87.14" r=".91"/>
    <circle cx="69.2" cy="87.13" r=".91"/>
    <circle cx="46.87" cy="87.13" r=".91"/>
    <circle cx="56.64" cy="85.74" r=".87"/>
    <circle cx="73.39" cy="85.74" r=".87"/>
    <circle cx="51.05" cy="85.74" r=".87"/>
    <circle cx="70.59" cy="85.74" r=".87"/>
    <circle cx="67.8" cy="85.74" r=".87"/>
    <circle cx="59.43" cy="85.74" r=".87"/>
    <circle cx="65.01" cy="85.74" r=".87"/>
    <circle cx="62.22" cy="85.74" r=".87"/>
    <circle cx="45.47" cy="85.74" r=".87"/>
    <circle cx="48.26" cy="85.74" r=".87"/>
    <circle cx="53.84" cy="85.74" r=".87"/>
    <circle cx="44.07" cy="84.34" r=".86"/>
    <circle cx="49.66" cy="84.34" r=".86"/>
    <circle cx="41.28" cy="84.34" r=".86"/>
    <circle cx="46.87" cy="84.34" r=".86"/>
    <circle cx="51.05" cy="82.95" r=".84"/>
    <circle cx="66.41" cy="84.34" r=".84"/>
    <circle cx="39.89" cy="82.95" r=".84"/>
    <circle cx="42.68" cy="82.95" r=".84"/>
    <circle cx="45.47" cy="82.95" r=".84"/>
    <circle cx="53.84" cy="82.95" r=".84"/>
    <circle cx="48.26" cy="82.95" r=".84"/>
    <circle cx="55.24" cy="84.34" r=".84"/>
    <circle cx="74.78" cy="84.34" r=".84"/>
    <circle cx="71.99" cy="84.34" r=".84"/>
    <circle cx="69.2" cy="84.34" r=".84"/>
    <circle cx="63.62" cy="84.34" r=".84"/>
    <circle cx="60.82" cy="84.34" r=".84"/>
    <circle cx="58.03" cy="84.34" r=".84"/>
    <circle cx="52.45" cy="84.34" r=".84"/>
    <circle cx="67.8" cy="82.95" r=".83"/>
    <circle cx="62.22" cy="82.95" r=".83"/>
    <circle cx="59.43" cy="82.95" r=".83"/>
    <circle cx="56.64" cy="82.95" r=".83"/>
    <circle cx="65.01" cy="82.95" r=".83"/>
    <path d="M65.93,88.8l-1.6.28c-.59-.45-.05-1.4.55-1.48s1.19.57,1.05,1.2Z"/>
    <circle cx="76.18" cy="82.95" r=".81"/>
    <circle cx="73.39" cy="82.95" r=".81"/>
    <circle cx="70.59" cy="82.95" r=".81"/>
    <circle cx="44.07" cy="81.55" r=".81"/>
    <circle cx="41.28" cy="81.55" r=".81"/>
    <circle cx="58.03" cy="81.55" r=".8"/>
    <circle cx="55.24" cy="81.55" r=".8"/>
    <circle cx="52.45" cy="81.55" r=".8"/>
    <circle cx="49.66" cy="81.55" r=".8"/>
    <circle cx="46.87" cy="81.55" r=".8"/>
    <path d="M42.37,84.92c1.3-.3,1.41,1.24.86,1.52-.19.1-1.14-.55-1.35-.7-.16-.33.16-.74.49-.82Z"/>
    <circle cx="66.41" cy="81.55" r=".77"/>
    <circle cx="42.68" cy="80.16" r=".77"/>
    <circle cx="45.47" cy="80.16" r=".77"/>
    <circle cx="71.99" cy="81.55" r=".77"/>
    <circle cx="69.2" cy="81.55" r=".77"/>
    <circle cx="63.61" cy="81.55" r=".77"/>
    <circle cx="60.82" cy="81.55" r=".77"/>
    <circle cx="74.78" cy="81.55" r=".77"/>
    <circle cx="39.89" cy="80.16" r=".77"/>
    <circle cx="52.45" cy="78.76" r=".76"/>
    <circle cx="41.28" cy="78.76" r=".76"/>
    <circle cx="70.59" cy="80.16" r=".76"/>
    <circle cx="48.26" cy="80.16" r=".76"/>
    <circle cx="51.05" cy="80.16" r=".76"/>
    <circle cx="53.84" cy="80.16" r=".76"/>
    <circle cx="56.64" cy="80.16" r=".76"/>
    <circle cx="73.39" cy="80.16" r=".76"/>
    <circle cx="59.43" cy="80.16" r=".76"/>
    <circle cx="62.22" cy="80.16" r=".76"/>
    <circle cx="65.01" cy="80.16" r=".76"/>
    <circle cx="67.8" cy="80.16" r=".76"/>
    <circle cx="76.18" cy="80.16" r=".76"/>
    <circle cx="49.66" cy="78.76" r=".76"/>
    <circle cx="46.87" cy="78.76" r=".76"/>
    <circle cx="44.07" cy="78.76" r=".76"/>
    <path d="M38.37,80.73c.42-.07.93.35.95.78.04.77-1.18,1.2-1.3.55-.07-.37-.12-1.26.35-1.33Z"/>
    <path d="M77.27,80.83c.28-.08.79-.04.91.26.06.14-.12,1.14-.29,1.19-1.1.38-1.44-1.21-.62-1.46Z"/>
    <circle cx="71.99" cy="78.76" r=".73"/>
    <circle cx="69.2" cy="78.76" r=".73"/>
    <circle cx="66.41" cy="78.76" r=".73"/>
    <circle cx="63.62" cy="78.76" r=".73"/>
    <circle cx="55.24" cy="78.76" r=".73"/>
    <path d="M38.28,78.04c1.27-.27,1.27,1.72,0,1.45-.53-.11-.53-1.34,0-1.45Z"/>
    <circle cx="58.03" cy="78.76" r=".73"/>
    <circle cx="60.82" cy="78.76" r=".73"/>
    <circle cx="74.78" cy="78.76" r=".72"/>
    <circle cx="42.68" cy="77.36" r=".72"/>
    <circle cx="39.89" cy="77.36" r=".72"/>
    <circle cx="77.57" cy="78.76" r=".72"/>
    <circle cx="59.43" cy="77.36" r=".7"/>
    <circle cx="56.64" cy="77.36" r=".7"/>
    <circle cx="45.47" cy="77.36" r=".7"/>
    <circle cx="53.84" cy="77.36" r=".7"/>
    <circle cx="48.26" cy="77.36" r=".7"/>
    <circle cx="51.05" cy="77.36" r=".7"/>
    <path d="M71.16,87.5c-.38-1.26,1.4-1.81,1.67-.52l-1.67.52Z"/>
    <circle cx="73.39" cy="77.36" r=".69"/>
    <circle cx="65.01" cy="77.36" r=".69"/>
    <circle cx="70.59" cy="77.36" r=".69"/>
    <circle cx="67.8" cy="77.36" r=".69"/>
    <circle cx="62.22" cy="77.36" r=".69"/>
    <circle cx="60.82" cy="75.97" r=".67"/>
    <circle cx="63.62" cy="75.97" r=".67"/>
    <circle cx="76.18" cy="77.36" r=".67"/>
    <circle cx="38.49" cy="75.97" r=".67"/>
    <circle cx="41.28" cy="75.97" r=".67"/>
    <circle cx="44.07" cy="75.97" r=".67"/>
    <circle cx="46.87" cy="75.97" r=".67"/>
    <circle cx="49.66" cy="75.97" r=".67"/>
    <circle cx="52.45" cy="75.97" r=".67"/>
    <circle cx="55.24" cy="75.97" r=".67"/>
    <circle cx="58.03" cy="75.97" r=".67"/>
    <path d="M77.36,83.52c.15-.03.43-.06.48.13-.17.53,0,2.21-.88,1.25-.43-.48-.2-1.26.4-1.38Z"/>
    <circle cx="77.57" cy="75.97" r=".66"/>
    <circle cx="74.78" cy="75.97" r=".66"/>
    <circle cx="39.89" cy="74.57" r=".66"/>
    <circle cx="66.41" cy="75.97" r=".66"/>
    <circle cx="69.2" cy="75.97" r=".66"/>
    <circle cx="71.99" cy="75.97" r=".66"/>
    <path d="M76.8,85.12c.07.07.27.36.22.43l-1.67.56c-.27-.91.76-1.66,1.46-.99Z"/>
    <path d="M49.19,88.72c-.05.05-1.19-.29-1.37-.35-.33-.11-.62-.16-.2-.53.69-.6,1.7-.02,1.58.88Z"/>
    <circle cx="70.59" cy="74.57" r=".64"/>
    <circle cx="67.8" cy="74.57" r=".64"/>
    <circle cx="65.01" cy="74.57" r=".64"/>
    <circle cx="62.22" cy="74.57" r=".64"/>
    <circle cx="59.43" cy="74.57" r=".64"/>
    <circle cx="56.64" cy="74.57" r=".64"/>
    <circle cx="53.84" cy="74.57" r=".64"/>
    <circle cx="51.05" cy="74.57" r=".64"/>
    <circle cx="48.26" cy="74.57" r=".64"/>
    <circle cx="45.47" cy="74.57" r=".64"/>
    <circle cx="42.68" cy="74.57" r=".64"/>
    <circle cx="73.39" cy="74.57" r=".64"/>
    <circle cx="44.07" cy="73.18" r=".62"/>
    <circle cx="76.18" cy="74.57" r=".62"/>
    <circle cx="38.49" cy="73.18" r=".62"/>
    <circle cx="41.28" cy="73.18" r=".62"/>
    <circle cx="46.87" cy="73.18" r=".62"/>
    <circle cx="49.66" cy="73.18" r=".62"/>
    <path d="M68.64,88.25l-1.77.37c0-1.07,1.38-1.46,1.77-.37Z"/>
    <circle cx="60.82" cy="73.18" r=".59"/>
    <circle cx="63.62" cy="73.18" r=".59"/>
    <circle cx="52.45" cy="73.18" r=".59"/>
    <circle cx="55.24" cy="73.18" r=".59"/>
    <circle cx="58.03" cy="73.18" r=".59"/>
    <circle cx="45.47" cy="71.78" r=".58"/>
    <circle cx="42.68" cy="71.78" r=".58"/>
    <circle cx="39.89" cy="71.78" r=".58"/>
    <circle cx="77.57" cy="73.18" r=".58"/>
    <circle cx="74.78" cy="73.18" r=".58"/>
    <circle cx="71.99" cy="73.18" r=".58"/>
    <circle cx="69.2" cy="73.18" r=".58"/>
    <circle cx="66.41" cy="73.18" r=".58"/>
    <circle cx="48.26" cy="71.78" r=".58"/>
    <circle cx="51.05" cy="71.78" r=".58"/>
    <circle cx="53.84" cy="71.78" r=".58"/>
    <path d="M45,87.32l-.78-.29c-.11-.13-.87-.31-.8-.5.28-.74,1.83-.07,1.58.79Z"/>
    <circle cx="41.28" cy="70.39" r=".56"/>
    <circle cx="38.49" cy="70.39" r=".56"/>
    <circle cx="78.97" cy="71.78" r=".56"/>
    <circle cx="76.18" cy="71.78" r=".56"/>
    <circle cx="73.39" cy="71.78" r=".56"/>
    <circle cx="44.07" cy="70.39" r=".56"/>
    <circle cx="67.8" cy="71.78" r=".56"/>
    <circle cx="65.01" cy="71.78" r=".56"/>
    <circle cx="62.22" cy="71.78" r=".56"/>
    <circle cx="59.43" cy="71.78" r=".56"/>
    <circle cx="56.64" cy="71.78" r=".56"/>
    <circle cx="70.59" cy="71.78" r=".56"/>
    <circle cx="49.66" cy="70.38" r=".53"/>
    <circle cx="46.87" cy="70.38" r=".53"/>
    <circle cx="60.82" cy="70.38" r=".52"/>
    <circle cx="58.03" cy="70.38" r=".52"/>
    <circle cx="55.24" cy="70.38" r=".52"/>
    <circle cx="52.45" cy="70.38" r=".52"/>
    <circle cx="63.61" cy="70.38" r=".52"/>
    <path d="M79.25,74.02l-.19,1.21c-1.08-.09-.86-1.52.19-1.21Z"/>
    <circle cx="66.41" cy="70.39" r=".49"/>
    <circle cx="77.57" cy="70.39" r=".49"/>
    <circle cx="51.05" cy="68.99" r=".49"/>
    <circle cx="53.84" cy="68.99" r=".49"/>
    <circle cx="39.89" cy="68.99" r=".49"/>
    <circle cx="42.68" cy="68.99" r=".49"/>
    <circle cx="45.47" cy="68.99" r=".49"/>
    <circle cx="48.26" cy="68.99" r=".49"/>
    <circle cx="56.64" cy="68.99" r=".49"/>
    <circle cx="69.2" cy="70.39" r=".49"/>
    <circle cx="71.99" cy="70.39" r=".49"/>
    <circle cx="74.78" cy="70.39" r=".49"/>
    <circle cx="62.22" cy="68.99" r=".48"/>
    <circle cx="59.43" cy="68.99" r=".48"/>
    <circle cx="76.18" cy="68.99" r=".48"/>
    <circle cx="67.8" cy="68.99" r=".48"/>
    <circle cx="73.39" cy="68.99" r=".48"/>
    <circle cx="70.59" cy="68.99" r=".48"/>
    <circle cx="65.01" cy="68.99" r=".48"/>
    <circle cx="38.49" cy="67.59" r=".46"/>
    <circle cx="41.28" cy="67.59" r=".46"/>
    <circle cx="78.97" cy="68.99" r=".46"/>
    <circle cx="49.66" cy="67.59" r=".46"/>
    <circle cx="46.87" cy="67.59" r=".46"/>
    <circle cx="44.07" cy="67.59" r=".46"/>
    <circle cx="52.45" cy="67.59" r=".43"/>
    <circle cx="55.24" cy="67.59" r=".43"/>
    <circle cx="58.03" cy="67.59" r=".43"/>
    <circle cx="60.82" cy="67.59" r=".43"/>
    <circle cx="69.2" cy="67.59" r=".43"/>
    <circle cx="66.41" cy="67.59" r=".43"/>
    <circle cx="63.62" cy="67.59" r=".43"/>
    <circle cx="77.57" cy="67.59" r=".41"/>
    <circle cx="74.78" cy="67.59" r=".41"/>
    <circle cx="71.99" cy="67.59" r=".41"/>
    <circle cx="42.68" cy="66.2" r=".41"/>
    <circle cx="39.89" cy="66.2" r=".41"/>
    <circle cx="78.97" cy="66.2" r=".38"/>
    <circle cx="73.39" cy="66.2" r=".38"/>
    <circle cx="70.59" cy="66.2" r=".38"/>
    <circle cx="65.01" cy="66.2" r=".38"/>
    <circle cx="38.49" cy="64.8" r=".38"/>
    <circle cx="62.22" cy="66.2" r=".38"/>
    <circle cx="59.43" cy="66.2" r=".38"/>
    <circle cx="56.64" cy="66.2" r=".38"/>
    <circle cx="53.84" cy="66.2" r=".38"/>
    <circle cx="51.05" cy="66.2" r=".38"/>
    <circle cx="48.26" cy="66.2" r=".38"/>
    <circle cx="45.47" cy="66.2" r=".38"/>
    <circle cx="41.28" cy="64.8" r=".38"/>
    <circle cx="67.8" cy="66.2" r=".38"/>
    <circle cx="76.18" cy="66.2" r=".38"/>
    <path d="M78.88,76.71c-.11.29-.12.6-.17.9-.01.07.05.41-.15.31-.41-.2-.28-1.26.32-1.21Z"/>
    <circle cx="46.87" cy="64.8" r=".35"/>
    <circle cx="44.07" cy="64.8" r=".35"/>
    <circle cx="58.03" cy="64.8" r=".35"/>
    <circle cx="55.24" cy="64.8" r=".35"/>
    <circle cx="52.45" cy="64.8" r=".35"/>
    <circle cx="49.66" cy="64.8" r=".35"/>
    <circle cx="45.47" cy="63.41" r=".3"/>
    <circle cx="42.68" cy="63.41" r=".3"/>
    <circle cx="39.89" cy="63.41" r=".3"/>
    <circle cx="53.84" cy="63.41" r=".3"/>
    <circle cx="51.05" cy="63.41" r=".3"/>
    <circle cx="77.57" cy="64.8" r=".3"/>
    <circle cx="74.78" cy="64.8" r=".3"/>
    <circle cx="71.99" cy="64.8" r=".3"/>
    <circle cx="69.2" cy="64.8" r=".3"/>
    <circle cx="66.41" cy="64.8" r=".3"/>
    <circle cx="63.61" cy="64.8" r=".3"/>
    <circle cx="48.26" cy="63.41" r=".3"/>
    <circle cx="60.82" cy="64.8" r=".3"/>
    <polygon points="80.55 64.52 80.55 65.08 80.17 65.04 80.09 64.93 80.13 64.61 80.55 64.52"/>
  </g>
  <path class="cls-3" d="M38.14,82.95c15.11,13.63,39.5,2.32,39.5,2.32,0,0,7.85-53.49,7.85-54.73-24.03-8.04-49.25-3.74-49.25-3.74l1.91,56.15Z"/>
  <g>
    <path class="cls-2" d="M53.78,48.08l5.8-5.69s7.72.36,5.82-4.79c-1.6-3.47-3.74-3.26-5.02-2.7-.31.14-.63-.17-.5-.49.67-1.61,1.22-4.48-2.5-5.87-5.15-1.92-5.1,7.99-5.1,7.99l-3.49,5.06s4.79,3.79,4.99,6.49Z"/>
    <path class="cls-2" d="M20.39,58.71l-7.8-2.25s-6.62,3.98-7.4-1.46c-.24-3.81,1.75-4.64,3.14-4.76.34-.03.47-.45.21-.67-1.36-1.1-3.2-3.36-.59-6.35,3.62-4.14,8.28,4.61,8.28,4.61l5.47,2.8s-2.41,5.61-1.31,8.08Z"/>
    <path class="cls-2" d="M51.07,55.95l7.25.89s5.38-4.01,6.79.29c.72,3.05-.95,3.96-2.17,4.23-.3.06-.36.42-.1.57,1.35.73,3.29,2.34,1.36,5.07-2.68,3.78-7.99-2.74-7.99-2.74l-5.25-1.61s1.41-4.82.11-6.69Z"/>
    <path class="cls-2" d="M25.64,63.68l-4.42,5.29s-6.93.63-4.56,4.57c1.88,2.62,3.76,2.19,4.83,1.59.26-.15.59.07.51.34-.39,1.38-.5,3.77,3,4.45,4.84.94,3.49-7.07,3.49-7.07l2.45-4.51s-4.76-2.5-5.3-4.65Z"/>
    <path class="cls-2" d="M52.53,61.15c3.26-4.19,4.42-9.29,2.61-13.78-3.02-7.52-13.19-10.5-22.71-6.67-9.52,3.83-14.79,13.03-11.76,20.54,1.84,4.57,6.32,7.46,11.69,8.17.05.81.21,1.68.5,2.55,1.08,3.24,3.5,5.34,5.4,4.71,1.9-.64,2.56-3.78,1.48-7.01-.06-.19-.13-.38-.21-.56.06-.01.11-.02.17-.03.03.1.06.2.09.3,1.08,3.24,3.5,5.34,5.4,4.71s2.56-3.78,1.48-7.01c-.07-.22-.15-.43-.24-.64.19-.11.38-.22.56-.34,0,0,0,.01,0,.02,1.08,3.24,3.5,5.34,5.4,4.71,1.9-.64,2.56-3.78,1.48-7.01-.34-1.01-.8-1.9-1.34-2.64ZM29.5,63.32c-2.71,0-4.9-2.2-4.9-4.9s2.2-4.9,4.9-4.9,4.9,2.2,4.9,4.9-2.2,4.9-4.9,4.9ZM46.06,57.35c-2.71,0-4.9-2.2-4.9-4.9s2.2-4.9,4.9-4.9,4.9,2.2,4.9,4.9-2.2,4.9-4.9,4.9Z"/>
  </g>
  <g>
    <polyline class="cls-4" points="86.14 13.66 76.29 13.35 67.69 21.16"/>
    <polygon class="cls-1" points="67.09 10.65 69.09 10.81 68.26 20.64 78.12 20.75 78.1 22.75 66.09 22.62 67.09 10.65"/>
  </g>
</svg>