<?xml version="1.0" encoding="UTF-8"?>
<svg id="icons" xmlns="http://www.w3.org/2000/svg" viewBox="0 0 100 100">
  <defs>
    <style>
      .cls-1, .cls-2 {
        fill: #c2d832;
      }

      .cls-3 {
        fill: #4a5a2d;
      }

      .cls-3, .cls-4, .cls-5, .cls-2 {
        stroke-miterlimit: 10;
      }

      .cls-3, .cls-5, .cls-2 {
        stroke: #000;
      }

      .cls-4 {
        fill: none;
        stroke: #c2d832;
        stroke-width: 4px;
      }

      .cls-5 {
        fill: #e8efb5;
      }
    </style>
  </defs>
  <g>
    <path class="cls-1" d="M27.85,36.01l.15,1.54,1.54.15c-.37-.61-.16-1.76.57-1.97,1.61-.48,2.46,1.44,1.13,2.36h-1.39c.19.54.28,1.09,0,1.62,1.86-.74,2.83,2.05.93,2.55-.62.16-.7-.15-1.24-.24.47.77.38,1.8-.53,2.17-1.18.48-2.28-.6-1.78-1.78l-1.39-.08c.21,2.91-3.82,2.08-2.47-.46l-.99.31c-.73-.16-1.16-.59-1.32-1.32l.31-.99c-2.34,1.02-2.75-2.6-.55-2.31,1.04.14,1.3,1.39.7,2.16l.86-.31.99.31c.04-.34-.29-.52-.31-.86-.02-.28.2-.55.15-.84-.82.07-1.39.05-1.82-.72-.29-1.22.5-2,1.72-1.72.77.43.8,1,.72,1.82h1.39c-.23-1.64.86-2.19,2.31-1.7-1.03-2.6,2.98-2.6,2.24-.3-.26.82-1.23.89-1.94.61ZM27.23,38.33h-1.23c.26.4.09.67,0,1.08l1.23.15v-1.23ZM25.07,40.18c-.56.34-1.07,0-1.54-.31l.31.99-.31.86,1.39-.31.15-1.23ZM29.23,40.33l-1.39-.15c.18.58.2.96,0,1.54.59-.22,1-.14,1.54.15-.17-.61-.45-.88-.15-1.54Z"/>
    <circle class="cls-1" cx="26.46" cy="44.96" r="1.26"/>
    <circle class="cls-1" cx="24.61" cy="34.78" r="1.26"/>
    <circle class="cls-1" cx="32.63" cy="38.94" r="1.21"/>
    <circle class="cls-1" cx="22.45" cy="44.8" r="1.19"/>
    <circle class="cls-1" cx="30.47" cy="44.96" r="1.19"/>
    <circle class="cls-1" cx="26.61" cy="32.93" r="1.17"/>
    <circle class="cls-1" cx="32.47" cy="42.95" r="1.17"/>
    <circle class="cls-1" cx="20.44" cy="42.8" r="1.17"/>
    <circle class="cls-1" cx="28.46" cy="46.96" r="1.12"/>
    <circle class="cls-1" cx="22.6" cy="32.77" r="1.12"/>
    <circle class="cls-1" cx="30.62" cy="32.93" r="1.12"/>
    <circle class="cls-1" cx="24.45" cy="46.81" r="1.12"/>
    <circle class="cls-1" cx="20.6" cy="34.78" r="1.12"/>
    <circle class="cls-1" cx="32.63" cy="34.93" r="1.12"/>
    <circle class="cls-1" cx="18.59" cy="36.78" r="1.09"/>
    <circle class="cls-1" cx="18.44" cy="40.79" r="1.09"/>
    <circle class="cls-1" cx="34.48" cy="40.95" r="1.09"/>
    <circle class="cls-1" cx="34.63" cy="36.94" r="1.06"/>
    <circle class="cls-1" cx="28.62" cy="30.92" r="1.06"/>
    <circle class="cls-1" cx="24.61" cy="30.92" r="1.06"/>
    <circle class="cls-1" cx="26.46" cy="48.97" r="1.03"/>
    <circle class="cls-1" cx="32.47" cy="46.96" r="1.03"/>
    <circle class="cls-1" cx="18.44" cy="44.8" r="1.03"/>
    <circle class="cls-1" cx="20.44" cy="46.81" r="1.03"/>
    <circle class="cls-1" cx="34.48" cy="44.96" r="1.01"/>
    <circle class="cls-1" cx="22.45" cy="48.81" r=".98"/>
    <circle class="cls-1" cx="16.59" cy="38.79" r=".98"/>
    <circle class="cls-1" cx="20.6" cy="30.77" r=".95"/>
    <circle class="cls-1" cx="16.59" cy="34.78" r=".95"/>
    <circle class="cls-1" cx="34.63" cy="32.93" r=".95"/>
    <circle class="cls-1" cx="26.61" cy="28.92" r=".95"/>
    <circle class="cls-1" cx="36.64" cy="38.94" r=".95"/>
    <circle class="cls-1" cx="32.63" cy="30.92" r=".95"/>
    <circle class="cls-1" cx="16.43" cy="42.8" r=".95"/>
    <circle class="cls-1" cx="36.48" cy="42.95" r=".95"/>
    <circle class="cls-1" cx="30.47" cy="48.97" r=".95"/>
    <circle class="cls-1" cx="18.59" cy="32.77" r=".95"/>
    <circle class="cls-1" cx="28.46" cy="50.97" r=".92"/>
    <circle class="cls-1" cx="30.62" cy="28.92" r=".92"/>
    <circle class="cls-1" cx="24.45" cy="50.82" r=".92"/>
    <circle class="cls-1" cx="36.64" cy="34.93" r=".92"/>
    <circle class="cls-1" cx="22.6" cy="28.76" r=".92"/>
    <circle class="cls-1" cx="14.58" cy="36.78" r=".85"/>
    <circle class="cls-1" cx="38.49" cy="40.95" r=".85"/>
    <circle class="cls-1" cx="16.43" cy="46.81" r=".85"/>
    <circle class="cls-1" cx="36.48" cy="46.96" r=".85"/>
    <circle class="cls-1" cx="14.43" cy="40.79" r=".85"/>
    <circle class="cls-1" cx="18.44" cy="48.81" r=".85"/>
    <circle class="cls-1" cx="34.48" cy="48.97" r=".85"/>
    <circle class="cls-1" cx="26.46" cy="52.98" r=".82"/>
    <circle class="cls-1" cx="18.59" cy="28.76" r=".82"/>
    <circle class="cls-1" cx="24.61" cy="26.91" r=".82"/>
    <circle class="cls-1" cx="32.47" cy="50.97" r=".82"/>
    <circle class="cls-1" cx="20.44" cy="50.82" r=".82"/>
    <circle class="cls-1" cx="38.64" cy="36.94" r=".82"/>
    <circle class="cls-1" cx="38.49" cy="44.96" r=".82"/>
    <circle class="cls-1" cx="36.64" cy="30.92" r=".82"/>
    <circle class="cls-1" cx="14.43" cy="44.8" r=".82"/>
    <circle class="cls-1" cx="16.59" cy="30.77" r=".82"/>
    <circle class="cls-1" cx="28.62" cy="26.91" r=".82"/>
    <circle class="cls-1" cx="34.63" cy="28.92" r=".82"/>
    <circle class="cls-1" cx="30.47" cy="52.98" r=".79"/>
    <circle class="cls-1" cx="22.45" cy="52.82" r=".79"/>
    <circle class="cls-1" cx="38.64" cy="32.93" r=".79"/>
    <circle class="cls-1" cx="12.58" cy="38.79" r=".79"/>
    <circle class="cls-1" cx="20.6" cy="26.76" r=".79"/>
    <circle class="cls-1" cx="32.63" cy="26.91" r=".79"/>
    <circle class="cls-1" cx="40.49" cy="38.94" r=".79"/>
    <circle class="cls-1" cx="14.58" cy="32.77" r=".79"/>
    <circle class="cls-1" cx="26.61" cy="24.91" r=".76"/>
    <circle class="cls-1" cx="12.42" cy="42.8" r=".76"/>
    <circle class="cls-1" cx="40.49" cy="42.95" r=".76"/>
    <circle class="cls-1" cx="12.58" cy="34.78" r=".76"/>
    <circle class="cls-1" cx="18.44" cy="52.82" r=".72"/>
    <circle class="cls-1" cx="14.43" cy="48.81" r=".72"/>
    <circle class="cls-1" cx="30.62" cy="24.91" r=".72"/>
    <circle class="cls-1" cx="22.6" cy="24.75" r=".72"/>
    <circle class="cls-1" cx="38.49" cy="48.97" r=".72"/>
    <circle class="cls-1" cx="34.48" cy="52.98" r=".72"/>
    <circle class="cls-1" cx="16.43" cy="50.82" r=".72"/>
    <circle class="cls-1" cx="40.65" cy="34.93" r=".72"/>
    <circle class="cls-1" cx="36.48" cy="50.97" r=".72"/>
    <circle class="cls-1" cx="24.45" cy="54.83" r=".72"/>
    <circle class="cls-1" cx="28.46" cy="54.98" r=".72"/>
    <circle class="cls-1" cx="14.58" cy="28.76" r=".68"/>
    <circle class="cls-1" cx="38.64" cy="28.92" r=".68"/>
    <circle class="cls-1" cx="40.49" cy="46.96" r=".68"/>
    <circle class="cls-1" cx="12.42" cy="46.81" r=".68"/>
    <circle class="cls-1" cx="10.57" cy="36.78" r=".68"/>
    <circle class="cls-1" cx="36.64" cy="26.91" r=".68"/>
    <circle class="cls-1" cx="16.59" cy="26.76" r=".68"/>
    <circle class="cls-1" cx="42.5" cy="40.95" r=".68"/>
    <circle class="cls-1" cx="10.57" cy="40.79" r=".68"/>
    <circle class="cls-1" cx="20.44" cy="54.83" r=".68"/>
    <circle class="cls-1" cx="32.63" cy="22.9" r=".63"/>
    <circle class="cls-1" cx="18.59" cy="24.75" r=".63"/>
    <circle class="cls-1" cx="34.63" cy="24.91" r=".63"/>
    <circle class="cls-1" cx="12.58" cy="30.77" r=".63"/>
    <circle class="cls-1" cx="40.65" cy="30.92" r=".63"/>
    <circle class="cls-1" cx="10.57" cy="32.77" r=".63"/>
    <circle class="cls-1" cx="42.65" cy="32.93" r=".63"/>
    <circle class="cls-1" cx="8.57" cy="38.79" r=".63"/>
    <circle class="cls-1" cx="44.5" cy="38.94" r=".63"/>
    <circle class="cls-1" cx="8.41" cy="42.8" r=".63"/>
    <circle class="cls-1" cx="42.65" cy="36.94" r=".63"/>
    <circle class="cls-1" cx="36.48" cy="54.98" r=".63"/>
    <circle class="cls-1" cx="10.42" cy="44.8" r=".63"/>
    <circle class="cls-1" cx="42.5" cy="44.96" r=".63"/>
    <circle class="cls-1" cx="12.42" cy="50.82" r=".63"/>
    <circle class="cls-1" cx="40.49" cy="50.97" r=".63"/>
    <circle class="cls-1" cx="14.43" cy="52.82" r=".63"/>
    <circle class="cls-1" cx="38.49" cy="52.98" r=".63"/>
    <circle class="cls-1" cx="20.6" cy="22.75" r=".63"/>
    <circle class="cls-1" cx="16.43" cy="54.83" r=".63"/>
    <circle class="cls-1" cx="24.61" cy="22.9" r=".63"/>
    <circle class="cls-1" cx="28.62" cy="22.9" r=".63"/>
    <circle class="cls-1" cx="32.47" cy="54.98" r=".63"/>
    <circle class="cls-1" cx="22.45" cy="56.83" r=".63"/>
    <circle class="cls-1" cx="26.46" cy="56.99" r=".63"/>
    <circle class="cls-1" cx="30.47" cy="56.99" r=".63"/>
    <circle class="cls-1" cx="12.58" cy="26.76" r=".58"/>
    <circle class="cls-1" cx="44.5" cy="42.95" r=".58"/>
    <circle class="cls-1" cx="8.57" cy="34.78" r=".58"/>
    <circle class="cls-1" cx="42.5" cy="48.97" r=".58"/>
    <circle class="cls-1" cx="26.61" cy="20.9" r=".58"/>
    <circle class="cls-1" cx="14.58" cy="24.75" r=".58"/>
    <circle class="cls-1" cx="40.65" cy="26.91" r=".58"/>
    <circle class="cls-1" cx="22.6" cy="20.74" r=".58"/>
    <circle class="cls-1" cx="38.64" cy="24.91" r=".58"/>
    <circle class="cls-1" cx="30.62" cy="20.9" r=".58"/>
    <circle class="cls-1" cx="10.42" cy="48.81" r=".58"/>
    <circle class="cls-1" cx="10.57" cy="28.76" r=".58"/>
    <circle class="cls-1" cx="18.44" cy="56.83" r=".58"/>
    <circle class="cls-1" cx="44.66" cy="34.93" r=".58"/>
    <circle class="cls-1" cx="34.48" cy="56.99" r=".58"/>
    <circle class="cls-1" cx="24.45" cy="58.84" r=".58"/>
    <circle class="cls-1" cx="10.57" cy="24.75" r=".49"/>
    <circle class="cls-1" cx="36.64" cy="22.9" r=".49"/>
    <circle class="cls-1" cx="16.59" cy="22.75" r=".49"/>
    <circle class="cls-1" cx="12.58" cy="22.75" r=".49"/>
    <circle class="cls-1" cx="34.63" cy="20.9" r=".49"/>
    <circle class="cls-1" cx="18.59" cy="20.74" r=".49"/>
    <circle class="cls-1" cx="8.41" cy="50.82" r=".49"/>
    <circle class="cls-1" cx="44.5" cy="50.97" r=".49"/>
    <circle class="cls-1" cx="32.63" cy="18.89" r=".49"/>
    <circle class="cls-1" cx="4.56" cy="38.79" r=".49"/>
    <circle class="cls-1" cx="28.62" cy="18.89" r=".49"/>
    <circle class="cls-1" cx="24.61" cy="18.89" r=".49"/>
    <circle class="cls-1" cx="6.56" cy="36.78" r=".49"/>
    <circle class="cls-1" cx="10.42" cy="52.82" r=".49"/>
    <circle class="cls-1" cx="6.41" cy="44.8" r=".49"/>
    <circle class="cls-1" cx="42.5" cy="52.98" r=".49"/>
    <circle class="cls-1" cx="46.66" cy="36.94" r=".49"/>
    <circle class="cls-1" cx="46.51" cy="44.96" r=".49"/>
    <circle class="cls-1" cx="46.51" cy="40.95" r=".49"/>
    <circle class="cls-1" cx="6.56" cy="40.79" r=".49"/>
    <circle class="cls-1" cx="12.42" cy="54.83" r=".49"/>
    <circle class="cls-1" cx="46.66" cy="32.93" r=".49"/>
    <circle class="cls-1" cx="8.41" cy="46.81" r=".49"/>
    <circle class="cls-1" cx="40.49" cy="54.98" r=".49"/>
    <circle class="cls-1" cx="44.5" cy="46.96" r=".49"/>
    <circle class="cls-1" cx="42.65" cy="28.92" r=".49"/>
    <circle class="cls-1" cx="14.43" cy="56.83" r=".49"/>
    <circle class="cls-1" cx="6.56" cy="32.77" r=".49"/>
    <circle class="cls-1" cx="44.66" cy="30.92" r=".49"/>
    <circle class="cls-1" cx="20.6" cy="18.74" r=".49"/>
    <circle class="cls-1" cx="38.49" cy="56.99" r=".49"/>
    <circle class="cls-1" cx="8.57" cy="30.77" r=".49"/>
    <circle class="cls-1" cx="16.43" cy="58.84" r=".49"/>
    <circle class="cls-1" cx="20.44" cy="58.84" r=".49"/>
    <circle class="cls-1" cx="28.46" cy="58.99" r=".49"/>
    <circle class="cls-1" cx="32.47" cy="58.99" r=".49"/>
    <circle class="cls-1" cx="36.48" cy="58.99" r=".49"/>
    <circle class="cls-1" cx="22.45" cy="60.84" r=".49"/>
    <circle class="cls-1" cx="26.46" cy="60.84" r=".49"/>
    <circle class="cls-1" cx="30.47" cy="61" r=".49"/>
  </g>
  <polygon class="cls-3" points="18.44 38.82 71.24 37.11 72.42 85 24.96 83.5 18.44 38.82"/>
  <path class="cls-5" d="M33.76,70.2c.38-.46,30.83-41.65,30.83-41.65l2.02,10.23-7.45,9.1h-4.68l-18.83,22.32h-1.9Z"/>
  <g>
    <line class="cls-4" x1="87.72" y1="31.21" x2="55.45" y2="63.88"/>
    <polygon class="cls-1" points="66.77 29.14 66.94 33.14 86.64 32.3 86.04 52.02 90.04 52.14 90.77 28.12 66.77 29.14"/>
  </g>
  <path class="cls-5" d="M29.97,70.2c.38-.46,44.48-62.48,44.48-62.48l2.02,10.23-7.45,9.1h-4.68l-32.47,43.15h-1.9Z"/>
  <polygon class="cls-2" points="24.16 84.1 6.1 49.83 31.42 44.81 40.31 53.36 64.1 53.15 72.42 85 24.16 84.1"/>
  <g>
    <path d="M81.35,82.65l12.86-5.36-13.56-3.22-1.13-13.89-7.25,11.9-13.56-3.22,9.07,10.57-7.25,11.9,12.86-5.36,9.07,10.57-1.13-13.89ZM73.98,83.91l-9.12,3.8,5.14-8.44-6.43-7.5,9.61,2.28,5.14-8.44.8,9.85,9.61,2.28-9.12,3.8.8,9.85-6.43-7.5Z"/>
    <path d="M77.94,80.71l6.42-2.68-6.77-1.61-.56-6.93-3.62,5.94-6.77-1.61,4.53,5.28-3.62,5.94,6.42-2.68,4.53,5.28-.56-6.93ZM74.25,81.33l-4.55,1.9,2.57-4.21-3.21-3.74,4.8,1.14,2.57-4.21.4,4.92,4.8,1.14-4.55,1.9.4,4.92-3.21-3.74Z"/>
  </g>
  <g>
    <polygon points="50.14 32.68 44.98 32.84 42.51 36.06 47.67 35.89 48.83 40.92 51.31 37.71 50.14 32.68"/>
    <polygon points="46.65 37.27 41.49 37.43 39.02 40.65 44.18 40.48 45.34 45.51 47.82 42.3 46.65 37.27"/>
    <polygon points="42.95 42.08 37.79 42.25 35.31 45.47 40.47 45.3 41.64 50.33 44.11 47.11 42.95 42.08"/>
  </g>
  <g>
    <polygon points="60.8 19.33 55.64 19.49 53.16 22.71 58.32 22.55 59.48 27.58 61.96 24.36 60.8 19.33"/>
    <polygon points="57.25 23.6 52.09 23.76 49.61 26.98 54.77 26.82 55.94 31.85 58.41 28.63 57.25 23.6"/>
    <polygon points="53.69 28.41 48.53 28.57 46.06 31.79 51.22 31.63 52.38 36.66 54.86 33.44 53.69 28.41"/>
  </g>
</svg>