<?xml version="1.0" encoding="UTF-8"?>
<svg id="icons" xmlns="http://www.w3.org/2000/svg" xmlns:xlink="http://www.w3.org/1999/xlink" viewBox="0 0 100 100">
  <defs>
    <style>
      .cls-1, .cls-2, .cls-3, .cls-4, .cls-5 {
        stroke-miterlimit: 10;
      }

      .cls-1, .cls-3, .cls-5 {
        stroke: #000;
      }

      .cls-1, .cls-6 {
        fill: none;
      }

      .cls-2 {
        fill: #c2d832;
      }

      .cls-2, .cls-4 {
        stroke: #231f20;
      }

      .cls-3 {
        fill: #231f20;
      }

      .cls-4 {
        fill: #9b9a9a;
      }

      .cls-5 {
        fill: #fff;
      }

      .cls-7 {
        fill: #010101;
      }

      .cls-8 {
        clip-path: url(#clippath);
      }
    </style>
    <clipPath id="clippath">
      <path class="cls-6" d="M-2.27,42.31v54.19h104.05v-54.19H-2.27ZM45.5,69.3l-16.38-3.3-5.62-5.67,3.37-9.98.22-.05,18.69,18.45-.29.54Z"/>
    </clipPath>
  </defs>
  <g>
    <path class="cls-6" d="M33.76,68.58c.07-.02.15-.02.23,0,.04.02.07.05.1.09-.03-.04-.06-.07-.1-.1-.08-.01-.16-.02-.23.02-.05.03-.12.07-.11.15,0-.08.06-.13.11-.15Z"/>
    <path class="cls-6" d="M29.43,76.5s0,.01.02.03c-.01,0-.02-.02-.02-.03-.03-.06-.1-.14-.18-.09h0c.08-.04.14.05.18.09Z"/>
    <path class="cls-6" d="M29.15,76.55s.04-.09.06-.1c-.03.03-.06.06-.06.1Z"/>
    <path class="cls-6" d="M34.09,68.65h0s0,.04,0,.06c0-.02,0-.04,0-.06Z"/>
    <path class="cls-6" d="M28.13,79.66c-.09.03-.14-.05-.15-.11,0-.01,0-.02,0-.04,0,.01,0,.02,0,.04.01.06.08.15.15.11.16-.05.25-.2.25-.37h0c0,.16-.09.32-.25.37Z"/>
    <path class="cls-6" d="M40.65,61.16s.06,0,.07.01h-.06c0-.08,0-.15-.09-.14h0c.09,0,.09.06.08.13Z"/>
    <path class="cls-6" d="M40.49,61.47h.01c0-.21.56-.26.29-.41h0c.24.15-.29.2-.3.41Z"/>
    <polygon class="cls-6" points="39.58 60.97 39.8 61.01 39.8 61.01 39.58 60.97"/>
    <path class="cls-6" d="M33.85,76.35c.03.09.09.15.16.19-.07-.05-.14-.13-.16-.21-.02-.11-.08-.28.07-.31.12-.04.19-.16.26-.16-.07,0-.14.13-.26.15h0c-.13.03-.08.19-.07.31-.01,0-.02.02,0,.03Z"/>
    <path class="cls-6" d="M32.13,81.34c.14.07.31.07.44-.03h0c-.14.09-.3.1-.44.03-.09-.05-.08-.15-.07-.23h0c-.01.07-.02.18.07.23Z"/>
    <polygon class="cls-6" points="36.15 74.05 36.14 73.9 36.28 73.89 36.28 73.89 36.14 73.9 36.15 74.05"/>
    <path class="cls-6" d="M34.19,75.87s0-.01,0,0t0,0h0Z"/>
    <path class="cls-6" d="M19.62,78.17c.12-.04.1-.21.05-.31s-.11-.18-.19-.25c.08.06.13.15.18.24.04.1.07.28-.05.33-.14.03-.23.2-.34.17-.04,0-.08-.02-.12-.03.04.02.09.03.13.03.11.03.21-.14.33-.17Z"/>
    <path class="cls-6" d="M20.57,68.71s-.02,0-.02-.02c0,.01.02.02.02.02.06.03.19-.01.14-.11,0-.01-.02-.06-.03-.07h0s.02.06.03.07c.05.09-.07.14-.14.11Z"/>
    <polygon class="cls-6" points="21.31 76.41 21.45 76.4 21.45 76.4 21.31 76.41 21.3 76.26 21.3 76.26 21.31 76.41"/>
    <path class="cls-6" d="M24.95,68.18c-.1.13-.27.18-.44.15-.03,0-.04-.03-.05-.05,0,.02.01.05.05.05.17.04.33-.02.44-.15.04,0,.13-.01.14-.07-.02.05-.09.08-.14.07Z"/>
    <path class="cls-6" d="M25.74,79.51s-.04.07-.09.04c-.02-.02-.03-.04-.02-.06,0,.02,0,.05.02.06.05.03.08,0,.09-.04Z"/>
    <path class="cls-6" d="M25.85,72.79c.09.03.19.02.29-.02.03-.02.04-.05.06-.07h0s-.03.05-.06.07c-.1.05-.2.04-.29.02Z"/>
    <path class="cls-6" d="M25.67,72.25h0s-.07.06-.07.09c0-.03.03-.06.07-.09Z"/>
    <path class="cls-6" d="M25.18,78.58s0-.02,0-.04c0,.01,0,.02,0,.04.03.07.11.14.18.1.03-.02.05-.05.06-.09,0,.03-.03.06-.06.08-.07.05-.16-.02-.18-.09Z"/>
    <path class="cls-6" d="M24.22,75.52h0c-.07.02-.11.1-.13.17.01-.07.06-.15.13-.17Z"/>
    <path class="cls-6" d="M24.55,76.42c.14.13.36.13.51,0,.03-.06.07-.13.11-.19-.03.06-.07.13-.11.18-.15.13-.37.13-.51,0-.26-.01-.41-.24-.49-.58,0-.01,0-.04,0-.07,0,.03,0,.06,0,.07.08.35.22.57.49.58Z"/>
    <path class="cls-6" d="M25.32,78.46h-.02s.01-.01.02,0h0Z"/>
    <path class="cls-6" d="M27.93,70.68s.09,0,.13-.05c-.04.04-.09.05-.13.05-.1-.04-.17-.12-.2-.22-.03-.09.05-.15.1-.18h0c-.05.04-.13.09-.1.19.03.09.11.17.21.21Z"/>
    <path class="cls-6" d="M25.71,79.44h0s-.06,0-.07.01c.02-.02.04-.03.07-.01Z"/>
    <path class="cls-6" d="M24.5,68.16s-.02.05-.04.07c.02-.02.02-.05.04-.07h0Z"/>
    <polygon class="cls-6" points="26.78 74.13 26.92 74.12 26.92 74.12 26.78 74.12 26.77 73.98 26.77 73.98 26.78 74.13"/>
    <path class="cls-6" d="M56.59,77.62c-.03-.18-.08-.2-.16-.17.02,0,.04,0,.03.02.05,0,.09.04.11.18.07.02.11,0,.14-.02-.04,0-.07,0-.12-.01Z"/>
    <path class="cls-6" d="M58.56,77.03c-.33.05-.34.04-.64-.11.1-.24-.02-.74-.22-.54.17-.13.27.35.19.57.3.16.31.16.64.11.02.18-.03.25-.1.31.09-.06.15-.13.13-.33Z"/>
    <path class="cls-6" d="M57.47,76.37s0,.03-.02.05c.04.21-.11.31.13.46.01,0,.02,0,.04-.03h-.01c-.25-.15-.07-.25-.13-.49Z"/>
    <path class="cls-6" d="M58.25,77.58h.01s0-.02,0-.03c.02-.04.04-.07.06-.1-.04.03-.07.07-.09.12,0,.01,0,.02,0,.04.03.27.25-.1.42.03,0-.01.02-.02.02-.03-.19-.11-.4.25-.43-.02Z"/>
    <path class="cls-6" d="M57.34,76.47c-.04-.11.11-.51-.09-.71v.04c.18.19.04.58.08.69.01.05.08,0,.11-.04-.04.03-.08.04-.09,0Z"/>
    <path class="cls-6" d="M56.49,76.32v.03c.11.07.12.22.26.27.05,0,.08-.02.11-.06-.03.02-.05.03-.09.03-.15-.04-.15-.2-.29-.27Z"/>
    <path class="cls-6" d="M57.01,76.36c.05-.04.11-.05.23,0,0-.01,0-.02-.02-.04-.12-.06-.17-.02-.21.03Z"/>
    <path class="cls-6" d="M58.07,78.68s-.02,0-.04,0c.13.09.17.17.15.23.03-.06.01-.14-.12-.24Z"/>
    <path class="cls-6" d="M58.44,77.79s-.02.04.18.09c0-.01,0-.02.02-.03-.12-.03-.18-.04-.2-.06Z"/>
    <path class="cls-6" d="M58.2,77.79h0c-.07.26.15.3.23.47h.02c-.05-.17-.3-.21-.25-.47Z"/>
    <path class="cls-6" d="M58.26,78.33s0,.11-.03.19c.02-.07.02-.13.03-.19Z"/>
    <path class="cls-6" d="M54.91,77.08c-.34-.22-.52.03-.73-.24.06-.14.19-.19.19-.43l-.44-.08v.02s.4.07.4.07c0,.24-.13.28-.19.43.2.28.39.01.73.24-.03.16-.07.31.05.35,0,.02-.02.04-.02.05.03-.02.04-.04.05-.07-.12-.04-.08-.2-.04-.35Z"/>
    <path class="cls-6" d="M53.75,76.22c.36-.2.43-.82.79-1.03-.04-.1-.16-.17-.26-.16,0,.01-.02.02-.02.03v.08c-.11,0-.19-.02-.28-.05-.03,0-.07-.02-.1-.03-.05,0-.08,0-.12-.01-.11-.09-.2-.18-.28-.29,0,.01-.02.02-.02.03-.03.06-.05.13-.06.2.03.17.08.33.13.48.06.11.18.17.3.17.08.2-.27.26-.27.3,0,.11.1.2.18.3.04.05.08.09.08.15,0-.07-.04-.12-.07-.17Z"/>
    <path class="cls-6" d="M54.49,77.58s.01,0,0,0c-.01,0-.01,0-.03.02.11.18.22.07.54.09v-.02c-.29-.02-.4.08-.51-.09Z"/>
    <path class="cls-6" d="M53.59,76.62s-.02,0-.04.02c.2.09.32.06.36-.11-.03.13-.16.17-.33.09Z"/>
    <path class="cls-6" d="M56.25,77.9s-.05.05-.07.09c0,0,.01,0,0,.01,0-.04.04-.07.06-.1Z"/>
    <path class="cls-6" d="M56.25,77.67s-.01,0-.02.02c.04-.03.14-.11.18-.16-.06.06-.18.15-.16.14Z"/>
    <path class="cls-6" d="M56.34,77.99l.05-.04h0s-.04.02-.05.04Z"/>
    <path class="cls-6" d="M56.02,77.04v.04c.34.34-.25.53-.05.79-.02.05-.05.08-.07.12.04-.03.07-.07.09-.14-.21-.26.41-.45.03-.8Z"/>
    <path class="cls-6" d="M55.91,77.02c-.45-.22-.35-.06-.77-.02v.02c.38-.05.31-.19.74.03.02.41-.21.45-.33.63.12.03.2,0,.27-.07-.05.05-.14.07-.24.04.12-.19.35-.23.33-.63Z"/>
    <path class="cls-6" d="M55.71,78.27c.02-.09,0-.18-.01-.27-.02-.02-.04-.03-.06-.06.05.11.07.23.05.35.33.11.35-.34.56-.02.06,0,.08-.02.09-.04-.01,0-.04.02-.07.01-.21-.32-.23.12-.56.02Z"/>
    <path class="cls-6" d="M65.32,81.16c-.08.02-.11.18,0,.22h0c-.11-.05-.07-.2,0-.22Z"/>
    <path class="cls-6" d="M65.14,81.12h0c-.19-.06.19-.35.13-.66h0c.06.3-.31.6-.13.66Z"/>
    <path class="cls-6" d="M42.37,59.91c0,.06-.02.1-.01.15v-.07c.35.07.16.51.66.47.03-.03.05-.06.06-.09-.56.09-.36-.39-.7-.46Z"/>
    <path class="cls-6" d="M42.13,60.32c.05-.07.08-.15,0-.23-.17-.13-.16.06-.14.09-.02-.03-.02-.22.14-.09.09.08.05.16,0,.23-.02,0-.04-.02-.05-.02,0,.01.03.02.05.02.08.02.16.03.23.03h0c-.07.01-.15,0-.23-.03Z"/>
    <path class="cls-6" d="M42.44,60.76s-.04.07.03.11c.05-.15.21-.16.27-.3-.01,0-.02-.02-.03-.02-.07.08-.19.1-.23.24-.02-.02-.03-.03-.04-.03Z"/>
    <path class="cls-6" d="M64.12,85.76c-.1.04-.26.08-.3-.05-.03-.14-.15-.21-.17-.31,0-.06-.02-.13-.04-.19,0,.06.02.13.02.2,0,.09.12.17.16.29s.21.1.32.06c.21-.08.33-.29.46-.45-.14.16-.26.37-.46.45Z"/>
    <path class="cls-6" d="M63.37,82.12s.02.02.03.02h.03s-.02,0-.03,0c0-.01-.02-.02-.03-.02Z"/>
    <path class="cls-6" d="M42.46,60.45c-.13.05-.15.26-.38.14.03-.12-.03-.17-.1-.2-.1-.06-.22-.1-.15-.29h0c-.09.19.04.22.14.29-.04.02-.07.03-.12.01-.09-.05-.15-.13-.15-.23h0c-.01.14.05.26.17.32.04,0,.08,0,.12-.01.07.04.14.08.1.2.28.14.25-.19.46-.15v-.06s-.05,0-.08-.02Z"/>
    <path class="cls-6" d="M42.64,61.74c-.07-.08-.15-.13-.25-.16h0c.1.03.18.08.25.16h0Z"/>
    <path class="cls-6" d="M65.3,81.06s-.04,0-.07-.01c.06-.01.12.03.12.09h.01s-.03-.06-.07-.08Z"/>
    <path class="cls-6" d="M41.33,63.02c-.28.1-.31-.22-.52-.22.01-.15.04-.29.08-.45-.08.02-.18.03-.26,0-.28-.19-.6-.34-.78-.6-.17-.11-.21.29-.27.3-.04,0-.15-.2-.19-.15-.4.39.07,1.04.82.95-.03-.11-.05-.22-.17-.26.12-.11.21,0,.56-.02.05.11.07.23.05.35.05-.04.11-.05.17-.06.17,0,.21.22.4.23.02-.02.06-.06.12-.08Z"/>
    <path class="cls-6" d="M42.5,61.15c-.01.07-.01.15.03.22.01,0,.03-.02.03-.04-.03-.06-.06-.13-.06-.18Z"/>
    <path class="cls-6" d="M42.64,61.16s-.06-.03-.06-.07c0,.02.03.07.06.07.2-.09.26-.1.3-.41.01-.07,0-.11.01-.14h0s0,.07-.01.14c-.04.3-.1.32-.3.41Z"/>
    <path class="cls-6" d="M41.72,60.07l-.03-.02v-.02s-.02,0-.03,0h0c-.08-.01-.15,0-.22.02h0c-.08.02-.17.06-.24.07,0-.02,0-.04,0-.06h-.01c-.05.02-.1.04-.15.06,0,.09.07.11.17.09.07-.02.16-.05.24-.07.07-.02.16-.03.22-.02h.02s0,0,0,0c0-.02.02-.03.03-.04ZM41.69,60.05l.03.02-.04.03v-.04Z"/>
    <path class="cls-6" d="M50.19,69.19l.16.03c-.04-.05-.09-.08-.16-.03Z"/>
    <path class="cls-6" d="M47.5,66.62s0-.01,0-.02c0,.03,0,.06,0,.09.04.05.1.13.18.08.04-.03.11-.1.1-.17-.02.04-.06.08-.09.1-.09.05-.17-.02-.19-.08Z"/>
    <path class="cls-6" d="M53.8,71.13s-.04.05-.07.07c-.08.06-.15-.01-.18-.08t0-.02s0,.06,0,.08c.04.05.1.13.18.08.03-.02.05-.05.07-.07.12.23,0,.47.49.6.16-.28-.2-.17-.29-.28-.07-.11.05-.5-.2-.51.03.05.02.1-.01.12Z"/>
    <path class="cls-6" d="M58.18,84.09h0v.02h0v-.02h0Z"/>
    <path class="cls-6" d="M59.31,82.08s.02.06.03.07c.02.03.02.04.01.06,0-.02,0-.03-.01-.06,0-.02-.02-.07-.03-.07-.03-.06-.12-.04-.17,0h0c.05-.04.14-.06.17,0Z"/>
    <path class="cls-6" d="M58.5,83.99c.06,0,.11.03.15.07-.04-.04-.09-.06-.15-.07Z"/>
    <path class="cls-6" d="M62.96,82.86s.08.09.13.1c-.06,0-.1-.06-.13-.1-.04-.08.04-.15.09-.19.03-.02.05-.01.08,0-.02,0-.06,0-.08,0h0c-.06.03-.14.11-.09.19Z"/>
    <path class="cls-6" d="M63.43,81.75c-.09-.02-.14.1-.19.19h0c.06-.08.1-.19.19-.19Z"/>
    <path class="cls-6" d="M43.27,64.44c-.09-.14-.15-.29-.17-.46-.41-.23-.87-.14-1.52-.15-.04-.21-.36-.43-.4-.62-.08.19.35.44.39.69.63,0,1.11-.08,1.52.15.03.17.09.32.17.46.09.12.22.18.41,0-.02-.14-.12-.25-.23-.32t-.02-.02c-.02.07-.06.12-.09.18,0,.04-.03.06-.05.09Z"/>
    <path class="cls-6" d="M59.94,84.4c.05.04.09.1.1.17,0,.01,0,.04,0,.05,0-.02,0-.03,0-.06-.01-.06-.05-.11-.1-.16-.13-.13-.3,0-.38.12h0c.07-.12.25-.23.38-.12Z"/>
    <path class="cls-6" d="M41.67,60s.15-.08.21-.14c-.06.06-.19.09-.21.14Z"/>
    <path class="cls-6" d="M60.37,84.79c.15-.02.29.1.31.25,0,.01,0,.04,0,.06,0-.02,0-.03,0-.06-.02-.15-.16-.27-.31-.25h0c-.13.02-.22.12-.24.25.02-.11.12-.22.24-.25Z"/>
    <path class="cls-6" d="M57.34,85.85s-.05.01-.07.03c.01,0,.04-.02.05-.01l1.43-.09s.05,0,.06-.01c-.01,0-.02,0-.04,0l-1.43.08Z"/>
    <path class="cls-6" d="M41.69,58.93c0,.06.04.11.1.11h0s-.08-.02-.09-.07c0-.04,0-.06,0-.09h0v.06Z"/>
    <path class="cls-6" d="M63.31,86.63l.94.34-.93-.35s-.01,0-.01,0Z"/>
    <path class="cls-6" d="M60.13,85.83c-.21-.12-.53-.35-1.02-.22h-.01c.49-.12.81.11,1.01.23.19-.01.38.07.5.22.31.08.43.32.65.36.01,0,.01,0,.02,0-.22-.04-.34-.27-.65-.36-.12-.15-.31-.23-.5-.22Z"/>
    <path class="cls-6" d="M57.98,79.16s-.01,0,0,0c.04.03.09.06.13.1.07-.16.15-.31.23-.47h0c-.08.14-.17.29-.23.46-.04-.03-.09-.06-.13-.09Z"/>
    <path class="cls-6" d="M57.88,79.28c-.03.06-.04.12.02.2.17-.12.3-.29.38-.49-.08.18-.21.34-.38.46-.06-.07-.06-.13-.03-.18Z"/>
    <path class="cls-6" d="M59.15,78.74c0-.12.15-.11.15-.2,0-.06-.27-.41-.14-.53-.19.1.11.49.11.55,0,.09-.16.09-.15.2.02.15.11.35.12.57h.03c0-.23-.11-.43-.13-.59Z"/>
    <path class="cls-6" d="M59.44,77.28c-.05-.02-.1-.04-.14-.06.04.02.09.04.13.06.03.47-.38.27-.56.41-.06.22-.14.42-.25.62-.03.05-.06.09-.08.15-.05.09-.11.19-.16.27,0,0,0-.01-.02-.02v.03s0,.01,0,.01c.25.23-.04.35.11.58.13-.17.39-.28.56-.02,0-.01,0-.02,0-.05-.16-.22-.4-.13-.54.04-.13-.23.14-.36-.11-.58.05-.08.1-.16.15-.24h0c.02-.07.05-.12.08-.16.02-.02.03-.04.05-.06.07-.15.14-.3.18-.45v-.03s0,0,.02,0c0-.03.02-.07.03-.1.18-.15.59.05.56-.42Z"/>
    <path class="cls-6" d="M58.88,77.77v.04c.08.08.21.14.33.16.02,0,.04-.02.07-.01-.15-.01-.3-.08-.4-.2Z"/>
    <path class="cls-6" d="M56.89,86.02c0-.08,0-.17.03-.25.2-.38.59-.69.73-1.04.17-.42.04-.91.35-1.33,0-.3-.17-.03-.25-.5.44-.53.99-.54,1.1-1.2.04-.28-.29-.73-.01-1.17-.5-.09-.14-.38-.11-.6.01-.12-.14-.21-.05-.35.05-.07.1-.12.18-.15-.08.04-.16.1-.2.18-.08.15.07.23.05.35-.03.21-.39.51.11.6-.27.44.05.88.01,1.17-.09.66-.66.67-1.1,1.2.08.47.25.21.25.5-.3.42-.18.91-.35,1.33-.14.34-.53.66-.73,1.04-.02.08-.04.17-.03.25h0s.09,0,.14,0,.08,0,.11-.04c-.03.02-.05.03-.08.02-.04-.02-.09-.02-.14-.01Z"/>
    <path class="cls-6" d="M65.49,81.02s-.05.08-.08.14c.03-.05.06-.09.08-.14Z"/>
    <rect class="cls-6" x="42.15" y="59.45" height=".23"/>
    <path class="cls-6" d="M65.56,80.62h0c-.15-.06.01-.34-.15-.38h0c.18.04.01.34.15.38Z"/>
    <path class="cls-6" d="M41.15,58.34h0c.17.04.03.3.29.28h0s.02-.05.03-.09c0,.03,0,.06-.03.09-.26.02-.12-.24-.29-.28Z"/>
    <path class="cls-6" d="M42.26,58.96c.1-.19-.12-.39-.04-.48-.07.08.15.28.04.48Z"/>
    <path class="cls-6" d="M42.69,58.96h0c-.19-.47.13-.39.36-.48-.23.09-.57,0-.36.48Z"/>
    <path class="cls-6" d="M67.36,81.05h0c-.07.12-.15.22-.27.29h0c.12-.07.2-.17.27-.29Z"/>
    <path class="cls-6" d="M65.56,81.2s-.03-.04-.02-.06c0,.02,0,.05.02.06.05.03.08,0,.09-.04-.02.03-.05.07-.09.04Z"/>
    <path class="cls-6" d="M66.88,81.31h0c.14.06.15.22.27.28h0c-.13-.07-.13-.23-.27-.28Z"/>
    <path class="cls-6" d="M66.72,82.2h0c.15-.17.48-.04.68-.11h0c-.21.07-.54-.06-.68.11Z"/>
    <path class="cls-6" d="M67.14,81.01h0c-.2.2-.29-.06-.23-.13-.07.07.02.35.23.13Z"/>
    <path class="cls-6" d="M65.29,84.75c-.14-.07-.3-.04-.34-.16-.03-.11-.07-.24-.01-.32-.08.07-.03.21,0,.32.03.13.21.1.35.17.04.03.1,0,.15-.07-.04.05-.11.08-.15.07Z"/>
    <polygon class="cls-6" points="55.34 77.79 55.35 77.79 55.34 77.64 55.19 77.65 55.19 77.65 55.34 77.64 55.34 77.79"/>
    <path class="cls-6" d="M53.8,83.41s.01,0,0,0c.08-.08.09-.19.16-.21.01,0,.02,0,.04-.02-.01,0-.04,0-.05.01-.07.02-.07.14-.15.22Z"/>
    <path class="cls-6" d="M51.24,79.96s.07-.05.1-.09c-.03.04-.06.08-.1.09Z"/>
    <path class="cls-6" d="M54.69,83.24s-.06.02-.09.04c.04-.02.07-.02.09-.04l.74-.43h-.01s-.73.43-.73.43Z"/>
    <path class="cls-6" d="M58.77,78.25s.02-.05.04-.07c-.01,0-.02,0-.05.03.03-.02.04-.02.01.05Z"/>
    <path class="cls-6" d="M51.69,81c.07-.02.16-.14.17-.25,0,.1-.09.23-.17.25Z"/>
    <path class="cls-6" d="M49.1,80.87s-.02.05-.04.07c.03-.03.04-.05.04-.07Z"/>
    <path class="cls-6" d="M49.39,84.18s.11-.04.15-.08c.05-.05.13-.07.2-.08-.07.01-.15.04-.21.09-.04.03-.09.05-.14.07Z"/>
    <path class="cls-6" d="M49.79,78.22c-.01-.13-.02-.26-.01-.39.12-.04.2-.14.2-.27,0-.07,0-.18.11-.21.16-.04.24-.2.36-.32.13.03.27.08.39.15.1.08.23.15.28.24-.05-.09-.18-.17-.28-.24-.13-.07-.26-.11-.39-.15-.11.12-.2.28-.36.32-.1.03-.11.14-.11.21,0,.13-.07.23-.2.27-.01.14,0,.26.01.39h0Z"/>
    <path class="cls-6" d="M49.36,79.1h0c.05.03.08,0,.09-.05,0,.04-.04.07-.09.05-.02-.02-.03-.04-.02-.06,0,.02,0,.05.02.06Z"/>
    <path class="cls-6" d="M47.89,84.28h0l.56-.31h0l-.56.31Z"/>
    <path class="cls-6" d="M51.2,79.97h0c-.2-.05-.32-.26-.19-.4h0c-.13.14,0,.36.19.4Z"/>
    <path class="cls-6" d="M51.75,76.69s.04.02.06,0c-.02,0-.04,0-.06,0-.04-.03-.01-.13.04-.12-.07-.01-.1.09-.04.12Z"/>
    <path class="cls-6" d="M48.98,83.58c-.06-.03-.1-.11-.06-.17,0-.01.02-.03.03-.04-.01,0-.02.03-.03.04v.04c-.02.07.04.13.1.15.19.02.58.03.72-.09h0c-.14.11-.54.1-.72.09,0-.01-.02-.02-.04-.02Z"/>
    <path class="cls-6" d="M49.18,85.01c.05-.03.1-.04.16-.04l1.14-.07c.13-.15.42-.24.7-.2.12.02.27-.22.34-.11.14.2.42.22.63.37v.07s.01-.07,0-.09c-.21-.14-.49-.18-.63-.37-.07-.11-.22.13-.34.11-.28-.04-.56.05-.7.2l-1.14.07c-.06,0-.11.02-.16.04l-.57.65v.02h0l.57-.65Z"/>
    <path class="cls-6" d="M54.73,80.88c.06-.07.16-.03.19.02-.05-.05-.13-.09-.19-.02Z"/>
    <path class="cls-6" d="M52.13,85.41c.06.05.15.18.22.1l.58-.66c.06-.06.15.13.18.17.08.09.18.22.27.1.11-.13.14-.38.3-.51.19-.06.38-.08.58-.07h0c-.19-.01-.39,0-.57.05-.16.13-.19.37-.3.51-.1.12-.19-.01-.27-.1-.03-.04-.12-.23-.18-.17l-.58.66c-.07.09-.17-.04-.22-.1-.07-.06-.07-.12-.06-.17-.02.07-.01.14.06.19Z"/>
    <path class="cls-6" d="M52.82,78.1c-.12.03-.25.03-.36.02h0c.11,0,.24,0,.36-.02.23-.06.32-.38.21-.71t0,0c.1.33.02.65-.21.71Z"/>
    <path class="cls-6" d="M49.64,80.85h.02s-.01,0-.02,0c-.06-.03-.15-.13-.08-.19.03-.02.05-.03.07-.03-.04,0-.06.01-.09.03-.07.06.02.15.09.19h0Z"/>
    <path class="cls-6" d="M56.82,84.87h0c-.46-.06-.87-.24-1.36-.33-.01,0-.02,0-.04,0h.03c.48.09.9.27,1.36.32Z"/>
    <path class="cls-6" d="M52.95,77.34h0s.06.06.06.06c0-.01-.04-.05-.06-.06Z"/>
    <path class="cls-6" d="M51.15,82.1c.04-.09.06-.36.1-.43.02-.04.05-.07.09-.1-.04.03-.07.07-.09.11-.05.07-.07.33-.1.42-.03.05-.07.18,0,.17l.51-.04h0l-.51.04c-.06.01-.02-.13,0-.17Z"/>
    <path class="cls-6" d="M55.17,84.35c.02.1.01.19,0,.28.03,0,.06,0,.08,0-.02,0-.05.01-.07.01,0-.1,0-.2-.02-.28-.06-.11-.16-.2-.27-.28-.04,0-.09,0-.14,0,.04,0,.08,0,.13,0,.1.08.2.16.29.28Z"/>
    <path class="cls-6" d="M50.91,83.74c-.15.11-.34.09-.57.08-.04,0-.07-.05-.09-.08-.02-.15-.02-.29-.02-.44h0c0,.15,0,.3.02.44.02.04.04.08.09.08.22.01.41.04.57-.08.06-.03.34.09.39.02-.06.07-.34-.06-.39-.02Z"/>
    <path class="cls-6" d="M51.51,84.01s-.07.07-.12.08c.05-.01.12-.05.12-.08.1-.44.53-.59.91-.71.02,0,.06-.02.1-.03-.04,0-.07.02-.11.03-.38.13-.81.27-.9.71Z"/>
    <path class="cls-6" d="M45.31,80.89c.07-.02.13-.05.19-.1h0c-.06.06-.12.09-.19.1Z"/>
    <path class="cls-6" d="M44.72,73.9s-.01-.06,0-.08c0,.03,0,.06,0,.08.03.06.11.14.19.09h0c-.08.04-.16-.03-.19-.09Z"/>
    <path class="cls-6" d="M44.22,70.99c-.1.02-.18.03-.26.02.08,0,.16,0,.26-.02.12-.12.29-.18.45-.18-.17,0-.33.05-.45.18Z"/>
    <path class="cls-6" d="M44.36,69.67h0s-.01,0,0,0c.03.06.11.1.18.1-.07-.01-.13-.05-.18-.1Z"/>
    <path class="cls-6" d="M43.3,74.34h.01s-.01,0-.01,0c-.08.07,0,.16.08.2h.02s-.01,0-.02,0c-.07-.04-.17-.13-.08-.2Z"/>
    <path class="cls-6" d="M45.93,74.94h0c-.09-.08-.25-.04-.29-.18-.02-.06-.03-.13-.02-.19-.01.07,0,.14.02.2.05.12.2.08.29.17Z"/>
    <path class="cls-6" d="M45.34,82.92c.26-.01.5-.05.71.03.05.02.1.16.2.13-.1.02-.13-.11-.18-.14-.2-.07-.44-.04-.72-.02-.1-.13-.27-.15-.44-.12.17-.03.34-.01.44.12Z"/>
    <path class="cls-6" d="M45.71,70.13c.05.09-.1.18-.15.23-.14.11-.3.19-.48.19-.11.02-.18.26-.31.27.14-.01.21-.25.32-.27.17,0,.35-.08.48-.19.05-.06.21-.14.14-.23-.08-.18-.22-.3-.4-.39h-.01c.18.08.33.22.41.39Z"/>
    <path class="cls-6" d="M42.16,82.9c-.26.04-.52.06-.77.06-.12,0-.18.15-.32.16l-1.37.08-.84.37c-.16-.14-.63-.24-.88.02-.32.05-.74.07-1.13.08-.14,0-.22-.14-.32-.14l-1.29.07c-.14.01-.22-.14-.32-.13l-1.29.07c-.08,0-.16-.02-.23-.06-.17-.1-.39-.08-.48.04-.09.12-.28.08-.39-.01s-.27.01-.4-.05c-.42-.22-.96-.22-1.55-.4-.1-.09-.55-.18-.76.04-.04.04-.04.09-.03.13,0-.03.01-.07.04-.09.21-.22.66-.13.76-.04.59.18,1.13.18,1.55.4.12.06.28-.04.4.05s.29.13.39.01c.09-.12.33-.15.48-.04.07.05.15.06.23.06l1.29-.07c.1,0,.18.14.32.13l1.29-.07c.1,0,.18.14.32.14.38-.01.81-.03,1.13-.08.26-.25.72-.16.88-.02l.84-.37,1.39-.09c.14-.01.2-.16.32-.16.25,0,.52-.02.77-.06.5-.43.99-.7,1.76-.77-.07,0-.15,0-.22-.01-.66.09-1.11.36-1.56.75Z"/>
    <path class="cls-6" d="M41.41,76.63c.09.02.18,0,.27-.03.04-.02.05-.04.07-.07-.02.02-.03.05-.07.07-.09.03-.18.05-.27.03-.04-.02-.07-.05-.09-.08-.01-.07-.04-.17-.03-.24-.01.08.02.16.03.24.02.04.05.07.09.08Z"/>
    <path class="cls-6" d="M42.15,81.59c-.11.03-.02.2-.03.36h.01c0-.15-.07-.31.03-.33.42-.1.87-.08,1.28.05-.42-.15-.87-.18-1.3-.09Z"/>
    <path class="cls-6" d="M43.73,68.81c.05.03.1.08.14.12.06.1-.05.17-.1.22,0,0-.01,0-.02.02,0-.01.01,0,.02-.02.05-.05.16-.12.1-.22-.03-.05-.08-.09-.14-.12h0c-.07-.01-.13.03-.18.1.05-.07.11-.12.18-.1Z"/>
    <path class="cls-6" d="M45.03,81l-.65.74h.01s.64-.74.64-.74c.03-.03.07-.05.1-.05-.05,0-.07.02-.1.05Z"/>
    <path class="cls-6" d="M45.59,80.12h0c-.08.07,0,.16.07.19h0c-.06-.03-.15-.13-.07-.19Z"/>
    <path class="cls-6" d="M49.04,80.96h0c-.06.03-.16-.03-.18-.1,0-.02,0-.05,0-.06,0,.02,0,.04,0,.07.02.06.12.12.18.09Z"/>
    <polygon class="cls-6" points="46.22 80.29 46.21 80.29 46.22 80.44 46.37 80.44 46.37 80.44 46.22 80.44 46.22 80.29"/>
    <polygon class="cls-6" points="45.42 78.82 45.42 78.82 45.43 78.97 45.58 78.96 45.58 78.96 45.43 78.97 45.42 78.82"/>
    <path class="cls-6" d="M46.86,75.87s.06,0,.08.02c-.02-.02-.04-.02-.08-.02-.14-.01-.26,0-.38.05.12-.05.25-.06.38-.05Z"/>
    <path class="cls-6" d="M46.26,74.9s-.07.03-.11.04c.04,0,.07-.02.11-.04.25-.08.52-.29.52-.66,0,.36-.27.57-.52.66Z"/>
    <path class="cls-6" d="M46.65,76.59c.2-.07.37-.22.48-.41h0c-.1.19-.28.33-.48.41Z"/>
    <path class="cls-6" d="M47.14,76.12s0,.03-.02.05c.02-.02.02-.04.02-.05Z"/>
    <path class="cls-6" d="M56.73,79.44c.08,0,.2.08.22.21,0,.06,0,.11-.04.17.03-.05.04-.12.04-.17-.01-.13-.12-.22-.22-.21Z"/>
    <path class="cls-6" d="M57.12,77.54c.12-.03.25-.04.38-.01.03.02.07.05.09.07.02.07.02.14.02.21.01-.07.01-.14-.02-.21-.03-.03-.06-.06-.09-.07-.12-.02-.25,0-.38.01-.18.1-.31.26-.38.45h0c.07-.18.21-.34.38-.45Z"/>
    <path class="cls-6" d="M57.77,81.94h-.01s0,0,.01,0c.04-.05.03-.16,0-.24-.03-.04-.06-.06-.09-.08h0s.07.05.09.08c.02.08.04.19,0,.24Z"/>
    <path class="cls-6" d="M55.4,81.12s-.06.03-.09.06c.02-.03.06-.06.09-.06Z"/>
    <path class="cls-6" d="M56.68,78.93s.07.05.1.09h0c.03.09,0,.18-.1.21-.08,0-.16.02-.24.01h0c.08,0,.17,0,.26-.01h0c.09-.03.13-.13.08-.22-.03-.04-.06-.07-.1-.09h-.04s.02,0,.04,0Z"/>
    <path class="cls-6" d="M55.49,81.35c.09.03.17.08.23.15.02.04,0,.07-.03.1.03-.03.05-.06.03-.1-.06-.07-.14-.13-.23-.15.02-.08.06-.19-.02-.22h0c.06.05.04.16.02.22Z"/>
    <path class="cls-6" d="M42.1,82.2h-.01s.02,0,.01,0t0,0Z"/>
    <path class="cls-6" d="M55.66,81.63h0l.03-.02s-.01,0-.03.02h0Z"/>
    <path class="cls-6" d="M42.11,82.32s.07-.01.09-.05c0,.01,0,.02-.02.03-.03.03-.07.03-.1,0h0s-.01-.06,0-.09c-.03.03-.02.07,0,.09,0,.01.02.02.03.02Z"/>
    <path class="cls-6" d="M42.18,82.19s.02.04.01.07c.02-.02,0-.04-.01-.07Z"/>
    <path class="cls-6" d="M53.77,74.79v.03c.09,0,.12-.11.14-.22-.03.1-.05.17-.14.18Z"/>
    <path class="cls-6" d="M55.08,81.22c-.07.15-.25.32-.3.53,0,.01,0,.03-.02.04.01,0,.02-.03.02-.04.06-.21.23-.39.3-.53.03-.06-.11-.25-.14-.3h0c.03.05.17.24.14.3Z"/>
    <path class="cls-6" d="M62.06,67.41c.1.08.15.06.16-.04h0s-.11.03-.16.04h0Z"/>
    <path class="cls-6" d="M65.93,75.45h0c.2.26.31.03.24-.07.06.1-.05.34-.24.07Z"/>
    <path class="cls-6" d="M67.07,73.9h0c-.03-.17.23-.55,0-.58h0c.22.04-.02.4,0,.58Z"/>
    <path class="cls-6" d="M65.24,78.83c.11.09.41-.24.25-.32.16.09-.14.4-.25.32Z"/>
    <path class="cls-6" d="M55.66,62.85c-.15-.08-.24-.21-.39-.3-.04.29.35.3.39.3Z"/>
    <rect class="cls-6" x="65.31" y="76.28" height=".23"/>
    <path class="cls-6" d="M65.12,77.51h0c-.1-.28-.19-.41-.15-.65h0c-.04.23.05.37.15.65Z"/>
    <path class="cls-6" d="M64.69,76.84h.03c.05.03.14.05.17.05-.04,0-.11-.03-.17-.04.06,0,.11,0,.17,0,0-.06-.01-.13-.02-.19-.15.09-.32.13-.49.12.1.04.2.06.31.05t0,0h0Z"/>
    <path class="cls-6" d="M64.96,76.86h.14c0-.06,0-.11.01-.16.07-.22.23,0,.34-.11.02-.02.03-.04.03-.06-.14-.06-.29-.02-.44.05h0s0-.01-.01-.01h0c-.03.11-.07.2-.09.3Z"/>
    <path class="cls-6" d="M65.24,78.77s.06-.09.09-.13c-.03.05-.06.1-.09.13Z"/>
    <path class="cls-6" d="M64.5,77.27s0-.05,0-.07c0,.02,0,.05,0,.07h0Z"/>
    <path class="cls-6" d="M65.99,78.82c0-.06.31,0,.36-.12-.04.12-.35.07-.36.12-.07-.05-.1-.08-.09-.1-.02.02,0,.05.09.1Z"/>
    <path class="cls-7" d="M82.89,53.27c.28-.75.39-1.63.72-2.26.28-.53,1.11-1.02.63-1.77-.22,1.54-1.72,2.28-1.35,4.03Z"/>
    <path class="cls-7" d="M88.07,56.05c-.03.1-.06.19-.19.14l-.06.34c.34.32.56-.48.24-.48Z"/>
    <path class="cls-7" d="M91.06,59.3c.13-.14.48-.55-.07-.52-.01.19-.12.46.07.52Z"/>
    <path class="cls-7" d="M76.52,56.41c-.25.18-.28.69-.36,1.12.45.25.98-1.07.36-1.12Z"/>
    <path class="cls-7" d="M74.91,56.3c-.17.17-.29.41-.3.8.7.41,1.04-.8.3-.8Z"/>
    <path class="cls-7" d="M92.89,60.81c.07-.22-.03-.44-.23-.55-.27.21-.34.6.23.55Z"/>
    <path class="cls-7" d="M87.12,59.64l-.09.5c.42.32.59-.67.09-.5Z"/>
    <path class="cls-7" d="M85.57,61.07c.47.15.78-.68.3-.8-.16.17-.28.4-.3.8Z"/>
    <path class="cls-7" d="M90.11,64.76c.45-.55,1.46-2.49.65-2.79-.3.52-.86.98-1.1,1.69-.19.55-.08,1.22-.14,1.69.08-.2.38-.34.59-.59Z"/>
    <path class="cls-7" d="M89.49,65.51l.03-.15s-.03.1-.03.15Z"/>
    <path class="cls-7" d="M95.43,62.96c-.17.17-.28.41-.3.8.46.33.93-.82.3-.8Z"/>
    <rect class="cls-7" x="94.03" y="63.44" width=".32" height=".34" transform="translate(12.39 -15.3) rotate(9.93)"/>
    <path class="cls-7" d="M74.29,60.8c-.04.21-.24.19-.24.46l.31.05c.05-.21.24-.19.24-.46l-.31-.05Z"/>
    <path class="cls-7" d="M78.33,63.55c.25-.39.61-1.71.5-1.95-.26.55-1.03,1.45-.5,1.95Z"/>
    <path class="cls-7" d="M80.41,61.88c-.03.1-.06.19-.19.14l-.06.34c.34.31.56-.49.24-.48Z"/>
    <rect class="cls-7" x="72.83" y="61.59" width=".32" height=".34" transform="translate(11.75 -11.67) rotate(9.93)"/>
    <path class="cls-7" d="M75.9,63.63l.12-.66-.47-.08c-.12.43-.2.82.35.74Z"/>
    <path class="cls-7" d="M68.03,66.01c.06-1.01.76-1.09,1.36-1.3-.02.1-.01.22.01.31.11-.05.24-.1.36-.13h0c.08.18.02.28-.11.36-.03.02-.05.03-.08.04.2.22.43.37.05.82.86.17.69-1.46.48-1.79.39-.11.46-.7.54-1.26-.18-.25-.53-.31-.78-.14-.61-1.52-2.02.14-2.4.77-.37.6-.56.51-.83,1.05-.16.31-.14.3-.12.66.89-.07.65.69,1.52.61Z"/>
    <path class="cls-7" d="M75,64.17c.25-.18.39-.76-.01-.85-.25.16-.39.76.01.85Z"/>
    <path class="cls-7" d="M85.6,73.86c.66-.16-.07.73.35.74.37-1.56.87-3.08,1.35-4.03.37-.72.72-1.23.97-1.87.41-1.02.83-1.56,1.06-2.37-.29-.12-.01-.66-.54-.6-.77.48-.85,1.06-1.34,2.15-.23.51-.65,1.13-.76,1.57-.26,1.05-.05,2.53-.45,3.5-.18.44-.52.45-.64.9Z"/>
    <rect class="cls-7" x="72.41" y="63.05" width=".32" height=".34" transform="translate(11.99 -11.57) rotate(9.93)"/>
    <path class="cls-7" d="M73.11,63.83c.13-.1.53-.74-.04-.69-.02.25-.16.59.04.69Z"/>
    <path class="cls-7" d="M64.69,62.02c-.03.1-.06.19-.19.14l-.06.34c.1.03.19.06.13.2l.31.05c.03-.1.06-.19.19-.14l.06-.34c-.09-.03-.19-.06-.13-.2l-.31-.05Z"/>
    <path class="cls-7" d="M64.04,62.93c.09-.41-.16-.56-.35-.74-.48.05-.68,1.15.14,1.05.07-.13.07-.33.22-.31Z"/>
    <path class="cls-7" d="M73.43,64.74l.09-.5c-.28-.06-.5-.05-.66.06-.24.46.3.35.57.45Z"/>
    <path class="cls-7" d="M64.95,65.91c0-.1-.02-.2-.08-.28-.85-.01-.87.83-.39,1.29.06-.12.17-.17.34-.11.04-.23.1-.48.12-.69-.12,0-.24-.02-.36-.07.1-.09.22-.15.36-.13Z"/>
    <path class="cls-7" d="M72.94,67.55c-.06.28.05.45.23.55.03-.26.12-.57-.23-.55Z"/>
    <path class="cls-7" d="M61.79,67.48l.14-.03s0-.07,0-.11c-.04.05-.1.1-.15.15Z"/>
    <path class="cls-7" d="M61.99,67.36s.02.02.02.02c0,.01.02.02.03.03.06-.01.11-.03.16-.04,0-.08,0-.15-.02-.23h0c.03.07.08.14.14.2.39-.13.74-.33.91-.8-.72-.16-.95.41-1.3.8h0s.05.02.06.03Z"/>
    <path class="cls-7" d="M72.11,70.47c.22-.38.7-.33.67-1.08-.7-.35-1.27.78-.67,1.08Z"/>
    <path class="cls-7" d="M62.2,67.88c-.09.41-.17.8.17.88.06-.32.46-.14.43-.6-.2-.09-.25-.29-.6-.28Z"/>
    <path class="cls-7" d="M68.44,70.17s.02,0,.03.02c.02-.08.06-.14.08-.22.12-.23.32-.37.49-.56-.02-.19-.1-.34-.25-.37-.27.18-.63.71-.36,1.12Z"/>
    <path class="cls-7" d="M85.17,72.6l.09-.5-.31-.05c-.05.21-.24.19-.24.46l.47.09Z"/>
    <rect class="cls-7" x="20.97" y="63.38" width=".32" height=".34" transform="translate(11.28 -2.69) rotate(9.93)"/>
    <path class="cls-7" d="M75.09,72.87c.07-.39.94-.65.52-1.11-.21.34-1.16.75-.52,1.11Z"/>
    <path class="cls-7" d="M66.18,70.96c.06-.1.13-.21.19-.31l-.28-.05h0c.06.1.09.22.06.34h.03s0,.02,0,.02Z"/>
    <path class="cls-7" d="M80.87,74.06l.31.05c.03-.17.16-.18.22-.31-.2-.05-.18-.25-.44-.25l-.09.5Z"/>
    <path class="cls-7" d="M46.1,68.39c-.05.03-.09.05-.13.08.04-.03.1-.04.15-.02,0,0,0-.01,0-.01,0-.01,0-.04-.01-.05Z"/>
    <path class="cls-7" d="M52.22,69.9s.04.05.09.08c.2.02.42.03.63.03.24.28.88.62,1.45.73,0-.01,0-.01-.02-.03.01,0,.02.02.03.03.22.05.45.04.67-.02-.9-.24-1.1-1-2.24-1.07-.05-.03-.09-.07-.13-.11,0,.01-.02.02-.03.04-.1.13-.39.23-.45.32Z"/>
    <path class="cls-7" d="M52.53,69.35c-.1-.13-.25-.24-.39-.32-.22.23-.52.32-.74.55l.24.15c.32-.04.63-.17.9-.37Z"/>
    <path class="cls-7" d="M60.6,71.52c.12-.54-.5-.91-.85-.66-.14.55.43.96.85.66ZM60.14,71.3c-.14-.09.03-.13,0,0h0Z"/>
    <path class="cls-7" d="M49.62,69.13s-.09.04-.11.11c.06,0,.12,0,.17,0,.04-.03.07-.06.09-.1-.06,0-.1-.02-.15-.01Z"/>
    <path class="cls-7" d="M50.34,69.22l-.16-.03s-.03.03-.04.05c-.02.02-.02.03-.03.05,0,.02.01.05.02.08.12.02.23.03.29-.03l-.04-.05s-.03-.05-.04-.08Z"/>
    <path class="cls-7" d="M69.74,72.96c-.25.18-.28.69-.36,1.14.53.36.95-1.14.36-1.14Z"/>
    <rect class="cls-7" x="61.86" y="72.46" width=".32" height=".34" transform="translate(13.46 -9.61) rotate(9.93)"/>
    <rect class="cls-7" x="83.69" y="76.29" width=".32" height=".34" transform="translate(14.45 -13.32) rotate(9.93)"/>
    <path class="cls-7" d="M66.82,73.46c-.08-.02-.17-.03-.25-.03l-.12.66h.08c.1-.15.19-.31.29-.48-.01-.05,0-.09,0-.15h0Z"/>
    <path class="cls-7" d="M86.94,80.06c.22-.18.54-1.25.26-1.49-.34.3-.73,1.12-.26,1.49Z"/>
    <path class="cls-7" d="M87.17,80.61c.35.11.6.06.68-.23-.19-.3-.67-.3-.68.23Z"/>
    <path class="cls-7" d="M84.97,80.22c-1.12,0-.4,1.08,0,0h0Z"/>
    <path class="cls-7" d="M89.16,82.16c-.18.35.46.78.57.45-.3-.06-.11-.49-.57-.45Z"/>
    <rect class="cls-7" x="90.24" y="83.23" width=".32" height=".34" transform="translate(15.74 -14.35) rotate(9.93)"/>
    <path class="cls-7" d="M74.28,82.1c-.01.19-.1.47.07.52.13-.13.47-.54-.07-.52Z"/>
    <path class="cls-7" d="M93.13,85.4c-.03.1-.06.19-.19.14l-.06.34c.34.32.56-.48.24-.48Z"/>
    <path class="cls-7" d="M92.07,85.9c.35.11.6.06.68-.23-.39-.16-.57-.39-.68.23Z"/>
    <path class="cls-7" d="M82.52,85.92c-.02.32-.24.34-.27.63.22.27.45.53,1.04.53.06-.12.06-.32.22-.31.1-.59-.33-.8-.98-.85Z"/>
    <path class="cls-7" d="M81.43,86.59c-.1,1.25-1.05,2.32-.77,3.45.1-1.24,1-2.37.77-3.45Z"/>
    <path class="cls-7" d="M89.87,90.12c-.23.62.64.77.63.11-.43-.06-.26-.33-.63-.11Z"/>
    <path class="cls-7" d="M52.98,74.33c-.07-.08-.13-.16-.2-.23l-.03.17s.11.05.23.06Z"/>
    <path class="cls-7" d="M53.89,74.61v-.02s0-.02,0-.03c-.08-.02-.14-.05-.22-.06.08.07.11.18.08.28v.02c.09,0,.11-.08.13-.18Z"/>
    <path class="cls-7" d="M58.75,78.2s.04-.03.05-.03c.02-.07.02-.1.04-.34-.05.15-.11.3-.18.45.04-.05.07-.08.1-.09Z"/>
    <path class="cls-7" d="M54.28,75.03c.12,0,.22.06.26.16-.36.19-.43.82-.79,1.03.05.05.08.12.06.17,0,.07-.06.14-.22.23.17.06.29.04.33-.09,0-.04.02-.1.02-.17h.01s0-.02,0-.02l.42.07c0,.24-.13.29-.19.43.2.28.39.02.73.24-.04.15-.08.31.05.35,0,.03-.02.07-.05.07-.09.1-.3,0-.4.07h0c.11.19.22.08.51.1l.11-.65s.01,0,.02,0v-.02c.41-.04.33-.2.77.02.02.41-.21.45-.33.63.1.02.18,0,.24-.04.1-.11.14-.33.18-.55.01,0,0,.01.02.02v-.04c.39.36-.23.56-.02.81-.04.07-.07.12-.09.14-.07.07-.14.07-.21,0,.03.09.04.18.01.27.33.11.35-.34.56-.02.04,0,.05,0,.07-.01.02-.05-.1-.16.02-.25.01,0,.03-.03.05-.04,0-.09-.08-.08-.14-.04-.03.03-.06.06-.06.09,0,0-.01,0,0-.01,0,.01-.02.02-.02.03-.14-.09-.02-.23.06-.34h.01s.01-.02.02-.03c-.01,0,.11-.08.17-.16.03-.03.03-.05-.02-.04.02,0,.04-.02.06-.01,0-.01,0-.02-.03-.02.09-.03.13-.01.16.17.05.02.09.02.12,0,.09-.12,0-.49-.05-.5,0,0-.01,0-.01,0,0-.09.02-.18.06-.27-.04-.2-.36-.17-.25-.5t.02.02v-.03c.13.07.14.23.29.28.04,0,.06-.01.09-.03.06-.06.09-.16.15-.2.04-.05.11-.07.21-.04-.06-.17-.06-.37,0-.54.01,0,0,.01,0,.01v-.04c.22.2.06.6.1.71.02.04.05.02.08,0,.02-.02.02-.04.02-.05,0,.01,0,.02,0,.02.02-.02.02-.04.02-.05.06.24-.12.34.13.48h.01c.06-.09.1-.39.04-.42.02-.03.04-.05.06-.07.18-.2.3.31.22.54.3.16.31.16.64.11.01.2-.05.27-.13.33-.04.04-.08.06-.12.09-.03.03-.06.06-.06.1v.02c.25-.16.41-.58,1.04-.35.04.02.1.04.14.06.03.47-.38.27-.56.41,0,.03-.02.07-.03.1.01,0,0,.01.02.02v-.04c.12.11.26.18.41.19-.02,0-.05,0-.07.01h.04s-.07.02-.1.04c-.14.13.13.48.14.53,0,.09-.15.09-.15.2.02.16.11.36.11.6h-.03s0,0,0,.02c-.1-.02-.25,0-.39.06-.06.03-.13.09-.18.15-.08.15.06.23.05.35-.03.21-.39.51.11.6-.27.44.05.88.01,1.17-.09.66-.65.67-1.1,1.2.08.47.25.21.25.5-.3.42-.18.91-.35,1.33-.14.34-.53.66-.73,1.04-.02.08-.04.17-.03.25.05,0,.09,0,.14,0,.03,0,.06-.01.08-.02.05-.04.1-.09.15-.11.03-.02.05-.04.07-.03l1.43-.08s.02,0,.04,0c.1-.03.17-.12.27-.15h.01s.01,0,.01,0c.49-.12.81.11,1.02.22.19-.01.38.07.5.22.31.08.43.32.65.36.01,0,.02,0,.05-.01.33-.09.56.05.8.2.19.02.38.07.55.14.13.03.27.04.4,0,.07-.02.15-.05.21-.1h.01s.01,0,.01,0l.93.35.47.16h0s.02-.07.04-.1c.38-.74.82-1.4,1.19-2.18.26-.55.49-1.21.79-1.73.12-.2.57-.53.59-.58.11-.22.18-.46.25-.71-.04-.03-.07-.06-.12-.08.02-.08.09-.1.17-.1.01-.07.03-.13.06-.21l-.17-.03.06-.34h0s.11.09.17.11c.06-.2.14-.39.24-.58.1,0,.21.01.3.06,0,0,.01,0,.01,0,.07-.03.16-.03.23,0h0l-.03.15c.06.03.13.03.28-.07.19-.71-.19-.78-.32-.91.47-.52.55-1.22.82-1.91.06-.15.2-.27.3-.41l-.22-.04c-.34.64-.62,1.32-.84,2.02-1.11,0-1.37,1.28-2.37,1.46.22-.55-.12-.68.05-1.18-.09-.02-.19-.03-.28-.07-.06.07-.11.14-.15.22-.5-.26-.75-.81-.93-1.38-.1.27-.22.52-.32.77-.76.04-1.31-.54-1.73-.3.37-.26.48-.6.36-1.14.35-.24.62-.62.96-.86-.05-.7-.47-1.19-.12-2.06.07-.18.27-.34.49-.51-.03-.02-.05-.04-.07-.07-.39.3-.74.61-.84,1.03-.1.45.21.97.08,1.37-.48.2-.6.79-1.11.83-.16,0-.7-.49-1.22-.39.27-.21.22-.5-.23-.55-.33.64-.46.22-1.03.33-.3.06-.35.36-.68.23-.49-.64-1.32-1.04-1.81-1.68.28-.84-.48-.9-.55-1.46-.4.37-.56.71-1.11.83-.59.13-1.23-.12-1.83-.32.19.1.5.13.44.42,0,0-.01,0,0-.01v.04c-.07-.1-.15-.12-.19-.02ZM67.4,82.09h0c-.12.22-.51.36-.68.11h0c.13-.17.47-.04.68-.11ZM67.36,81.05h0c.33.22-.27.23-.21.54h0c-.13-.07-.13-.23-.29-.28h0c.07-.16.09.03.21.04.13-.08.22-.18.28-.3ZM66.91,80.86s.11-.04.23.13h0c-.21.23-.3-.05-.23-.13ZM65.5,84.46c.01.07-.02.16-.06.22s-.11.1-.15.08c-.14-.07-.31-.03-.34-.16-.03-.11-.08-.26,0-.32.01,0,.03-.02.04-.04.02,0,.04-.02.06-.02.19-.06.39.06.45.25ZM65.63,81.1s.03.04.02.06c0,.04-.04.07-.09.04-.02-.02-.03-.04-.02-.06,0-.04.04-.07.09-.04ZM65.41,80.23c.1-.16.2-.08.23.04h0s0,.01,0,.02,0,.02,0,.02c0,.01,0,.01,0,.02s0,.01,0,.02c.02.11-.01.21-.11.22h0c-.14-.03.02-.32-.15-.36,0,.01.01,0,0,0,.01,0,0,0,0,0ZM65.27,80.45h0c.1.09.07.28.29.27,0,.1,0,.17-.03.24,0,.01-.02.03-.02.04h0c-.02.07-.05.11-.08.15-.05.06-.08.12-.1.22h0c-.12-.04-.08-.2,0-.22.01,0,.02,0,.04,0-.01-.06-.06-.1-.12-.09h0s-.02,0-.04.02c-.01,0-.03.03-.04.04h0c-.21-.05.17-.35.1-.66ZM63.7,85.06c.21-.08.44-.05.62.06.06.05.19-.06.26-.06.02,0,.05.03.06.05.04.04-.02.12-.05.16-.01,0-.02.02-.03.03-.13.16-.25.37-.46.45-.1.04-.27.08-.3-.05s-.16-.2-.16-.29c0-.07-.02-.14-.02-.2-.01-.06.01-.12.07-.15ZM63.23,81.94c.05-.08.1-.2.19-.19h.04c.05.04.1.08.14.14.04.1-.07.25-.17.25h-.03s-.02-.02-.03-.02c-.02,0-.03-.02-.05-.03-.07-.02-.12-.08-.09-.14h0ZM63.04,82.66s.06-.02.08,0c.04.02.08.06.11.09.06.08-.03.16-.08.19-.02,0-.04.02-.06.01-.06,0-.11-.05-.13-.1-.05-.07.03-.15.08-.18h0ZM60.37,84.79h0c.15-.02.29.1.31.25,0,.02,0,.04,0,.06-.01.14-.13.28-.21.23-.14-.07-.31-.03-.34-.16h0s0-.08,0-.12c.02-.12.11-.23.24-.26ZM59.57,84.52h0c.08-.11.25-.23.38-.12.05.04.09.1.1.17,0,.02,0,.04,0,.06-.02.11-.16.21-.27.3-.07.07-.14-.05-.19-.1-.08-.08-.08-.21-.02-.3ZM59.14,82.07h0c.05-.04.14-.06.17,0,0,.01.02.06.03.07.02.03.01.05.01.06,0,.06-.09.08-.14.06-.08-.02-.16-.13-.08-.19ZM58.64,84.06s.03.03.04.05h0c.01.06.02.11,0,.16-.13.02-.27.02-.4.02h-.02s-.01,0-.01,0h-.01s-.01,0,0-.02c0,0-.01,0,0-.01h0s0-.03,0-.03h0s0-.03,0-.03c0,0,0-.01,0-.01,0,0,0-.01,0-.01h0s0-.02,0-.02h0s0-.02,0-.02h0v-.02h0s.03-.05.06-.08c.09-.03.18-.04.26-.02.05-.01.1,0,.14.05Z"/>
    <path class="cls-7" d="M52.08,73.68s.02-.07.05-.11l-.04-.03h0c0,.06-.02.1-.01.14Z"/>
    <path class="cls-7" d="M69.78,64.9h0c-.12.04-.24.07-.36.12-.51.22-.96.63-1.13.98-.24.51-.24,1.21-.48,1.79-.1.25-.49.48-.61.75s-.03.63-.17,1c-.13.33-.39.74-.65,1.13-.06.1-.13.21-.19.31-.14.23-.27.48-.36.74v.04h0c.05.02.09.06.13.1.02-.1.04-.2.07-.29.31-.81.76-.81,1.2-1.32.04-.82.42-1.14.29-1.65.87-.08.45-.98.6-1.6.12-.49.7-.72.54-1.26.18-.23.65-.29.93-.43.03-.02.05-.03.08-.04.13-.08.18-.2.11-.37Z"/>
    <path class="cls-7" d="M41.44,60.04h0s-.05-.07-.05-.1h-.01c-.05.05-.12.08-.18.12,0,.02,0,.05,0,.06.07-.02.16-.05.24-.07Z"/>
    <path class="cls-7" d="M41.81,65.69c-.12-.06-.28-.06-.45-.08.08.21.16.42.21.63.3.08.6.11.77.16h.02c-.02-.11,0-.23.01-.34l-.09.05c-.27.04-.26-.31-.48-.42Z"/>
    <path class="cls-7" d="M65.73,72.3h0c-.04.35-.05.69-.16.89-.22.42-.61.73-.99,1.04.03.02.06.05.09.07h0c.39-.27.83-.53,1.02-.92.18-.36.19-.8.21-1.2-.01,0-.03.02-.04.03-.04.03-.09.05-.14.08Z"/>
    <path class="cls-7" d="M69.57,77.53c.05-.06.09-.12.12-.19.3-.66.6-1.58.82-1.91.5-.73.91-1.51,1.22-2.34.48-1.21,1.06-2.23,1.55-3.3.43-.94.74-1.98,1.15-2.86.17-.38.98-1.03.6-1.6-1.18,2.77-2.47,5.34-3.68,8.06-.44-.32-.69-.2-1.13-.02-.38.45-.02.88-.02,1.02,0,.29-.69.31-.24.46-.06-.29.78-.14.63.11-.17.17-.29.41-.3.8-.43-.16-.07-.9-.82-.82-.34.38.12.68-.43.6-.32-.1.31-.41-.22-.56-.19.62.28.75.27,1.24.51.39.9-.42.97,0-.18.33-.38.66-.55,1,.05.09.08.2.08.31Z"/>
    <path class="cls-7" d="M58.48,79.33c.13-.16.38-.27.54-.04,0-.45-.37-.19-.55-.63,0-.06.02-.1.04-.15-.05.08-.1.16-.15.24.26.23-.02.35.12.59Z"/>
    <path class="cls-7" d="M41.64,59.74c.03.07.08.14.23.12-.06.06-.18.1-.21.14h0s.02.02.03.02v.02s.03.02.03.02l-.04.03h0s.01.01.01.01v.02s0,.02,0,.03c0,.09.07.19.15.23.04,0,.08,0,.12-.01-.11-.05-.22-.1-.14-.3h0c.05.08.1.15.18.19,0-.04-.01-.07-.01-.07h-.01s0,0,0,0h-.01s-.03-.23.14-.09c.09.07.05.15,0,.23.08.02.16.03.23.03,0-.08-.02-.18,0-.3,0-.05,0-.09.01-.15.34.07.13.55.69.47-.02.03-.03.06-.06.09.01,0,.04,0,.05,0-.02.05-.06.09-.12.15,0,.02,0,.07-.01.14-.03.31-.09.32-.3.41-.02,0-.06-.03-.06-.08,0-.02.03-.04.08-.04l.11.02c.07-.16.13-.33.15-.42-.15.16-.37.32-.41.5,0,.06.03.12.06.18-.01,0-.03.02-.03.04,0,.01.02.04.03.05-.05.06-.1.11-.17.16.1.03.18.08.25.16h0c-.14.15-.26-.01-.44-.04-.08.04-.15.08-.23.11-.17.07-.36.14-.52.23-.25.13-.37.26-.55.31h-.01c-.03.15-.06.3-.08.45.2,0,.23.32.52.22-.06.03-.1.06-.13.09.03,0,.07,0,.12-.01-.08.04-.13.08-.15.12.03.18.36.4.4.62.63,0,1.11-.08,1.52.15.03.17.09.32.17.46.02-.03.03-.05.05-.08.03-.06.06-.12.09-.18-.07-.04-.15-.07-.22-.1l.08-.06s-.04-.02-.08-.02c.09-.08.2-.1.32-.09.32-.99.32-2.44.41-3.02.05-.34.3-.52.3-.8,0-.37-.09-.96-.14-1.05-.81-1.28,0-3.01.28-4.39.09-.45-.01-.91.07-1.35.11-.56.5-1.02.6-1.6.11-.61-.04-1.4.04-2.04.02-.2.2-.21.24-.46.04-.23-.15-.33-.04-.69.12-.38.41-.61.49-.94.05-.22-.12-.34-.04-.69.54-2.15.53-4.8,1.25-7.11.15-.48.45-.82.54-1.26.07-.33-.01-.66.02-1.02.08-.95.46-1.85.65-2.78.12-.62-.05-1.36.32-1.82-.41-.12-.47.44-.61.75-.18.38-.15,1.01-.52,1.11.03.54.16.74.11,1.21-.07.79-.5,1.07-.57,1.43-.06.29.01.73-.02,1.02-.1,1.01-.23,2-.28,2.51-.18,2.07-.92,3.71-1.18,4.91-.37,1.65-.47,3.34-.84,4.8-.06.21-.18.2-.24.46-.41,1.89-.71,4.07-1.27,5.4-.02.05-.34.21-.37.28-.17.33-.18.91-.37,1.26.27.05.53.09.73-.03,0,.13.2.12.17.26,0,.06-.03.11-.06.14,0,.01-.01,0-.02.02h0s-.05.05-.08.07h0s-.01,0-.02,0c0,0-.01,0-.01,0h0c-.23.09-.55,0-.36.48h0c-.28-.06-.08-.46-.35-.52-.06.01-.1.02-.11.04-.07.09.15.29.04.48,0,.01-.02.02-.02.03-.25.03-.12-.24-.29-.28-.06-.03-.18.04-.23.12h0s-.02.02-.02.03c0,.03,0,.06,0,.09.02.04.05.07.09.07h0c-.03.11-.05.11-.11.07-.01.12-.04.23-.09.34-.03.04-.27-.08-.31-.05-.03.03-.06.07-.07.12.27-.02.57,0,.69-.03-.06.03-.12.07-.17.11.07,0,.13-.01.16-.02-.05.05-.13.1-.21.17ZM41.91,59.64l.04-.22.21.04h0l-.04.22h0l-.21-.04h0Z"/>
    <path class="cls-7" d="M57.97,79.17s-.01,0-.02.02c-.03.03-.06.06-.07.09-.02.05-.02.11.02.19.17-.12.3-.28.38-.46.02-.05.04-.12.06-.19h0c-.08.14-.17.29-.23.46-.05-.04-.09-.07-.14-.11Z"/>
    <path class="cls-7" d="M53.88,75.07c-.16-.07-.29-.21-.32-.39-.02-.03-.06.01-.09.08.08.11.18.2.28.29l.13.02Z"/>
    <path class="cls-7" d="M65.5,76.54h0s-.03.04-.04.05c-.11.12-.27-.12-.34.11,0,.04-.02.1-.01.15h.01c.52-.03,1.12-.14,1.52.12-.05-.18-.19-.34-.18-.54.02-.88.4-1.17.63-1.77.57-1.49,1.11-3.37,1.88-4.27l.63.11c.26.29-.17,1.09.08,1.37.64.16.65-.12,1.1.19.32-.58-.12-.61-.2-.71-.03-.04.36-.79-.14-1.05-.46-.21-.51.2-.97,0-.49-1.7,1.09-2.99,1.47-4.69l.17-1c-.33-.08-.17.58-.3.8-.48.95-.97,1.97-1.28,2.68-.16.36-.19.84-.36,1.12-.03.06-.08.12-.14.18-.17.19-.37.33-.49.56-.03.06-.06.14-.08.22-.06.2-.14.39-.22.58-.28.57-.76,1.79-1.03,2.2-.11.18-.22.34-.32.5.03.02.05.02.08.01.04-.02.06-.07.08-.17h0c.24.02-.03.41.01.58h-.01s0,0,0,0c-.11-.08-.2-.17-.25-.3-.1.17-.19.32-.29.48-.25.42-.47.85-.71,1.36-.13.27-.17.62-.24.87.04.11.07.23.1.35h-.01s0,0,0,.01c-.01-.06-.07-.12-.15-.14ZM66.17,75.39c.06.09-.05.34-.24.07h0c.14-.14.22-.12.24-.07Z"/>
    <path class="cls-7" d="M64.89,76.89h0s.02-.02.02-.03h0c-.06,0-.12,0-.17,0,.04.02.12.04.15.04Z"/>
    <path class="cls-7" d="M64.51,75.17c-.11-.04-.22-.08-.33-.11-.32.6-.17,1.56-.04,2.04.05.12.12.24.22.33h0s0-.04,0-.06l.04-.22c.07,0,.09.03.09.06,0,.02,0,.05,0,.07.16,0,.1-.27.18-.42-.1,0-.2-.02-.3-.06.17,0,.34-.03.49-.12h0c-.03-.14-.03-.26.19-.1h.01s0,.01,0,.01c.15-.07.3-.11.44-.05h.01c.07.04.14.08.18.15,0,0,0-.01,0-.01-.03-.11-.05-.23-.09-.33-.17-.5-.53-.91-1.01-1.13h-.05s0,0,0,0h-.01s0-.02-.02-.03ZM65.12,76.24h0l.21.04h0l-.04.22h0l-.21-.04h0l.04-.22Z"/>
    <path class="cls-7" d="M64.96,76.86h0c-.04.23.05.37.15.66h0c-.17.18-.44-.45-.58.13-.01,0-.02-.02-.03-.03,0,.01.02.03.03.05l.03.09c.1-.02.12.1.07.17,0,0,0,.01-.01,0,.06.19.13.4.19.6.2.58.45,1.13.93,1.38.05-.07.11-.14.15-.22.55-.73,1.26-1.54,1.92-1.47.14-.41.36-.72.64-.91l1.1.19c-.02-.11-.04-.23-.08-.33-.19-.52-.64-.41-1.41-.44-.32.43-.47,1.1-1.01,1.18-.24-.2-.25-.59-.32-.91-.03-.03-.07-.05-.1-.08-.42-.25-1.01-.15-1.53-.12h-.01s-.12.03-.12.03ZM66.26,78.53c.07.08.09.14.08.18-.03.12-.35.07-.36.12-.07-.05-.1-.08-.09-.1.02-.08.35-.09.36-.2ZM65.24,78.77s.06-.09.09-.13c.02-.03.03-.05.03-.05,0-.01,0-.11.02-.11.05,0,.09,0,.11.02.16.09-.15.41-.25.32-.01,0-.02-.02-.03-.03,0,.01.01,0,.03-.02Z"/>
    <path class="cls-7" d="M75.08,79.34c-.98,0-.23,1.11,0,0h0Z"/>
    <path class="cls-7" d="M58.38,78.74c.05-.09.11-.19.16-.27.02-.05.05-.11.08-.15.1-.2.19-.41.25-.62.17-.14.59.06.56-.41-.04-.02-.09-.04-.13-.06-.62-.25-.78.19-1.04.35h-.01c.03.28.25-.1.42.05,0,.01,0,.02-.02.03h0c-.02.08-.17.11-.22.13.02.02.07.04.19.06,0,.01,0,.02-.02.03h0c-.13.32-.21-.14-.42-.07-.05.26.2.29.25.47h-.02s0,.02,0,.03c-.11-.02-.15,0-.17.04,0,.06-.01.12-.03.19-.02.07-.06.12-.17.16.13.1.15.18.12.25-.02.09-.12.16-.21.24.04.03.09.06.13.09.07-.16.15-.31.23-.47v-.04h0v-.03c.05,0,.05,0,.06,0Z"/>
    <path class="cls-7" d="M72.99,81.19c.2-.2.25.11.53-.25.18-.29-1.1-.03-.53.25Z"/>
    <path class="cls-7" d="M71.19,86.84c1.11-2.24,2.25-4.41,3.42-6.56-.5.02-.73.44-1.08.66-.1.96-.4,1.62-.97,1.87.09-.26-.13-.48-.28-.22.19.1.29.27.23.55-.27.45-.61,1.19-.97,1.87s-.78,1.14-.33,1.83Z"/>
    <path class="cls-7" d="M72.64,81.3c.23.47-.37.64-.02,1.02-.04-.55.34-.47.46-.77-.17-.03-.33-.11-.44-.25Z"/>
    <path class="cls-7" d="M86.78,54.12c.16-.33.78-1.03.42-1.46.04.63-.66,1.21-.42,1.46Z"/>
    <path class="cls-7" d="M85.72,53.77c0-.32.58-1.14.14-.83.04.31-.58.6-.14.83Z"/>
    <path class="cls-7" d="M86.48,54.92c.61-.87-.3-.5,0,0h0Z"/>
    <path class="cls-7" d="M80.32,59.64c.34-.4.17-.88.39-1.29.14-.25.44-.33.59-.58.32-.53.36-1.23.63-1.77.16-.31.34-.29.43-.6.13-.46.3-1.13.13-1.68.14.58-1.15,1.76-.72,2.26.08.11-.19.17-.19.14-.07.34-.06.74-.17,1-.1.22-.42.23-.56.41-.32.43-.28,1.01-.7,1.24-.24-.05-.05-.45-.41-.42-.28.34-.72.44-.7,1.24.35.35.58-.09.75.3-.15.48-.84,1.24-.6,1.6.41-.5.49-1.18.79-1.74.02-.03.3-.05.34-.1Z"/>
    <path class="cls-7" d="M81.04,63.85c1.04.32.94-1.09,1.8-1.05-.13.37-.76,1.06-.42,1.46.8-1.87,1.47-3.91,2.55-5.35.03-.1.06-.19.19-.14-.03-1.28.81-2.54,1.29-3.69-.45-.26-.35.43-.43.6-.13.25-.34.52-.46.77-.51,1.14-.65,2.16-1.4,2.49.19.15.23.41.2.71-.46-.28-.4-.15-.81.03-.06.19-.06.47-.24.46-.28.59.55.37.32.91-.45.29-.22,1.61-1.04,1.35.41-1.24.13-2.65.98-3.75.36.12.61.08.81-.03.09-.41.17-.8-.17-.88-.86.51-1.27,1.71-1.65,2.95-.9.35-1.75,1.78-1.52,3.14Z"/>
    <path class="cls-7" d="M84.38,56.77c.11-.37.85-1.63.42-1.46-.04.48-.85,1.61-.42,1.46Z"/>
    <path class="cls-7" d="M92.02,63.06c0,.1-.01.21.13.2l.06-.34c0-.1.01-.21-.13-.2-.03.44-.64.03-.59.58.3.11.35-.17.53-.24Z"/>
    <path class="cls-7" d="M78.02,71.85c.52-1.18,1.52-2.72,1.63-3.8-.52.62-.72,1.73-1.09,2.54-.22.47-.86.76-.54,1.26Z"/>
    <path class="cls-7" d="M82.96,84.31c.17-.51-.41-.46-.14-1.05.1-.47.78-.07.77-.72-.19-.06-.45-.04-.44-.25.77-2.56,2.35-5.06,2.43-7.41-.57,2.2-1.43,3.98-2.04,6.12-.25-.03-.54-.12-.53.25-.1.32.15.37.23.55-.44.23-.2,1.52-.89,1.38.11.97-.87,1.89-.58,3.31.38-.75.45-1.97,1.19-2.18Z"/>
    <path class="cls-7" d="M82.65,82.38c.21-.42-.28-.24-.41-.42-.21-.27-.11-.71-.32-.91-.17-.15-.64.02-.6-.28.41.19.36-.29.56-.41-.32-.48-.56.22-.87.35-.19-.68-1.47-.55-1.55-1.3-.45-.19-1.1-.24-1.17-.71.31-.11.44-.45.49-.94-.43-.63-1.15-.78-1.59-.11-.38.58.29,1.11-.05,1.19-.28-.36-.48-.57-.53.25.54-.1,1.26.43,1.38.41s0-.36.22-.31c.84.19,1.17.61,2.09,1.05-.31.64.2.42.38.57.08.07-.03.43.07.53s.37,0,.47.08.11.48.23.55c.19.12.39-.12.5-.09.32.09.37.73.71.47Z"/>
    <path class="cls-7" d="M88.15,84.19c.41-.68.87-1.92.28-2.51-.37.49-.93.69-1.45.93-.07-.8-.1-1.06.16-1.85-.17-.1-.32-.24-.41-.42-.55,0-.89.34-1.24.64-.13-.38-.98-.09-.9.52.61.34.8-.14,1-.17.43-.06.83.24,1.15-.14.37,1.76-1.47,4.26-.3,5.4.6-.44.97-1.19,1.44-1.79.23.11.04.54.57.45.17-.17.28-.41.3-.8-.22-.05-.58-.02-.6-.25Z"/>
    <path class="cls-7" d="M57.68,51.06c-.75.25.05.99-.32,1.82.26.29.77.39.82.82-1.35,1.35-2.24,6.26.57,5.04.39-.16,1.13-.84,1.7-1.41s1.18-1.32,1.47-1.95c.12-.27.06-.65.17-1,.15-.44.46-.76.52-1.11.09-.47-.05-.95.07-1.35.17-.5.64-.95.89-1.38.23-.41.37-.9.54-1.26.03-.05.32-.2.37-.28.1-.18.04-.47.12-.66.37-.9,1.3-1.75,1.84-2.24.23-.2.68-.41.93-.69.11-.13.13-.55.3-.8.09-.14.49-.29.56-.41.11-.18.02-.48.12-.66.33-.55.92-.91.76-1.57-1.38-.99-1.88,1.05-2.31,2.15-.72-.17-.95.4-1.27.8-.01.39.67.28.51.77-.33,1.41-2.06,1.72-1.99,3.06-1.22.2-1.59,2.72-2.95,2.04-.04.36-.23.5-.56.41-.48-.21-.74-.6-.76-1.16.44-.1,1-.03,1.59.11-.04-.55.34-.47.46-.77-.28-.63-1.3-.61-1.47.09-.13-.37-.35-.71-.64-.96-.31.44-.91.44-1.14.99-.24.05-.78-.33-.81.03.17.06.21.22.25.39-.67-.24-.72.44-.83,1.04.27.12.46-.17.48.08Z"/>
    <path class="cls-7" d="M37.57,54.23c.03.24.44.83.65.69-.04-.11-.36-.49-.13-.48.07.37.43-.1.52.21-.15-.44-.07-.23.08-.45.06-.08,0-.25.06-.34.2-.31.42-.11.66,0,.18-.46-.7-.13-.56-.56.03-.15.21-.07.25-.19-.29-.34-.21-.91-.23-1.2-.37-.18-.18.49-.5.37s-.44.08-.68.11c-.21.37-.01.74.01,1.17,0,.24-.16.43-.13.67Z"/>
    <path class="cls-7" d="M39.62,54.48c-.11-.02-.17.18-.04.22.01-.26.33-.07.38-.28-.16-.03-.36-.5-.52-.21.12.04.15.15.17.26Z"/>
    <path class="cls-7" d="M38.69,55.36c.4.76,1.6-.24,1.12-.73-.15.2-.29.42-.44.61-.31.13-.46-.27-.68.11Z"/>
    <path class="cls-7" d="M51.37,58.51c.09-.37-.03-.57-.33-.63-.24.28-.73.36-.58.83.4.08.57-.2.91-.2Z"/>
    <path class="cls-7" d="M60.65,59.56l-.16.91c.21.07.24-.12.36-.17.22-.1.49.02.6-.24-.44-.04-.24-.09-.15-.37-.4.14-.31.15-.65-.12Z"/>
    <path class="cls-7" d="M48.64,58.37c.17.02.37.08.36-.17l-.21-.04c-.02.11-.11.12-.15.2Z"/>
    <path class="cls-7" d="M49.11,58.81c.6.2.2-.68-.05-.35.12.03.09.19.05.35Z"/>
    <path class="cls-7" d="M47.21,58.94c.13-.29-.18-.26-.27-.39-.12.29.19.25.27.39Z"/>
    <path class="cls-7" d="M51.11,59.39h0c.13.3-.34.22-.38.28-.09.11.08.29.05.35-.06.13-.39.21-.47.25.07-.02.29.25-.03.12-.12.24.16.42.23.62.02.04-.07.2-.04.22.13.14,2.63.43,2.51.79-.02.08-.71-.27-.44.04.82.28,1.01-.38,1.88-.02.18-.51-.37.02-.29-.28.18-.36.33.05.68-.11.14-.22.3-.41.44-.61-.38-.19-.49.24-.72.34-.11.05-.52,0-.68.11-.11.07,0,.17-.15.2-.88.16-1.8-.45-2.85-.73.27-.21.29.11.64.11.22-.49-.73-.12-.69-.47.37-.22.69.35.89-.07-.61-.03-.05-.32-.09-.71-.26-.08-.14-.43-.49-.43Z"/>
    <path class="cls-7" d="M50.61,59.65c-.23-.06-.35.03-.38.28.28.13.25-.2.38-.28Z"/>
    <polygon class="cls-7" points="42.13 59.68 42.17 59.45 41.95 59.42 41.91 59.64 41.91 59.64 42.13 59.68"/>
    <path class="cls-7" d="M41.44,60.04c.07-.02.14-.03.22-.02h0c.02-.05.15-.09.21-.15-.15.02-.2-.05-.23-.12l-.03.02c-.08.06-.15.11-.23.17,0,.02.02.06.05.1h0Z"/>
    <path class="cls-7" d="M41.69,60.05v.04s.02-.02.03-.03l-.03-.02Z"/>
    <path class="cls-7" d="M57.7,62.63c-.15-.01-.24-.52-.41-.19.15,0,.24.52.41.19Z"/>
    <path class="cls-7" d="M57.55,64.12c-.2.03-.55-.21-.46.15.6-.05,1.31.08,1.79-.15-.42-.29-1.04-.06-1.32,0Z"/>
    <path class="cls-7" d="M59.09,64.16c-.21.67.47.15,0,0h0Z"/>
    <path class="cls-7" d="M63.84,65.33c.22-.08.3.4.42.07-.06-.05-.36-.35-.42-.07Z"/>
    <path class="cls-7" d="M42.64,61.74h0c-.07-.08-.15-.13-.25-.16-.03.02-.05.05-.09.06-.04.02-.06.03-.1.05.18.03.3.19.44.04Z"/>
    <path class="cls-7" d="M64.59,66.04c.11.05.23.07.36.07.21,0,.43-.02.64-.02.35.02,1,.36.79-.09-.33.17-.97-.11-1.41-.1-.14-.01-.27.03-.37.13Z"/>
    <path class="cls-7" d="M59.32,65.94c.56-.17,1.05.45,1.43.02-.18-.27-.82.09-.92-.39.49-.03.28.03.63.23.15-.5-.45-.4-.71-.35.06.46-.36.21-.42.5Z"/>
    <rect class="cls-7" x="61.66" y="65.68" width=".22" height=".23" transform="translate(12.28 -9.67) rotate(9.93)"/>
    <rect class="cls-7" x="52.24" y="64.14" width=".22" height=".23" transform="translate(11.87 -8.07) rotate(9.93)"/>
    <path class="cls-7" d="M67.44,66.78c-.27-.06-.46-.02-.58.13.21-.02.61.26.58-.13Z"/>
    <path class="cls-7" d="M54.38,64.61c0,.14-.08.32.05.35.05-.15.21-.16.27-.3l-.32-.06Z"/>
    <path class="cls-7" d="M56.43,65.43c.09-.24-.22-.67-.37-.41.24.1-.5.41.01.58.01-.21.15-.25.35-.17Z"/>
    <rect class="cls-7" x="60.98" y="65.79" width=".22" height=".23" transform="translate(12.28 -9.55) rotate(9.93)"/>
    <path class="cls-7" d="M61.29,66.63c-.13.09-.25.19-.38.28.5-.11.85.28.89-.07,0,.07,0,.14.09.13.06-.56-.47-.1-.46-.54.01-.32.42-.03.48-.26-.37-.13-.54.04-.79.09-.06.22.12.25.16.37Z"/>
    <path class="cls-7" d="M55.17,65.09c-.66-.25-.3.31,0,0h0Z"/>
    <path class="cls-7" d="M63.69,67.39c.2-.14-.05-.68-.15-.37,0-.04.14.39.15.37Z"/>
    <path class="cls-7" d="M58.58,66.38c-.44.12-.16-.1-.52-.21-.12.35,0,.52.35.52.02-.12.09-.23.17-.32Z"/>
    <path class="cls-7" d="M59.64,66.68c.3.41.4-.36,0,0h0Z"/>
    <path class="cls-7" d="M63.14,67.41c-.13-.03-.12-.17-.3-.17-.21.25.31.4.3.17Z"/>
    <path class="cls-7" d="M63.91,68.05c-.02.09,0,.18.07.21.03-.19.31-.01.36-.17-.07-.05-.14-.09-.21-.14-.04.05-.1.09-.17.11-.01,0-.02,0-.02,0,0-.01-.02-.02-.03-.02Z"/>
    <path class="cls-7" d="M59.23,67.66c.21.12.36.43.63.23.11-.36-.53-.58-.63-.23Z"/>
    <path class="cls-7" d="M60.17,68.06c.05-.06.34-.39.08-.45.06.23-.39.32-.08.45Z"/>
    <path class="cls-7" d="M61.63,67.85l-.02.11s-.08-.02-.1-.02c-.09,0-.19.22-.04.22-.11,0,.54-.19.16-.32Z"/>
    <path class="cls-7" d="M61.52,68.52c-.04-.17-.41-.09-.39-.3,0-.07,0-.14-.09-.13,0,.17-.11.41.03.47.09-.39.34.35.44-.04Z"/>
    <path class="cls-7" d="M59.36,68.26c.14.05.3-.03.36-.17-.15-.04-.3.03-.36.17Z"/>
    <path class="cls-7" d="M63.86,69.63c.21.01.21.16.41.19.14-.3-.09-.32-.01-.58.08,0,.21.04.23-.07-.6-.14-.26.42-.62.47Z"/>
    <path class="cls-7" d="M61.76,69.03c.29-.1.39.41.54.09-.21-.11-.39-.46-.54-.09Z"/>
    <path class="cls-7" d="M22.75,64.37c-.16,0-.38-.11-.44.04.11.17.37.21.44-.04Z"/>
    <path class="cls-7" d="M61.22,68.93c-.08.25-.05.43.13.48.01-.21,0-.38-.13-.48Z"/>
    <path class="cls-7" d="M57.67,68.42c-.48.84.26.45,0,0h0Z"/>
    <path class="cls-7" d="M65.24,69.88c-.12-.04-.21-.24-.32-.06.18,0-.06.82.27.39-.17-.09.05-.14.06-.34Z"/>
    <path class="cls-7" d="M64.6,69.77c-.05.13-.03.33-.17.32-.11-.02-.12-.11-.19-.15-.03.21,0,.39.13.48.04-.09.11-.12.23-.07-.03-.18.22-.56,0-.58Z"/>
    <path class="cls-7" d="M66.2,70.05c-.47.46.6.25,0,0h0Z"/>
    <path class="cls-7" d="M65.72,70.31c-.38-.17-.39.57-.04.22-.04.04-.1-.2.04-.22Z"/>
    <path class="cls-7" d="M65.77,70.66c.37-.07.03.37.39.3.02-.12,0-.24-.06-.34-.1-.14-.25-.19-.33.05Z"/>
    <rect class="cls-7" x="64.66" y="70.6" width=".22" height=".23" transform="translate(13.17 -10.11) rotate(9.93)"/>
    <path class="cls-7" d="M62.97,70.86c.03-.7-.71-.15,0,0h0Z"/>
    <path class="cls-7" d="M63.52,71.55c-.23.63.45.13,0,0h0Z"/>
    <path class="cls-7" d="M64.84,72.82c.25.17.66-.13.38-.28-.01.27-.48-.14-.38.28Z"/>
    <path class="cls-7" d="M67.07,73.91s0-.01,0,0c-.02-.19.22-.55,0-.58h0c-.02.1-.05.15-.08.17-.02,0-.05,0-.08-.01s-.05-.04-.08-.08v.06h0s0,.09.01.14h0c.03.13.12.23.23.31Z"/>
    <path class="cls-7" d="M64.44,73.79c-.15-.25-.34.08-.52-.21l-.04.22c0,.07,0,.14.09.13.05-.21.39.28.46-.15Z"/>
    <path class="cls-7" d="M63.72,74.83l-.32-.06c-.09.41-.43.25-.68.11-.03.49,1.03.39,1-.06Z"/>
    <path class="cls-7" d="M67.24,75.45c-.05.14.02.3.15.37.03-.18.09-.39-.15-.37Z"/>
    <path class="cls-7" d="M66.17,75.39c-.03-.05-.11-.05-.24.06h0c.2.26.31.03.24-.06Z"/>
    <path class="cls-7" d="M62.54,75.9c.34-.17.26-.65-.21-.73-.17.13-.1.64.21.73Z"/>
    <path class="cls-7" d="M63.11,75.76s.35.13.3.17c.3-.22-.3-.34-.3-.17Z"/>
    <path class="cls-7" d="M61.61,75.5c-.09.16-.21.25-.29.41.23.13.52-.32.29-.41Z"/>
    <path class="cls-7" d="M68.31,80.67s-.01,0,0,0c-.21.09-.37.34-.19.5.03-.32.24-.36.36-.17l.06-.34h0c-.08-.02-.16-.02-.23,0Z"/>
    <path class="cls-7" d="M67.14,81.01s.01,0,0,0c-.12-.17-.2-.18-.23-.13-.06.07.03.33.23.13Z"/>
    <path class="cls-7" d="M67.58,81.08l-.06.32.17.03c.13.03.27-.06.31-.19-.08-.01-.16-.03-.23-.06h0c-.07-.02-.13-.07-.17-.12v.02s-.02,0-.02,0Z"/>
    <path class="cls-7" d="M66.72,82.2h0c.16.25.56.11.68-.11h0c-.21.07-.54-.06-.68.11Z"/>
    <path class="cls-7" d="M38.65,55c.21-.1.42-.23.61-.35-.35,0-.39-.34-.56.02.63.11-.41.23-.06.34Z"/>
    <path class="cls-7" d="M51.67,58.67c.53-.06.92-.32,1.31-.59-.44.2-1.11.04-1.31.59Z"/>
    <path class="cls-7" d="M46.1,57.7c-.21.22-.4.46-.56.71.36.11.08.33.52.21-.1.5.31,0,.39.3.23-.34.05-.44.16-.91.35.1.62.19.83.16-.04-.02-.09-.12-.06-.14.44-.11,1.12.17,1.46-.2-.73-.59-1.93-.3-2.61-.8-.04.18-.06.39-.27.3.02-.12.09-.23.17-.32-.77-.14-.38.61-.82.91.33.14.56-.64.8-.21Z"/>
    <path class="cls-7" d="M44.97,57.27c-.07-.04-.21-.04-.19-.15-.89-.27.06.39.19.15Z"/>
    <path class="cls-7" d="M61.34,60.71c.04-.09.11-.12.23-.07-.02.12,0,.24.05.35-.14-.01-.26-.01-.25.19.44.04-.05.15.03.47.56-.04.22-.55.5-.96-.25-.04-.83-.39-.57.03Z"/>
    <path class="cls-7" d="M45.19,57.89c-.32-.04-.45.19-.61.35.59.06-.37.28.03.47.11-.22.28-.43.46-.15.13-.3-.17-.26-.13-.48.12.01.19-.09.25-.19Z"/>
    <path class="cls-7" d="M47.69,58.68l.04-.22c-.11-.02-.11-.11-.19-.15-.03.13-.08.26-.25.19.01-.07-.07-.15-.11-.02.14.14.32.21.52.21Z"/>
    <path class="cls-7" d="M42.55,60.44s-.06,0-.08,0h.08s0,0,0,0Z"/>
    <path class="cls-7" d="M42.08,60.3s.03.02.04.02c.06-.07.09-.14,0-.22-.16-.12-.16.06-.14.09h.01s0,0,0,0h.01s.02.04.01.07c0,0,.01,0,0,.01,0,.01.03.03.05.03Z"/>
    <path class="cls-7" d="M58.12,69.67c.12-.19.39-.16.5-.37-.38-.09-.72.28-.85.43-.2.24-.6.71-.04.91.07-.36.33-.45.72-.34.09-.35-.43-.26-.33-.63Z"/>
    <path class="cls-7" d="M60.94,76.2c.1-.4.22.44.32.06-.2-.05-.01-.38-.27-.39-.02.07-.05.13-.13.09,0,.09-.03.23.07.24Z"/>
    <polygon class="cls-7" points="65.29 76.5 65.33 76.28 65.12 76.24 65.12 76.24 65.08 76.46 65.08 76.46 65.29 76.5"/>
    <path class="cls-7" d="M65.56,80.6c.1-.02.11-.12.11-.22t0-.02s0-.01,0-.02c0-.01,0-.02,0-.02,0-.01,0-.01,0-.02h0c-.05-.12-.14-.2-.23-.04h0c.18.03.01.31.16.36Z"/>
    <path class="cls-7" d="M39.23,58c.29.06.33.28.23-.07.06,0,.14-.07.02-.11-.03.15-.21.07-.25.19Z"/>
    <path class="cls-7" d="M38.93,58.41c-.17.35.32.22.37.41.16-.34-.32-.22-.37-.41Z"/>
    <path class="cls-7" d="M34.22,61.42c-.09-.66.43-.33.63-.47.05-.04.03-.28.06-.34.09-.18.29-.21.29-.41,0-.14-.63-.41-.31-.75-.21.07-.54-.06-.68.11.34.16.02.22.01.58.43.13-.05-.32.38-.28.03.24.53.13.35.52-.06-.05-.36-.35-.42-.07.07.04.21.04.19.15-.05.16-.04.42-.19.43.03-.21,0-.39-.13-.48-.06.2-.22.23-.46.15l-.1.56c.06.06.13.09.22.1.03,0,.07.04.15.2Z"/>
    <path class="cls-7" d="M40.49,61.47h0c.01-.21.54-.26.3-.41h-.01s-.03.09-.06.1c-.01,0-.04,0-.07-.01.01-.07.01-.12-.08-.13h-.01c.11.28-.34.38-.07.45Z"/>
    <path class="cls-7" d="M37.81,61.01c.13-.52-.44-.39-.54-.09.16.25.27.06.54.09Z"/>
    <polygon class="cls-7" points="39.8 61.01 39.8 61.01 39.58 60.97 39.58 60.97 39.54 61.19 39.76 61.23 39.8 61.01"/>
    <path class="cls-7" d="M45.85,62.3c.14.06.17.19.41.19.16-.36-.33-.51-.41-.19Z"/>
    <path class="cls-7" d="M36.35,61.22c-.13-.02-.08-.34.06-.34.3-.03-.17.52.13.48.16-.39.06-.28.23-.65-.6-.22-.66-.17-.81.2-.3.03.17-.52-.13-.48-.15.24-.22.47-.12.67.2-.39.38.54.64.11Z"/>
    <path class="cls-7" d="M48.08,62.8c-.2,0-.48-.41-.64-.11.29-.08.44.43.64.11Z"/>
    <path class="cls-7" d="M36.96,60.86c-.06.19.08.71.27.39-.43-.11.18-.37-.27-.39Z"/>
    <path class="cls-7" d="M48.34,63.2c-.11.34,0,.52.35.52.01-.26.02-.54-.35-.52Z"/>
    <path class="cls-7" d="M46.61,63.02c-.08.18-.13-.05-.32-.06-.43.18.24.98.11.6-.09-.03-.26-.43-.05-.35.11,0,.13.52.3.17-.34-.03.34-.29-.04-.35Z"/>
    <path class="cls-7" d="M48.8,64.33c.08-.25.05-.43-.13-.48-.1.27-.26.4.13.48Z"/>
    <path class="cls-7" d="M32.35,61.61c.02.07.12.15.26.03.01,0,.02-.02.03-.02-.03-.03-.07-.06-.1-.08h-.01c-.15-.11-.19-.02-.17.06Z"/>
    <path class="cls-7" d="M47.53,64.68c.03.18-.22.56.01.58,0-.2.44-.53-.01-.58Z"/>
    <path class="cls-7" d="M56.56,66.62c.06.05.36.35.42.07-.07-.21-.3-.42-.42-.07Z"/>
    <path class="cls-7" d="M54.16,66.43c.22-.25-.31-.4-.3-.17.07.01.12.03.09.13l.21.04Z"/>
    <path class="cls-7" d="M48.87,65.85c-.01.12-.19.15-.04.22.02-.3.43-.02.4-.39-.34.02-.37-.18-.62-.22-.25.36.35.13.25.39Z"/>
    <path class="cls-7" d="M55.73,66.93c-.44,0-.75-.61-1.15-.32.52.24-.34.55-.72.34.07-.24-.03-.37-.27-.39.07.57-.14.26-.25.76.28.13.25-.19.46-.15-.04.32-.22.19-.08.45.42.21.27-.44.52-.48.19.21.33.17.5.32.15.13.35.67.52.21-.07-.04-.21-.04-.19-.15.28.05.61.18.68-.11-.07-.01-.12-.03-.09-.13.09-.34-.36.24-.3-.17-.04-.25.74.1.37-.16Z"/>
    <path class="cls-7" d="M56.73,66.88l-.08.45c.12.07.26.02.33-.09.07-.12.02-.26-.09-.33-.05-.03-.11-.04-.16-.03Z"/>
    <path class="cls-7" d="M49.83,66.01s0,.1-.02.11-.14.22-.15.2c.09.19.56-.32.17-.32Z"/>
    <path class="cls-7" d="M57.04,67.62c-.26-.07-.36.11-.48.26.26.07.36-.11.48-.26Z"/>
    <path class="cls-7" d="M55.94,69.52c.01-.07-.07-.15-.11-.02.19.08-.35.22-.23.65.35-.17.5.24.68-.11-.47-.07.01-.47.1-.56-.19-.06-.25.09-.43.04Z"/>
    <path class="cls-7" d="M58.41,70.54c-.53-.33-.4.33,0,0h0Z"/>
    <path class="cls-7" d="M59.2,71.02c-.14-.05-.3.03-.36.17.15.05.3-.03.36-.17Z"/>
    <path class="cls-7" d="M57.73,72.5c.04-.09.11-.12.23-.07-.01.14-.01.27.17.26.15-.34-.33-.22-.25-.5.17-.07.36-.11.4-.39-.16-.21-.84-.55-.9-.5.1.22.13.5.33.63.24.19.41-.39.44-.04-.18.06-.62.47-.43.62Z"/>
    <path class="cls-7" d="M57.06,71.92c-.2.54.27.52.5.32-.19-.08-.23-.29-.5-.32Z"/>
    <path class="cls-7" d="M58.82,72.58c-.17-.04-.04-.31-.29-.28.08.57-.42.05-.17.32-.08.18.4.06.46-.04Z"/>
    <path class="cls-7" d="M57.29,72.54c.16.63.35-.34,0,0h0Z"/>
    <path class="cls-7" d="M58.29,73.06c-.12-.17-.31-.12-.44.04.26.07.3.28.44-.04Z"/>
    <path class="cls-7" d="M65.12,77.51h0c-.1-.28-.2-.42-.15-.66h0c.02-.1.06-.19.09-.27h0c-.23-.15-.22-.04-.19.09h0c.01.07.03.13.02.2h0v.03s0,0-.02,0c-.02,0-.11-.02-.17-.04h-.03s0,0,0,0h0c-.07.16,0,.44-.18.43h0s0-.04,0-.07c0-.04-.02-.07-.09-.06l-.04.22s0,.02,0,.05h0c.02.1.07.16.14.21h0s.02.02.03.03c.15-.58.42.03.58-.15Z"/>
    <path class="cls-7" d="M63.76,77.55s.09,0,.23.11c.05.04-.07.34.17.26.04-.29-.13-.43-.23-.62h0c-.09.19-.16.24-.18.24Z"/>
    <path class="cls-7" d="M64.56,77.76c-.06.01-.12.05-.17.1.11.15.18.14.23.09h0s0-.01.01,0c.03-.06.02-.19-.07-.17Z"/>
    <path class="cls-7" d="M65.24,78.83c.11.08.41-.24.25-.32-.02-.02-.07-.02-.11-.02-.01,0-.02.1-.02.11,0,0-.02.02-.03.05-.03.04-.06.1-.09.13-.02.02-.03.03-.03.02,0,.01.02.03.03.03Z"/>
    <path class="cls-7" d="M65.15,81.11h0s.03-.03.04-.04c.01,0,.03-.02.04-.02h0s.05,0,.07.01c.03.02.06.05.06.09h-.01s-.02,0-.04,0c-.07.03-.11.17,0,.22h0c.02-.1.05-.16.1-.22.03-.04.05-.08.08-.14h0s.02-.04.02-.05c.02-.07.03-.13.03-.24-.22,0-.19-.19-.29-.28h0c.07.31-.3.62-.1.66Z"/>
    <path class="cls-7" d="M61.09,72.86c.21.01.21.16.41.19-.02-.41-.45-.26-.01-.58-.12-.04-.31-.03-.3-.17.62.07-.23-.85.15-.2-.11-.02-.14.07-.23.07.03-.31-.37-.5-.09-.71-.34-.14-.21.21-.16.32-.09,0-.21-.04-.23.07.52.06.47.55.48,1.01Z"/>
    <path class="cls-7" d="M40.6,57.67c-.25.05-.25-.59-.52-.21.17.02.36.49.52.21Z"/>
    <path class="cls-7" d="M41.8,59.04s0-.01,0,0c-.06,0-.11-.05-.1-.11v-.04h0s.02-.02.02-.03h0c.06-.08.17-.16.23-.12.17.04.03.3.29.28.01,0,.02-.02.02-.03.1-.2-.12-.39-.04-.48.02-.02.05-.04.11-.04.28.06.08.46.35.52h0c-.19-.47.13-.39.36-.48h0s.01,0,.01,0c.01,0,.01,0,.02,0h0l.08-.06h0s.01-.02.02-.03c.03-.03.05-.08.06-.14.03-.15-.17-.13-.17-.26-.21.13-.46.08-.74.03-.22-.06-.46-.07-.69-.05-.04,0-.19.16-.25.19-.19.07-.38.13-.46.15-.16.04-.69-.44-.36.17.25-.27.78.32.92.39-.07,0-.13,0-.13.09.16-.06.25.08.32.14h.01c.07.04.11.03.14-.07ZM41.42,58.62h0c-.25.03-.12-.24-.29-.28h0c.08-.24.34-.01.31.19,0,.04-.01.07-.03.09Z"/>
    <path class="cls-7" d="M41.15,58.34h0c.17.04.04.31.29.28.02-.03.02-.05.03-.09.02-.2-.24-.43-.31-.19Z"/>
    <path class="cls-7" d="M61.31,61.99s-.04-.02-.05-.03-.03-.03-.04-.05c0-.01-.02-.04-.01-.05-.17.05-.23.07-.02-.22-.34.01-.45.37-.75.45.15,0,.24.52.41.19-.12-.04-.15-.15-.17-.26.26.08.48.07.64-.02Z"/>
    <path class="cls-7" d="M35.25,58.01s.5-.57.04-.22c-.01,0-.24.21-.04.22Z"/>
    <path class="cls-7" d="M54.28,63.89c.1-.03.12.16.19.15.05,0,.14-.39.36-.17-.19.29.22.6.27.39.02-.08-.18-.41-.03-.47.3.09.38.59.21.73.33-.05.34-.04.64.11-.31-.42.55-.62.03-.81-.19.01,0,.15-.06.34-.2-.06-.26.08-.44.04.31-.3-.48-.59-.07-.83.04-.03.17.13.19.15.22.21.51.05.64.11.05.02.04.27.17.26.13-.01.36-.3.38-.28-.41-.2-.26-.27-.46-.54-.48.17-.43-.25-.62-.22-.04,0-.43,0-.39-.3.15.08.24.21.39.3.06-.21-.08-.27-.03-.47l-.63-.11c.14.91-.79.24-1,.63.29-.12.33.21.5.32-.01,0,.13-.13.23-.07.13.07.29.4-.08.45.08-.61-.27-.15-.41-.19-.04,0-.1-.35-.15-.37-.19-.08-.26.1-.44.04,0-.36.12-.8-.29-.86-.02.63-.68.31-1.15.26.03-.17-.23-.42-.21-.04.2.05.34.14.39.3-.8-.11-1.2-1.25-1.88-.56.22.2.45-.22.42.07,0,.28-.48-.15-.38.28.49-.12,1.13-.08,1.48.37-.09.42-.18.3-.12.67.45.19.53-.15.81-.2.38.35.73.1.76.71.47.23.6-.14.79-.18ZM55.77,63.36s.07.06.12.12c-.11.12-.2.08-.23.02,0-.01,0-.02-.02-.04t0-.02s0-.04,0-.06c.02-.05.06-.08.14-.02Z"/>
    <path class="cls-7" d="M55.65,63.46s0,.02.02.04c.03.06.12.1.23-.02-.05-.05-.09-.1-.12-.12-.08-.06-.12-.02-.13.03,0,.01,0,.03,0,.06t0,.01Z"/>
    <path class="cls-7" d="M42.13,60.32s-.04-.02-.05-.02c-.02,0-.03-.02-.05-.03,0,0-.01,0,0-.01-.07-.05-.13-.11-.18-.18h0c-.09.19.04.24.15.29.07.04.14.08.1.2.23.11.26-.1.38-.14.02,0,.05-.01.08,0v.02s0,.03-.01.06c-.03.12-.13.17-.09.23,0,.01.02.02.04.03.05-.13.15-.16.23-.24.02-.02.03-.04.05-.06-.11-.08-.25-.13-.39-.13h0c-.09.03-.16.02-.24,0Z"/>
    <path class="cls-7" d="M50.12,61.88c-.19.05-.03.02.11.02.65-.02.03-.05-.11-.02Z"/>
    <path class="cls-7" d="M42.66,61.05s-.07.02-.08.04c0,.03.03.09.06.07.2-.09.26-.1.29-.41.01-.07,0-.1.01-.14,0-.07,0-.05-.03.03-.03.09-.08.26-.15.42-.03,0-.07-.01-.1-.02Z"/>
    <path class="cls-7" d="M51.82,64.74c.26,0,.2.24.52.21-.12.35.05.48.23.62,0-.44-.12-.81-.38-1,.04.03-.47.12-.3-.17.19-.12.49-.41.33-.63-.52-.14-.11.33-.4.39-.21-.01-.21-.16-.41-.19-.23.32-.42.69-.8.79.07.22-.06.56.09.71.27-.26.16-1.09.71-.92-.34.28-.08.7-.2,1.13.27.01.43-.36.66,0-.02-.41.21-.45.33-.63-.25-.02-.4-.1-.39-.3Z"/>
    <path class="cls-7" d="M53.61,64.59c-.52.12-.45-.7-.82-.37.07.04.11.11.07.24.55.11.3.36.11.6.28-.04.6-.05.63-.47Z"/>
    <path class="cls-7" d="M58.2,66.09c.25.09.27-.16.56-.02-.02-.45.08-.71.27-.3.02-.12.07-.23.17-.32-.57-.15-.74.32-1,.63Z"/>
    <path class="cls-7" d="M60.13,67.59c.42-.15.25-.44.46-.74l-.54-.09c-.02.12-.09.23-.17.32.08.14.39.1.27.39-.06,0-.14.08-.02.12Z"/>
    <path class="cls-7" d="M61.94,67.34s-.01.07,0,.11c0,.31.45-.07.51.2.03-.11,0-.24-.11-.32-.06-.05-.11-.11-.14-.2h0c.01.07.02.15.02.23h0c0,.1-.06.12-.16.04h0s-.02-.02-.03-.03c-.01,0-.02-.02-.02-.02-.02-.03-.04-.03-.06-.03h0Z"/>
    <path class="cls-7" d="M63.9,68.71c0-.33-.15-.44-.21-.73,0-.04.29-.53-.13-.48-.08.54.17.92.25,1.09-.02-.07-.17.16.09.12Z"/>
    <path class="cls-7" d="M59.25,68.24c-.14-.31-.57-.34-.68.11.16.26.56.12.68-.11Z"/>
    <path class="cls-7" d="M64.04,69.19c-.04-.58-.47-.26,0,0h0Z"/>
    <path class="cls-7" d="M20.79,64.26c.07-.15-.11-.02-.11-.02-.69,0,.03.16.11.02Z"/>
    <path class="cls-7" d="M64.26,71.09c.05-.37-.31-.42-.44-.65.14.01.26.01.25-.19l-.32-.06c-.19.42-.02.47-.25.76.32.16.37-.12.58-.13.01.14.1.2.18.26Z"/>
    <path class="cls-7" d="M65.18,70.9c.37-.07.01.38.39.3.06-.21-.39-.75-.39-.3Z"/>
    <path class="cls-7" d="M67.08,72.63c-.05-.58-.47-.27,0,0h0Z"/>
    <path class="cls-7" d="M60.14,71.3c.03-.13-.14-.09,0,0h0Z"/>
    <path class="cls-7" d="M63.52,72.82c.25-.22.04-.67-.13-.48.31-.04-.17.51.13.48Z"/>
    <path class="cls-7" d="M64.42,73.33c.12-.19.42-.28.08-.45.1.27-.35.36-.08.45Z"/>
    <path class="cls-7" d="M63.33,73.25c-.06-.05-.36-.35-.42-.07.39.08.24.21.13.48.38.06.44-.38.65-.58-.21-.07-.24.11-.36.17Z"/>
    <path class="cls-7" d="M64.5,73.46c.17.04.04.31.29.28-.09-.3.12-.34-.03-.47-.03.15-.2.07-.25.19Z"/>
    <path class="cls-7" d="M63.47,74.33c-.2-.06.09-.18-.07-.24-.01.07-.03.13-.13.09-.02-.13-.35-.5-.52-.21.51.23-.2.75.4.88.16-.48-.23.05-.17-.26.07-.23.42-.04.49-.26Z"/>
    <path class="cls-7" d="M63.9,74.4c-.04.12-.23.24-.23.07.1-.05.44-.54.17-.32-.08.2-.34.15-.31.52.19.09.59-.21.37-.28Z"/>
    <path class="cls-7" d="M64.58,74.23h0c-.06-.05-.12-.08-.19-.1-.04.07-.03.17.01.24.02.03.04.05.07.08.07.06.16.1.16.19,0,.12-.15.12-.15.2s.21.01.19.15c0,.01-.17.06-.16.17h0s0,.02,0,.04h.01s.04,0,.04,0c.27-.06.26-.12.43-.14-.11-.02-.06-.16.13-.09,0,.06.07.14.11.02-.22-.2-.33-.47-.55-.67h0c-.05-.03-.08-.06-.11-.08Z"/>
    <path class="cls-7" d="M65.99,78.82s.31,0,.36-.12c0-.04,0-.09-.08-.18,0,.11-.33.13-.36.2-.02.02.01.05.09.1Z"/>
    <path class="cls-7" d="M66.88,81.3s0,.01,0,0c.14.06.15.21.29.28h0c-.06-.31.53-.31.21-.54h0c-.07.13-.15.23-.27.3h0c-.14-.01-.15-.19-.22-.04Z"/>
    <path class="cls-7" d="M67.94,81.49c0,.21-.18.16-.32.16-.07,0-.14.02-.17.1.04.02.08.05.12.08.08.07.19.11.29.11-.11-.28.34-.38.07-.45Z"/>
    <path class="cls-7" d="M54.39,58.23c.17.24.48.36.54.67,0,.37-.26.31-.1.56.27.1.17-.16.27-.3.24-.34.22-.27.25-.76-.45-.26-.75-1.38-1.31-.69.33-.05.24.35.35.52Z"/>
    <polygon class="cls-7" points="66.54 68.66 66.69 68.66 66.68 68.5 66.53 68.51 66.54 68.66"/>
    <path class="cls-7" d="M67.87,83.38s-.03.02-.03.03c-.04.05-.02.16,0,.23s.1.14.18.09c.05-.04.14-.09.1-.18,0-.02-.05-.1-.06-.13-.06-.07-.14-.08-.2-.05Z"/>
    <path class="cls-7" d="M53.53,71.1s0,.02,0,.02c.05.07.11.14.18.08.03-.02.05-.05.07-.07.03-.03.04-.09.01-.12h0s-.02-.03-.04-.04c-.04-.04-.09-.07-.15-.04l-.03.02s-.03.02-.04.04c0,.04-.01.08,0,.11Z"/>
    <polygon class="cls-7" points="51.17 69.1 51.32 69.09 51.31 68.94 51.17 68.95 51.17 69.1"/>
    <path class="cls-7" d="M69.28,86.97c-.12-.16-.17-.36-.31-.52-.24-.05-.5-.03-.74.04-.12.17-.16.38-.25.53.08.44.41.73.73.75.4-.14.6-.41.58-.81Z"/>
    <polygon class="cls-7" points="71.93 82.15 71.78 82.15 71.79 82.31 71.94 82.3 71.93 82.15"/>
    <path class="cls-7" d="M67.89,62.93c.12.03.26-.17.23-.32-.03-.04-.06-.07-.1-.09-.08-.01-.16,0-.23,0-.05.04-.13.09-.1.19.03.1.11.18.21.21Z"/>
    <path class="cls-7" d="M64.14,67.94c.06-.07.12-.14.18-.22.03-.05.09-.12.05-.17-.04-.05-.09-.15-.18-.11-.18.11-.31.27-.39.45-.04.07.04.15.12.17h.03s.02,0,.02,0c.05-.03.11-.06.16-.11Z"/>
    <path class="cls-7" d="M50.31,66.13v.02c-.03.1.09.13.14.09s.14-.11.08-.18c0-.01-.04-.03-.02-.03-.09-.03-.16,0-.2.09Z"/>
    <path class="cls-7" d="M64.99,84.24s-.04.02-.04.04c-.07.07-.01.22.01.32.04.12.2.09.34.16.04.02.11-.02.15-.07.05-.06.08-.15.06-.22-.06-.19-.26-.31-.45-.25-.03,0-.05,0-.07.01Z"/>
    <path class="cls-7" d="M62.97,82.86s.08.09.12.1c.02,0,.04,0,.06-.01.05-.04.14-.11.08-.19-.02-.03-.06-.08-.11-.09-.02,0-.06,0-.08,0-.04.03-.12.11-.07.18Z"/>
    <path class="cls-7" d="M65.82,71.77s-.05-.02-.08-.01l-.78.04c-.12,0-.19.15-.32.19s-.07.21-.07.31c.04.26.33.3.6.23.14-.1.36-.14.55-.23h0c.05-.03.1-.05.14-.08.01,0,.03-.02.04-.03h0c.05-.04.12-.11.1-.18-.01-.05-.04-.1-.07-.14h0c-.03-.05-.08-.08-.12-.1h0Z"/>
    <path class="cls-7" d="M63.65,85.4c0,.09.12.16.17.31.03.13.2.09.3.05.21-.08.32-.29.46-.45.01,0,.02-.02.03-.03.04-.04.09-.13.05-.16-.02-.03-.04-.04-.06-.05-.08,0-.2.1-.26.06-.19-.11-.42-.13-.62-.06-.07.02-.08.08-.07.15,0,.06.01.13.01.19Z"/>
    <path class="cls-7" d="M65.54,81.14s0,.05.02.06c.05.03.08,0,.09-.04,0-.02,0-.05-.02-.06-.05-.03-.08,0-.09.04Z"/>
    <path class="cls-7" d="M60.13,85.16c.03.13.21.1.34.16.09.04.2-.1.21-.23,0-.02,0-.03,0-.06-.02-.15-.16-.26-.31-.25-.13.02-.22.12-.24.25,0,.04,0,.08,0,.13,0-.01,0,0,0,0Z"/>
    <path class="cls-7" d="M63.32,82.09s.03.02.05.03c.01,0,.02.02.03.02h.03c.09.01.2-.14.17-.24-.04-.05-.09-.1-.14-.13-.01,0-.03-.02-.04,0-.09,0-.13.1-.18.19-.04.05.02.11.08.14Z"/>
    <path class="cls-7" d="M58.18,84.09h0v.02s0,.01,0,.01h0s0,.02,0,.02h0s0,.02,0,.02c0,0,0,.01,0,.01h0s0,.03,0,.03h0s0,.03,0,.03c0,0,.01,0,0,.01,0,0,.01,0,0,.01h.01s.01,0,.01,0h.02c.14,0,.26,0,.4-.02,0-.06,0-.11,0-.16h0s-.02-.04-.04-.05c-.04-.04-.09-.06-.15-.07-.08-.01-.17,0-.26.02-.02.04-.04.07-.05.11Z"/>
    <path class="cls-7" d="M59.22,82.26s.13,0,.14-.06c0-.01,0-.03-.01-.06,0-.01-.02-.06-.03-.07-.03-.06-.12-.03-.17,0h0c-.08.07,0,.17.08.2Z"/>
    <path class="cls-7" d="M59.58,84.82c.05.05.12.16.19.1.11-.1.25-.19.27-.3,0-.01,0-.03,0-.05-.01-.06-.05-.12-.1-.17-.13-.11-.3,0-.38.12-.06.08-.06.21.02.29Z"/>
    <polygon class="cls-7" points="21.45 76.4 21.45 76.4 21.44 76.25 21.3 76.26 21.3 76.26 21.31 76.41 21.45 76.4"/>
    <path class="cls-7" d="M24.51,68.33c.17.03.33-.02.44-.15.04,0,.12-.03.14-.07,0-.02,0-.03-.01-.06,0-.01-.02-.06-.03-.07-.04-.05-.12-.1-.16-.05-.11.1-.28.1-.38.23-.02.02-.02.04-.04.07,0,.02,0,.03,0,.05,0,.03.01.05.04.05Z"/>
    <path class="cls-7" d="M19.61,78.16c.13-.03.1-.21.05-.31s-.11-.18-.18-.24c-.08-.07-.17-.12-.29-.14-.1-.03-.32.11-.38.25-.04.09-.05.41,0,.44h.01c.1.07.22.12.34.15.03.02.08.02.12.03.1.03.18-.13.32-.17Z"/>
    <path class="cls-7" d="M20.55,68.7s.02.02.02.02c.05.02.19-.02.12-.12,0-.01-.02-.06-.03-.07h0c-.03-.06-.12-.03-.17,0-.07.07,0,.15.06.18Z"/>
    <path class="cls-7" d="M42.08,82.3h0s.08.02.1,0c0-.01.02-.02.02-.03,0-.03,0-.06-.01-.07h0s0-.01-.02-.02h-.01s-.02,0-.04,0t-.03.02h0s-.03.06-.02.1Z"/>
    <polygon class="cls-7" points="36.15 74.05 36.15 74.05 36.29 74.04 36.28 73.89 36.28 73.89 36.14 73.9 36.15 74.05"/>
    <path class="cls-7" d="M32.13,81.34c.14.07.31.07.44-.03h0c.07-.05.1-.13.08-.2-.04-.11-.15-.18-.26-.17-.1,0-.19.16-.33.17h0c-.01.08-.03.18.06.23Z"/>
    <path class="cls-7" d="M33.91,76.02c-.13.03-.08.19-.07.31.02.1.09.16.16.21h.01s.02.02.04.02c.01,0,.02,0,.03.02h.02c.06.01.11.02.17,0,.01,0,.01,0,.02,0,.21-.08.31-.3.24-.51-.01-.06-.05-.09-.1-.11-.01,0-.02,0-.03-.02h0s-.08-.02-.11-.03c-.01,0-.02,0-.04-.02h-.01s-.03-.02-.05-.03h-.01s-.01,0-.01,0c-.08,0-.16.13-.27.17Z"/>
    <path class="cls-7" d="M53.47,72.9c-.18.04-.3.2-.28.39.09.07.19.12.29.17.03,0,.07.02.1.03.17.04.35.04.52-.01.24-.05.31-.37.35-.56,0-.06-.04-.1-.08-.13-.21-.12-.7-.08-.91.12Z"/>
    <path class="cls-7" d="M27.98,79.55s.08.14.15.11c.16-.05.26-.21.25-.37h0c-.03-.05-.06-.08-.1-.1-.09-.02-.18,0-.27.03-.11.06-.07.2-.05.29,0,.02.02.04.02.04Z"/>
    <path class="cls-7" d="M29.35,76.69c.05-.03.12-.09.1-.17,0-.01,0-.02-.02-.03-.04-.05-.1-.13-.18-.08-.01,0-.03.02-.03.03-.03.03-.06.07-.06.1,0,.02,0,.04.01.06.03.05.1.13.18.08Z"/>
    <polygon class="cls-7" points="46.36 80.28 46.23 80.28 46.22 80.29 46.22 80.44 46.37 80.44 46.37 80.44 46.36 80.28"/>
    <path class="cls-7" d="M45.93,74.93h0s.02.02.03.03c.05.03.11,0,.19-.02.04-.02.07-.03.11-.04.25-.08.52-.3.52-.66,0-.02,0-.06,0-.08-.03-.05-.07-.08-.11-.1l-.52.03c-.12,0-.25.16-.35.23-.09.06-.15.16-.17.27-.01.07,0,.13.02.19.05.12.21.07.3.16Z"/>
    <polygon class="cls-7" points="45.57 78.81 45.42 78.82 45.42 78.82 45.43 78.97 45.58 78.96 45.58 78.96 45.57 78.81"/>
    <path class="cls-7" d="M45.76,80.12c-.03-.06-.12-.03-.17,0h0c-.08.07,0,.15.08.19h0c.06.03.19-.02.12-.12-.01,0-.03-.05-.03-.06Z"/>
    <path class="cls-7" d="M43.46,74.35c-.04-.05-.11-.04-.15-.01h-.01c-.08.08,0,.17.08.2h.02c.07.02.16-.03.1-.12-.02,0-.04-.05-.05-.07Z"/>
    <path class="cls-7" d="M44.81,73.71s-.08.07-.09.11c0,.02,0,.06,0,.08.04.05.11.14.19.08.05-.04.14-.11.08-.19-.05-.04-.12-.12-.19-.08Z"/>
    <path class="cls-7" d="M47.48,66.59s0,.01,0,.02c.04.05.11.14.18.08.03-.02.07-.06.09-.1.02-.03.01-.07,0-.09,0-.01-.02-.02-.02-.03h0s-.05-.06-.08-.06h-.01s-.04,0-.05.01c-.05.04-.12.11-.1.17Z"/>
    <path class="cls-7" d="M24.55,76.42c.14.13.36.13.51,0,.03-.06.07-.12.11-.18.1-.18.18-.38.13-.7-.04-.24-.34-.31-.62-.22-.13.03-.27.14-.46.2-.07.02-.11.1-.13.17v.08s-.02.06-.01.07c.07.33.21.57.47.58Z"/>
    <path class="cls-7" d="M43.54,69.18s.04.03.05.03.01,0,.02.02c.04.02.11-.02.15-.05,0-.01.01,0,.02-.02.04-.04.16-.12.1-.22-.04-.05-.09-.1-.14-.12-.07-.01-.13.03-.18.1-.03.05-.06.1-.07.15,0,.06.02.1.06.13Z"/>
    <path class="cls-7" d="M43.29,70.54c.1.28.33.47.68.48.08,0,.16,0,.26-.02.12-.12.29-.18.45-.18.02,0,.04,0,.07,0h.03c.14,0,.21-.25.31-.26.17,0,.35-.08.48-.19.05-.05.21-.14.15-.23-.1-.17-.23-.31-.41-.4h0l-.7.04s-.05,0-.07,0c-.07-.01-.14-.05-.19-.1h0c-.4.18-.79.4-1.02.75-.02.02-.03.06-.04.11Z"/>
    <path class="cls-7" d="M51.75,76.69s.03.02.04,0c.04-.02.05-.09.02-.11-.01,0-.02-.02-.03-.02-.06,0-.07.09-.03.12Z"/>
    <path class="cls-7" d="M46.86,75.87c-.14-.01-.26,0-.38.05-.2.07-.37.22-.48.41-.07.14.13.3.26.31.14.01.26,0,.39-.05.2-.07.37-.22.48-.41.02-.02.02-.03.02-.05,0-.09-.09-.19-.19-.23h-.01s-.07-.02-.09-.03Z"/>
    <path class="cls-7" d="M27.72,70.46c.03.1.11.18.2.22.04,0,.09,0,.13-.05.07-.07.11-.18.09-.27-.03-.04-.06-.07-.1-.09-.08-.01-.16-.02-.23,0h0c-.05.03-.13.09-.1.18Z"/>
    <polygon class="cls-7" points="26.92 74.12 26.92 74.11 26.91 73.97 26.77 73.97 26.77 73.98 26.78 74.12 26.92 74.12"/>
    <path class="cls-7" d="M25.18,78.54s0,.02,0,.04c.03.07.11.14.18.09.03-.02.05-.05.06-.08,0-.01,0-.02,0-.05-.03-.03-.06-.06-.1-.09h-.02c-.06-.01-.13.03-.12.09Z"/>
    <path class="cls-7" d="M25.85,72.79c.09.03.19.02.29-.02.03-.02.04-.05.06-.07.01-.14.01-.26-.02-.41-.03-.04-.06-.07-.1-.09-.14-.01-.28,0-.41.04-.05.01-.07.06-.07.09-.01.07.02.15.02.21.03.12.11.2.24.24Z"/>
    <path class="cls-7" d="M25.65,79.55c.05.03.08,0,.09-.04,0-.02,0-.05-.02-.06h0s-.06,0-.07.01c-.01,0-.02.02-.02.04,0,.01,0,.04.03.05Z"/>
    <path class="cls-7" d="M24.52,80.15c-.19-.15-.65-.12-1.03-.03-.01,0-.02,0-.04.02-.06.06,0,.21,0,.32.14.07.31.2.52.21.2,0,.36.16.39.36.13,0,.3-.14.37-.08.17.12.5.17.91.04.19-.15.41-.26.64-.32.01,0,.03-.02.04-.02h.01s.01-.02.02-.03.02-.02.02-.02h0s0-.07,0-.09c0-.01,0-.01,0-.02-.04-.08-.15-.08-.21-.1h0c-.14-.05-.27-.08-.41-.15-.11-.05-.21-.13-.29-.22-.15-.05-.37,0-.63.02-.07,0-.19.22-.3.13Z"/>
    <path class="cls-7" d="M51.63,80.99s.03.02.06,0c.07-.02.16-.14.17-.25,0-.02,0-.03,0-.06s-.02-.06-.04-.09h0s-.02-.04-.04-.07c0,0-.01,0,0-.01,0-.01-.03-.03-.04-.04h-.01s-.03-.02-.05-.03h-.01s-.03-.02-.05-.02h-.01s-.04,0-.06-.01h-.01s-.04,0-.06,0h-.01s-.02,0-.04,0h-.01s-.04.03-.05.03t-.02,0c.04.23.16.41.31.53Z"/>
    <path class="cls-7" d="M51.62,81.55c-.09-.08-.2-.06-.28,0-.04.03-.07.07-.09.1-.04.07-.06.34-.1.43-.02.04-.06.19.02.18l.51-.04h0c.16-.04.26-.2.24-.36-.03-.12-.19-.21-.3-.32Z"/>
    <path class="cls-7" d="M51.3,82.88c-.38.08-.74.23-1.08.42h0c0,.15,0,.3.02.44.02.04.04.08.09.08.23,0,.42.03.57-.08.05-.04.33.09.39.02,0,0,.01,0,.02-.02.07-.23.27-.4.36-.58v-.02h0c.04-.12-.15-.29-.36-.26Z"/>
    <path class="cls-7" d="M52.43,78.1h.01s0,0,.01,0h.01c.12.01.24,0,.36-.02.23-.06.32-.38.19-.7h0s-.04-.05-.06-.06h0c-.12-.01-.24,0-.36.02-.23.06-.32.38-.2.73,0,0,0,.01.03.03Z"/>
    <path class="cls-7" d="M51.2,79.97s.02,0,.04,0c.04,0,.07-.05.1-.09.03-.06.06-.14.05-.21-.02-.1-.08-.18-.18-.23s-.15.07-.19.12h0c-.13.15,0,.37.19.41Z"/>
    <path class="cls-7" d="M49.04,80.95s.01,0,0,0t.03-.02s.03-.04.04-.07c0-.01,0-.02,0-.04-.03-.03-.06-.06-.1-.09-.04-.02-.13,0-.14.06,0,.02,0,.03,0,.06.03.09.11.15.18.1Z"/>
    <path class="cls-7" d="M49.64,80.85h.02c.08.02.17-.02.11-.11,0-.01-.02-.06-.03-.07-.03-.04-.06-.05-.1-.04-.02,0-.06.01-.07.03-.09.06,0,.16.07.2Z"/>
    <path class="cls-7" d="M41.41,76.63c.09.02.18,0,.27-.03.04-.02.05-.04.07-.07.04-.07,0-.2,0-.28-.03-.04-.06-.06-.09-.07-.09-.02-.18,0-.27.02-.05.03-.07.07-.08.11-.01.07.02.16.03.24,0,.04.03.06.08.08Z"/>
    <polygon class="cls-7" points="55.2 77.8 55.35 77.79 55.34 77.79 55.34 77.64 55.19 77.65 55.19 77.65 55.2 77.8"/>
    <path class="cls-7" d="M50.44,77.03c-.11.12-.2.28-.36.32-.1.03-.11.14-.11.21,0,.13-.07.23-.2.27,0,.13,0,.26.01.39h0c.21.16.53.2.88.15.09,0,.18.02.25.07.09.06.19-.04.22-.16.04-.17,0-.47,0-.76,0-.04-.01-.06-.03-.1-.05-.09-.18-.17-.28-.24-.13-.07-.26-.11-.4-.15Z"/>
    <path class="cls-7" d="M49.36,79.09c.05.03.08,0,.09-.04,0-.02,0-.05-.02-.06-.05-.03-.08,0-.09.04s0,.06.02.06Z"/>
    <path class="cls-7" d="M49.46,83.41c-.13-.09-.31-.12-.47-.08-.01,0-.03.02-.04.04-.01,0-.02.03-.03.04-.03.06,0,.14.06.17h.04c.18.03.58.04.72-.09h0c-.09-.1-.19-.03-.28-.08Z"/>
    <path class="cls-7" d="M56.95,79.65c-.01-.13-.12-.22-.22-.21-.01,0-.02,0-.04.02-.12.07-.32.2-.24.36.04.09.16.06.26.11.07.04.14-.03.19-.12.03-.05.04-.12.04-.17Z"/>
    <path class="cls-7" d="M57.67,81.98h0s.02,0,.04,0,.02,0,.02,0h0s.01,0,.01,0h.01c.04-.06.03-.17,0-.25-.03-.04-.06-.06-.09-.08h-.03s-.02,0-.04,0c-.06.01-.1.06-.13.14-.02.05.04.11.07.17.02.02.07.05.12.04Z"/>
    <path class="cls-7" d="M57.15,78.29s.04,0,.05-.01h.01s.09-.03.13-.06c.11-.1.26-.22.28-.4.01-.07.01-.12-.02-.21-.03-.03-.06-.06-.09-.07-.12-.02-.25,0-.38.01-.18.1-.31.26-.38.45h0c.02.19.22.33.41.29Z"/>
    <path class="cls-7" d="M55.5,81.57s.04.05.07.06h.01s.02,0,.03,0,.01,0,.02,0c0,0,.01,0,.01,0,0,0,.01,0,.01,0h0l.03-.02h0s.05-.06.03-.1c-.06-.08-.14-.13-.23-.15.02-.08.04-.19-.03-.22h0s-.04,0-.06,0c-.04,0-.06.03-.09.06-.02.02-.03.05-.04.07-.03.16.16.18.22.33Z"/>
    <path class="cls-7" d="M54.73,80.88s0,.01,0,0c-.09.13,0,.41-.11.59-.08.12-.09.31,0,.36.04.03.09.03.13,0h.01s.01-.02.01-.02h0s.02-.03.02-.04c.05-.21.23-.39.3-.53.03-.06-.11-.25-.14-.3h0s0-.01-.02-.02c-.04-.05-.13-.1-.19-.03Z"/>
    <path class="cls-7" d="M56.44,79.25c.08,0,.16,0,.24-.01.09-.03.13-.13.1-.21h0s-.06-.06-.1-.09h-.04s-.1.04-.14.06c-.1.05-.08.17-.06.26-.01,0,0,0,0,0Z"/>
    <path class="cls-7" d="M33.76,68.58c-.05.03-.11.08-.11.15,0,.01,0,.02,0,.04.03.1.11.18.2.22.11.03.23-.13.23-.27,0-.01,0-.04,0-.05-.03-.04-.06-.07-.1-.09-.07-.04-.16-.03-.23,0Z"/>
    <path class="cls-7" d="M61.4,61.98c.05-.04.14-.11.08-.19-.04-.05-.1-.13-.18-.08-.05.03-.08.08-.09.14,0,.02,0,.04.01.05,0,.01.03.04.04.05s.03.03.05.03c.02.02.07.01.09,0Z"/>
  </g>
  <g>
    <path d="M37.23,56.62l.19,1.78,1.92.18c-.46-.71-.2-2.03.71-2.28,2-.56,3.06,1.66,1.4,2.72h-1.73c.23.62.34,1.26,0,1.87,2.32-.86,3.51,2.36,1.15,2.95-.77.19-.87-.18-1.54-.28.59.89.47,2.07-.66,2.5-1.47.55-2.83-.7-2.21-2.05l-1.73-.09c.26,3.36-4.75,2.4-3.07-.53l-1.23.36c-.91-.19-1.44-.68-1.64-1.53l.38-1.14c-2.91,1.17-3.42-3-.68-2.67,1.29.16,1.61,1.61.88,2.49l1.07-.36,1.23.36c.05-.39-.36-.6-.38-.99-.02-.32.25-.63.19-.97-1.02.08-1.73.06-2.26-.83-.36-1.41.62-2.31,2.13-1.98.96.5.99,1.15.9,2.1h1.72c-.29-1.89,1.07-2.52,2.88-1.96-1.28-3,3.7-3,2.79-.34-.33.95-1.53,1.02-2.41.7ZM36.47,59.29h-1.53c.32.46.12.77,0,1.25l1.53.18v-1.42ZM33.78,61.42c-.7.39-1.32,0-1.91-.36l.38,1.15-.38.99,1.72-.35.19-1.42ZM38.96,61.6l-1.72-.18c.23.66.24,1.11,0,1.78.73-.26,1.24-.16,1.91.18-.22-.7-.56-1.02-.19-1.78Z"/>
    <ellipse cx="35.51" cy="66.94" rx="1.56" ry="1.45"/>
    <ellipse cx="33.21" cy="55.2" rx="1.56" ry="1.45"/>
    <ellipse cx="43.18" cy="60" rx="1.51" ry="1.4"/>
    <ellipse cx="30.52" cy="66.76" rx="1.48" ry="1.37"/>
    <ellipse cx="40.49" cy="66.94" rx="1.48" ry="1.37"/>
    <ellipse cx="35.7" cy="53.06" rx="1.45" ry="1.35"/>
    <ellipse cx="42.98" cy="64.62" rx="1.45" ry="1.35"/>
    <ellipse cx="28.03" cy="64.45" rx="1.45" ry="1.35"/>
    <ellipse cx="38" cy="69.25" rx="1.39" ry="1.29"/>
    <ellipse cx="30.71" cy="52.88" rx="1.39" ry="1.29"/>
    <ellipse cx="40.68" cy="53.06" rx="1.39" ry="1.29"/>
    <ellipse cx="33.01" cy="69.07" rx="1.39" ry="1.29"/>
    <ellipse cx="28.22" cy="55.2" rx="1.39" ry="1.29"/>
    <ellipse cx="43.17" cy="55.37" rx="1.39" ry="1.29"/>
    <ellipse cx="25.73" cy="57.51" rx="1.35" ry="1.25"/>
    <ellipse cx="25.54" cy="62.13" rx="1.35" ry="1.25"/>
    <ellipse cx="45.47" cy="62.31" rx="1.35" ry="1.25"/>
    <ellipse cx="45.67" cy="57.69" rx="1.31" ry="1.22"/>
    <ellipse cx="38.19" cy="50.75" rx="1.31" ry="1.22"/>
    <ellipse cx="33.21" cy="50.75" rx="1.31" ry="1.22"/>
    <ellipse cx="35.51" cy="71.56" rx="1.28" ry="1.19"/>
    <ellipse cx="42.98" cy="69.25" rx="1.28" ry="1.19"/>
    <ellipse cx="25.54" cy="66.76" rx="1.28" ry="1.19"/>
    <ellipse cx="28.03" cy="69.07" rx="1.28" ry="1.19"/>
    <ellipse cx="45.48" cy="66.94" rx="1.26" ry="1.17"/>
    <ellipse cx="30.52" cy="71.38" rx="1.22" ry="1.13"/>
    <ellipse cx="23.24" cy="59.82" rx="1.22" ry="1.13"/>
    <ellipse cx="28.22" cy="50.57" rx="1.19" ry="1.1"/>
    <ellipse cx="23.24" cy="55.2" rx="1.19" ry="1.1"/>
    <ellipse cx="45.67" cy="53.06" rx="1.19" ry="1.1"/>
    <ellipse cx="35.7" cy="48.44" rx="1.19" ry="1.1"/>
    <ellipse cx="48.16" cy="60" rx="1.19" ry="1.1"/>
    <ellipse cx="43.17" cy="50.75" rx="1.19" ry="1.1"/>
    <ellipse cx="23.05" cy="64.45" rx="1.19" ry="1.1"/>
    <ellipse cx="47.97" cy="64.62" rx="1.19" ry="1.1"/>
    <ellipse cx="40.49" cy="71.56" rx="1.19" ry="1.1"/>
    <ellipse cx="25.73" cy="52.88" rx="1.19" ry="1.1"/>
    <ellipse cx="38" cy="73.87" rx="1.14" ry="1.06"/>
    <ellipse cx="40.68" cy="48.44" rx="1.14" ry="1.06"/>
    <ellipse cx="33.01" cy="73.7" rx="1.14" ry="1.06"/>
    <ellipse cx="48.16" cy="55.37" rx="1.14" ry="1.06"/>
    <ellipse cx="30.71" cy="48.26" rx="1.14" ry="1.06"/>
    <ellipse cx="20.75" cy="57.51" rx="1.06" ry=".99"/>
    <ellipse cx="50.46" cy="62.31" rx="1.06" ry=".99"/>
    <ellipse cx="23.05" cy="69.07" rx="1.06" ry=".99"/>
    <ellipse cx="47.97" cy="69.25" rx="1.06" ry=".99"/>
    <ellipse cx="20.55" cy="62.13" rx="1.06" ry=".99"/>
    <ellipse cx="25.54" cy="71.38" rx="1.06" ry=".99"/>
    <ellipse cx="45.47" cy="71.56" rx="1.06" ry=".99"/>
    <ellipse cx="35.51" cy="76.19" rx="1.02" ry=".94"/>
    <ellipse cx="25.73" cy="48.26" rx="1.02" ry=".94"/>
    <ellipse cx="33.21" cy="46.12" rx="1.02" ry=".94"/>
    <ellipse cx="42.98" cy="73.87" rx="1.02" ry=".94"/>
    <ellipse cx="28.03" cy="73.7" rx="1.02" ry=".94"/>
    <ellipse cx="50.65" cy="57.69" rx="1.02" ry=".94"/>
    <ellipse cx="50.46" cy="66.94" rx="1.02" ry=".94"/>
    <ellipse cx="48.16" cy="50.75" rx="1.02" ry=".94"/>
    <ellipse cx="20.55" cy="66.76" rx="1.02" ry=".94"/>
    <ellipse cx="23.24" cy="50.57" rx="1.02" ry=".94"/>
    <ellipse cx="38.19" cy="46.12" rx="1.02" ry=".94"/>
    <ellipse cx="45.67" cy="48.44" rx="1.02" ry=".94"/>
    <ellipse cx="40.49" cy="76.19" rx=".98" ry=".91"/>
    <ellipse cx="30.52" cy="76.01" rx=".98" ry=".91"/>
    <ellipse cx="50.65" cy="53.06" rx=".98" ry=".91"/>
    <ellipse cx="18.26" cy="59.82" rx=".98" ry=".91"/>
    <ellipse cx="28.22" cy="45.94" rx=".98" ry=".91"/>
    <ellipse cx="43.18" cy="46.12" rx=".98" ry=".91"/>
    <ellipse cx="52.95" cy="60" rx=".98" ry=".91"/>
    <ellipse cx="20.75" cy="52.88" rx=".98" ry=".91"/>
    <ellipse cx="35.7" cy="43.81" rx=".94" ry=".87"/>
    <ellipse cx="18.06" cy="64.45" rx=".94" ry=".87"/>
    <ellipse cx="52.95" cy="64.62" rx=".94" ry=".87"/>
    <ellipse cx="18.25" cy="55.2" rx=".94" ry=".87"/>
    <ellipse cx="25.54" cy="76.01" rx=".89" ry=".83"/>
    <ellipse cx="20.55" cy="71.38" rx=".89" ry=".83"/>
    <ellipse cx="40.68" cy="43.81" rx=".89" ry=".83"/>
    <ellipse cx="30.71" cy="43.63" rx=".89" ry=".83"/>
    <ellipse cx="50.46" cy="71.56" rx=".89" ry=".83"/>
    <ellipse cx="45.47" cy="76.19" rx=".89" ry=".83"/>
    <ellipse cx="23.05" cy="73.7" rx=".89" ry=".83"/>
    <ellipse cx="53.14" cy="55.37" rx=".89" ry=".83"/>
    <ellipse cx="47.97" cy="73.87" rx=".89" ry=".83"/>
    <ellipse cx="33.01" cy="78.32" rx=".89" ry=".83"/>
    <ellipse cx="38" cy="78.5" rx=".89" ry=".83"/>
    <ellipse cx="20.75" cy="48.26" rx=".85" ry=".79"/>
    <ellipse cx="50.65" cy="48.44" rx=".85" ry=".79"/>
    <ellipse cx="52.95" cy="69.25" rx=".85" ry=".79"/>
    <ellipse cx="18.06" cy="69.07" rx=".85" ry=".79"/>
    <ellipse cx="15.76" cy="57.51" rx=".85" ry=".79"/>
    <ellipse cx="48.16" cy="46.12" rx=".85" ry=".79"/>
    <ellipse cx="23.24" cy="45.95" rx=".85" ry=".79"/>
    <ellipse cx="55.44" cy="62.31" rx=".85" ry=".79"/>
    <ellipse cx="15.76" cy="62.13" rx=".85" ry=".79"/>
    <ellipse cx="28.03" cy="78.32" rx=".85" ry=".79"/>
    <ellipse cx="43.17" cy="41.5" rx=".78" ry=".72"/>
    <ellipse cx="25.73" cy="43.63" rx=".78" ry=".72"/>
    <ellipse cx="45.67" cy="43.81" rx=".78" ry=".72"/>
    <ellipse cx="18.25" cy="50.57" rx=".78" ry=".72"/>
    <ellipse cx="53.14" cy="50.75" rx=".78" ry=".72"/>
    <ellipse cx="15.76" cy="52.88" rx=".78" ry=".72"/>
    <ellipse cx="55.64" cy="53.06" rx=".78" ry=".72"/>
    <ellipse cx="13.27" cy="59.82" rx=".78" ry=".72"/>
    <ellipse cx="57.94" cy="60" rx=".78" ry=".72"/>
    <ellipse cx="13.08" cy="64.45" rx=".78" ry=".72"/>
    <ellipse cx="55.64" cy="57.69" rx=".78" ry=".72"/>
    <ellipse cx="47.97" cy="78.5" rx=".78" ry=".72"/>
    <ellipse cx="15.57" cy="66.76" rx=".78" ry=".72"/>
    <ellipse cx="55.44" cy="66.94" rx=".78" ry=".72"/>
    <ellipse cx="18.06" cy="73.7" rx=".78" ry=".72"/>
    <ellipse cx="52.95" cy="73.87" rx=".78" ry=".72"/>
    <ellipse cx="20.55" cy="76.01" rx=".78" ry=".72"/>
    <ellipse cx="50.46" cy="76.19" rx=".78" ry=".72"/>
    <ellipse cx="28.22" cy="41.32" rx=".78" ry=".72"/>
    <ellipse cx="23.05" cy="78.32" rx=".78" ry=".72"/>
    <ellipse cx="33.21" cy="41.5" rx=".78" ry=".72"/>
    <ellipse cx="38.19" cy="41.5" rx=".78" ry=".72"/>
    <ellipse cx="42.98" cy="78.5" rx=".78" ry=".72"/>
    <ellipse cx="30.52" cy="80.63" rx=".78" ry=".72"/>
    <ellipse cx="35.51" cy="80.81" rx=".78" ry=".72"/>
    <ellipse cx="40.49" cy="80.81" rx=".78" ry=".72"/>
    <ellipse cx="18.25" cy="45.95" rx=".73" ry=".67"/>
    <ellipse cx="57.94" cy="64.62" rx=".73" ry=".67"/>
    <ellipse cx="13.27" cy="55.2" rx=".73" ry=".67"/>
    <ellipse cx="55.44" cy="71.56" rx=".73" ry=".67"/>
    <ellipse cx="35.7" cy="39.19" rx=".73" ry=".67"/>
    <ellipse cx="20.75" cy="43.63" rx=".73" ry=".67"/>
    <ellipse cx="53.14" cy="46.12" rx=".73" ry=".67"/>
    <ellipse cx="30.72" cy="39.01" rx=".73" ry=".67"/>
    <ellipse cx="50.65" cy="43.81" rx=".73" ry=".67"/>
    <ellipse cx="40.68" cy="39.19" rx=".73" ry=".67"/>
    <ellipse cx="15.57" cy="71.38" rx=".73" ry=".67"/>
    <ellipse cx="15.76" cy="48.26" rx=".73" ry=".67"/>
    <ellipse cx="25.54" cy="80.63" rx=".73" ry=".67"/>
    <ellipse cx="58.13" cy="55.37" rx=".73" ry=".67"/>
    <ellipse cx="45.48" cy="80.81" rx=".73" ry=".67"/>
    <ellipse cx="33.02" cy="82.95" rx=".73" ry=".67"/>
    <ellipse cx="15.76" cy="43.63" rx=".61" ry=".57"/>
    <ellipse cx="48.16" cy="41.5" rx=".61" ry=".57"/>
    <ellipse cx="23.24" cy="41.32" rx=".61" ry=".57"/>
    <ellipse cx="18.25" cy="41.32" rx=".61" ry=".57"/>
    <ellipse cx="45.67" cy="39.19" rx=".61" ry=".57"/>
    <ellipse cx="25.73" cy="39.01" rx=".61" ry=".57"/>
    <ellipse cx="13.08" cy="73.7" rx=".61" ry=".57"/>
    <ellipse cx="57.94" cy="73.87" rx=".61" ry=".57"/>
    <ellipse cx="43.17" cy="36.87" rx=".61" ry=".57"/>
    <ellipse cx="8.29" cy="59.82" rx=".61" ry=".57"/>
    <ellipse cx="38.19" cy="36.87" rx=".61" ry=".57"/>
    <ellipse cx="33.21" cy="36.87" rx=".61" ry=".57"/>
    <ellipse cx="10.78" cy="57.51" rx=".61" ry=".57"/>
    <ellipse cx="15.57" cy="76.01" rx=".61" ry=".57"/>
    <ellipse cx="10.59" cy="66.76" rx=".61" ry=".57"/>
    <ellipse cx="55.44" cy="76.19" rx=".61" ry=".57"/>
    <ellipse cx="60.62" cy="57.69" rx=".61" ry=".57"/>
    <ellipse cx="60.43" cy="66.94" rx=".61" ry=".57"/>
    <ellipse cx="60.43" cy="62.31" rx=".61" ry=".57"/>
    <ellipse cx="10.78" cy="62.13" rx=".61" ry=".57"/>
    <ellipse cx="18.06" cy="78.32" rx=".61" ry=".57"/>
    <ellipse cx="60.62" cy="53.06" rx=".61" ry=".57"/>
    <ellipse cx="13.08" cy="69.07" rx=".61" ry=".57"/>
    <ellipse cx="52.95" cy="78.5" rx=".61" ry=".57"/>
    <ellipse cx="57.94" cy="69.25" rx=".61" ry=".57"/>
    <ellipse cx="55.63" cy="48.44" rx=".61" ry=".57"/>
    <ellipse cx="20.55" cy="80.63" rx=".61" ry=".57"/>
    <ellipse cx="10.78" cy="52.88" rx=".61" ry=".57"/>
    <ellipse cx="58.13" cy="50.75" rx=".61" ry=".57"/>
    <ellipse cx="28.22" cy="36.7" rx=".61" ry=".57"/>
    <ellipse cx="50.46" cy="80.81" rx=".61" ry=".57"/>
    <ellipse cx="13.27" cy="50.57" rx=".61" ry=".57"/>
    <ellipse cx="23.05" cy="82.95" rx=".61" ry=".57"/>
    <ellipse cx="28.03" cy="82.95" rx=".61" ry=".57"/>
    <ellipse cx="38" cy="83.12" rx=".61" ry=".57"/>
    <ellipse cx="42.98" cy="83.12" rx=".61" ry=".57"/>
    <ellipse cx="47.97" cy="83.12" rx=".61" ry=".57"/>
    <ellipse cx="30.52" cy="85.26" rx=".61" ry=".57"/>
    <ellipse cx="35.51" cy="85.26" rx=".61" ry=".57"/>
    <ellipse cx="40.49" cy="85.44" rx=".61" ry=".57"/>
  </g>
  <g>
    <g>
      <circle class="cls-3" cx="51.76" cy="28.78" r="10.06"/>
      <circle class="cls-3" cx="33.52" cy="39.02" r="15.89"/>
      <circle class="cls-1" cx="51.62" cy="29.32" r="14.46"/>
      <circle class="cls-1" cx="33.5" cy="39.11" r="20.24"/>
    </g>
    <circle class="cls-5" cx="33.53" cy="38.97" r="14.25"/>
    <circle class="cls-5" cx="51.76" cy="28.78" r="8.76"/>
    <circle class="cls-5" cx="33.7" cy="38.29" r="10.78"/>
    <circle class="cls-5" cx="51.79" cy="28.66" r="5.71"/>
  </g>
  <g>
    <polygon class="cls-2" points="1.21 58 4.9 58.16 16.83 51.48 58.62 93.64 72.55 64.18 83.68 59.95 83.45 69.05 98.79 48.5 74.77 48.34 81.21 52.87 68.88 57.49 56.63 81.57 19.54 44.96 1.21 58"/>
    <polygon class="cls-4" points="73.31 74.39 22.72 64.21 33.86 31.27 79.51 39.39 73.31 74.39"/>
    <g class="cls-8">
      <polygon class="cls-2" points="1.21 58 4.9 58.16 16.83 51.48 58.62 93.64 72.55 64.18 83.68 59.95 83.45 69.05 98.79 48.5 74.77 48.34 81.21 52.87 68.88 57.49 56.63 81.57 19.54 44.96 1.21 58"/>
    </g>
  </g>
  <polygon class="cls-2" points="34.54 31.39 51.46 52.75 78.72 39.12 34.54 31.39"/>
</svg>