<?xml version="1.0" encoding="UTF-8"?>
<svg id="icons" xmlns="http://www.w3.org/2000/svg" viewBox="0 0 100 100">
  <defs>
    <style>
      .cls-1 {
        fill: #080b0a;
      }

      .cls-2 {
        fill: #0f1112;
      }

      .cls-3 {
        fill: #0b0d0e;
      }

      .cls-4 {
        fill: #0d0f0f;
      }

      .cls-5 {
        fill: #131515;
      }

      .cls-6 {
        fill: #0b0c0d;
      }

      .cls-7 {
        fill: #151717;
      }

      .cls-8 {
        fill: #171919;
      }

      .cls-9 {
        fill: #0d0f10;
      }

      .cls-10 {
        fill: #111313;
      }

      .cls-11 {
        fill: #141616;
      }

      .cls-12 {
        fill: #141515;
      }

      .cls-13 {
        fill: #4a5a2d;
      }

      .cls-13, .cls-14, .cls-15, .cls-16 {
        stroke: #000;
        stroke-miterlimit: 10;
      }

      .cls-17 {
        fill: #0d0e0f;
      }

      .cls-18 {
        fill: #0f1010;
      }

      .cls-19 {
        fill: #090b0c;
      }

      .cls-20 {
        fill: #181919;
      }

      .cls-21 {
        fill: #0c0d0e;
      }

      .cls-22 {
        fill: #0b0c0c;
      }

      .cls-23 {
        fill: #101112;
      }

      .cls-14 {
        fill: #c2d832;
      }

      .cls-14, .cls-15 {
        stroke-width: 1.5px;
      }

      .cls-24 {
        fill: #191a1a;
      }

      .cls-25 {
        fill: #101212;
      }

      .cls-15 {
        fill: none;
      }

      .cls-26 {
        fill: #0b0d0d;
      }

      .cls-16 {
        fill: #e8efb5;
      }

      .cls-27 {
        fill: #080b0b;
      }

      .cls-28 {
        fill: #0c0e0f;
      }

      .cls-29 {
        fill: #0f1011;
      }

      .cls-30 {
        fill: #07090a;
      }

      .cls-31 {
        fill: #070a0a;
      }

      .cls-32 {
        fill: #141516;
      }

      .cls-33 {
        fill: #080a0b;
      }

      .cls-34 {
        fill: #0c0e0e;
      }

      .cls-35 {
        fill: #0a0d0d;
      }

      .cls-36 {
        fill: #0e1010;
      }

      .cls-37 {
        fill: #0f1111;
      }

      .cls-38 {
        fill: #0e0f0f;
      }

      .cls-39 {
        fill: #070909;
      }

      .cls-40 {
        fill: #080a0a;
      }

      .cls-41 {
        fill: #121414;
      }

      .cls-42 {
        fill: #090c0c;
      }

      .cls-43 {
        fill: #090b0b;
      }

      .cls-44 {
        fill: #0a0c0c;
      }
    </style>
  </defs>
  <g>
    <path class="cls-39" d="M61.88,39.75c-.11,0-.44-.16-.56-.15-.14,0-.41.32-.43-.06-.02-.28.3-.35.29-.37,0-.07-.53-.63-.56-.75-.04-.13.12-.28.14-.41.01-.1-.08-.23-.09-.36,0-.5.39-.77.74-1.07.22.07,1.31-.13,1.41-.05.03.02,0,.27.03.35.24-.16.6.28.79.46.13.13.21.37.29.45.02.02.11-.07.13-.06.37.08-.06.44-.17.71-.05.14.02.32-.08.45.13.12.15-.18.32-.17.2.01.28.3.42.36.09.04.72-.25.68.17-.03.34-.66.23-.83.1l-.08,1-.44,1.65c-.21-.23-.14-.57-.47-.72-.15,0-.14.86-.57.6-.46-.27.09-.94.38-1.13.23-.15.34.45.58.32-.17-.19-.39-.52-.64-.6-.2-.06-.43.11-.6-.12.94-.89-.18-.58-.69-.59Z"/>
    <path class="cls-39" d="M58.9,45.68c.1-.24-.07-.72-.04-.91.02-.16.26-.48.18-.6-.22-.36-1.04.42-1.44.34-.22-.04-.33-.3-.56.02-.14-.34-.05-1.1.34-1.23.2-.07.91.23,1.01.15s-.03-.3.11-.39c.06.12.47.66.52.66.16.01.44-.41.16-.57.49-.06.61.32,1.01-.17-.32-.42-.43,0-.63.02-.39.02-.38-.4-.46-.4l-.1.24c-.38-.25-.81-.41-1.25-.52-.24.05.09.66-.52.83-.97.28-.73-1.16-.07-1.36.12-.04,1.32.33,1.59.31.13-.17-.78-.57-.5-.69.13-.05.77.15.98.12-.66.99.38.51.37.32,0-.04-.33-.36-.04-.58.29.33.58.68.61,1.14.5.02,1.14.52,1.56.58.2.03.28-.17.35-.13.2.12.38.73.25.93-.24.35-1.31-.23-1.54-.5l-.08.15c.4,0,.62.62.47.9-.04.07-.3.14-.43.27-.2.19-.35.62-.53.69-.14.06-.39-.08-.54-.02-.28.12-.22.69-.67-.03-.12.3.09.28.15.34-.17.31-.26.08-.29.08Z"/>
    <path class="cls-39" d="M73.1,50.7l-.21-.39c-.31.56-.59.34-.83-.14-.17-.33.08-1.21.6-.95.36.18.68.89.99.29.08-.16.08-.69.27-.67.09,0,.68.29.73.34.07.08-.12.29-.11.34.09.31.33,0,.46,0,.29-.03.75.35,1.02-.08.22-.35-.14-.35-.25-.51-.21-.3.35-.96.81-.69.26.15.06.33.51.2-.46.41-.03.79.16,1.22.31-.28.64-.63.79-.03.16.66-.64.51-.61.72.16.14.48.3.31.54-.25.34-.65.02-.8.35-.17.37.06.53.3.74-1.2,0-.36-.86-.44-1.14-.01-.05-.53-.31-.6-.45.13-.2.36.08.42-.3-.36-.06-.75.08-1.09-.06-.12.15.25.2.24.37-.01.14-.27.52-.43.5-.18-.02-.48-.41-.66-.51l.35-.35-1.53-.05c-.06.08.34.39-.27.7-.02.01-.08,0-.12,0Z"/>
    <path class="cls-39" d="M61.7,34.89c-.51-.3-1.02-1.04-.69-1.62.05-.09.52-.76.56-.79.1-.08,1.96,0,2.1.11.41.32.69,1.37.42,1.84-.1.18-.52.7-.67.8-.21.13-1.49-.19-1.73-.34Z"/>
    <path class="cls-39" d="M70.94,42.77s.1-.2.05-.27c-.08-.11-.29.01-.42-.05-.37-.17-.37-1.16-.21-1.49.08-.18.2-.28.29-.43.06-.11.03-.28.1-.34.17-.15,1.1-.17,1.34-.11.26.06.93.42,1.1.59.04.05.29,1.18.28,1.24-.05.29-1.42,1.28-1.67,1.15-.07-.04-.1-.2-.2-.25-.08-.04-.61.18-.67-.05Z"/>
    <path class="cls-39" d="M74.37,46.14c.1-.53.28-.38.63-.55.12-.06.2-.2.33-.26.18-.08.46.07.59-.01.35-.21.24-1,.9-.79-.21.23-.34.48-.06.71.26-.22.08-.72.18-.92.16-.31.59-.05.17.25.6-.14.29.1.35.19.16.25.33.08-.06.49.15.19.36-.06.5,0,.1.05.22.31.38.43.2.15.54.08.51.37-.05.67-.33.11-.43.05s-.23.14-.29.14-.17-.14-.28-.16c-.28-.05-1.11.66-1.86.2-.12-.07-.44-.4-.47-.4-.03,0-.23.34-.41.42-.11.05-.67-.07-.69-.15Z"/>
    <path class="cls-39" d="M43.37,48.23c-.13.02-.13.55-.66-.15-.4-.53.34-.28.55-.63.38-.62-.24-.41-.32-.62-.02-.04-.02-.9-.01-.94.2-.72,1.19-.41,1.41.06.03.07.07.63.03.7-.18.41-.8.38-.72.94.06.42,1.25.68.46,1.31-.55.44-.61-.69-.73-.67Z"/>
    <path class="cls-39" d="M37.33,56.23c-.01-.21.02-.39-.03-.61-.02-.12-.16-.29-.16-.31,0-.06.93-.62,1.03-.64.15-.02,1.13.66,1.38.74.12-.08-.09-.13-.05-.2.13-.22,1.1-.24.72.13-.23.22-.51.29-.71.64-.1.17-.02.48-.19.59-.21.13-.67-.54-.93-.57-.21-.02-.4.48-.6.53-.18.04-.34-.23-.46-.29Z"/>
    <path class="cls-39" d="M47.44,51.01c-.01-.13.15-.33.08-.51-.16-.37-.81-.21-.37-.97.38.25.07.84.76.38-.31-.26-.66-.46-.63-.92l.49-.15c.29.19.54-.19.57-.2.29-.03.04.36.06.38.16.23.72.62.78.93.04.19-.24.35-.24.4,0,.14.73.3.23.63-.25-.15-.68-.72-.96-.67-.62.13,0,.52,0,.63,0,.28-.73.61-.77.06Z"/>
    <path class="cls-39" d="M50.08,44.05s-.31-.18-.3-.36c.3-.45.35.02.67.25.18.13.39.11.54.24.46.42.37,1.88-.3,2.02-.46.1-.39-.32-.54-.54-.13-.19-.66-.69-.68-.77-.06-.21.62-.76.62-.84Z"/>
    <path class="cls-39" d="M39.41,57.35c.16-.16.29-.38.46-.53.16-.13,1.97-.67,2.18-.66.71.03.29.59.09,1-.31-.01-2.69.65-2.72.19Z"/>
    <path class="cls-39" d="M85.97,48.75c.35-.04.67.35.81.64.62,1.3-1.87,1.62-1.62.31.06-.31.52-.91.82-.95Z"/>
    <path class="cls-39" d="M65.09,43.11s.17-.14.31-.16c.69-.11.49.83-.07.92.22.29.24,0,.5,0,.1.42.15.5.55.69-.33.33-.34.76-.84.91-.82.26-.42-.2-.39-.49.05-.38-.14-.82-.14-1.05,0-.13.2-.48-.01-.63-.07-.05-.48.11-.6-.26-.15-.5.64.07.68.07Z"/>
    <path class="cls-39" d="M44.42,48.79c.13-.36.71-.05.82-.08s.34-.78.73-.72.18.47.35.68c.22.28.59.37.84.61-.37.27-.92.16-1.19.51-.28-.16.15-.22-.06-.38-.32-.24-1.2-.05-1.49-.61Z"/>
    <path class="cls-39" d="M73.6,69.38c-.35-.16-.7-.01-.97-.39-.02-.15.71-.22.78-.19.2.08,1.14,1.05,1.15,1.21,0,.06-.08.33-.11.39-.65,1.1-1.99-.39-.85-1.02Z"/>
    <path class="cls-39" d="M81.69,50.3c-.33.29-.42.62-.98.64-.4.02-.41-.28-.6.19-.31-.26-.12-.53.11-.77-.12-.2-.22.02-.32,0-.59-.1,0-.35,0-.38,0-.02-.36-.06-.29-.3.17-.07.35.18.48.14.23-.06.31-.44.87-.2.26.11.46.48.73.68Z"/>
    <path class="cls-39" d="M42.52,42.72c-.16-.15-.43,0-.63-.12-.55-.34-.01-1.71.77-1.04.34.29.12.55.33.86.1.14.42.38.42.41s-.32.4-.4.45c-.29.19-.85-.26-.49-.55Z"/>
    <path class="cls-39" d="M65.39,41.06l-.41.02.24-.34c-.91.35-.81-.24-.17-.69.3-.21,1-.22,1.03-.26.04-.05-.19-.66.22-.84.27-.12.6.38.5.61-.29.66-.93.49-1.16,1.03-.07.17.13.45-.25.47Z"/>
    <path class="cls-39" d="M78.13,55.65c.06,0,.96.46,1.02.58.11.26-.24.77-.46.9s-.48-.28-.66.16c-.13-.26-.29-.22-.55-.25.08-.28.34-1.34.65-1.39Z"/>
    <g>
      <path class="cls-39" d="M38.37,59.72c-.51.24-.2.82-.51,1.25-.14.19-.82.68-1.04.72-.37.07-1.55-.78-1.69-1.09-.1-.22.16-1.05.31-1.26.21-.28.77-.67,1.12-.73.05,0,.91.18.96.21.09.05.14.37.29.52.17.16.43.2.58.39Z"/>
      <path class="cls-39" d="M37.33,56.23c0,.11.11.51.07.55-.03.03-.64,0-.72.21,0,.04.54.18.57.17.19-.05.24-.61.66-.21l-1.26,1.48c-.05.06-.55-.03-.65-.09-.8-.45-.15-1.04.26-1.49-.2-.01-.69-.18-.58-.45.17-.44,1.3-.32,1.64-.16Z"/>
      <path class="cls-39" d="M34.47,56.81c-.85-.46-.15-1.75.73-1.2s.23,1.72-.73,1.2Z"/>
    </g>
    <path class="cls-39" d="M70.59,42.95c.71-.17,1.56,1.09.49,1.41s-1.36-1.2-.49-1.41Z"/>
    <path class="cls-39" d="M57.65,35.28c.7-.44.23-.52.24-.93,0-.27.86-.29,1.05-.21.25.1.8.56.48.79-.2.15-1.74.71-1.77.34Z"/>
    <path class="cls-39" d="M41.7,49.71c-.64-.38.08-1.69.86-1.1.7.53-.04,1.58-.86,1.1Z"/>
    <path class="cls-39" d="M75.19,52.06s-.32.53-.37.59c-.54.62-1.3-.32-.88-1,.16-.26.69-.25.9-.1.04.03.35.47.35.5Z"/>
    <path class="cls-39" d="M77.1,52.37c-.11.24-.13.5-.35.68.78.24.09,1.19-.45.6-.05-.06.24-.33,0-.44l-.29.35c-.05.06-.17-.07-.18-.1-.03-.06.47-1.29.53-1.32.16-.1.56.22.76.25Z"/>
    <path class="cls-39" d="M77.93,53.19s.37-.49.37-.56c0-.04-.26-.11-.34-.18-.24-.2-.23-.9.13-.98-.22-.07-.19-.33-.03-.35.13-.01.16.33.19.35.13.11.65-.25.57.73-.04.51-.18.8-.67,1-.06.02-.22.19-.21-.02Z"/>
    <path class="cls-39" d="M53.74,46.51s.12-.21.19-.16c.48.27,0,.25-.09.33-.17.13-.26.66-.68.32-.25-.2-1.11-1.49-.35-1.43.6.05.82.96.93.95Z"/>
    <path class="cls-39" d="M56.02,81.25c.3-.19.18-.54.33-.76.34-.53,1.94-.49,1.54.23-.44.77-.96,0-1.08,0-.03,0-.41.29-.45.32-.03.03-.06.48-.33.21Z"/>
    <path class="cls-39" d="M45.26,46.67s.18-.38.1-.45c-.02-.01-.23.07-.34-.08-.09-.13,0-.65-.18-.93-.13-.2-.68-.45-.32-.73.1-.08.99.51,1,.59,0,.03-.11.16-.11.27,0,.27.18.56.08.88l.19-.16c.51.37-.29,1.02-.41.62Z"/>
    <path class="cls-39" d="M54.29,82.16c-.21-.13.1-.72.29-.86.15-.11,1.05-.31,1.22-.12.13.2-.69,1.08-1.03,1.09-.04,0-.46-.09-.48-.1Z"/>
    <path class="cls-39" d="M41.23,40.31c-.46-.21-.14-1.49.37-1.36.25.06.67.75.59.95-.1.25-.72.51-.95.41Z"/>
    <path class="cls-39" d="M29.31,63.62c0-.06.41-.52.49-.59.33-.27,1.12.13,1.1.44s-1,.68-1.32.49c-.09-.05-.28-.26-.27-.34Z"/>
    <path class="cls-39" d="M65.66,33.81c-.26-.11-.69-.59-.48-.85.54-.65,1.81.1,1.17.76-.09.09-.57.14-.69.09Z"/>
    <path class="cls-39" d="M48.18,47.07c0-.15.19-.43.31-.51.17-.11.42.1.45.09.08-.02.09-.46.33-.62.15-.1.81-.07.86.11-.13.65-.83.58-1.19.83-.15.1-.34.38-.41.4-.09.03-.34-.18-.35-.31Z"/>
    <path class="cls-39" d="M38.61,58.29s.31-.2.4-.18c.1.02.39.28.42.38.05.17-.34.5-.45.65-.14-.21-1.16-.54-1.2-.63-.09-.2.04-.45.25-.53.6-.23.45.3.58.32Z"/>
    <path class="cls-39" d="M73.27,44.88c.12.12-.06.26-.06.36.01.17.29.3.04.68-.54.83-1.42.2-.87-.58.27-.38.53-.27.88-.45Z"/>
    <path class="cls-39" d="M60.06,41.54s.04-.41.08-.45c.06-.06.76-.45.84-.46.33-.07.12.15.14.27.05.37.3.78-.15,1.05-.18.11-.85-.21-.92-.41Z"/>
    <path class="cls-39" d="M56.68,82.12s.21-.28.55-.04c.22.15-.32.55-.48.63-.55.29-.86-.26-1.02-.71-.37-1.05.87.12.95.12Z"/>
    <path class="cls-39" d="M58.12,83.9c-.06-.24.42-.32.43-.39,0-.02-.18-.24-.12-.43.14-.51.92.05,1.11.3-.08.18-.36.3-.44.42-.05.08.02.26-.11.34-.09.06-.83-.09-.87-.24ZM58.56,83.74l.19.16.11-.13c-.07-.09-.2-.11-.3-.04Z"/>
    <path class="cls-39" d="M46.95,45.82c-.04-.11.31-.34.31-.38,0-.1-.37-.31-.03-.73.37-.45,1,.11.84.41-.06.11-.23.15-.3.26-.12.17-.21.8-.54.67-.07-.03-.25-.17-.27-.22Z"/>
    <path class="cls-39" d="M74.42,76.62c.7-.06.96,1.66.07,1.2-.59-.3-.66-1.16-.07-1.2Z"/>
    <path class="cls-31" d="M75.07,47.78s.12.47-.21.28c.12-.57-.59-.64-.26-1.15.45-.72,1.24-.03.96.4-.12.19-.42.24-.48.48Z"/>
    <path class="cls-39" d="M45.03,32.24c.01-.1.24-.26.31-.38l.59.71c.15-.39.39-1.09.83-.6-.28.13-.52.97-.71,1.03-.34.11-1.05-.58-1.02-.77Z"/>
    <path class="cls-30" d="M46.7,47.72c0-.22-.23-.28.22-.28l-.03.29c.33,0,.67-.17.92.13-.18.34-.46.11-.68.29l.43.26-.42.62c-.11-.12-.38-.26-.42-.41-.02-.09.09-.21.09-.3,0-.12-.11-.31-.11-.61Z"/>
    <path class="cls-39" d="M47.14,36.42c-.02-.06.11-.43.16-.51.29-.46,1.43,0,.9.63-.27.32-.92.27-1.06-.11Z"/>
    <path class="cls-39" d="M55.35,28.63c-.62.05-.77-1.1,0-1.12.89-.03.58,1.08,0,1.12Z"/>
    <path class="cls-39" d="M73.74,42.69c.4-.14,1.16.73.41,1.08s-1.01-.87-.41-1.08Z"/>
    <path class="cls-39" d="M43.74,57.88l.51.54c.25-.65.56-.68,1.04-.2-.11.09-.49.63-.54.63-.04,0-.28-.28-.41-.33-.17-.07-1.18.36-.61-.64Z"/>
    <path class="cls-39" d="M64.21,44.96c-.5-.33.08-1.21.57-.88.4.27.29,1.44-.57.88Z"/>
    <path class="cls-39" d="M43.58,41.34c.59.14,1.29.75.48,1.16-.66.33-.72-.77-.48-1.16Z"/>
    <path class="cls-39" d="M83.5,53.71c.08-.04.64-.32.76-.42.21-.19.16-.44.3-.51.21-.11.73-.05.75.17.01.12-1.76,1.1-1.99,1.17-.06.02-.15.05-.2,0,.13-.13.21-.32.38-.41Z"/>
    <path class="cls-39" d="M59.65,78.67c-.38-.26-.02-.96.6-.65,1.03.53,0,1.06-.6.65Z"/>
    <path class="cls-31" d="M65.88,84.99c.09.01.2.16.27.22l.47.67c-.42-.22-.56.27-1,.05-.61-.3.08-.97.25-.94Z"/>
    <path class="cls-39" d="M55.84,40.23c-.03-.08.1-.7.05-.85.55-.09,1.17.99.57,1.19-.16.05-.57-.18-.62-.34Z"/>
    <path class="cls-39" d="M48.97,31.05c-.82.14-.54-1.01-.04-.74.44.24.15.61.18.65.11.16.57.31.59.38-.44.16-1.11.44-.73-.29Z"/>
    <path class="cls-31" d="M61.07,77.73c.11,0,.44.64.53.75.08.11.62.35.26.62-.14.1-.24-.18-.36-.21-.19-.04-.31.23-.46-.02-.07-.13-.13-1.14.03-1.15Z"/>
    <path class="cls-39" d="M92.38,56.89c.02-.37,1.43-.8,1.78-.87.12-.02.23-.07.33.05-.57.42-1.14.71-1.84.84-.11.02-.14.16-.26-.02Z"/>
    <path class="cls-39" d="M65.75,41.09s.13.11.21.11c.15,0,.32-.14.41-.02.02.03.07.61.05.64-.11.21-.49-.11-.56-.09-.18.05-.28.57-.46.46s.23-1.09.35-1.1Z"/>
    <path class="cls-39" d="M61.88,39.75c1.01.38.02,2.64.22.51-.16-.1-.25.27-.38.31-.06.02-.43-.2-.43-.24.16-.13.36-.67.6-.58Z"/>
    <path class="cls-39" d="M53.77,84.96c-.45-.32.19-1.18.68-.67.34.35-.29.95-.68.67Z"/>
    <path class="cls-30" d="M57.1,38.73c.16.07.23.33.35.41.03.02.27-.22.33.15.05.31-.44.42-.05.62-.27.28-.25-.26-.51.22-.18.03-.15-1.24-.11-1.4Z"/>
    <path class="cls-39" d="M54.84,47.01s-.2.47-.23.52c-.46.73-1.15.13-.44-.47.14-.12.63-.31.67-.05Z"/>
    <path class="cls-39" d="M73.61,79.26c-.44-.2-.43-1.51.27-1.02.15.11.04,1.16-.27,1.02Z"/>
    <path class="cls-39" d="M56.66,84.83c.28.24-.04.52-.08.8-.03.21.27.68.08.73-.12.03-.58-.16-.59-.39,0-.12.5-1.12.59-1.13Z"/>
    <path class="cls-39" d="M73.24,77.04c.03-.36-.02-.44.4-.68.15.07.08.15.09.26.02.21.13,1.16-.25,1-.45-.19-.26-.33-.24-.58Z"/>
    <path class="cls-39" d="M67.93,34.34c-.45-.19-.28-1.14.35-.84.45.21.01.99-.35.84Z"/>
    <path class="cls-39" d="M77.31,79.88s.11.55-.16.33c-.25-.2-.37-1.64.42-1.38.23.12-.13.45-.19.6-.04.11-.06.33-.06.45Z"/>
    <path class="cls-39" d="M44.49,31.47c0,.14-.05.48-.24.46-1.29-.53.21-1.56.24-.46Z"/>
    <path class="cls-39" d="M69.32,34.98c-.06-.2.49-.87.85-.46.02.02-.03.46-.04.49-.18.41-.71.28-.81-.03Z"/>
    <path class="cls-39" d="M74.93,79.31c.1-.08.17-.23.27-.32.08,0,.56.69.5.81-.24.15-.44.3-.7.1-.21-.16-.06-.33-.07-.6Z"/>
    <path class="cls-39" d="M64.98,37.39c.35-.15.23-.62.27-.7.2-.39.72.63.65.77s-.81.13-.91-.07Z"/>
    <path class="cls-39" d="M52.76,47.12s.04.41.04.44c-.08.47-1.31-.48-.71-.71.17-.07.59.11.67.27Z"/>
    <path class="cls-39" d="M49.11,28.75c-.24-.2,0-.8.48-.61.74.3-.02,1-.48.61Z"/>
    <path class="cls-39" d="M62.93,78.87c.15,0,.73,1.43.68,1.5-.26.34-1.12-1.47-.68-1.5Z"/>
    <path class="cls-39" d="M77.64,77.04c.06-.17.21-.5.39-.54.08-.02.54.24.56.31.12.46-.72.62-.95.23Z"/>
    <path class="cls-39" d="M84.71,50.58c-.66-.12-.23-.98.21-.67.39.28-.11,1.16-.33.89-.1-.11.13-.2.13-.22Z"/>
    <path class="cls-39" d="M87.68,64.84c-.26.49-.67.23-1.08.08-.36-.13.13-.41.38-.4.14,0,.69.22.7.32Z"/>
    <path class="cls-39" d="M57.08,33.39c-.43.56-1.65-.38-.83-.5.36-.05.57.31.83.5Z"/>
    <path class="cls-39" d="M83.73,45.73c0,.07-.84,1.11-1.09.59-.17-.27,1.06-.95,1.09-.59Z"/>
    <path class="cls-39" d="M81.28,79.62s-.11.42-.2.46c-.29.12-.78-.15-.55-.55.19-.34.69-.14.76.09Z"/>
    <path class="cls-39" d="M37.71,53.65c.42,0,.46.64-.15.66-.82.03-.47-.65.15-.66Z"/>
    <path class="cls-39" d="M69.63,44.05c.11.06.14.15.19.25.58,1.09-1.37.83-.19-.25Z"/>
    <path class="cls-39" d="M45.11,76.32c.28-.47.78-.73,1.31-.52-.15.26-.38.33-.64.43-.07.03-.67.26-.67.08Z"/>
    <path class="cls-39" d="M59.73,81.48c.25-.04-.06,1.06-.09,1.15-.12.32-.3.02-.33-.21-.06-.4.15-.68.42-.94Z"/>
    <path class="cls-39" d="M57.12,84.03c.26.12-.07.23,0,.33.16.23.45.19.64.33-.55.71-1.46-.21-.64-.65Z"/>
    <path class="cls-39" d="M52.56,76.27c-.11.02-.27.4-.47.1-.08-.12-.01-.51.11-.59.25-.12.31.2.44.25.09.03.26-.09.35.03.04.55-.33.19-.42.21Z"/>
    <path class="cls-39" d="M52.3,31.48c.26-.38.52-.05.79.03.32.09.68.08.94.36-.48.31-.76-.11-1.11-.27-.16-.07-.47.06-.63-.12Z"/>
    <path class="cls-40" d="M67.61,55.49c.33-.17.02-.54.15-.67.19-.19.58-.03.75.13-.15.08-.21.39-.28.46-.05.05-.17-.05-.25-.04-.11.03-.15.36-.37.12Z"/>
    <path class="cls-39" d="M46.49,44.28c.06.15-.17.73-.49.54-.56-.34.26-1.19.49-.54Z"/>
    <path class="cls-39" d="M44.43,43.91c.01.27-.9.41-.98-.07-.1-.64.97-.02.98.07Z"/>
    <path class="cls-39" d="M74.24,53.6c-.01-.11.11-.49.25-.53.66.17.59.84-.11.76-.06-.03-.13-.16-.14-.24Z"/>
    <path class="cls-39" d="M44.36,50.02c.05-.37,1.11-.53.78.09-.26.5-.8.07-.78-.09Z"/>
    <path class="cls-39" d="M69.65,42.88c-.23.28-.15.77-.29,1.05-.22.44-.3-.21-.27-.45.04-.27.22-.88.56-.6Z"/>
    <path class="cls-39" d="M51.12,30.81c.03.21-.88-.01-.97-.05-.43-.17.36-.53.49-.46.06.03.23.48.48.51Z"/>
    <path class="cls-39" d="M49.71,35.15c.46.07.92.85.27.82-.47-.02-.34-.48-.27-.82Z"/>
    <path class="cls-31" d="M42.96,55.48c.02.26-1.39.4-1.21-.11.26.13.71-.16.87-.13.09.02.34.2.34.24Z"/>
    <path class="cls-31" d="M58.38,37.86c.01-.09-.08-.23-.04-.32.22-.41.45.14.6.22.07.04.5-.07.36.17-.01.03-.51.23-.54.23-.11-.02-.26-.23-.38-.3Z"/>
    <path class="cls-30" d="M55.69,83.03c.21-.45,1.06.01.93.31-.18.41-.76-.12-.93-.31Z"/>
    <path class="cls-40" d="M79.04,62.6c-.14.23-.39.14-.6.27-.19.12-.22.46-.38.31l-.11-.69c.38-.09.71.16,1.09.12Z"/>
    <path class="cls-39" d="M57.19,41.61c-.1-.07-.06-.12-.06-.21.06-.78.83-.41.59.19-.09.11-.43.09-.53.02Z"/>
    <path class="cls-39" d="M64.3,78.29c-.03-.1.61-1.86.58-.9,0,.29-.39,1.48-.58.9Z"/>
    <path class="cls-39" d="M87.8,65.61c.53.07-.16.26-.15.29l.24.1c-.19.42-.67.06-1.03,0l.04-.24c.26.17.85-.15.9-.15Z"/>
    <path class="cls-39" d="M75.95,67.9l.43,1.28c-.52.29-.67-1.24-.43-1.28Z"/>
    <path class="cls-39" d="M42.58,47.12c-.15.56-1.22-.23-1.06-.41.12-.14.93.27,1.06.41Z"/>
    <path class="cls-39" d="M66.65,40.3c-.01-.19.22-.42.34-.55.86.63-.3,1.13-.34.55Z"/>
    <path class="cls-39" d="M60.96,36.02c-.16-.08-.23-.37-.2-.54,1-.4.74.8.2.54Z"/>
    <path class="cls-39" d="M49.51,74.85c.14-.14.34-.25.54-.25.76.03.13,1.09-.54.25Z"/>
    <path class="cls-43" d="M76.11,51.64s.23.17.24.21c.03.14-.51.85-.72.67-.14-.12.3-.87.49-.88Z"/>
    <path class="cls-40" d="M40.8,48.73c0-.17.18-.37.28-.49.11.12.44.3.43.47-.02.25-.68.45-.71.03Z"/>
    <path class="cls-39" d="M63.72,90.2c.33.26.42.43.02.67-.56.33-.54-.52-.02-.67Z"/>
    <path class="cls-39" d="M67.86,40.38c.51-.45,1.18.1.51.54l-.51-.54Z"/>
    <path class="cls-39" d="M58.01,33.96c-.17.33-1.08.16-.92-.19s.79-.03.92.19Z"/>
    <path class="cls-40" d="M75.43,70.06c-.02-.06.17-.44.34-.42.14.02.63.46.89.49-.23.59-.62-.25-.78-.23-.06,0-.32.56-.45.15Z"/>
    <path class="cls-39" d="M75.8,47.14c.51.11.12.77-.05.82-.06.02-.37-.13-.35-.28.02-.17.3-.38.4-.53Z"/>
    <path class="cls-39" d="M47.61,31.92c-.09-.55.87-.44.54.33-.22.13-.51-.13-.54-.33Z"/>
    <path class="cls-39" d="M78.69,54.47s.07-.21.12-.22c.05,0,.8.11.87.2-.19.02-.45.45-.49.45-.03,0-.49-.4-.49-.43Z"/>
    <path class="cls-39" d="M58.33,81.59c.08,0,.39.49.38.55-.09.54-1.14-.04-.38-.55Z"/>
    <path class="cls-39" d="M68.37,45.93c.1-.03.69.27.37.55-.44.39-.88-.39-.37-.55Z"/>
    <path class="cls-31" d="M48.1,43.56c-.04-.47.9.55.93.57-.1.15-.31.14-.44.06-.1-.06-.48-.59-.49-.63Z"/>
    <path class="cls-39" d="M88.98,56.93c-.12.37-1.45.28-1.15-.05.04-.04,1.14-.09,1.15.05Z"/>
    <path class="cls-39" d="M78.82,77.32c.17,0,.37.18.49.28-.54.92-1.02-.26-.49-.28Z"/>
    <path class="cls-31" d="M68.79,81.04s.25-.73.35-.79c.24.21.3.82-.07.92-.1.03-.26-.07-.27-.13Z"/>
    <path class="cls-39" d="M40.35,58.92c.1.32-.6.41-.72.09,0-.5.61-.44.72-.09Z"/>
    <path class="cls-39" d="M59.89,39.79c.07-.02.61.36.62.42-.47.68-1.03-.31-.62-.42Z"/>
    <path class="cls-31" d="M79.18,57.25s.04-.08.03-.12c-.03-.09-.14-.15-.14-.16-.02-.21,1.1-.47.44.05l.43-.06c-.21.16-.62.64-.76.29Z"/>
    <path class="cls-39" d="M85.75,67.87c.46-.16.99.02,1.37.3.04.28-1.28-.19-1.37-.3Z"/>
    <path class="cls-39" d="M75.46,72.69c.36-.31.75.24,1.03.44-.26.43-.72-.28-1.03-.44Z"/>
    <path class="cls-39" d="M72.21,44.08c.21-.02.25.82.05.91-.03.01-.23.02-.24.02-.08-.07-.04-.85.19-.92Z"/>
    <path class="cls-40" d="M64.38,88.47c-.14-.1-.56-1.41-.02-.88.19.19.34,1.12.02.88Z"/>
    <path class="cls-39" d="M48.3,30.04c-.55-.02-.51.36-.67.39-.18.04-.35-.27-.13-.45.02-.02.47-.23.5-.24.15-.03.23.17.29.18.16,0,.16.05,0,.12Z"/>
    <path class="cls-39" d="M48.97,47.77c.56-.86,1.08-.42.32.27l-.32-.27Z"/>
    <path class="cls-39" d="M65.97,75.92c.28.14.23.43.32.65.02.05.28.18.19.27-.31.33-.82-.6-.51-.93Z"/>
    <path class="cls-40" d="M50.79,76.15c.38.24.41.51.07.82-.38-.24-.41-.51-.07-.82Z"/>
    <path class="cls-40" d="M54.33,33.43s.19.15.17.25c-.01.07-.15.1-.19.19-.05.1-.09.51-.25.52-.03,0-.21-.17-.23-.24-.01-.04.46-.71.51-.72Z"/>
    <path class="cls-39" d="M51.81,77.89l.44.38c-.42.52-1.11.2-.44-.38Z"/>
    <path class="cls-40" d="M57.52,45.38s.09.04.1.11c0,.03-.09.49-.1.51-.1.24-.7.41-.54.04.09-.2.39-.46.54-.66Z"/>
    <path class="cls-40" d="M46.51,57.3c.21-.39.53-.32.87-.13-.21.35-.59.44-.87.13Z"/>
    <path class="cls-39" d="M31.95,63.7c-.02-.1,1.14-.29,1.27-.22-.11.25-1.22.55-1.27.22Z"/>
    <path class="cls-39" d="M47.46,43.91s.02.33.02.35c-.09.38-.32.22-.48-.05-.28-.46.36-.56.46-.3Z"/>
    <path class="cls-39" d="M75.67,70.27c.18,0,.52,1.07.08,1.05-.23-.01-.16-.88-.08-1.05Z"/>
    <path class="cls-40" d="M78.96,76.11c.11.32.46-.18.48.08,0,.07-.29.35.02.61-.34.17-.83-.43-.5-.69Z"/>
    <path class="cls-40" d="M74.93,79.31c-.47.39-.82-.3-.28-.56.27.17.26.3.28.56Z"/>
    <path class="cls-40" d="M77.02,66.64c.57.34.18,1.04-.29.46l.29-.46Z"/>
    <path class="cls-39" d="M77.73,47.04l.78-.09.33.06c-.3.42-.78.4-1.11.03Z"/>
    <path class="cls-39" d="M46.47,50.21c.06-.05.18-.25.21-.25.05,0,.62.56.76.64-.38.15-.72-.16-.97-.39Z"/>
    <path class="cls-39" d="M35.73,51.75c.38-.03.5.45.07.53s-.52-.5-.07-.53Z"/>
    <g>
      <path class="cls-39" d="M75.02,83.29s.26.16.24.3-.27.28-.2.48c.18.04.44-.3.53-.29.05,0,.31.23.31.25,0,.05-.45.65-.52.75.21.09,1.35.25,1.38.42,0,.01-.09.2-.13.22-.14.07-.43-.06-.48-.02-.09.08-.15.45-.34.67-.13.15-.7.51-.69.55,0,.08.28.09.11.24-.5.44-1.73.48-2.21-.01-.17-.18-.04-.47-.2-.66-.31-.39-1.18-.82-1.38-1.12-.27-.39-.35-1.43-.15-1.87.46-1.01,1.44-1.42,2.49-1.22.19.04.36.17.54.2.4.07,1.09-.35,1.23.14s-.53.9-.53.95Z"/>
      <path class="cls-39" d="M71.13,82.03c-.75-.41-.76-1.2.18-1.4,1.48-.3,1.02,2.06-.18,1.4Z"/>
      <path class="cls-39" d="M71.54,80.11c.3-.66,1.38-.46.92.19-.29.41-.58,0-.92-.19Z"/>
      <path class="cls-31" d="M72.82,80.01c-.23-.05-.51-.75-.34-.88.33-.25.48.68.34.88Z"/>
    </g>
    <path class="cls-39" d="M74.78,69.82c-.46-.25-.25-.68.15-.4.45.31.27.63-.15.4Z"/>
    <path class="cls-39" d="M70.89,48.47c0-.17.18-.37.28-.49.48.21.28.73-.19.68-.03-.05-.09-.13-.09-.18Z"/>
    <path class="cls-39" d="M52.03,45.71s.28.11.29.15-.09.65-.13.69c-.25.22-.41-.77-.16-.83Z"/>
    <path class="cls-40" d="M53.96,36.81c0-.06.23-.15.28-.23.04-.07-.01-.22.06-.29.12-.11.72.26.27.44-.08.03-.61.23-.61.08Z"/>
    <path class="cls-39" d="M68.66,36.38c0-.07.33-.73.41-.74.26.17.28.24.1.49-.06.08-.48.51-.51.24Z"/>
    <path class="cls-31" d="M75.11,78.59c-.09.66-.58-.33-.75-.53.34-.32.43.3.75.53Z"/>
    <path class="cls-39" d="M76.37,75.97c.1-.43.84.23.84.28,0,.03-.12.15-.19.17-.18.04-.49-.34-.65-.45Z"/>
    <path class="cls-31" d="M63.92,43.87c.15.1.17.13.15.31-.12.81-.98.1-.15-.31Z"/>
    <path class="cls-27" d="M76.11,74.99c-.01-.22.3-.1.32-.11.08-.1,0-.39.11-.39.13,0,.25.47.25.6-.09.18-.67.02-.68-.09Z"/>
    <path class="cls-33" d="M74.03,54.32s.12-.13.16-.19c.29.43.14.19.45.11.12-.03.3-.05.39.06-.08.51-.99.18-.99.02Z"/>
    <path class="cls-39" d="M85.74,59.07c.02.19-.85.25-.89.22-.24-.19.76-.61.89-.22Z"/>
    <path class="cls-31" d="M48.84,49.08l.44-.39c.44.39-.02.92-.44.39Z"/>
    <path class="cls-39" d="M86.19,48.06c-.02.09-.19.22-.25.31-.96-.72.32-.72.25-.31Z"/>
    <path class="cls-39" d="M83.47,66.47l.32-.38c.95.66-.3.67-.32.38Z"/>
    <path class="cls-27" d="M74.69,74.87l.38.32c-.36.6-.91.13-.38-.32Z"/>
    <path class="cls-31" d="M85.35,69.49c.02.29-.55.03-.68-.04-.08-.04-.28-.06-.19-.22.12-.21.86.12.87.25Z"/>
    <path class="cls-39" d="M67,37.69c.14-.01.42.51.08.61-.56.17-.32-.6-.08-.61Z"/>
    <path class="cls-39" d="M57,38.2c-.17.3-.89.19-.74-.15.13-.31.59.04.74.15Z"/>
    <path class="cls-39" d="M45.43,30.09c-.31-.03-.36-.75.11-.53.41.19.05.55-.11.53Z"/>
    <path class="cls-39" d="M78,48.13c.34.21.08.44-.12.65-.51-.38-.28-.39.12-.65Z"/>
    <path class="cls-30" d="M72.74,38.23c-.3.03-.13-.84.26-.75.09.18-.11.74-.26.75Z"/>
    <path class="cls-39" d="M43.11,56.58c.1-.29.83-.22.68.09-.14.28-.54.11-.68-.09Z"/>
    <path class="cls-39" d="M70.78,49.6c.26-.21.34-.3.42-.62l.38.32c-.22.09-.56.5-.8.3Z"/>
    <path class="cls-31" d="M42.25,57.59c.1,0,.67.57.42.79-.22-.19-.68-.43-.42-.79Z"/>
    <path class="cls-39" d="M47.36,32.82c.24-.37.4-.38.7-.06-.2.31-.46.32-.7.06Z"/>
    <path class="cls-39" d="M85.22,70.79c.43-.21.63.1.93.22.16.06.32-.07.45.08h-.85s-.52-.3-.52-.3Z"/>
    <path class="cls-39" d="M34.67,67.65c.2.27-.47.76-.63.55-.22-.28.56-.39.63-.55Z"/>
    <path class="cls-40" d="M48.96,30.17c.15-.15,1.02.02.87.25-.33.16-.64,0-.87-.25Z"/>
    <path class="cls-31" d="M53.39,69.25c.02.05-.15.36-.19.37-.2-.04-.41-.54-.32-.65.08-.1.46.17.5.28Z"/>
    <path class="cls-27" d="M52.96,22.27c.07-.18.05-.4.25-.55.24.12.28.7-.04.68-.1,0-.16-.11-.21-.13Z"/>
    <path class="cls-40" d="M49.49,36.05c-.16-.09-.52-.6-.33-.76.15-.13.18.09.23.16.11.17.28.43.1.61Z"/>
    <path class="cls-39" d="M79.99,64.49c-.26-.12-.15-.65.14-.53.41.18.08.62-.14.53Z"/>
    <path class="cls-43" d="M75.11,78.59c.01-.11-.14-.23.11-.38.46-.26.53.85-.11.38Z"/>
    <path class="cls-39" d="M60.71,31.68c0-.05.21-.23.26-.32.36.1.37.68.02.62-.02,0-.28-.28-.28-.3Z"/>
    <path class="cls-40" d="M62.35,41.12c.57.33-.19,1.02-.23.46-.01-.16.12-.35.23-.46Z"/>
    <path class="cls-39" d="M62.78,46.48c.24-.37.4-.38.7-.06-.17.34-.42.2-.7.06Z"/>
    <path class="cls-39" d="M79.37,47.35c-.32-.16.15-.75.44-.39.14.17-.33.44-.44.39Z"/>
    <path class="cls-39" d="M81.4,49.62c.13-.26.3-.26.55-.14.46.24-.34.51-.55.14Z"/>
    <path class="cls-39" d="M67.81,40.56c.03.1-.42.62-.55.13-.09-.32.47-.43.55-.13Z"/>
    <path class="cls-39" d="M65.56,75.14c-.05-.04-.3-.08-.31-.15,0-.2.35-.19.47-.04-.04.07-.13.13-.16.19.33.25.09.87-.15.74-.2-.11.08-.62.15-.74Z"/>
    <path class="cls-40" d="M82.57,68.42c.39-.33.38-.41.76,0-.29.13-.51.32-.76,0Z"/>
    <path class="cls-39" d="M49.93,48.36c-.29-.12-.28-.48.08-.45.49.04.17.55-.08.45Z"/>
    <path class="cls-43" d="M86.66,60.93l.62-.13c.36.03.14.4-.22.35-.16-.02-.29-.11-.4-.22Z"/>
    <path class="cls-39" d="M50.22,31.24c-.03-.32.92-.29.51.11-.21.2-.5.04-.51-.11Z"/>
    <path class="cls-39" d="M34.13,61c0-.12.45-.44.59-.25.23.3-.58.55-.59.25Z"/>
    <path class="cls-43" d="M58.18,33.12c.32.22.16.64-.22.57-.22-.12.11-.47.22-.57Z"/>
    <path class="cls-43" d="M64.17,79.36c-.01-.34.4-.85.38-.23-.02.46-.37.59-.38.23Z"/>
    <path class="cls-44" d="M82.35,49.78l.32.27-.32.38c-.27-.18-.21-.45,0-.65Z"/>
    <path class="cls-39" d="M55.42,41.85c.16-.27.47.05.59.04.07,0,.14-.14.31-.13.08,0,.52.18.52.21.01.38-.66-.01-.73-.02-.2-.03-.45.25-.68-.1Z"/>
    <path class="cls-44" d="M59.14,36.98l.25.21c-.44.74-.82.32-.25-.21Z"/>
    <path class="cls-39" d="M68.59,50.77c.05-.35.67.01.56.22-.19.35-.58-.11-.56-.22Z"/>
    <path class="cls-43" d="M60.51,77.36c.08.05.5.43.31.53-.36.19-.57-.26-.31-.53Z"/>
    <path class="cls-39" d="M52.71,38.79s.49.26.49.31c-.45.57-.7-.26-.49-.31Z"/>
    <path class="cls-39" d="M45.45,31.74s.41-.52.52-.42c.08.07-.06.45-.19.53s-.33-.04-.33-.11Z"/>
    <path class="cls-39" d="M32.96,53.7l.72.18c.01.25-1.09.27-.72-.18Z"/>
    <path class="cls-39" d="M64.52,46.96c-.51.03-.21-.59.05-.47.2.09.22.45-.05.47Z"/>
    <path class="cls-43" d="M67.03,38.8c.08-.05.36-.58.47-.36.16.31-.18.81-.47.36Z"/>
    <path class="cls-39" d="M76.22,42.82c-.03-.2,1.11-.19.38.31l-.38-.31Z"/>
    <path class="cls-26" d="M47.49,46.07c.08-.05.36-.58.47-.36.16.31-.13.72-.47.36Z"/>
    <path class="cls-39" d="M64.52,36.78c-.18.34-.58.09-.57-.22.12-.22.47.11.57.22Z"/>
    <path class="cls-39" d="M58.38,37.86c-.04.25-.08.37-.31.49-.2,0-.15-.79.31-.49Z"/>
    <path class="cls-39" d="M87.09,50.98l.27-.32c.91.61-.26.51-.27.32Z"/>
    <path class="cls-39" d="M54.79,76.97s.57,0,.46.2c-.07.12-.55.16-.69.11-.02-.1.17-.29.24-.32Z"/>
    <path class="cls-39" d="M51.95,75.18c.29-.67,1.16-.4.26,0-.12.06-.12.17-.26,0Z"/>
    <polygon class="cls-39" points="53.65 39.59 54.02 39.36 54.16 39.75 53.65 39.59"/>
    <path class="cls-39" d="M43.87,55.05c-.11.3-.69.18-.56-.1s.43-.05.56.1Z"/>
    <path class="cls-42" d="M76.42,72.32c.65.33.23.95-.06.33-.05-.1-.03-.25.06-.33Z"/>
    <path class="cls-39" d="M61.97,35.69c-.03-.25.7-.2.56.1s-.55-.01-.56-.1Z"/>
    <path class="cls-39" d="M60.2,39.3c.12-.03.73.29.4.55-.11-.05-.74-.48-.4-.55Z"/>
    <path class="cls-39" d="M67.28,79.75c-.02-.06.24-.37.35-.35.34.53-.25.71-.35.35Z"/>
    <path class="cls-39" d="M77.27,41.32c-.37.31-.54-.03-.53-.4l.53.4Z"/>
    <path class="cls-43" d="M57.52,45.38c-.14-.35-.12-.4.18-.72.26.25-.03.53-.18.72Z"/>
    <path class="cls-39" d="M85.17,61.4l.31.27c-.46.39-.81.27-.31-.27Z"/>
    <path class="cls-39" d="M48.87,32.7c-.05.08-.4.43-.48.24-.13-.3.21-.64.48-.24Z"/>
    <path class="cls-39" d="M57.61,75.57c.46-.03.3.52-.06.42-.14-.04-.24-.4.06-.42Z"/>
    <path class="cls-39" d="M75.3,68.54c-.03-.31.63-.15.52.28-.05.21-.52-.25-.52-.28Z"/>
    <path class="cls-39" d="M63.78,84.8c-.4-.19.12-.54.33-.24.13.18-.15.33-.33.24Z"/>
    <path class="cls-39" d="M73.3,53.91c.5.25.04.73-.17.39-.08-.12.08-.31.17-.39Z"/>
    <path class="cls-39" d="M43.96,47.53c-.03-.28.57-.12.59.07.03.28-.57.12-.59-.07Z"/>
    <path class="cls-39" d="M46.53,45.15c.25-.03.21.69-.16.51-.21-.1.1-.5.16-.51Z"/>
    <path class="cls-42" d="M51.43,30.97c.12-.23.68.01.57.22-.12.23-.49-.13-.57-.22Z"/>
    <path class="cls-39" d="M57.82,88.09c-.02-.06.19-.42.24-.43.32.23-.06.98-.24.43Z"/>
    <path class="cls-39" d="M54.32,76.22c-.02-.35.87-.21.32.27-.06-.07-.31-.24-.32-.27Z"/>
    <path class="cls-39" d="M58.85,32.38c-.31-.22.38-.68.36.05-.03.03-.31,0-.36-.05Z"/>
    <path class="cls-39" d="M69.82,49.32c.12-.15.31-.49.53-.31.14.11-.42.66-.53.31Z"/>
    <path class="cls-39" d="M53.85,47.91c.2-.04.05.72-.22.57-.22-.12.11-.47.22-.57Z"/>
    <path class="cls-39" d="M80.44,74.11c.05.08.58.36.36.47-.28.15-.57-.2-.36-.47Z"/>
    <path class="cls-19" d="M37.88,40.51c-.02-.12.64-.34.56.1-.15.12-.54.08-.56-.1Z"/>
    <path class="cls-39" d="M55.13,46.28c.63.16.02.81-.13.27-.04-.13.05-.19.13-.27Z"/>
    <path class="cls-39" d="M75.11,48.07c.14-.22.3-.23.47-.04l-.2.48c-.05-.19-.09-.34-.27-.45Z"/>
    <path class="cls-39" d="M74.39,47.78c-.07.04-.37.58-.47.36-.11-.26.21-.58.47-.36Z"/>
    <path class="cls-39" d="M75.07,76.6c.17-.29.49-.35.5.05l-.5-.05Z"/>
    <path class="cls-39" d="M55.73,77.72c-.24.01-.31-.29-.18-.4.2-.16.62.37.18.4Z"/>
    <path class="cls-39" d="M63.37,28.42c.22-.01.23.55,0,.64-.19-.07-.09-.64,0-.64Z"/>
    <path class="cls-39" d="M37.31,40.67c-.02-.17.69-.08.71.06.02.18-.64.12-.71-.06Z"/>
    <path class="cls-39" d="M84.78,62.38c-.02-.23.58-.17.58-.05,0,.26-.56.29-.58.05Z"/>
    <path class="cls-39" d="M47,37.19c.19.08.38.17.41.41-.28.09-.65-.1-.41-.41Z"/>
    <path class="cls-39" d="M79.31,56.42c-.01-.13.43-.48.57-.16-.08.14-.55.46-.57.16Z"/>
    <path class="cls-26" d="M58.19,45.62s-.19-.14-.19-.16c0-.03.35-.44.38-.44.02,0,.13.12.19.16-.13.14-.24.31-.38.44Z"/>
    <path class="cls-33" d="M79.96,55.02s-.53.28-.59.37c-.12-.35.55-.7.59-.37Z"/>
    <path class="cls-23" d="M39.77,44.61c-.08-.08.02-.32.21-.23.12.05.35.28.26.37-.04.05-.45-.11-.48-.14Z"/>
    <path class="cls-39" d="M74.16,80.61c.2-.01.24.57.05.58s-.24-.57-.05-.58Z"/>
    <path class="cls-27" d="M69.47,75.64c-.01.32-.64-.09-.35-.35.14-.13.35.33.35.35Z"/>
    <path class="cls-39" d="M80.05,53.89c.39-.41.74-.27.25.21l-.25-.21Z"/>
    <path class="cls-39" d="M39.67,46.7c.13-.38.63-.21.5.05-.08.15-.5.02-.5-.05Z"/>
    <path class="cls-39" d="M84.83,63.72c-.02-.13.58-.17.58-.05,0,.26-.55.29-.58.05Z"/>
    <path class="cls-27" d="M82.07,68.76c.27-.43.88.04.33.12-.07,0-.33-.06-.33-.12Z"/>
    <path class="cls-43" d="M64.34,38.14l.3.41c-.35.11-.49-.12-.3-.41Z"/>
    <path class="cls-39" d="M40.1,41.09c0-.35.63-.18.5.05-.1.16-.5.05-.5-.05Z"/>
    <path class="cls-35" d="M52.5,37.63s.37.46.16.57c-.22-.16-.44-.34-.16-.57Z"/>
    <path class="cls-39" d="M43.52,32.27c-.14-.06-.22-.18-.2-.33.15-.02.3-.05.42.08.06.17-.06.31-.21.25Z"/>
    <path class="cls-39" d="M46.38,46.99c.11,0,.38.22.06.42-.34.21-.27-.4-.06-.42Z"/>
    <path class="cls-39" d="M64.16,42.56c.36-.43.74-.19.25.21l-.25-.21Z"/>
    <path class="cls-39" d="M55.22,32.77c-.01-.2.48-.21.58-.05-.06.23-.57.22-.58.05Z"/>
    <path class="cls-39" d="M77.76,72.8c-.01-.1.36-.14.43-.12.4.1-.16.52-.43.12Z"/>
    <path class="cls-4" d="M73.05,42.84c.26.15-.08.46-.19.6l.19-.6Z"/>
    <path class="cls-34" d="M64.28,34.51c.14-.13.54-.47.57-.16,0,.04-.47.49-.57.16Z"/>
    <path class="cls-44" d="M45.23,38.51c.08,0,.35.3.18.42-.26.2-.45-.4-.18-.42Z"/>
    <path class="cls-39" d="M69.17,40.63c-.27.02-.18-.6.11-.45.18.1-.04.44-.11.45Z"/>
    <path class="cls-34" d="M82.63,59.03s.12-.13.16-.19l.38.32c-.1.25-.53-.05-.54-.13Z"/>
    <path class="cls-39" d="M70.22,48.47c-.07.13-.42.34-.54.19-.18-.23.44-.31.54-.19Z"/>
    <path class="cls-27" d="M82.16,65.58l.31.27-.28.2c-.22-.13-.23-.29-.04-.47Z"/>
    <path class="cls-31" d="M47.59,37.91c-.02-.27.52-.1.53.02.02.24-.51.17-.53-.02Z"/>
    <path class="cls-42" d="M53.29,75.89s.2-.25.21-.25c.06,0,.31.27.23.36-.12.15-.44.01-.45-.11Z"/>
    <path class="cls-26" d="M58.18,80.49c.08,0,.35.3.18.42-.26.2-.45-.4-.18-.42Z"/>
    <path class="cls-30" d="M63.24,41.99c-.02-.24.45-.28.47-.04s-.45.28-.47.04Z"/>
    <path class="cls-39" d="M78.6,55.27c-.09-.05-.11-.23-.02-.29l.35.03c.07.28-.11.25-.33.26Z"/>
    <path class="cls-39" d="M64.83,37.69c.13,0,.3.56-.05.5l.05-.5Z"/>
    <path class="cls-44" d="M73.86,79.81c-.02-.24.45-.28.47-.04s-.45.28-.47.04Z"/>
    <path class="cls-42" d="M52.19,73.87c-.02-.24.45-.28.47-.04s-.45.28-.47.04Z"/>
    <path class="cls-44" d="M63.12,47.1l.21-.25.32.27c-.06.19-.53.06-.53-.02Z"/>
    <path class="cls-39" d="M57.86,42.95c.24-.32.38-.15.39.17-.22.21-.25-.05-.39-.17Z"/>
    <path class="cls-39" d="M49.5,77.56c.37.05,0,.48-.18.38-.22-.12.07-.4.18-.38Z"/>
    <path class="cls-39" d="M57.08,23.82c.13-.01.27.43.1.52-.24-.07-.31-.5-.1-.52Z"/>
    <path class="cls-39" d="M53.1,49.44c.02.27-.57.28-.44,0,.11-.23.43-.12.44,0Z"/>
    <path class="cls-39" d="M54.75,80.82c-.01-.11.3-.21.42-.18.05.18-.05.27-.17.39-.05-.06-.25-.18-.25-.21Z"/>
    <path class="cls-43" d="M75.15,75.48c-.02-.24.45-.28.47-.04s-.45.28-.47.04Z"/>
    <path class="cls-39" d="M78.71,48.96c.08-.11.22-.28.36-.23.37.13-.14.47-.36.23Z"/>
    <path class="cls-39" d="M55.6,37.88c-.2-.11.02-.46.21-.37.2.11-.02.46-.21.37Z"/>
    <path class="cls-34" d="M39.93,57.89c0-.05.22-.38.37-.12.18.33-.35.39-.37.12Z"/>
    <path class="cls-35" d="M47.66,46.77l.19.16-.32.38c-.11-.2-.03-.39.13-.54Z"/>
    <path class="cls-26" d="M73,40.08c0-.05.22-.38.37-.12.18.33-.35.39-.37.12Z"/>
    <path class="cls-31" d="M45.5,41.13c-.02-.18.53-.13.59.07-.11.09-.57.08-.59-.07Z"/>
    <path class="cls-39" d="M78.98,65.48c.06-.1.15-.12.25-.11.52.03.13.53-.25.11Z"/>
    <path class="cls-39" d="M45.85,43.27c-.02-.3.6-.1.45.11-.12.16-.44,0-.45-.11Z"/>
    <path class="cls-39" d="M37.36,70.48c-.23-.02-.06-.52.17-.39s-.08.4-.17.39Z"/>
    <path class="cls-39" d="M77.52,43.71c.4.05-.02.37-.2.48-.14-.14.08-.5.2-.48Z"/>
    <path class="cls-39" d="M54.07,46.25s.12-.13.16-.19l.32.27c-.11.22-.49.08-.47-.08Z"/>
    <path class="cls-39" d="M38.28,39.66c-.24-.02-.22-.51.06-.38s.06.39-.06.38Z"/>
    <path class="cls-39" d="M42.41,63.15c-.24-.02-.22-.51.06-.38s.06.39-.06.38Z"/>
    <path class="cls-27" d="M77.24,66.39c-.02-.24.44-.28.47-.04.02.19-.45.23-.47.04Z"/>
    <path class="cls-39" d="M86.71,51.42s.16-.19.15-.31c.59.41-.11.57-.15.31Z"/>
    <path class="cls-30" d="M70.06,45.08c.2-.01.27.52-.11.45-.05-.11,0-.44.11-.45Z"/>
    <path class="cls-39" d="M67.14,45.96c.01.2-.52.27-.45-.11.11-.05.44,0,.45.11Z"/>
    <path class="cls-39" d="M57.52,37.34c.31.17.34.56-.06.39-.01-.15-.07-.29.06-.39Z"/>
    <path class="cls-39" d="M51.73,47.73c-.01-.2.52-.27.45.11-.11.05-.44,0-.45-.11Z"/>
    <path class="cls-39" d="M78.14,49.88c.12-.19.29-.29.51-.22l-.32.38-.19-.16Z"/>
    <path class="cls-39" d="M54.6,37.46c-.02-.19.45-.23.47-.04.02.24-.44.28-.47.04Z"/>
    <path class="cls-39" d="M55.67,79.87c-.06.12-.3.34-.42.18-.16-.22.42-.34.42-.18Z"/>
    <path class="cls-36" d="M71.97,48.44c-.08.07-.14.18-.21.25l-.07-.43.33.12c.04.06.02.08-.05.06Z"/>
    <path class="cls-39" d="M50.53,27.81c0,.05-.22.38-.37.12-.17-.3.35-.31.37-.12Z"/>
    <path class="cls-39" d="M77.41,42.31c-.11.12-.34.34-.42.18-.14-.25.28-.35.42-.18Z"/>
    <path class="cls-39" d="M84.6,48.86c-.13-.11.17-.47.33-.26s-.25.32-.33.26Z"/>
    <path class="cls-39" d="M57.17,83.53c-.31-.15-.05-.41.15-.3.18.09.04.39-.15.3Z"/>
    <path class="cls-39" d="M36.85,55.38c-.03.33-.65.08-.28-.18.11-.08.28.12.28.18Z"/>
    <path class="cls-25" d="M33.8,50.29c.15-.21.33-.07.47.08l-.16.19-.32-.27Z"/>
    <path class="cls-39" d="M36.83,50.81c-.3.53-.77-.1-.09-.08l.09.08Z"/>
    <path class="cls-39" d="M44.67,33.68l.16-.19.32.27c-.15.21-.33.07-.47-.08Z"/>
    <path class="cls-18" d="M65.5,83.01s.1-.3.14-.3l.25.21c-.11.19-.3.36-.39.09Z"/>
    <path class="cls-34" d="M59.1,40.85c.17-.23.38-.02.54.13-.2.11-.39.03-.54-.13Z"/>
    <path class="cls-39" d="M57.34,82.05c-.13-.11.17-.47.33-.26s-.25.32-.33.26Z"/>
    <path class="cls-43" d="M51.84,33.81c0-.05.22-.38.37-.12.17.3-.35.31-.37.12Z"/>
    <path class="cls-39" d="M50.29,47.37s.1-.16.1-.24c.68.3-.03.53-.1.24Z"/>
    <path class="cls-43" d="M51.97,48.59l-.16.19c-.14-.1-.26-.18-.23-.36.18-.05.27.05.39.17Z"/>
    <path class="cls-39" d="M78.09,60.16s.26-.19.28-.19c.37.06.01.55-.28.19Z"/>
    <path class="cls-39" d="M46.18,33.56c0,.09-.31.15-.37.12-.28-.15.16-.42.37-.12Z"/>
    <path class="cls-34" d="M84.19,57.2l.27-.32.19.16c-.14.14-.33.35-.46.15Z"/>
    <path class="cls-26" d="M88.38,69.89c0-.16.51-.14.53.02s-.52.09-.53-.02Z"/>
    <path class="cls-26" d="M69.85,45.44c-.08.09-.15.2-.24.27-.29.19-.24-.43.24-.27Z"/>
    <path class="cls-44" d="M69.31,76.48c.05.06.42.38.24.48-.23.13-.3-.37-.24-.48Z"/>
    <path class="cls-39" d="M47.85,71.69c.16-.33.64-.14.39.06-.06.04-.38.03-.39-.06Z"/>
    <path class="cls-39" d="M43.89,67.67c0-.08.26-.26.37-.12.19.25-.35.34-.37.12Z"/>
    <path class="cls-28" d="M58.53,26.58c.12,0,.37.33.09.4-.23.06-.3-.39-.09-.4Z"/>
    <path class="cls-26" d="M41.67,64.15l.27-.32.19.16c-.14.14-.33.35-.46.15Z"/>
    <path class="cls-43" d="M81.69,50.3c.21-.19.28-.1.48.08-.17.23-.32.04-.48-.08Z"/>
    <path class="cls-3" d="M48.3,29.93s.42-.29.38,0c-.05.33-.19.12-.37.12v-.12Z"/>
    <path class="cls-34" d="M78.18,70.77c.15-.28.38.17.55.25l-.55-.25Z"/>
    <path class="cls-37" d="M80.12,56.24c.12-.17.28-.34.46-.15-.12.17-.28.34-.46.15Z"/>
    <path class="cls-34" d="M66.4,79s.22-.38.37-.12c.14.24-.35.34-.37.12Z"/>
    <path class="cls-39" d="M68.28,49.97c-.01-.15.36-.26.47-.04-.09.17-.45.23-.47.04Z"/>
    <path class="cls-39" d="M66.56,41.01c-.02-.23.53-.22.38.06-.08.16-.38.03-.38-.06Z"/>
    <path class="cls-5" d="M85.67,66.82c-.02-.11.83-.51.19.16-.04-.05-.18-.13-.19-.16Z"/>
    <rect class="cls-4" x="57.75" y="32.99" width=".33" height=".25" transform="translate(-4.83 55.77) rotate(-49.61)"/>
    <path class="cls-21" d="M64.47,91.48s.17-.18.21-.25c.38.41-.2.48-.21.25Z"/>
    <rect class="cls-6" x="33.34" y="43.49" width=".25" height=".33" transform="translate(-21.47 40.86) rotate(-49.61)"/>
    <path class="cls-39" d="M66.82,76.53c-.18-.1-.02-.4.15-.3s.02.4-.15.3Z"/>
    <rect class="cls-39" x="48.73" y="48.57" width=".33" height=".25" transform="translate(-19.87 54.39) rotate(-49.61)"/>
    <path class="cls-39" d="M65.01,38.5c.24,0,.03.65-.18.28-.07-.12.12-.28.18-.28Z"/>
    <path class="cls-39" d="M62.46,74.24c-.18-.1-.02-.4.15-.3s.02.4-.15.3Z"/>
    <path class="cls-39" d="M55.78,30.32c.06-.15.46-.14.47-.04-.14.22-.3.23-.47.04Z"/>
    <path class="cls-39" d="M66.11,80.49c.14-.22.3-.23.47-.04-.06.15-.46.14-.47.04Z"/>
    <path class="cls-39" d="M64.21,43.79c.09-.07.03-.41.14-.42.17-.02.16.73-.14.42Z"/>
    <path class="cls-31" d="M69.07,48.79c.21.13.23.29.04.47-.1.01-.18-.39-.04-.47Z"/>
    <path class="cls-25" d="M75.18,72.13c-.14.28-.5-.04-.39-.17.07-.09.33.08.39.17Z"/>
    <path class="cls-44" d="M77.18,61.34s.3.36-.12.28c-.24-.05-.12-.12,0-.27.03,0,.08-.01.12,0Z"/>
    <path class="cls-27" d="M84.47,51.25c.03-.17.45-.34.46-.15,0,.06-.39.38-.46.15Z"/>
    <rect class="cls-39" x="66.98" y="36.06" width=".33" height=".25" transform="translate(-3.92 63.88) rotate(-49.61)"/>
    <path class="cls-22" d="M58.19,45.62s.09.07.13.11l-.27.32c-.35-.22-.07-.21.14-.42Z"/>
    <path class="cls-25" d="M63.23,81.19c-.05.11-.28.31-.36.23-.13-.11.18-.48.36-.23Z"/>
    <path class="cls-44" d="M85.73,64.71c-.03-.15.53-.13.45.11-.07.18-.44-.08-.45-.11Z"/>
    <path class="cls-39" d="M75.41,52.45c.32.03.09.44-.12.33s.05-.34.12-.33Z"/>
    <path class="cls-39" d="M77.64,61.19c0-.08.26-.26.37-.12.15.21-.35.36-.37.12Z"/>
    <path class="cls-43" d="M56.07,42.62c.13-.01.26.37.09.4-.24.05-.29-.39-.09-.4Z"/>
    <path class="cls-39" d="M53.42,34.18c-.18-.1-.02-.4.15-.3s.02.4-.15.3Z"/>
    <path class="cls-39" d="M44.7,66.84c.22.14.23.3.04.47-.1.01-.18-.39-.04-.47Z"/>
    <rect class="cls-39" x="76.61" y="68.91" width=".33" height=".25" transform="translate(-25.56 82.78) rotate(-49.61)"/>
    <path class="cls-34" d="M47.72,43.12c.17.13.36.23.12.37-.26.15-.23-.37-.12-.37Z"/>
    <path class="cls-39" d="M52.96,22.27c-.19.49-.44.07-.27-.07.09-.07.21.04.27.07Z"/>
    <rect class="cls-39" x="86.58" y="50.68" width=".33" height=".25" transform="translate(-8.15 83.96) rotate(-49.61)"/>
    <path class="cls-11" d="M51.04,34.87l.16-.19.25.21-.08.09c-.15.04-.23,0-.33-.12Z"/>
    <path class="cls-4" d="M54.57,82.95c-.04-.24.54,0,.39.17-.07.08-.38-.1-.39-.17Z"/>
    <path class="cls-36" d="M60.55,74.89l.16-.19c.13.08.19.15.17.31l-.08.09-.25-.21Z"/>
    <path class="cls-39" d="M44.31,45.65c-.32-.17.3-.43.29-.02-.07,0-.25.05-.29.02Z"/>
    <path class="cls-40" d="M55.91,79.2c.08-.13.15-.19.31-.17l.09.08-.21.25-.19-.16Z"/>
    <path class="cls-39" d="M45.58,69.76l.08-.09c.55-.13.29.47-.08.09Z"/>
    <path class="cls-39" d="M35.75,52.71c.3-.43.65.12.09.08l-.09-.08Z"/>
    <path class="cls-34" d="M51.83,77.36l.19.16-.21.25-.09-.08c-.04-.15,0-.23.12-.33Z"/>
    <path class="cls-39" d="M56.79,40.63c.08-.13.15-.19.31-.17l.09.08-.21.25-.19-.16Z"/>
    <path class="cls-39" d="M42.31,66.33c.19,0,.11.45-.12.33-.2-.1.03-.33.12-.33Z"/>
    <path class="cls-31" d="M73.71,53.17c.09-.17.44-.24.47-.04.01.1-.39.18-.47.04Z"/>
    <path class="cls-39" d="M50.82,75.74c-.11-.16-.31-.09-.03-.35l.25.21c-.05.12-.16.09-.22.14Z"/>
    <path class="cls-36" d="M53.34,74.95c-.03.08-.16.17-.21.25l-.19-.16c.16-.31.29-.09.4-.09Z"/>
    <path class="cls-26" d="M79.57,78.58l.16-.19.25.21-.08.09c-.15.04-.23,0-.33-.12Z"/>
    <path class="cls-39" d="M62.42,47.8l.21-.25.19.16c-.08.13-.15.19-.31.17l-.09-.08Z"/>
    <path class="cls-39" d="M87.5,51.77l-.08.09c-.55.13-.29-.47.08-.09Z"/>
    <path class="cls-7" d="M63.57,46.07l.16-.19c.13.08.19.15.17.31l-.08.09-.25-.21Z"/>
    <path class="cls-5" d="M76.42,79.48l.16-.19c.13.08.19.15.17.31l-.08.09-.25-.21Z"/>
    <path class="cls-39" d="M54.88,32.27l.25.21-.16.19c-.13-.08-.19-.15-.17-.31l.08-.09Z"/>
    <path class="cls-39" d="M76.22,50.86c0,.07-.24.23-.31.17-.24-.21.28-.47.31-.17Z"/>
    <path class="cls-17" d="M42.15,35.24c.07,0,.23.24.17.31-.21.24-.47-.28-.17-.31Z"/>
    <path class="cls-36" d="M64.07,47.26l.16-.19.25.21-.08.09c-.15.04-.23,0-.33-.12Z"/>
    <path class="cls-10" d="M37.08,54.6s-.27.25-.36.23c-.13-.31.35-.4.36-.23Z"/>
    <path class="cls-27" d="M47.8,33.2l.16-.19.25.21-.08.09c-.15.04-.23,0-.33-.12Z"/>
    <path class="cls-40" d="M60.51,87.46c0-.21.45-.22.38.06l-.29.02s-.09-.06-.09-.08Z"/>
    <path class="cls-4" d="M50.55,78.23l-.21.25c-.25-.21-.03-.46.21-.25Z"/>
    <path class="cls-36" d="M72.31,81.64c.05-.11.28-.31.36-.23.12.1-.26.46-.36.23Z"/>
    <path class="cls-39" d="M69.36,80.11c.13-.23.19-.16.4-.09l-.21.25-.19-.16Z"/>
    <path class="cls-39" d="M40.53,55.91l.21-.25c.25.21.03.46-.21.25Z"/>
    <rect class="cls-39" x="47.17" y="29.48" width=".16" height=".41" transform="translate(-5.98 46.44) rotate(-49.61)"/>
    <path class="cls-39" d="M63.59,87.8c.21-.25.46-.04.25.21l-.25-.21Z"/>
    <g>
      <path class="cls-39" d="M78.19,61.44c.13-.15.19-.48.4-.54s.68.36.93.25c-.24-.3-.3-.68-.66-.89.74-.32.1-.72.3-.96.44-.53.42.08.56.07.07,0,.57-.45.61-.45.06,0,.17.19.25.2.05,0,.8-.75.79-.4-.27.27-.46.66-.81.83.05.23,1.32.14.34.62,1.18.27.54,1.36-.11,1.91-.43.36-.62-.01-.74,0-.05,0-.11.14-.16.15s-.2-.14-.34-.17c-.25-.04-.64.05-.81-.16s-.11-.43-.56-.46Z"/>
      <rect class="cls-4" x="81.42" y="58.47" width=".41" height=".16" transform="translate(-15.86 82.78) rotate(-49.61)"/>
    </g>
    <path class="cls-36" d="M57.86,32.09c0-.09.19-.28.32-.05.15.26-.3.21-.32.05Z"/>
    <path class="cls-21" d="M45.61,43.94c.09,0,.28.19.05.32-.26.15-.21-.3-.05-.32Z"/>
    <path class="cls-39" d="M46.55,72c-.12-.1.13-.39.28-.2s-.23.24-.28.2Z"/>
    <path class="cls-20" d="M44.49,31.47c.21-.25.46-.04.25.21l-.25-.21Z"/>
    <path class="cls-44" d="M81.94,55.62l.21-.25.19.16c-.13.12-.29.26-.4.09Z"/>
    <path class="cls-39" d="M80,48.97c.21-.25.46-.04.25.21l-.25-.21Z"/>
    <path class="cls-36" d="M78.33,55.15c0,.1-.46.23-.46.15.04-.17.44-.34.46-.15Z"/>
    <path class="cls-39" d="M83.7,62.87c.15-.05.29-.23.46-.15l-.27.32-.19-.16Z"/>
    <path class="cls-31" d="M79.14,71.05c0,.09-.19.28-.32.05-.15-.26.3-.21.32-.05Z"/>
    <path class="cls-34" d="M70.41,87.3l.16-.19.25.21c-.2.1-.25.18-.41-.03Z"/>
    <path class="cls-31" d="M45.15,75.7c-.26-.13.1-.34.21-.25.09.07-.05.34-.21.25Z"/>
    <path class="cls-4" d="M79.9,67.79s-.06-.41.15-.3-.03.41-.15.3Z"/>
    <path class="cls-26" d="M66.82,53.61l.21-.25c.25.21.03.46-.21.25Z"/>
    <path class="cls-39" d="M54.8,37.85c0-.07.2-.21.31-.17.29.1-.3.4-.31.17Z"/>
    <path class="cls-40" d="M45.2,35.55s-.06-.41.15-.3-.03.41-.15.3Z"/>
    <path class="cls-31" d="M61.19,79.13c.09,0,.28.19.05.32-.26.15-.21-.3-.05-.32Z"/>
    <path class="cls-39" d="M71.97,48.44s.03-.04.05-.06c.15-.13.13-.1.35-.03-.18.22-.19.33-.4.09Z"/>
    <path class="cls-3" d="M92.09,65.01c.06-.15.45-.15.47-.04-.06.15-.45.15-.47.04Z"/>
    <path class="cls-26" d="M67.02,34.34c-.01-.15.43-.28.32,0-.09.24-.31.08-.32,0Z"/>
    <path class="cls-34" d="M78.96,78.28c.09,0,.28.19.05.32-.26.15-.21-.3-.05-.32Z"/>
    <path class="cls-39" d="M63.51,46.78c.08-.19.26-.08.41.03l-.16.19-.25-.21Z"/>
    <path class="cls-31" d="M79.87,68.84s-.06-.41.15-.3-.03.41-.15.3Z"/>
    <path class="cls-39" d="M39.95,37.82c0-.09.19-.28.32-.05.15.26-.3.21-.32.05Z"/>
    <path class="cls-29" d="M77.35,56.17l.21-.25c.25.21.03.46-.21.25Z"/>
    <path class="cls-39" d="M73.74,73.19c-.01-.15.43-.28.32,0-.09.24-.31.08-.32,0Z"/>
    <path class="cls-44" d="M73.43,52.61c-.03-.23.6-.03.33.12-.1.05-.32-.04-.33-.12Z"/>
    <path class="cls-4" d="M56.61,46.45l.21-.25.19.16c-.13.12-.29.26-.4.09Z"/>
    <path class="cls-39" d="M48.63,36.3c0-.07.2-.21.31-.17.29.1-.3.4-.31.17Z"/>
    <path class="cls-44" d="M66.29,34.05c-.01-.15.43-.28.32,0-.09.24-.31.08-.32,0Z"/>
    <path class="cls-44" d="M70.25,49.58c-.03-.23.6-.03.33.12-.1.05-.32-.04-.33-.12Z"/>
    <path class="cls-27" d="M62.24,45.59c.05-.03.37,0,.28.18-.13.25-.44-.1-.28-.18Z"/>
    <path class="cls-39" d="M53.61,41.18c-.01-.18.33-.21.35-.03s-.33.21-.35.03Z"/>
    <path class="cls-26" d="M49.93,77.16c-.01-.18.33-.21.35-.03s-.33.21-.35.03Z"/>
    <path class="cls-4" d="M46.47,72.8c0-.08.24-.22.31-.17.19.16-.3.39-.31.17Z"/>
    <path class="cls-4" d="M50.82,75.74c.13.2-.08.46-.18.28-.11-.2.1-.22.18-.28Z"/>
    <path class="cls-39" d="M55.86,80.03c.2-.1.25-.18.41.03-.12.17-.28.13-.41-.03Z"/>
    <path class="cls-26" d="M81.12,65.02c0-.08.24-.22.31-.17.19.16-.3.39-.31.17Z"/>
    <path class="cls-33" d="M88.02,50.9c-.21.03-.07-.49.12-.33.06.06-.04.32-.12.33Z"/>
    <path class="cls-39" d="M78.64,48.14c.06-.05.18-.25.21-.25.2-.03.08.54-.21.25Z"/>
    <path class="cls-39" d="M56.21,46.54c0,.08-.24.22-.31.17-.19-.16.3-.39.31-.17Z"/>
    <path class="cls-39" d="M65.94,42c.2,0,.04.41-.03.41-.14,0-.14-.34.03-.41Z"/>
    <path class="cls-39" d="M77.37,43.25c-.03-.2.54-.08.25.21-.05-.06-.25-.18-.25-.21Z"/>
    <path class="cls-43" d="M77.27,72.61c-.08,0-.12-.17-.11-.25.47-.14.29.26.11.25Z"/>
    <path class="cls-39" d="M87.67,72.77c-.03-.21.49-.07.33.12-.06.06-.32-.04-.33-.12Z"/>
    <path class="cls-39" d="M55.72,41.24c-.09.21-.15.28-.39.21.09-.12.22-.29.39-.21Z"/>
    <path class="cls-39" d="M43.49,38l.31.27c-.11.26-.4-.05-.31-.27Z"/>
    <path class="cls-26" d="M37.85,61.99c.32-.18.44.24.2.28-.07,0-.12-.23-.2-.28Z"/>
    <path class="cls-37" d="M60.34,35.18c0-.07.27-.31.39-.21l-.27.31s-.13-.09-.13-.11Z"/>
    <path class="cls-39" d="M45.91,29.42c0-.2.41-.04.41.03,0,.14-.34.14-.41-.03Z"/>
    <path class="cls-30" d="M42.51,63.67c.22,0,.04.26-.09.36-.22-.1-.06-.36.09-.36Z"/>
    <path class="cls-27" d="M59.98,77.23c-.01-.18.33-.21.35-.03s-.33.21-.35.03Z"/>
    <path class="cls-39" d="M47.43,57.76c-.03-.21.49-.07.33.12-.06.06-.32-.04-.33-.12Z"/>
    <path class="cls-43" d="M59.42,36.89c-.03-.21.49-.07.33.12-.06.06-.32-.04-.33-.12Z"/>
    <path class="cls-39" d="M68.26,36.59c-.09.21-.15.28-.39.21.09-.12.22-.29.39-.21Z"/>
    <path class="cls-39" d="M52.89,49.04c.08-.01.11-.35.35-.03-.2.34-.22.06-.35.03Z"/>
    <path class="cls-39" d="M76.38,44.15c.22,0,.04.26-.09.36-.22-.1-.06-.36.09-.36Z"/>
    <path class="cls-39" d="M66.17,45.57c.03.21-.49.07-.33-.12.06-.06.32.04.33.12Z"/>
    <path class="cls-26" d="M68.94,93c-.02-.12.35-.15.35-.03,0,.19-.32.21-.35.03Z"/>
    <path class="cls-2" d="M63.7,75.4c.19,0,.21.32.03.35-.12.02-.15-.35-.03-.35Z"/>
    <path class="cls-25" d="M69.88,53.07c0-.19.32-.21.35-.03.02.12-.35.15-.35.03Z"/>
    <rect class="cls-32" x="92.62" y="65.8" width=".16" height=".33" transform="translate(-17.61 93.83) rotate(-49.61)"/>
    <path class="cls-34" d="M57.99,26.45c0-.19.32-.21.35-.03.02.12-.35.15-.35.03Z"/>
    <path class="cls-39" d="M75.87,41.44c-.02-.12.35-.15.35-.03,0,.19-.32.21-.35.03Z"/>
    <path class="cls-25" d="M52.89,49.04s-.33.1-.36-.09c-.05-.37.34.09.36.09Z"/>
    <path class="cls-10" d="M58.43,36.92c.19,0,.21.32.03.35-.12.02-.15-.35-.03-.35Z"/>
    <path class="cls-39" d="M49.36,45.6c-.11-.1.11-.34.21-.25s-.11.34-.21.25Z"/>
    <path class="cls-39" d="M70.13,53.93c0,.28-.39-.05-.28-.18.08-.1.28.11.28.18Z"/>
    <path class="cls-39" d="M60.8,42.3c-.02-.12.35-.15.35-.03,0,.19-.32.21-.35.03Z"/>
    <path class="cls-26" d="M84.97,47.98c-.02-.12.35-.15.35-.03,0,.19-.32.21-.35.03Z"/>
    <path class="cls-36" d="M67.73,47.43c-.23.18-.38-.26-.2-.28.04,0,.16.16.19.16,0,.04,0,.08,0,.12Z"/>
    <path class="cls-12" d="M46.25,76.63c-.02-.12.35-.15.35-.03,0,.19-.32.21-.35.03Z"/>
    <path class="cls-25" d="M66.27,46.09c0-.19.32-.21.35-.03.02.12-.35.15-.35.03Z"/>
    <path class="cls-43" d="M77.1,68.66c-.11-.1.11-.34.21-.25s-.11.34-.21.25Z"/>
    <path class="cls-39" d="M58.44,81.46c-.02-.12.35-.15.35-.03,0,.19-.32.21-.35.03Z"/>
    <path class="cls-21" d="M67.21,32.33c-.02-.12.35-.15.35-.03,0,.19-.32.21-.35.03Z"/>
    <path class="cls-37" d="M81.27,65.48c-.01-.14.34-.14.41.03-.09.07-.4.07-.41-.03Z"/>
    <rect class="cls-39" x="77.61" y="73.35" width=".16" height=".33" transform="translate(-28.64 85.06) rotate(-49.61)"/>
    <path class="cls-39" d="M85.78,55.19c.28,0-.05.39-.18.28-.1-.08.11-.28.18-.28Z"/>
    <path class="cls-39" d="M59.78,33.29s.16-.27.25-.11c.15.28-.24.31-.25.11Z"/>
    <path class="cls-8" d="M36.82,50.69c-.02-.12.35-.15.35-.03,0,.19-.32.22-.35.03Z"/>
    <path class="cls-37" d="M80.09,76.31c0-.19.32-.22.35-.03.02.12-.35.15-.35.03Z"/>
    <path class="cls-34" d="M73.58,44.38c-.02-.12.35-.15.35-.03,0,.19-.32.21-.35.03Z"/>
    <path class="cls-39" d="M60.21,75.36c-.11-.1.11-.34.21-.25s-.11.34-.21.25Z"/>
    <path class="cls-40" d="M37.72,66.88c0-.1.31-.15.4-.09-.05.18-.39.23-.4.09Z"/>
    <path class="cls-43" d="M74.18,81.6s.16-.27.25-.11c.15.28-.24.31-.25.11Z"/>
    <rect class="cls-26" x="69.96" y="40.7" width=".33" height=".16" transform="translate(-6.38 67.77) rotate(-49.61)"/>
    <path class="cls-39" d="M57.03,29.75c-.02-.12.35-.15.35-.03,0,.19-.32.21-.35.03Z"/>
    <path class="cls-39" d="M63.63,35.26c-.02-.12.35-.15.35-.03,0,.19-.32.21-.35.03Z"/>
    <path class="cls-37" d="M67.49,38c0-.19.32-.21.35-.03.02.12-.35.15-.35.03Z"/>
    <rect class="cls-39" x="77.35" y="51.94" width=".16" height=".33" transform="translate(-12.43 77.33) rotate(-49.61)"/>
    <path class="cls-26" d="M89.55,63.28c-.02-.12.35-.15.35-.03,0,.19-.32.21-.35.03Z"/>
    <rect class="cls-39" x="64.83" y="42.64" width=".33" height=".16" transform="translate(-9.66 64.55) rotate(-49.61)"/>
    <path class="cls-4" d="M64.45,34.11c-.11-.1.11-.34.21-.25s-.11.34-.21.25Z"/>
    <path class="cls-21" d="M65.34,34.54c-.02-.12.35-.15.35-.03,0,.19-.32.21-.35.03Z"/>
    <path class="cls-10" d="M47.37,33.05c.19,0,.21.32.03.35-.12.02-.15-.35-.03-.35Z"/>
    <path class="cls-6" d="M45.29,50.18c0-.19.32-.22.35-.03.02.12-.35.15-.35.03Z"/>
    <path class="cls-39" d="M68.77,49.52s-.16.27-.25.11c-.14-.24.25-.23.25-.11Z"/>
    <path class="cls-39" d="M56.71,44.04s-.16.27-.25.11c-.14-.24.25-.23.25-.11Z"/>
    <path class="cls-39" d="M56.44,41.42s-.16.27-.25.11c-.14-.24.25-.23.25-.11Z"/>
    <path class="cls-37" d="M47.93,42.87s.16-.27.25-.11c.14.24-.25.23-.25.11Z"/>
    <path class="cls-43" d="M50.4,38.56s.16-.27.25-.11c.14.24-.25.23-.25.11Z"/>
    <path class="cls-39" d="M43.65,39.22c-.01-.12.36-.19.27.07-.07.17-.26-.03-.27-.07Z"/>
    <path class="cls-39" d="M58.39,44.49c-.01-.12.36-.19.27.07-.07.17-.26-.03-.27-.07Z"/>
    <path class="cls-4" d="M82.24,49.14s.16-.27.25-.11c.14.24-.25.23-.25.11Z"/>
    <path class="cls-39" d="M68.09,54.15s-.16.27-.25.11c-.14-.24.25-.23.25-.11Z"/>
    <path class="cls-10" d="M79.64,51.82s.27.16.11.25c-.24.14-.23-.25-.11-.25Z"/>
    <path class="cls-31" d="M44.86,46.99s.16-.27.25-.11c.14.24-.25.23-.25.11Z"/>
    <path class="cls-39" d="M75.9,81.11l.16-.19.19.16c-.17.07-.23.2-.35.03Z"/>
    <path class="cls-4" d="M44.51,56.47s.16-.27.25-.11c.14.24-.25.23-.25.11Z"/>
    <path class="cls-39" d="M51.65,48.2c-.01-.12.36-.19.27.07-.07.17-.26-.03-.27-.07Z"/>
    <path class="cls-39" d="M73.44,48.38s-.16.27-.25.11c-.14-.24.25-.23.25-.11Z"/>
    <path class="cls-40" d="M70.83,88.09l.25.21-.11.13c-.13-.08-.22-.19-.15-.34Z"/>
    <path class="cls-40" d="M68.22,76.1c0-.12.34-.15.35-.03s-.34.15-.35.03Z"/>
    <path class="cls-36" d="M83.37,58.67c0-.12.34-.15.35-.03s-.34.15-.35.03Z"/>
    <path class="cls-44" d="M56.89,45.49l.13.11-.21.25c-.1-.14-.03-.25.09-.36Z"/>
    <path class="cls-37" d="M59.66,39.16s.16-.27.25-.11c.14.24-.25.23-.25.11Z"/>
    <path class="cls-39" d="M65.91,53.28l.19.16c-.09.19-.17.07-.35.03l.16-.19Z"/>
    <path class="cls-39" d="M78.69,53.83l.16-.19.19.16c-.17.07-.23.2-.35.03Z"/>
    <path class="cls-26" d="M57.58,46.08c.12,0,.15.34.03.35s-.15-.34-.03-.35Z"/>
    <path class="cls-34" d="M66.17,53.61s.16-.27.25-.11c.14.24-.25.23-.25.11Z"/>
    <path class="cls-40" d="M67.87,37.56c0-.12.34-.15.35-.03s-.34.15-.35.03Z"/>
    <path class="cls-43" d="M52.87,47.28c-.01-.12.34-.15.35-.03s-.34.15-.35.03Z"/>
    <g>
      <path class="cls-39" d="M47.56,40.49c.67.48.25.42.31.65.08.32,1.2.72,1.46.97-.28.15-.47-.05-.66-.24-.06,0-.25,1.05-.73.53-.08-.09-.02-.76-.18-.96-.13-.17-.76-.51-1.02-.8-.25-.27-.69-.95-.54-1.31.18-.41,1.57-.57,1.88-.87.13-.13-.16-.51.41-.66.61-.15.51.42.8.56.15.07.54-.08.69.17l-.51.22c.1.06.31.31.38.31.06,0,.14-.29.25-.1.02.03.25.71.24.74-.03.14-.19.17-.23.14l-1.07-.91c-.42-.36-2.45.09-2.59.62-.01.05,0,.2.03.24.07.08,1.7.32,2.01.4.4.11,2.9.94,2.98,1.16.02.04-.12.39-.01.48.07.06.53.17.54-.06l-.43-.26c0-.11.56-.33.39-.52-.11-.13-.83-.32-1.1-.62-.18-.21-.11-.41-.12-.64,0-.18-.2-.15.08-.39.49-.41.35.04.72.15.2.06.71-.18.81-.12.11.06,0,.73.01.94,0,.12.11.24.11.25-.01.12-.4.09-.39.21s.81.03.98.19c.14.13.06.48.1.52.03.03.66-.06.88.04.16.07.44.35.47.35s.23-.31.36-.23c.09.05.05.25.14.34.26.26.61.11.52.78-.01.09-.12.2-.12.21,0,.02.23.08.34.17.58.49.15.52.19.93.01.15.17.35.24.51.05.12.04.36.08.41.08.1.52-.02.7.06.02.27-.71.43-.85.35-.15-.09-.15-.81-.27-.96-.14-.17-.65.03-.92-.39-.12-.18-.07-.63.18-.69-.1-.28-.71-.19-.74-.21-.03-.03-.03-.24-.09-.34-.38-.6-1.09-.45-1.46-.97-.15.12-.08.11-.04.21.02.06.29.54.31.56.03.02.72-.27.1.2.48.19.18.74.2.81.03.09.59.57.71.72.07.1-.12.29-.08.43.06.17.47.16.31.5-.03.08-.24.34-.27.34s-.49-.31-.51-.34c-.07-.09.03-.63-.15-.93-.23-.38-.27-.12-.48-.15-.18-.02-.42-.18-.52-.18-.31,0-.56.52-1.07-.18.69-.63.55-.96-.17-1.45l.25-.22c-.46-.11-.41-.54-.9-.22-.18-.23.07-.28,0-.44-.18.31-.47.4-.78.2-.27-.17.06-.42-.16-.63-.68-.06-1.38-.46-2.01-.56q-.47-.07,0,0Z"/>
      <path class="cls-39" d="M49.3,42.93c.01-.08.25-.33.34-.36s.2.11.27.1c.06,0,.11-.14.2-.13.29.01.47.31.31.57s-.27.04-.44.04c-.14,0-.73.15-.68-.22Z"/>
      <path class="cls-39" d="M50.44,40.44s.12-.13.16-.19c.58.7-.18.37-.16.19Z"/>
      <path class="cls-38" d="M53.98,43.67s.27.16.11.25c-.24.14-.23-.25-.11-.25Z"/>
    </g>
    <path class="cls-37" d="M67.88,45.72s.16-.27.25-.11c.14.24-.25.23-.25.11Z"/>
    <path class="cls-41" d="M88.26,54.58s.16-.27.25-.11c.14.24-.25.23-.25.11Z"/>
    <path class="cls-40" d="M64.22,41.85c-.01-.12.36-.19.27.07-.07.17-.26-.03-.27-.07Z"/>
    <rect class="cls-39" x="88.6" y="65.06" width=".25" height=".16" transform="translate(-18.38 90.51) rotate(-49.61)"/>
    <path class="cls-39" d="M50.83,74.45c0,.07-.21.14-.25.11-.17-.15.24-.28.25-.11Z"/>
    <path class="cls-39" d="M87.45,59.87c0-.07.21-.14.25-.11.17.15-.24.28-.25.11Z"/>
    <path class="cls-39" d="M84.01,47.71c-.07,0-.14-.21-.11-.25.15-.17.28.24.11.25Z"/>
    <path class="cls-1" d="M56.76,31.59c.05-.1.18-.14.29-.08l-.16.19-.13-.11Z"/>
    <path class="cls-39" d="M77.12,75.85l.11-.13c.11.06.11.14.11.25l-.21-.13Z"/>
    <g>
      <path class="cls-39" d="M83.63,63.47c-.2.4-.38.12-.52.13s-.66.5-.85.07c.11-.07.37.06.39.05.07-.02.1-.23.06-.27-.13-.13-.86.1-1.06-.03-.18-.11.16-.36,0-.53-.04-.04-.79-.11-.16-.6.06-.05,1.09-.61,1.16-.6.08.01.23.22.4.27.07.02.85-.1.85.02-.27.56-.86.86-.35,1.44.06-.04.08-.02.06.05Z"/>
      <path class="cls-39" d="M84.19,64.89c-.01-.14.07-.19.02-.49-.04-.25.94-.18,1.11-.11.59.26.25,1.05-.26,1.14-.28.05-.84-.24-.87-.54Z"/>
      <path class="cls-39" d="M83.26,65.08c-.25-.15-.46-.61-.43-.88.06-.42,1.54-.08,1.09.68-.2.33-.31.41-.66.2Z"/>
      <path class="cls-43" d="M83.57,63.41c.22-.37.35-.25.44.11.18.71-.56.46-.43.26.04-.07.18-.17.18-.21,0-.01-.09-.07-.13-.11-.02-.02-.05-.03-.06-.05Z"/>
    </g>
    <g>
      <path class="cls-39" d="M53.34,74.95c.02-.06-.12-1.14-.15-1.19-.1-.15-.53-.4-.71-.44-.23-.05-.54.28-.6-.21-.01-.08.03-.36.07-.42.11-.18,1.26.17,1.49-.15-.12-.09-.14-.35-.23-.42-.07-.05-.27.2-.39,0,.12-.25.5-.41.57-.66.16-.52-.2-.9-.38-1.33-.14-.34.36-.11.48-.15.22-.08.39-.57.79-.39.53.24.13.92.2,1.02.61.13.36-.06.29-.38-.22-1-.1-1.62-.05-2.58.01-.23.13-.9.38-.97.04-.01.81.16.87.2-.07.08-.21.1-.28.23-.28.47.3.71.3.77,0,.05-.52.49-.55.89-.03.45.23.34.37.51.1.12.08,1.66,0,1.87-.18.51-.84.89-1.31.58-.24-.16.3-.28,0-.44-.07.1-.5.26-.5.33,0,.16.52.52-.04.94.65.14-.07.63-.12,0-.27.34-1,.86-.29,1.15.1.04.91-.14,1.1.19-.56.03-.26.52-.55.77-.1.09-.64.27-.78.27Z"/>
      <path class="cls-39" d="M55.65,76.05c-.12-.09-.19.13-.37.13-.2,0-.67-.65-.71-.82-.04-.16.41-.39-.14-.68-.01-.13,1.43-.83,1.57-1.1.16-.29-.38-.25-.42-.31-.1-.16.2-.4.29-.39.17.02.27.36.41.43.15.08.97-.02.81.6-.12.48-.32.12-.37.13-.03,0-.32.34-.47.45-.34.24-.77.26-1.1.49.31.19.4.67.6.91.13.15.45.23.55.55.04.14-.53.34-.61.49-.26.3-.28-.17-.25-.37.03-.18.12-.36.2-.52Z"/>
      <path class="cls-39" d="M56.86,77.95c.11-.08-.06-.13-.04-.21.03-.16.19-.3.2-.47.02-.32-.52-.74.21-.99.45-.16.97.49.63.89l.06.05c.21-.3.29.21.3.42.06,1.36-1.1.79-1.98.97-.25-.43.18-1.05.63-.66Z"/>
      <path class="cls-39" d="M59.02,71.97c-.67.05-.11-.45.22-.62.21-.2,0-1.04-.25-1.25,0-.08-.05-.31-.05-.33.03-.15.21-.33.21-.39,0-.07-.32-.16-.04-.32.11-.06.33.05.33.12,0,.09-.41.16.27.45-.03.08-.18.5-.16.51.48.44.82-.73,1.33.07.28.43-.37.75-.47.92-.07.12.09.43-.25.66-.08.05-.25-.17-.37-.08-.08.06-.07.31-.26.37-.15.05-.34-.15-.51-.11Z"/>
      <path class="cls-39" d="M49.71,72.95c.39-.4.28-1.14.73-1.5.21-.17.43.03.62,0,.11-.01.18-.11.24-.13.32-.09.01.24.01.26,0,.08.52.46.54.69.06.46-.73.72-.95,1.04-.22-.05-.16-.46-.19-.48-.05-.05-.28.12-.4.14-.07.01-.19-.04-.3-.03-.13,0-.19.19-.32,0Z"/>
      <path class="cls-39" d="M52.65,69.37l-.28-.18-.31.88c-.18-.08-.27-.37-.41-.44-.19-.1-.48.18-.55-.15-.23-1.09,1.53-1.1,1.55-.1Z"/>
      <path class="cls-39" d="M46.36,55.44c-.33.3.03.19.22.42.37.45-.24,1.19-.54,1.04-.1-.05-.1-.34-.27-.44-.35.31-.24.03-.4-.17-.09-.11-.31-.01-.02-.29l.14.34c.39-.24.18-.63.42-.89s.27-.07.45,0Z"/>
      <path class="cls-39" d="M70.13,77.71c-.4-.2-.23-.83.29-.88.95-.1.54,1.3-.29.88Z"/>
      <path class="cls-39" d="M55.25,72.45s.11-.18.11-.27c0-.12-.06-.18-.06-.22-.02-.32.19-.02.25-.02.21-.02.52-.71.94-.06-.06.33-1.12,1.04-1.24.57Z"/>
      <path class="cls-39" d="M54.35,73.31c-.15-.08,0-.6.12-.69.14-.1.83-.1.94.08.16.39-.85.72-1.06.61Z"/>
      <path class="cls-39" d="M45.78,63.53c.2-.68,1.24-.37,1.1.17-.17.65-.75.05-1.1-.17Z"/>
      <path class="cls-39" d="M61.41,73.89c.19.26.45.25.7.38-.05.14-.19.51-.25.61-.08.13-.19.23-.29.35-.29-.27-.18-.66.17-.83-.47.12-.68-.09-.33-.5Z"/>
      <path class="cls-39" d="M63.06,73.75c.03-.17.57-.41.75-.21.3.32-.35.76-.6.91-.08,0-.16-.66-.15-.69Z"/>
      <path class="cls-39" d="M68.49,75.77s-.12-.13-.18-.13c-.16,0-.34.48-.56,0-.27-.6.96-.69.93-.19,0,.11-.12.32-.19.33Z"/>
      <path class="cls-31" d="M46.37,60.66c.22-.03.08,1.87-.42,1-.26-.44.18-.68.42-1Z"/>
      <path class="cls-39" d="M60.85,73.19c-.62-.31-.04-1.27.25-.6.05.12-.03.71-.25.6Z"/>
      <path class="cls-27" d="M59.71,69.62c.08-.21.16-.43.3-.61.44.24.62.49.02.67-.17.05-.19,0-.33-.06Z"/>
      <path class="cls-33" d="M60.57,71.43c.34-.02.21.71-.05.83-.52-.12-.13-.82.05-.83Z"/>
      <path class="cls-39" d="M47.2,64.71c-.45-.21-.03-.65.26-.51.3.15.1.68-.26.51Z"/>
      <path class="cls-39" d="M54.19,75.77c-.33-.16.03-.56.2-.47.23.13.18.65-.2.47Z"/>
      <path class="cls-39" d="M46.69,59.52c.11-.17.36-.45.54-.19s-.38.47-.54.19Z"/>
      <path class="cls-43" d="M47.14,62.95c.18.18.28.51.06.7-.31-.18-.28-.45-.06-.7Z"/>
      <path class="cls-39" d="M58.06,76.03c0-.05.16-.19.25-.17s.27.33.46.35l-.27.31s-.09-.37-.14-.41c-.04-.04-.31.03-.31-.08Z"/>
      <path class="cls-39" d="M61.61,72.75c-.47-.11-.1-.52.11-.45.33.11-.03.3-.11.45Z"/>
      <rect class="cls-39" x="58.06" y="73.71" width=".41" height=".33" transform="translate(-35.76 70.39) rotate(-49.61)"/>
      <path class="cls-27" d="M46.19,64.96c-.02-.36.54.24.41.41-.17.13-.41-.37-.41-.41Z"/>
      <path class="cls-37" d="M46.14,59.92c.33-.54.68.02.23.13-.12.03-.15-.08-.23-.13Z"/>
      <path class="cls-31" d="M50.48,67.2l.51-.22c-.16.1-.28.44-.51.22Z"/>
      <g>
        <path class="cls-39" d="M46.14,59.92c-.07.12-.05.4-.13.51-.1.14-.46.08-.6.23s-.19.54-.39.7l.41.02-.16.19c.12.21.2-.01.23,0,.29.04-.03.31-.05.34-.23.35.28.26.43.4.13.12.31.6.18.75-.14.17-.75.24-.85.63.24.12.29.55.45.68.12.09.5,0,.54.18,0,.02-.13.25-.11.45.01.09.38,1.15.42,1.2.15.19.48.1.62.24.05.05.57.77.59.83.08.21-.03.37,0,.47.06.21,1,.26,1.22.1-.14-.28-.62-.34-.77-.46-.2-.16.04-.16-.45-.41-.59-.3.1-.48.17-.6.15-.23-.05-.75.02-.89.07-.12.3-.12.32-.15.03-.04-.26-.88.31-.11.07-.39.53-.35.67-.03.12.28-.3.95-.56,1.11.47.17,1.11-.27,1.46.17.38.47.04,1.23-.26,1.67-.07.1-.29.18-.29.22,0,.02.18.23.18.43,0,.22-.16.38-.13.6,1.05.13.21.29.09.46-.42.59,1,.85.63,1.54-.55,1.04-.91-.5-1.31-.6-.32-.08-.48.42-.72.53-.05-.17.01-.5-.06-.64s-.22-.22-.27-.33c-.04-.1.17-.13.16-.3,0-.06-.25-1.11-.29-1.15-.15-.2-1.27-.4-1.56-.7-.26-.27-.25-1.18-.4-1.32-.05-.04-.1.07-.19.06-.55-.05-.65-.25-1.08-.43-.31-.13-.85,0-.48-.46-.68.07-.07-.7.1-1.01l-.42-.14c.19-.21.24-.53.02-.74-.53-.51-.34.33-.66.52l.12-1.42c-.16-.19-.16.28-.3.29-.03,0-.33-.24-.43-.26.49-.51.26-.31,0-.67-.29-.4,0-1.12-.09-1.58-.06-.05-.87.28-.91-.02-.02-.12.95-.15,1.06-.33l.53-.39c-.29-.03-.49.23-.77.32-.08.02-.59.07-.64.06-.23-.07-.24-.29-.37-.36-.1-.05-.26.04-.35-.01s-.14-.23-.26-.31c-.15-.1-.32,0-.42-.04-.33-.15-.05-.91.47-.73l.11-.39c.23.5.71.86,1.1,1.26.3-.31.36-.76.84-.86.16,0,.16.62.18.75.11-.17.68-.05.7-.26,0-.03-.1-.53-.12-.55-.07-.06-.63.22-.72-.23-.16-.85,1.01-.3.99.36l.15-.3c.14.18.58.33.69.5.02.03.2.54.19.57-.01.16-.31.25-.06.38.16-.14.13-.35.23-.52.49-.8.52-.34,1.02-.05ZM47.86,66.7c.17.22.45-.18.56-.28-.25-.24-.34.21-.56.28ZM43.99,59.5l.41.67.09-.68h-.5Z"/>
        <path class="cls-27" d="M43.63,64.84c-.37-.17.03-.42.21-.25.09.09-.05.33-.21.25Z"/>
      </g>
      <path class="cls-39" d="M50.43,66.61l.16-.19c.14.1.26.18.23.36-.18.05-.27-.05-.39-.17Z"/>
      <path class="cls-39" d="M48.11,64.42c-.18-.1-.02-.4.15-.3s.02.4-.15.3Z"/>
      <path class="cls-39" d="M54.97,72.32c-.18-.1-.02-.4.15-.3s.02.4-.15.3Z"/>
      <path class="cls-31" d="M45.87,57.3c-.11-.06-.38-.32-.3-.41.16-.18.41.42.3.41Z"/>
      <path class="cls-39" d="M51.04,70.5c.09,0,.29.4.04.47-.03,0-.2-.45-.04-.47Z"/>
      <path class="cls-41" d="M57,67.96c-.43.44-.36-.14-.19-.16.01,0,.15.12.19.16Z"/>
      <path class="cls-39" d="M55.85,67.53c.21-.25.46-.04.25.21l-.25-.21Z"/>
      <path class="cls-4" d="M46.31,62.13c0,.08-.24.22-.31.17-.19-.16.3-.39.31-.17Z"/>
      <path class="cls-40" d="M58.67,74.17c0-.06.36-.29.4-.09-.05.18-.39.23-.4.09Z"/>
      <path class="cls-24" d="M45.94,59.64c-.02-.12.35-.15.35-.03,0,.19-.32.22-.35.03Z"/>
      <path class="cls-25" d="M48.97,64.5c0-.19.32-.21.35-.03.02.12-.35.15-.35.03Z"/>
      <path class="cls-9" d="M45.45,63.79c-.02-.12.35-.15.35-.03,0,.19-.32.21-.35.03Z"/>
      <path class="cls-26" d="M59.12,73.89s.16-.27.25-.11c.14.24-.25.23-.25.11Z"/>
      <path class="cls-39" d="M48.7,55.37s-.16.27-.25.11c-.14-.24.25-.23.25-.11Z"/>
      <rect class="cls-26" x="56.51" y="77.51" width=".25" height=".16" transform="translate(-39.16 70.45) rotate(-49.61)"/>
      <g>
        <path class="cls-39" d="M61.41,73.89c-.76.45-1.24,1.14-1.95,1.62-.55.37-.94.51-1.44-.05.09-.19.35-.18.47-.31.1-.11.11-.34.21-.48.21-.32.44-.71.7-.32.39-.76.41-.4.95-.26.5.13.34-.16.47-.35.27-.39.47-.37.81-.98.35.08.94-.18,1.26-.34-.23-.3-.62.3-.78.09-.17-.23.26-.57.26-.64,0-.04-.2-.19-.22-.33s.19-.57.26-.73c-.33-.3-.31.47-.39.54-.08.06-.71.21-.81.17-.13-.04,0-.46.04-.53.07-.15.28-.26.28-.28,0-.05-.76-.38-.23-.63l-.37-.21c.2-.12.29-.23.37-.44-.2-.08-.37.17-.54.19-.48.05-.15-.34.14-.46.15-.06.26.03.35,0,.11-.03.19-.17.28-.19.15-.04.71.41,1.01.15-.03-.27-.29.03-.35-.03-.05-.04-.03-.34.08-.41.16-.11.62.35.79-.04-.16-.23-.19.09-.33.05-.12-.03-.75-.36-.81-.36-.08.01-.27.35-.38.43l.09-.36c-.5-.36-.98.4-1.19.48-.09.03-.68-.14-.71-.13-.09.03-.17.22-.3.21-.05,0-.12-.21-.31-.17-.15.04-.43.33-.5.46-.05.11.3.17.06.32-.23-.17-.45-.46-.5-.75-.08-.43.46-1.11-.14-.98-.36.08-.28.31-.43.56-.1.16-.31.31-.36.43-.05.1.52.47-.22.93-.46.29-1.16.35-.41-.32l-.62-.42c.33-.39.84-.54,1.25-.83.01-.02-.19-.21-.23-.25.08-.08.53-.7.53-.75,0-.04-.37-.29-.44-.37l-.19.6c-.26-.49-.35-.17-.52-.24-.15-.06-.27-.25-.41-.33.05-.05.06-.17.14-.25.34-.35.65.3.69.3.2-.45.49-.93,1.05-.85l-.44-.38c.01.33-.2.5-.41.74l-.54-.89c-.1.1.09.17.04.32-.27.73-.72.71-1.15.09-.54-.77.56-1.44,1.1-.65l.1-.24c-.06-.11-.27.21-.29-.03,0-.02.12-.24.15-.31-.48-.07-1.34-.25-1.79,0-.06.03-.56.39-.59.43-.29.36.49.54.64.83-.2.21.08.55-.13.68-.24.15-.16-.32-.29-.3-.01,0-.16.18-.16.19,0,.04.33.39.38.7.08.46-.17.44-.24.72-.03.11.24.5-.09.48-.04,0-.44-.17-.46-.2-.09-.12.09-.33.06-.49-.07-.39-.53-.52-.53-.56,0-.07.35-.16-.09-.4.18-.31.56-.05.73-.35-.44-.46-.85-.87-.1-1.28-.47-.28-.44-.58-.14-.99-.36-.03-.5-.19-.68-.47-.06,0-.12,1.01-.11,1.1.02.15.16.23.16.25.06.33-.42-.17-.48-.18-.03,0-.62.29-.62.33,1.21.23,1.72,1.07.69,2,.87.09.05.46-.11.89-.22.03.04-.71-.07-.82-.28.15-.43.69-.75.51-.36-.2,0-.62.33-.65l-.82-.05c.41-.41.79-.1.48-.89l-.48.57c-.31-.12,0-.27,0-.32-.03-.19-.54-.16-.55-.25l.55-.4c-.08-.1-.16.07-.26.05-.09-.01-.32-.18-.33-.24,0-.02.3-.35.02-.29-.05,0-.31.78-.73.23-.04-.34.59-.53.59-.57,0-.02-.14-.12-.17-.25-.14-.55.06-.34.32-.46.38-.18,1-1.06.83-1.45-.03-.06-.81-.21-.52-.54.1-.11.56.29.72.24.47-.48-.16-.3-.44-.33-.33-.04-.43-.3-.7.06-.38.5.38.66.38.71-.52.44-1.09.63-.04.62.09.38-.39.26-.58.14-.12-.07-.2-.26-.22-.26-.03,0-.14.12-.26.08-.48-.18-.11-.36-.11-.62,0-.39-.53.11-.81.06l.18-.28c-.69-.66-1.41-.2-2.15-.53l.75-.12c-.47-.34-1.04-1.08-.72-1.67.37-.68.57-.22.83-.3.19-.06.13-.52.17-.72.1-.47.42-.55-.15-.9-.03-.11,1.37-.36,1.49-.47.14-.11.31-.17.2.03l-.2-.03c-.32-.18-1.62-.53-1.7-.62-.03-.03-.09-.62-.08-.68.09-.35.76.02.84-.02s.5-.42.51-.47l-.37-.2c.45-.4.74-.37,1.2,0,.05-.16.3-.52.24-.67-.04-.12-.24-.11-.3-.2-.12-.18.24-.51.22-.73-.01-.25-.42-.66-.62-.8-.1,0,0,.59-.45.6-.35,0-.06-.52-.37-.65-.03.15-.39.3-.39.32,0,.02.17.17.22.31.07.2,0,.45.1.64.06.12.25.17.23.27-.02.11-.77,1-.83,1.02-.44-.19-.83-.47-1.28-.64l.2-.48c-.29.44-1.06.25-.42-.14-.29-.03-.6.07-.84-.17-.06,0,.09.41-.16.56-.16.09-.71-.38-.68-.08,0,.04.7.21.55.63-.07.2-.3-.15-.53,0-.13.09-.14.26-.23.38-.1,0-.41-.67-.39-.76.02-.11.21-.15.28-.31.12-.26-.12-.77.17-1.05-.23-.08-.59.11-.8-.02-.28-.18-.15-.4-.23-.5-.1-.12-.5-.23-.58-.52-.13.42-.19.5-.59.69.61,0,.31.31.28.77-.01.21.04.43.04.64-.56.07-1.09.19-1.61.42.18-.42-.38-.44-.64-.65-.12-.1-.17-.26-.29-.36,0-.11.42-.16.18-.28-.09-.05-.72-.32-.76-.31-.1.03-.33.5-.54.17-.18-.28.44-.45.54-.58.07-.1.02-.24.06-.3.1-.17,2.65-.14,2.8-.4.03-.05,0-.19.06-.3.07-.14.34-.31.25-.49-.18-.35-.24.17-.44.31-.54.36-.88-1.17-.29-1.36.26-.09.7.3.85-.04-.44-.23-.95-.37-1.37-.63-.09-.05-.23-.14-.08-.22.56-.29,3.07,1.33,3.25,1.29.04,0,.18-.44.31-.49l.4.55c.21-.02.04-.96.61-.81.36.09.37.25.22.54.62-.29,1,.37,1.58.64.3.14.86.14.96.21.18.11-.08.16.05.26.21-.48.92-.52,1.2-.78.17-.16.21-.42.36-.53.1-.07.51-.08.69-.2.2-.13-.21-.25-.27-.44-.14-.43.33-.54.59-.72.13-.09.27-.34.35-.37.11-.04.4.26.52.3.17.06.34-.17.5.01l-.39.21c.12.3.49-.09.62.1.04.05-.19.85.17,1.01.23-.67.86-1.48,1.42-.64l.25-.55c-.17.05-.58-.11-.66-.09-.02,0-.31.3-.35,0-.02-.11.27-.09.3-.13.02-.02-.02-.36.02-.52.1-.35.58-1.33.99-1.26.08.01.14.13.2.15.09.02.16-.08.19-.06.1.08.13.49.18.49.2-.24-.1-.39.06-.68.1-.17.82-1.05.94-1.08.1-.03.61.29.7.27.05-.01.14-.37.26-.43.12.04.28.39.32.38.02,0,.25-.26.43-.18.09.08-.46.64.11.58.06-.27.44-1.38.68-1.43.07-.06.17-.09.29-.08.09.1.47.52.51.53.03,0,.35-.15.49-.17.41-.06.71.09.88-.4l.14.34c.25-.13.37-.53.56-.66.09-.07.22.25.3.04.02-.05,0-.22.05-.36.04-.12.22-.32.22-.34,0-.07-.37-.16-.43-.26.18-.16.44-.14.65-.28.33-.23.28-.49.85-.28.06.24-.01.68-.21.82-.11.08-.41.02-.5.14-.04.05,0,.19-.06.28-.08.11-.24.13-.3.26-.04.08.01.27-.09.33,0,0-.11-.05-.2,0-.43.27-.1.31-.02.55.06.19-.2.51.2.61,0,.16-.89.73-1.01.93s.11.32-.01.53c-.13.23-.39.51-.67.46-.26-.14.34-.62.14-.86-.19.15-.23.43-.39.58-.22.22-.74.06-.51.6.35-.46.65-.04,1.09.06.29.06.98.07,1.09-.27-.15-.12-.38.03-.53-.04-.33-.15-.19-.46.07-.61.09-.05.82.2,1.04.13.09-.03.16-.17.31-.2.18-.04.39.02.58-.07.27-.12.36-.34.55-.46.11-.07.31-.03.46-.08.13-.04.4-.22.43-.22.04,0,.16.28.28.35.04.02.49.1.52.09.07-.03.06-.34.41-.33.07,0,.16.1.21.09.1-.02.58-.43.88-.31.02.08,0,.49.07.49.07,0,.27-.31.42.14.12-.1.09-.23.09-.36-.08-.03-.08-.07,0-.12.03,0,.15-.2.22-.25.47.92,1.16-.54,1.79.32-.04-.63.63-.37.8-.56.12-.14.27-1.03.47-1.07.21.12,0,.34.09.49.52.87,1.66-.14,2.41.33.04.03-.17.46-.18.61-.01.21.31.85-.13.54-.17-.12-.2-.2-.43-.27-.1-.03-1.83.01-1.93.04-.5.17-.99,1.07-1.56.69.81-.37.05-.38-.2-.02-.15.22-.06.73-.29.95-.14.13-.63.14-.74.52l-.29-.68c-.38.26.31.36-.03.65-.5.43-.46-.09-.54-.11-.35-.09-1.2.9-1.21,1.16-.03.44.44.19.62.27.12.06.28.26.34.26.04,0,.16-.17.31-.17.18,0,.52.33.79.25.13-.04,0-.4.27-.32.21.06-.07.23-.07.27,0,.05.55.28.61.27.11,0,.97-.55,1.13-.52.11.02.15.24.23.28.1.05.41-.18.57-.24.18-.07.38-.01.49-.16-.47-.32-.11-1.35.48-1.07.46.22.03,1.1.09,1.11.41-.04.91-.07,1.31-.19,0-.16.07-.17.12,0,.24,0,.95.31.91.57-.02.11-1.05,1.29-1.08,1.67l-.6-.83c0,.37-.24.37-.45.56-.09.08-.11.26-.21.29-.06.01-1.02-.23-1.14-.27-.21-.08-.41-.19-.58-.33-.04.44-.52.6-.63.96-.07.22.25.34.07.47-.04.03-.74-.29-.89.28-.19.03.1-.8-.46-1.03-.35-.14-.62.89-.82.7-.12-.11.28-.52.07-.59-.1-.03-.22.4-.45-.17-.18.43-.78.52-.74,0,0-.07.08-.1.08-.12q.32-.28,0,0c-.16.01-.26-.22-.46.15l-.15-.46c-.02.25-.29.54-.32.74-.02.13.41.9.43,1.15.02.22-.26.59-.18.66.29.25.56-.58.66-.7.54-.69,1.55-.21,1.08.39-.21.28-.75.3-1.05.46.1.06.4.38.44.38.05,0,.21-.37.42-.29.29.12.12.48.33.61.08-.06.31-.05.33-.06q.27.26,0,0s.03-.21.12-.26c.1-.06.25.07.31.02.08-.06.13-.31.24-.43.28-.32.29-.1.38-.52.1-.48.43-.07.46-.07.11,0,.31-.19.51-.22.26-.04.52.12.77.12-.29-.24-.42-.87.04-.95s.71.87.8.86c.22-.51.61.02.65,0,.08-.02.11-.22.07-.27-.08-.11-.46,0-.57-.16.25-.3.57-.23.9-.16-.38-.33-.14-.69.32-.44-.19.27-.37,1.34-.55,1.49q-.3-.1,0,0c.09.15.1.28.21.39.56-.73.22.66.41.67.5-.09.81-.9,1-1.04.2-.15.33.29.41.28.06,0,.05-.41.6-.28.2.05.3.28.53.1s-.35-.25-.35-.35c.11-.15.38-.47.58-.43.68.12.01.55.02.62,0,.02.25.19.32.3s.08.25.18.34c.38.37,1.41.1.86.95-.15-.27-.16-.5-.56-.37.24.13.62.81.58,1.04-.02.12-.18.25-.18.28,0,.06.26.17.3.27,0,.03-.17.39-.19.51-.03.14.05.37,0,.46-.2.35-.63.33-.66,1.06-.02.55.34.64.47,1.11.39-.55.01-.28-.18-.65-.25-.51.92-.64,1.21-.31,0,.05-.58.44-.68.66-.03.06.34.39-.1.63.54.17.14.2.13.22,0,.16-.06.16-.12,0-.16-.04-.2-.1-.38,0l.1-.19-.1-.14c-.34.64-.76-.05-1.14-.32.41-.15.18-.46,0-.76-.41.18-.5.68-.78.91-.23.19-.56-.04-.7.07-.1.08-.03.31-.14.35-.27.12-1.08-.25-1.3-.46-.28.34-.11.41.07.61.03.03-.14.3.06.26.08-.02.15-.36.21-.37.2.31.54.68.93.57l-.31-.27c.34-.39.57.22.66.23.09,0,.38-.28.47-.3.06,0,1.13.13,1.19.15.18.06.29.36.35.35.02,0,.17-.2.3-.26.08-.04.56-.1.58-.08.04.03-.13.36.12.43-.31.17-.52-.17-.66.2-.17.43.19.22.42.47l-.38.32c.31.39.33.04.41.03.21-.04-.02.38.08.48.05.05.37.03.44.18l-.69.17c.4.37.55.29.97.07.16.08-.03.28.04.36.1.13.4.18.52.32.11-.12-.14-.18-.18-.31-.06-.23.45-.56.57-.72.06-.08-.04-.23.09-.3.08.08.11.2.22.25.18.09.47-.08.54.12.06.16-.26.16-.38.32s-.07.4-.16.54c-.13.19-.36.1-.18.32.23.29-.27.12-.4.14-.12.02-.23.15-.34.15-.13,0,0-.25-.15-.38-.31-.27-1.09-.4-1.44-.7-.11.11.12.16.17.31.02.06-.05.15-.03.21.02.09.15.14.15.16,0,.03-.4.16-.41.41-.02.29.6.19-.32.7.45,0,1.3.55.49.64-.42.05-.39-.23-.56.33-.25.07-.28-.14-.41-.29-.3.26-.35.71-.54,1.01-.1.16-.66.74-.65.79,0,.04.4.37.22.63-.2-.13-.28-.4-.48-.52-.15-.09-.3,0-.42-.05s-.31-.27-.34-.27c-.02,0-.15.18-.36.24-.33.09-.63-.07-.95-.11-.19.18.32.27.21.51-.08.19-.53.3-.69.11-.03-.03.08-.15.04-.19-.12-.13-.45-.18-.62-.09.49.34,1.11,1.5.38,1.85.28-.03,1.39,0,1.44.35,0,.08-.36.17-.3.35.09.28.63.32.26.6,1.01-.02.46.9.54,1.11.12.3,1.17,1.24,1.18,1.33-.09.15-.6.45-.59.58,0,.11.96.98.14,1.47-.1.06-.65-.15-.73-.22-.17-.15.07-.27-.05-.37-.1.13-.2.25-.36.33-.21.1-.83.02-.88.03-.12.03-.21.24-.33.27-.13.04-.3-.19-.42-.16-.28.07-.35.75-1.04.21-.19-.15.1-.25.17-.4-.72-.22-.52-.61-.73-1.03-.12-.24-.51-.4-.55-.66-.02-.12.42-.94.48-.95l.31.15-.47-.72-.73.47c.26.18.61-.44.77-.21.11.15-.25.69-.34.85-.32-.29-.31.23-.56.02.14.76-.68.8-1.14,1.2-.19-.09-.03-.37-.18-.46-.03-.02-.61-.15-.66-.15-.39.02-.23.45-.5.66-.12-.22-.02-.85-.11-1.01-.11-.21-.7-.15-.51-.49-.23.06-.99-.21-1.13-.14s.02.17.02.2c-.02.13-.32.28-.45.24-.18-.05.06-.21.03-.35-.03-.18-.32-.29.02-.51.1-.06.25,0,.31-.14-.16-.09-.68.17-.78.08-.04-.04,0-.24-.06-.25-.02,0-.14.23-.36-.09l.24-.34-.41.03.18.43-.4.09c.45.26-.22.64-.5.7-.46.09-.27-.2-.9.18ZM56.77,68.74l-.27.31.06.05.27-.31-.06-.05ZM62.48,71.86c0,.12.36.09.35-.03s-.36-.09-.35.03ZM59.59,68.1l.25.21c.11-.13.23-.18.07-.27l-.32.05ZM67.61,74.38c0,.17.12.09.21.01.2-.18.41-.46.35-.74l-.41-.08c.1.32.12.55-.14.8ZM49.76,56.05c-.09.07-.11.2-.04.3l.16-.19-.13-.11ZM72.46,71.88c-.19.19-.48.19-.61.46.1.1.17-.1.32-.04.1.04.25.23.28.23.14,0,.19-.56,0-.65ZM50.82,51.09c-.09.2.09.4.29.28.09-.06.96-.71,1-.76.11-.14.11-.25.08-.42-.14.09-.53-.05-.56-.04-.09.02-.05.26-.09.32-.14.23-.46.35-.44.81l-.28-.18ZM57.43,52.9c-.42-.42-.79.32-.05.44.04,0,.77-.27.8-.3.2-.21-.14-.25-.19-.33-.17-.27.46-.71.65-.85-.74-.22-.5.22-.69.56-.15.25-.3.33-.51.48ZM55.8,50.22c-.16.04-.28.79-.16.95.2-.17.41-.59.62-.71.13-.07.25.06.36.06.28,0,.7-.23.35.36l.36.09-.12.33c.62-.28.4.22.73.41.06.03.19-.27.41-.03-.49-.81-.02-.54.15-.84.15-.26-.28-1.14-.55-1.24-.02.3.33,1.24-.1,1.37-.02,0-.35-.1-.37-.12-.06-.06-.03-.26-.13-.37-.11-.12-.87-.54-.88-.67.25-.28.71-.3,1.05-.47.05-.07-.39-.61-.46-.66-.05-.04-.34.15-.41.09-.13-.11.24-.44.29-.55.18-.4-1.12-.26-.52.25-.59.19-.16.15-.18.35-.01.16-.23.25-.23.27,0,.11.37.54.24,1.01-.13.5-.33.1-.46.13ZM54.57,50.26c.11.18.7.24.8.08.12-.21-.45-.2-.41-.41l-.39.32ZM55.58,49.71c-.15.13-.2.29-.03.41.2-.16.13-.21.03-.41ZM76,66.31l-.21.25.06.05.28-.2-.13-.11ZM61.06,50.32c.02.07.16.14.2.25.06.18-.18.49.2.66.07-.49.7-.25.35-.79-.16.35-.63.04-.51-.17.1-.18.4,0,.44-.02.06-.02.05-.19.1-.22.02-.01.35.12.45-.17-.59.05-.65-.14-.87-.63-.06.15-.38,1.03-.36,1.09ZM64.38,51.11c-.12-.36-.38-.17-.51-.24-.07-.04-.64-.77-.86-.55-.03.03-.12.31-.11.35,0,.03.39.52.43.52s.43-.27.62-.24c.3.05.34.55.93.13.35-.25-.05-.72-.36-.77.13.32.05.53-.14.8ZM64.15,49.72c0,.06.28.12.33.18.11.14-.18.29-.05.38.91-.7.11-.45.05-.5-.06-.04,0-.24.09-.3.17-.12.26.19.28.18.08-.02.11-.27.18-.32.03-.02.46,0,.63-.07s.38-.29.59-.36c-.3-.05-.19-.23-.27-.45l-.48.57c-.44-.21-.01-.46-.18-.81-.37.3-.45.67-.68,1.05-.2-.15-.03-.42-.2-.6-.14-.15-.69-.43-.49-.07.12.21.29.29.36.56.09.35-.17.54-.17.57ZM68.04,52.05c.32.18.17.36.23.63.13-.15.28-.23.48-.25.37-.02.63.37.79.03l-.29-.03.38-.33c-.28-.03-.48-.15-.67-.36-.07.18.21.32-.11.45l-.8-.14ZM69.68,52.03c.3.15.3.38.59.07l-.26-.33-.33.26ZM70.78,51.88s.19.22.24.1c-.26-.23.39-.38-.06-.7.1.23-.19.57-.19.6ZM71.23,51.61c.3.24.68.1.65-.32l-.13.22c-.22-.29-.27,0-.52.1Z"/>
        <path class="cls-39" d="M42.78,53.26c.2.29.1.45-.24.34l.24-.34Z"/>
        <path class="cls-43" d="M57.43,52.9c.35.35-.27.32-.28.2.07-.1.18-.13.28-.2Z"/>
      </g>
      <g>
        <path class="cls-39" d="M59.02,71.97c.07.08.21.13.23.24.04.19-1.16,1.55-1.41,1.45-.54-.21-.55-.87-.58-1.35l-.39.21c.09-.44-.07-.84-.1-1.23,0-.09.1-.2.1-.27s-.14-.16-.14-.25c0-.44.37.12.39.11.06,0,.3-.43.66-.27.24.11-.09.91.46.68.62-.26-.76-1.12-.25-1.69.29-.32.83.32,1.01.48.7.82-.12,1.59-.79,2.09l.15.2c.22-.38.44-.52.68-.41Z"/>
        <path class="cls-39" d="M58.43,71.9c.41.04-.06.49-.18.28-.07-.12.12-.28.18-.28Z"/>
      </g>
    </g>
  </g>
  <path class="cls-13" d="M25.85,56.27l-9.26,6.93s-5.42,60.52,68.41-.51l4.22,2.76,2.36-19.76-14.75,10.46,4.57,3.11s-64.57,52.21-55.56-2.98Z"/>
  <g>
    <path d="M37.9,29.01l6.7-17.61-15.77,10.3-14.67-11.82,4.93,18.19-15.77,10.3,18.82.93,4.93,18.19,6.7-17.61,18.82.93-14.67-11.82ZM32.27,37.42l-4.75,12.48-3.49-12.89-13.34-.66,11.18-7.31-3.49-12.89,10.4,8.38,11.18-7.31-4.75,12.48,10.4,8.38-13.34-.66Z"/>
    <path d="M32.82,30.55l3.35-8.79-7.88,5.15-7.33-5.9,2.46,9.08-7.88,5.15,9.4.47,2.46,9.08,3.35-8.79,9.4.47-7.33-5.9ZM30.01,34.75l-2.37,6.23-1.74-6.44-6.66-.33,5.58-3.65-1.74-6.44,5.2,4.18,5.58-3.65-2.37,6.23,5.2,4.18-6.66-.33Z"/>
  </g>
  <polygon class="cls-16" points="66.57 38.72 83.37 27.02 81.34 35.73 73.83 41.06 72.65 38.29 67.6 40.52 66.57 38.72"/>
  <path class="cls-16" d="M63.38,30.24c.09-.07,18.36-17.37,18.36-17.37v11.09l-8.28,7.31-.9-1.95-7.15,4.37-2.03-3.45Z"/>
  <circle class="cls-14" cx="46.67" cy="50.52" r="25.95"/>
  <g>
    <path class="cls-15" d="M32.5,28.8s-11.78,31.66,10.71,47.46"/>
    <path class="cls-15" d="M49.49,24.74s24.36,19.19,14.9,44.76"/>
    <line class="cls-15" x1="40.34" y1="25.37" x2="53.14" y2="75.68"/>
  </g>
  <g>
    <path class="cls-15" d="M28.98,69.5c-.67.78,22.62,6.57,43.59-14.09"/>
    <path class="cls-15" d="M20.73,51.15s10.71-22.35,44.95-18.44"/>
    <line class="cls-15" x1="22.29" y1="60.46" x2="71.78" y2="43.93"/>
  </g>
  <g>
    <polygon class="cls-16" points="71.22 12.11 65.93 11.85 63.13 14.94 68.42 15.2 69.19 20.43 71.99 17.35 71.22 12.11"/>
    <polygon class="cls-16" points="68 15.65 62.72 15.39 59.92 18.47 65.21 18.73 65.98 23.97 68.77 20.89 68 15.65"/>
    <polygon class="cls-16" points="64.64 19.35 59.36 19.09 56.56 22.18 61.85 22.44 62.62 27.67 65.41 24.59 64.64 19.35"/>
  </g>
</svg>