<?xml version="1.0" encoding="UTF-8"?>
<svg id="icons" xmlns="http://www.w3.org/2000/svg" viewBox="0 0 100 100">
  <defs>
    <style>
      .cls-1 {
        fill: #686868;
      }

      .cls-1, .cls-2, .cls-3, .cls-4 {
        stroke: #000;
        stroke-miterlimit: 10;
      }

      .cls-5 {
        fill: #4a5a2d;
      }

      .cls-2 {
        fill: #e8efb5;
      }

      .cls-3 {
        fill: #939393;
      }

      .cls-4 {
        fill: #c2d832;
      }
    </style>
  </defs>
  <g>
    <path class="cls-5" d="M27.15,50.45c-.09.08-.47.22-.56.31-.11.12-.07.57-.39.29-.23-.21-.04-.5-.06-.52-.06-.05-.91-.09-1.02-.15-.13-.07-.13-.32-.21-.43-.07-.09-.25-.12-.35-.22-.39-.39-.29-.91-.24-1.41.23-.12.94-1.12,1.07-1.13.04,0,.22.21.29.25.06-.31.69-.25.98-.24.2,0,.46.13.58.13.04,0,.03-.14.05-.15.36-.23.29.4.42.69.06.15.26.23.28.42.2,0-.02-.26.12-.39.16-.14.46.02.61-.04.1-.04.37-.75.67-.4.25.29-.34.69-.58.72l.72.85.93,1.65c-.35-.02-.55-.34-.93-.21-.11.12.56.79.02.92-.57.14-.66-.81-.58-1.19.06-.3.62.09.71-.2-.28-.02-.71-.11-.97.02-.2.1-.26.42-.56.37.04-1.43-.59-.31-1,.07Z"/>
    <path class="cls-5" d="M29.4,57.44c-.11-.27-.61-.52-.73-.68-.11-.15-.16-.58-.33-.62-.45-.11-.5,1.14-.87,1.39-.2.13-.5.02-.42.45-.37-.16-.89-.83-.68-1.23.1-.21.9-.53.92-.67s-.26-.22-.21-.4c.14.04.88.15.92.12.14-.12.02-.67-.31-.57.34-.43.73-.22.67-.92-.58-.08-.34.34-.48.5-.29.32-.61-.02-.67.04l.11.27c-.49.09-.96.31-1.39.56-.15.22.58.46.24,1.06-.55.97-1.48-.34-1.11-1.03.07-.12,1.29-.76,1.49-1-.03-.24-1.06.15-.93-.16.06-.14.72-.48.87-.66.25,1.29.7.11.54-.03-.04-.03-.54-.02-.49-.43.48.04.98.08,1.36.43.41-.37,1.3-.48,1.68-.75.18-.13.09-.35.17-.37.25-.06.87.27.91.54.08.46-1.22.84-1.6.8l.06.18c.32-.31.97,0,1.07.35.03.09-.13.35-.13.54,0,.31.21.76.12.96-.06.15-.37.24-.44.4-.14.31.36.72-.56.5.14.33.29.15.38.16.11.38-.14.26-.16.29Z"/>
    <path class="cls-5" d="M44.49,50.38l-.47-.15c.19.68-.21.73-.76.54-.39-.13-.87-1.02-.26-1.22.42-.14,1.22.18,1.01-.54-.06-.19-.47-.6-.31-.73.08-.06.76-.31.84-.3.12.01.13.33.18.36.31.17.26-.25.36-.37.2-.24.86-.3.74-.85-.1-.44-.39-.17-.59-.21-.4-.08-.47-1.03.1-1.17.32-.08.3.21.56-.24-.04.68.59.65,1.07.84.03-.46.02-.99.59-.64.64.4-.11.9.08,1.05.24-.01.61-.13.66.18.07.46-.5.52-.36.9.15.42.46.37.81.35-.95.93-.95-.4-1.23-.56-.05-.03-.66.17-.82.11-.05-.25.35-.21.1-.56-.34.23-.53.64-.91.8.02.21.36-.04.48.11.1.12.19.61.05.73-.16.13-.69.05-.92.11v-.55s-1.24,1.15-1.24,1.15c.01.11.57.05.33.76,0,.02-.06.06-.08.1Z"/>
    <path class="cls-5" d="M23.23,46.76c-.63.16-1.61-.03-1.8-.74-.03-.11-.17-1-.17-1.06.02-.14,1.53-1.53,1.74-1.55.57-.06,1.6.55,1.76,1.12.06.22.13.95.09,1.15-.06.26-1.32,1-1.62,1.08Z"/>
    <path class="cls-5" d="M36.64,45.8s-.07-.24-.17-.25c-.15-.03-.22.24-.37.29-.42.15-1.19-.63-1.32-1.01-.07-.21-.06-.38-.11-.57-.04-.14-.19-.24-.19-.34.02-.25.73-.98.98-1.13.25-.15,1.06-.4,1.33-.39.07,0,1.14.7,1.18.76.18.27-.12,2.11-.42,2.2-.09.02-.24-.08-.35-.04-.09.03-.34.61-.56.48Z"/>
    <path class="cls-5" d="M41.95,45.79c-.33-.5-.07-.51.07-.92.05-.14,0-.31.06-.46.08-.21.41-.3.46-.47.11-.44-.59-.97.1-1.32.01.35.11.64.5.61.04-.38-.5-.63-.57-.87-.12-.37.43-.5.33.06.36-.58.3-.15.42-.12.32.07.33-.19.33.43.26.04.23-.33.4-.39.12-.04.42.07.63.04.28-.04.48-.36.69-.11.48.57-.17.35-.31.37s-.08.29-.13.34-.24.02-.34.09c-.26.17-.37,1.38-1.31,1.6-.15.03-.66.03-.68.05-.02.03.08.45,0,.64-.05.12-.58.46-.66.41Z"/>
    <path class="cls-5" d="M19.14,71.5c-.08.11.32.53-.64.39-.72-.11.05-.48-.06-.92-.19-.78-.51-.14-.74-.24-.05-.02-.72-.69-.74-.73-.4-.72.63-1.25,1.16-1.05.08.03.54.44.57.53.18.46-.33.93.16,1.3.37.28,1.51-.43,1.38.68-.09.77-1.02-.07-1.1.04Z"/>
    <path class="cls-5" d="M20.58,82.5c-.17-.16-.29-.32-.5-.47-.11-.08-.36-.1-.37-.12-.04-.05.25-1.21.32-1.3.1-.13,1.4-.36,1.66-.49.03-.16-.18-.03-.2-.12-.06-.27.68-1.04.67-.46,0,.35-.18.63-.06,1.05.06.21.36.4.31.61-.06.27-.95.09-1.18.27-.19.14.06.69-.06.89-.11.17-.45.08-.59.13Z"/>
    <path class="cls-5" d="M24.5,70.53c-.11-.09-.14-.38-.33-.46-.41-.17-.81.47-1.04-.47.49-.09.71.62.9-.29-.44.04-.88.15-1.21-.24l.26-.5c.38-.07.27-.57.3-.6.21-.25.31.25.34.26.31.06,1.05-.07,1.34.12.18.12.09.46.13.5.12.11.81-.33.67.32-.32.07-1.1-.04-1.28.22-.39.58.41.4.49.49.22.22-.1,1.04-.56.65Z"/>
    <path class="cls-5" d="M21.18,63s-.38.1-.51-.05c-.11-.59.29-.25.72-.32.24-.04.39-.22.62-.23.68-.03,1.75,1.19,1.33,1.82-.29.43-.55.05-.84,0-.25-.05-1.06-.03-1.13-.07-.21-.12-.1-1.08-.17-1.14Z"/>
    <path class="cls-5" d="M23.1,81.76c0-.25-.07-.52-.05-.77.02-.23,1.04-2.06,1.2-2.21.58-.53.69.24.85.72-.26.23-1.62,2.6-2,2.26Z"/>
    <path class="cls-5" d="M53.12,38.85c.25-.31.8-.24,1.13-.12,1.5.54-.22,2.73-1.04,1.5-.19-.29-.3-1.12-.09-1.38Z"/>
    <path class="cls-5" d="M32.28,50.61s.02-.24.12-.37c.45-.62,1.03.28.66.78.39.06.19-.19.39-.39.4.25.51.28.97.11,0,.52.32.86.05,1.37-.45.84-.49.17-.69-.09-.26-.34-.75-.54-.92-.71-.1-.1-.21-.53-.5-.49-.09.01-.29.47-.67.26-.5-.27.56-.44.6-.47Z"/>
    <path class="cls-5" d="M20.4,71.13c-.18-.39.53-.59.58-.7s-.34-.88.02-1.14.51.23.8.26c.39.05.75-.17,1.13-.17-.08.5-.6.84-.55,1.32-.35.09-.05-.29-.34-.25-.44.06-.98.89-1.65.67Z"/>
    <path class="cls-5" d="M59.39,64.71c-.4.15-.57.53-1.07.44-.13-.1.39-.72.47-.75.22-.09,1.71-.06,1.85.06.05.04.2.32.22.4.34,1.37-1.87,1.24-1.46-.15Z"/>
    <path class="cls-5" d="M50.95,43.39c-.03.49.15.81-.27,1.26-.3.32-.55.1-.33.62-.44.03-.5-.33-.51-.7-.25-.07-.16.18-.25.25-.54.38-.28-.27-.3-.3-.01-.02-.33.24-.46-.01.09-.19.41-.13.49-.26.13-.23-.1-.59.53-.83.29-.11.73.02,1.1-.03Z"/>
    <path class="cls-5" d="M14.19,67.82c-.24,0-.33.34-.59.4-.7.16-1.34-1.34-.2-1.42.49-.03.52.34.93.42.19.04.62-.02.65,0s.05.56.03.67c-.08.38-.87.45-.81-.06Z"/>
    <path class="cls-5" d="M30.93,48.76l-.3.33-.08-.45c-.45.98-.83.44-.68-.41.07-.4.62-.95.62-1.01,0-.08-.65-.37-.47-.84.12-.31.77-.16.86.09.28.74-.36,1.11-.11,1.72.08.19.45.26.17.57Z"/>
    <path class="cls-5" d="M52.3,50.37c.04-.05,1.11-.39,1.25-.33.29.11.41.8.34,1.07s-.6.15-.4.64c-.31-.1-.4.06-.62.23-.15-.29-.77-1.32-.57-1.6Z"/>
    <g>
      <path class="cls-5" d="M24.12,84.44c-.22.58.48.8.57,1.38.04.26-.12,1.17-.27,1.38-.23.34-1.83.59-2.18.45-.25-.1-.69-.95-.73-1.23-.06-.39.09-1.13.31-1.44.03-.05.86-.57.91-.58.11-.03.4.19.63.19.26,0,.49-.17.76-.14Z"/>
      <path class="cls-5" d="M20.58,82.5c.09.08.48.32.48.38,0,.05-.51.5-.4.72.03.03.56-.28.58-.31.11-.19-.28-.67.36-.67l.16,2.15c0,.09-.46.4-.59.44-.98.26-.93-.7-.95-1.38-.17.14-.68.39-.81.09-.2-.48.77-1.26,1.17-1.4Z"/>
      <path class="cls-5" d="M18.78,85.18c-1.03.3-1.48-1.27-.36-1.51s1.51,1.18.36,1.51Z"/>
    </g>
    <path class="cls-5" d="M36.5,46.21c.43-.69,2.08-.35,1.48.72s-2,.11-1.48-.72Z"/>
    <path class="cls-5" d="M20.34,50.21c.21-.89-.23-.59-.53-.92-.2-.22.46-.89.66-.98.28-.11,1.07-.17,1,.25-.05.27-.82,1.91-1.13,1.64Z"/>
    <path class="cls-5" d="M18.97,73.97c-.8.2-1.25-1.39-.17-1.53.96-.12,1.19,1.28.17,1.53Z"/>
    <path class="cls-5" d="M47.19,49.82s.16.66.17.76c.06.91-1.28.76-1.47-.1-.07-.33.34-.73.63-.78.05,0,.65.1.67.12Z"/>
    <path class="cls-5" d="M48.94,48.58c.1.27.28.49.25.81.8-.42.99.87.11.82-.09,0-.07-.45-.35-.34l.04.5c0,.08-.19.07-.22.06-.07-.03-.62-1.38-.61-1.46.05-.21.62-.26.79-.39Z"/>
    <path class="cls-5" d="M50.23,48.58s-.08-.67-.15-.72c-.03-.03-.29.12-.41.13-.34.03-.88-.53-.66-.88-.22.11-.41-.12-.29-.25.09-.11.38.13.42.13.18-.01.31-.7,1.01.14.37.44.48.78.25,1.31-.03.06-.03.32-.18.14Z"/>
    <path class="cls-5" d="M25.98,62.1s-.07-.26.03-.28c.59-.15.2.2.18.33-.03.23.31.72-.29.78-.35.03-2.03-.31-1.38-.85.51-.43,1.39.13,1.47.03Z"/>
    <path class="cls-5" d="M54.74,87.72c.09-.38-.27-.56-.34-.85-.15-.68,1.15-1.89,1.39-1.01.25.95-.76.74-.85.84-.02.02-.1.55-.1.6,0,.04.32.42-.1.42Z"/>
    <path class="cls-5" d="M19.41,68.81s-.15-.44-.27-.43c-.03,0-.13.23-.33.2-.17-.03-.51-.51-.87-.59-.26-.06-.89.17-.82-.33.02-.14,1.17-.37,1.25-.31.03.02.04.21.12.3.21.22.58.31.74.63l.03-.28c.69-.1.57,1.03.16.81Z"/>
    <path class="cls-5" d="M54.09,89.77c-.27.06-.48-.65-.44-.9.03-.21.59-1.06.87-1.05.26.06.29,1.38.04,1.65-.03.03-.43.29-.46.29Z"/>
    <path class="cls-5" d="M11.3,66.92c-.53.19-1.27-1.06-.77-1.36.25-.15,1.11.07,1.2.3.11.27-.17.96-.44,1.06Z"/>
    <path class="cls-5" d="M20,94.55c-.04-.05-.09-.73-.07-.85.05-.47.99-.77,1.21-.51s-.26,1.31-.66,1.42c-.11.03-.43,0-.47-.06Z"/>
    <path class="cls-5" d="M25.52,42.84c-.29.11-1.01.07-1.04-.3-.08-.93,1.5-1.33,1.51-.31,0,.14-.34.56-.47.61Z"/>
    <path class="cls-5" d="M22.03,66.86c-.12-.11-.19-.48-.15-.64.05-.22.41-.25.43-.28.05-.08-.29-.43-.22-.74.04-.19.58-.69.76-.58.41.61-.2,1.1-.3,1.58-.04.2.03.56,0,.63-.05.1-.4.13-.52.03Z"/>
    <path class="cls-5" d="M23.2,83.13s.09-.4.17-.45c.09-.06.53-.08.63-.03.17.1.12.66.14.86-.27-.06-1.33.47-1.44.43-.23-.09-.32-.39-.21-.61.3-.65.59-.11.71-.2Z"/>
    <path class="cls-5" d="M40.11,45.65c.19,0,.15.25.23.32.15.13.46,0,.56.5.21,1.07-.96,1.26-1.13.22-.08-.51.21-.62.34-1.04Z"/>
    <path class="cls-5" d="M27.1,53.28s-.29-.35-.29-.42c0-.09.25-.94.31-1.02.21-.31.21.03.32.11.33.25.84.39.7.94-.06.23-.84.49-1.04.39Z"/>
    <path class="cls-5" d="M55.93,87.89s-.05-.38.4-.46c.29-.05.18.68.12.87-.21.66-.88.46-1.35.23-1.11-.54.78-.58.84-.64Z"/>
    <path class="cls-5" d="M58.45,88.17c-.23-.15.08-.58.04-.64-.02-.02-.33-.05-.43-.25-.28-.51.76-.67,1.1-.63.08.2-.06.52-.02.67.03.1.21.19.18.36-.02.12-.72.57-.87.48ZM58.68,87.7l.27-.02v-.18c-.14-.02-.25.07-.27.2Z"/>
    <path class="cls-5" d="M20.09,66.83c-.12-.06-.02-.51-.05-.53-.08-.08-.53.05-.59-.56-.06-.64.87-.69.98-.33.04.13-.06.3-.04.44.04.23.46.8.1.95-.08.03-.33.07-.39.03Z"/>
    <path class="cls-5" d="M65.66,69.78c.51-.59,2.05.57.99.9-.7.22-1.42-.4-.99-.9Z"/>
    <path class="cls-5" d="M43.78,46.55s.45.28.05.39c-.35-.55-.95-.05-1.1-.71-.2-.91.95-.99,1.07-.43.05.24-.14.51-.01.75Z"/>
    <path class="cls-5" d="M8.04,57.61c-.07-.09-.02-.4-.05-.53l1.02.11c-.19-.42-.54-1.17.19-1.11-.12.32.34,1.17.24,1.36-.19.35-1.27.35-1.4.18Z"/>
    <path class="cls-5" d="M21.37,68.52c-.17-.17-.4-.04-.04-.39l.2.26c.26-.25.4-.66.83-.61.12.4-.28.44-.31.76l.54-.13.15.82c-.18,0-.5.1-.65,0-.09-.05-.09-.24-.16-.31-.09-.1-.33-.16-.56-.39Z"/>
    <path class="cls-5" d="M12.94,59.26c-.06-.03-.25-.43-.28-.53-.13-.58,1.14-1.1,1.2-.21.03.47-.52.93-.92.74Z"/>
    <path class="cls-5" d="M13.37,46.75c-.44.52-1.46-.27-.88-.88.68-.71,1.29.4.88.88Z"/>
    <path class="cls-5" d="M38.78,43.56c.2-.42,1.48-.33,1.16.54s-1.47.1-1.16-.54Z"/>
    <path class="cls-5" d="M26.92,78.82l.83.03c-.31-.7-.09-.97.66-.97-.01.16.1.88.07.91-.03.03-.43,0-.58.06-.19.08-.65,1.2-.98-.03Z"/>
    <path class="cls-5" d="M33.03,52.76c-.65.13-.87-1.02-.23-1.14.52-.09,1.35.91.23,1.14Z"/>
    <path class="cls-5" d="M13.96,65.91c.57-.34,1.6-.41,1.28.55-.27.77-1.16-.05-1.28-.55Z"/>
    <path class="cls-5" d="M55.03,44.67c.03-.09.26-.75.27-.92.02-.32-.22-.47-.16-.64.08-.24.54-.61.73-.45.1.08-.53,2.23-.66,2.47-.04.07-.07.16-.16.16,0-.2-.08-.42-.01-.62Z"/>
    <path class="cls-5" d="M55.6,82.87c-.5.09-.76-.75-.03-.97,1.23-.38.82.83.03.97Z"/>
    <path class="cls-5" d="M65.42,83.01c.08-.06.28-.03.39-.04l.89.16c-.51.15-.23.65-.74.82-.71.23-.69-.82-.54-.94Z"/>
    <path class="cls-5" d="M22.76,55.52c-.08-.04-.46-.63-.62-.71.37-.5,1.69-.13,1.37.5-.08.16-.59.3-.75.22Z"/>
    <path class="cls-5" d="M10.21,53.61c-.54.74-1.21-.37-.6-.55.53-.16.59.36.64.37.21.04.69-.2.76-.15-.22.46-.53,1.21-.8.33Z"/>
    <path class="cls-5" d="M55.99,81.02c.08-.09.84.16,1,.18.15.02.76-.21.69.29-.03.19-.33.04-.45.12-.19.11-.07.42-.37.34-.16-.04-.99-.8-.86-.93Z"/>
    <path class="cls-5" d="M64.5,40.29c-.27-.31.51-1.75.73-2.07.08-.11.13-.23.3-.21-.13.77-.35,1.45-.8,2.09-.07.1.02.23-.22.19Z"/>
    <path class="cls-5" d="M31.24,48.51s.19-.02.25-.08c.12-.11.14-.36.3-.34.04,0,.53.43.54.47.08.25-.47.29-.51.37-.1.18.23.67,0,.72s-.66-1.04-.58-1.14Z"/>
    <path class="cls-5" d="M27.15,50.45c1.09-.49,2.06,2.07.57.23-.2.04,0,.41-.06.54-.03.06-.49.18-.53.14.02-.23-.24-.8.02-.92Z"/>
    <path class="cls-5" d="M55.84,92.39c-.6.1-.77-1.08.02-1.06.54.01.51.97-.02,1.06Z"/>
    <path class="cls-5" d="M22.59,53.35c.19-.07.44.08.59.05.04,0,.04-.38.38-.13.28.21-.02.67.44.53,0,.43-.39-.01-.23.57-.12.16-1.09-.86-1.17-1.01Z"/>
    <path class="cls-5" d="M27.23,61.64s.21.53.22.59c.21.93-.8.99-.71-.02.02-.21.26-.74.49-.56Z"/>
    <path class="cls-5" d="M67.06,72.49c-.5.19-1.51-.86-.57-1.01.2-.03.93.88.57,1.01Z"/>
    <path class="cls-5" d="M58.03,90.05c.41-.02.37.44.56.69.15.19.74.33.63.51-.07.11-.58.32-.77.15-.1-.09-.47-1.27-.42-1.35Z"/>
    <path class="cls-5" d="M65.05,71.03c-.26-.31-.36-.33-.21-.84.17-.06.18.06.27.13.18.15,1,.81.58.98-.51.2-.46-.07-.64-.27Z"/>
    <path class="cls-5" d="M27.72,41.49c-.5.2-1.11-.68-.38-.94.52-.18.78.77.38.94Z"/>
    <path class="cls-5" d="M70.46,70.11s.51.34.13.39c-.35.04-1.57-1.01-.74-1.41.28-.08.24.46.31.62.05.11.2.3.3.4Z"/>
    <path class="cls-5" d="M7.01,57.42c.11.11.33.42.17.55-1.43.59-1.05-1.39-.17-.55Z"/>
    <path class="cls-5" d="M29.31,40.92c-.21-.11-.29-1.06.32-1.03.03,0,.33.38.34.42.18.46-.34.78-.66.61Z"/>
    <path class="cls-5" d="M68.15,71.5c.01-.14-.04-.31-.03-.46.06-.07.98.11,1.02.25-.07.3-.11.57-.47.62-.29.04-.3-.21-.52-.42Z"/>
    <path class="cls-5" d="M27.76,46.18c.16-.4-.3-.67-.33-.76-.14-.46,1.06-.06,1.11.11s-.54.73-.78.65Z"/>
    <path class="cls-5" d="M25.68,63.33s.35.29.37.31c.3.43-1.4.64-1.11,0,.08-.18.55-.37.74-.3Z"/>
    <path class="cls-5" d="M8.54,51.69c-.35.03-.62-.63-.1-.85.81-.34.76.8.1.85Z"/>
    <path class="cls-5" d="M58.34,80.48c.11-.12,1.69.56,1.7.66.05.47-2.03-.29-1.7-.66Z"/>
    <path class="cls-5" d="M68.51,67.61c-.08-.18-.22-.55-.11-.72.05-.08.61-.23.68-.19.45.27-.08,1.04-.57.91Z"/>
    <path class="cls-5" d="M53.55,41.27c-.62.42-.94-.6-.36-.69.52-.08.81.99.42.96-.16-.02-.05-.26-.07-.27Z"/>
    <path class="cls-5" d="M66.96,50.21c.17.59-.35.7-.79.9-.39.18-.22-.42-.01-.61.11-.1.72-.36.8-.29Z"/>
    <path class="cls-5" d="M18.43,49.16c.1.77-1.59.98-1.04.25.24-.32.69-.19,1.04-.25Z"/>
    <path class="cls-5" d="M49.02,38.21c.06.05.2,1.52-.4,1.31-.35-.08.1-1.58.4-1.31Z"/>
    <path class="cls-5" d="M73.39,66.82s.24.41.2.52c-.13.32-.73.49-.86,0-.11-.41.43-.64.67-.52Z"/>
    <path class="cls-5" d="M18.88,80.17c.33-.33.86.15.39.64-.62.65-.88-.15-.39-.64Z"/>
    <path class="cls-5" d="M36.59,47.83c.13-.04.23.01.34.05,1.31.41-.43,1.72-.34-.05Z"/>
    <path class="cls-5" d="M42.31,92.29c-.14-.59.05-1.18.63-1.42.08.32-.05.56-.17.84-.03.08-.32.72-.46.58Z"/>
    <path class="cls-5" d="M57.84,85.01c.17-.23.78.88.82.98.15.35-.22.24-.42.09-.36-.27-.41-.65-.4-1.07Z"/>
    <path class="cls-5" d="M57.77,89.06c.3-.11.12.24.25.26.3.05.5-.2.76-.24.12.99-1.31.97-1.01-.02Z"/>
    <path class="cls-5" d="M48.15,86.47c-.07.1.09.53-.29.45-.16-.03-.4-.39-.37-.55.1-.28.4-.08.54-.14.09-.04.14-.27.3-.25.46.4-.11.41-.17.49Z"/>
    <path class="cls-5" d="M13.17,51.37c-.09-.5.38-.44.65-.59.33-.18.6-.47,1.02-.45-.14.62-.69.5-1.08.65-.18.07-.32.41-.59.39Z"/>
    <path class="cls-5" d="M43.88,58.41c.13-.39-.4-.45-.4-.64,0-.29.43-.47.69-.48-.06.19.14.47.14.58,0,.08-.18.09-.22.16-.06.1.16.4-.2.38Z"/>
    <path class="cls-5" d="M18.53,65.96c.16.08.43.71.03.81-.71.17-.72-1.13-.03-.81Z"/>
    <path class="cls-5" d="M16.63,67.28c.21.2-.39,1.03-.82.7-.58-.43.75-.77.82-.7Z"/>
    <path class="cls-5" d="M47.64,51.77c-.1-.08-.3-.48-.21-.61.65-.38,1.11.2.5.69-.08.02-.23-.03-.29-.08Z"/>
    <path class="cls-5" d="M21.31,72.15c-.24-.33.46-1.28.68-.54.18.6-.58.68-.68.54Z"/>
    <path class="cls-5" d="M35.7,46.89c.04.4.48.72.59,1.05.17.51-.4.07-.56-.14-.18-.24-.51-.86-.03-.91Z"/>
    <path class="cls-5" d="M11.73,51.76c.19.14-.7.67-.8.72-.47.2-.13-.7.03-.75.07-.02.55.2.77.03Z"/>
    <path class="cls-5" d="M13.99,56.27c.41-.3,1.39-.05.85.44-.38.35-.64-.12-.85-.44Z"/>
    <path class="cls-5" d="M24.44,77.54c.22.19-.79,1.4-1.04.86.31-.1.44-.68.58-.78.09-.06.42-.11.45-.08Z"/>
    <path class="cls-5" d="M22.92,51.67c-.06-.08-.25-.12-.28-.22-.15-.49.46-.24.64-.29.08-.02.34-.45.41-.14,0,.03-.22.58-.25.6-.1.07-.39.02-.53.05Z"/>
    <path class="cls-5" d="M55.87,89.38c-.18-.52.85-.81.97-.48.18.46-.7.49-.97.48Z"/>
    <path class="cls-5" d="M58.42,55.14c.06.29-.2.42-.26.68-.06.25.18.53-.06.54l-.63-.46c.23-.36.68-.42.95-.76Z"/>
    <path class="cls-5" d="M24.89,55.56c-.13.02-.14-.05-.21-.12-.56-.65.34-.97.61-.31.01.16-.27.41-.4.43Z"/>
    <path class="cls-5" d="M58.97,78.95c-.1-.05-.96-1.94-.24-1.16.22.23.84,1.47.24,1.16Z"/>
    <path class="cls-5" d="M67.65,50.72c.47-.35.08.33.11.35l.27-.11c.18.48-.48.56-.81.79l-.16-.22c.33-.07.55-.78.59-.81Z"/>
    <path class="cls-5" d="M60.09,61.72l1.33.68c-.18.63-1.49-.45-1.33-.68Z"/>
    <path class="cls-5" d="M17.65,71.24c.32.56-1.14.76-1.15.5-.01-.21.94-.51,1.15-.5Z"/>
    <path class="cls-5" d="M31.34,47.18c-.15-.14-.15-.5-.16-.7,1.17-.17.64,1.12.16.7Z"/>
    <path class="cls-5" d="M23.53,48.22c-.19.06-.46-.11-.58-.27.48-1.09,1.21.06.58.27Z"/>
    <path class="cls-5" d="M44.64,87.72c0-.22.07-.47.23-.61.62-.57.95.76-.23.61Z"/>
    <path class="cls-5" d="M47.59,48.78s.31-.05.35-.02c.13.09.26,1.07-.05,1.09-.2.01-.44-.92-.3-1.07Z"/>
    <path class="cls-5" d="M17.5,73.89c-.14-.12-.15-.43-.16-.61.18,0,.58-.11.7.04.18.22-.19.88-.54.57Z"/>
    <path class="cls-5" d="M67.76,88.79c.47-.05.67.01.54.51-.18.7-.83,0-.54-.51Z"/>
    <path class="cls-5" d="M32.35,46.3c.06-.75,1.01-.84.83.03l-.83-.03Z"/>
    <path class="cls-5" d="M19.6,48.89c.12.39-.73.96-.88.57s.6-.63.88-.57Z"/>
    <path class="cls-5" d="M61.35,63.82c-.06-.03-.2-.48-.06-.59.12-.09.86-.12,1.08-.3.28.64-.68.28-.79.42-.04.05.18.69-.23.47Z"/>
    <path class="cls-5" d="M43.86,45.47c.49-.31.69.51.6.68-.04.06-.4.19-.5.05-.12-.15-.06-.53-.1-.73Z"/>
    <path class="cls-5" d="M9.82,55.36c-.5-.37.35-1.02.68-.16-.07.27-.5.29-.68.16Z"/>
    <path class="cls-5" d="M51.83,49.01s-.11-.22-.08-.26c.04-.05.71-.53.84-.52-.14.16-.01.7-.04.74-.02.03-.69.06-.72.04Z"/>
    <path class="cls-5" d="M56.83,86.19c.06-.06.69.08.73.14.35.5-.93.85-.73-.14Z"/>
    <path class="cls-5" d="M37.06,50.29c.05-.1.75-.32.72.14-.05.65-.99.38-.72-.14Z"/>
    <path class="cls-5" d="M19.24,64.15c-.4-.35,1.13-.26,1.17-.27.04.19-.13.35-.3.39-.12.03-.84-.09-.88-.12Z"/>
    <path class="cls-5" d="M61.84,42.96c.19.38-.92,1.35-.95.85,0-.06.83-.95.95-.85Z"/>
    <path class="cls-5" d="M69.67,66.92c.13-.14.43-.15.61-.16.29,1.14-1.01.59-.61.16Z"/>
    <path class="cls-5" d="M64.65,77.63s-.37-.77-.34-.89c.35-.02.87.42.66.78-.06.1-.26.15-.31.11Z"/>
    <path class="cls-5" d="M25.05,82.28c.33.18-.15.79-.5.63-.38-.4.14-.82.5-.63Z"/>
    <path class="cls-5" d="M25.61,52.03c.04-.06.77-.19.81-.15.16.9-1.05.56-.81.15Z"/>
    <path class="cls-5" d="M54.36,50.82s-.02-.09-.07-.12c-.09-.05-.23,0-.24-.02-.17-.15.5-1.22.39-.3l.29-.39c-.04.29,0,.99-.37.82Z"/>
    <path class="cls-5" d="M67.8,54.09c.24-.48.8-.76,1.32-.83.25.19-1.16.84-1.32.83Z"/>
    <path class="cls-5" d="M63.42,65.88c.04-.53.78-.4,1.16-.45.13.54-.78.34-1.16.45Z"/>
    <path class="cls-5" d="M38.65,45.85c.15-.18.84.45.74.68-.01.03-.16.19-.17.2-.12,0-.7-.64-.57-.87Z"/>
    <path class="cls-5" d="M66.93,86.92c-.19.03-1.53-.67-.7-.68.3,0,1.14.62.7.68Z"/>
    <path class="cls-5" d="M8.91,53.34c-.45.42-.13.68-.22.83-.11.18-.48.06-.46-.26,0-.03.19-.55.21-.58.09-.14.31-.04.37-.08.12-.13.17-.08.1.08Z"/>
    <path class="cls-5" d="M23.2,66.8c-.23-1.11.53-1.17.46-.03l-.46.03Z"/>
    <path class="cls-5" d="M58.46,75.79c.33-.1.51.16.76.26.06.02.36-.07.36.07,0,.5-1.11.16-1.12-.33Z"/>
    <path class="cls-5" d="M46.66,87.76c.49-.1.72.09.69.59-.49.1-.72-.09-.69-.59Z"/>
    <path class="cls-5" d="M16.29,51.33s.27-.03.33.06c.04.06-.04.2,0,.3.04.12.32.47.2.61-.02.02-.3.03-.37-.01-.04-.03-.19-.92-.16-.96Z"/>
    <path class="cls-5" d="M48.82,88.33l.64-.05c.07.74-.72,1.01-.64.05Z"/>
    <path class="cls-5" d="M28.09,58.27s.11-.04.16,0c.02.02.31.46.32.48.1.27-.23.87-.4.45-.09-.23-.05-.67-.08-.94Z"/>
    <path class="cls-5" d="M28.66,76.22c-.14-.47.17-.66.58-.78.1.44-.12.8-.58.78Z"/>
    <path class="cls-5" d="M22.14,92.57c-.09-.07.67-1.11.83-1.16.1.28-.53,1.38-.83,1.16Z"/>
    <path class="cls-5" d="M19.01,64.92s.28.24.29.26c.22.37-.08.42-.41.33-.58-.14-.15-.72.13-.59Z"/>
    <path class="cls-5" d="M61.71,63.81c.15-.14,1.24.44.88.76-.19.17-.81-.58-.88-.76Z"/>
    <path class="cls-5" d="M68.84,65.86c.34.17.22-.49.44-.31.06.05.04.5.49.47-.14.4-.99.31-.93-.16Z"/>
    <path class="cls-5" d="M68.15,71.5c-.07.67-.88.4-.66-.23.34-.07.44.03.66.23Z"/>
    <path class="cls-5" d="M59.96,59.89c.71-.17.95.68.13.59l-.13-.59Z"/>
    <path class="cls-5" d="M45.3,43.89l.54-.68.31-.2c.09.56-.31.92-.85.89Z"/>
    <path class="cls-5" d="M23.11,70.66c0-.09-.05-.34-.03-.36.03-.04.93-.04,1.1-.08-.18.41-.69.43-1.07.44Z"/>
    <path class="cls-5" d="M15.85,80.2c.28-.32.74-.03.47.36s-.8.01-.47-.36Z"/>
    <g>
      <path class="cls-5" d="M71.31,74.58s.33-.07.42.06,0,.43.22.54c.18-.11.11-.58.19-.64.05-.04.43-.06.44-.04.04.03.15.86.17,1,.23-.09,1.26-.85,1.41-.75.01,0,.08.22.07.27-.06.17-.39.29-.4.36-.01.13.23.48.26.79.02.22-.16.94-.12.97.07.06.29-.15.27.11-.05.74-.99,1.72-1.75,1.71-.28,0-.4-.34-.67-.37-.55-.06-1.56.27-1.96.19-.52-.1-1.39-.85-1.57-1.36-.42-1.15.03-2.24,1.02-2.89.18-.12.41-.14.59-.26.37-.25.59-1.12,1.08-.84s.28,1.12.33,1.16Z"/>
      <path class="cls-5" d="M67.26,76.6c-.91.25-1.53-.36-.94-1.24.93-1.38,2.4.83.94,1.24Z"/>
      <path class="cls-5" d="M66.09,74.77c-.28-.75.73-1.44.87-.56.09.55-.47.45-.87.56Z"/>
      <path class="cls-5" d="M67.02,73.7c-.22.14-.98-.2-.95-.43.07-.45.9.17.95.43Z"/>
    </g>
    <path class="cls-5" d="M60.66,64.14c-.56.16-.72-.34-.2-.43.59-.11.7.29.2.43Z"/>
    <path class="cls-5" d="M41.02,50.33c-.14-.13-.15-.43-.16-.61.54-.2.79.35.37.68-.07-.02-.17-.03-.21-.07Z"/>
    <path class="cls-5" d="M24.01,62.79s.31-.13.34-.11.43.58.43.65c-.03.37-.92-.29-.77-.54Z"/>
    <path class="cls-5" d="M18.62,54.28s.06-.29.04-.4c-.02-.09-.19-.16-.18-.27,0-.18.77-.35.56.14-.04.08-.3.65-.42.54Z"/>
    <path class="cls-5" d="M29.88,42.54c-.06-.05-.31-.84-.25-.9.34-.07.41-.03.46.31.02.11.02.78-.21.59Z"/>
    <path class="cls-5" d="M67.73,70.8c.44.59-.71.19-1,.16.02-.52.57-.1,1-.16Z"/>
    <path class="cls-5" d="M66.68,67.76c-.26-.42.84-.47.89-.43.02.02.03.21-.02.28-.11.18-.65.11-.87.15Z"/>
    <path class="cls-5" d="M31.95,52.12c.2-.04.24-.03.36.13.53.74-.7.83-.36-.13Z"/>
    <path class="cls-5" d="M65.72,67.18c-.18-.16.16-.31.16-.33-.02-.14-.3-.31-.22-.4.1-.1.57.18.66.27.07.21-.51.54-.61.45Z"/>
    <path class="cls-5" d="M48.04,52.5s0-.2-.02-.27c.56.11.25.04.44-.26.07-.12.2-.27.35-.25.33.47-.64.91-.77.79Z"/>
    <path class="cls-5" d="M60.96,47.16c.16.13-.48.86-.53.86-.34.04.12-1.07.53-.86Z"/>
    <path class="cls-5" d="M24.11,67.92l.05-.65c.65-.04.7.74-.05.65Z"/>
    <path class="cls-5" d="M52.76,38.13c.06.09.02.32.04.44-1.31.18-.31-.82-.04-.44Z"/>
    <path class="cls-5" d="M64.91,54.76l-.04-.55c1.26-.22.29.76.04.55Z"/>
    <path class="cls-5" d="M64.51,68.19l.55-.04c.18.76-.62.81-.55.04Z"/>
    <path class="cls-5" d="M68.74,55.68c.24.21-.41.45-.56.5-.09.03-.27.18-.32-.02-.07-.26.78-.57.88-.48Z"/>
    <path class="cls-5" d="M29.59,44.85c.11-.12.72.07.54.42-.3.57-.72-.22-.54-.42Z"/>
    <path class="cls-5" d="M22.1,53.02c.1.37-.55.84-.7.46-.14-.35.49-.42.7-.46Z"/>
    <path class="cls-5" d="M6.68,55.6c-.27.22-.86-.31-.33-.5.47-.17.47.39.33.5Z"/>
    <path class="cls-5" d="M46.36,44.55c.44-.1.4.29.41.61-.7.1-.52-.09-.41-.61Z"/>
    <path class="cls-5" d="M34.52,40.82c-.22.26-.76-.56-.38-.8.21.07.48.67.38.8Z"/>
    <path class="cls-5" d="M25.42,78.29c-.15-.31.49-.82.61-.46.11.33-.35.5-.61.46Z"/>
    <path class="cls-5" d="M41.8,51.31c.04-.37.04-.5-.15-.81l.55-.04c-.1.25-.06.83-.4.85Z"/>
    <path class="cls-5" d="M25.52,79.75c.08-.08.98-.07.94.3-.33.02-.87.19-.94-.3Z"/>
    <path class="cls-5" d="M10.32,56.26c-.09-.48.02-.61.51-.59.08.39-.11.61-.51.59Z"/>
    <path class="cls-5" d="M69.65,56.8c.17-.5.57-.41.9-.54.17-.07.2-.3.41-.28l-.66.67-.66.16Z"/>
    <path class="cls-5" d="M27.36,93.57c.36.06.22.96-.07.92-.39-.05.14-.75.07-.92Z"/>
    <path class="cls-5" d="M9.52,52.92c0-.24.82-.77.88-.48-.14.38-.5.49-.88.48Z"/>
    <path class="cls-5" d="M43.35,80.3c.05.03.17.4.14.43-.19.12-.74-.11-.75-.27-.01-.14.5-.23.61-.17Z"/>
    <path class="cls-5" d="M6.55,43.6c-.09-.2-.27-.36-.23-.63.28-.09.77.33.5.56-.09.07-.21.04-.27.06Z"/>
    <path class="cls-5" d="M14.51,57.15c-.2.06-.88-.07-.85-.35.02-.22.22-.07.3-.05.22.05.55.12.55.4Z"/>
    <path class="cls-5" d="M60.63,55.9c-.3.11-.62-.39-.3-.52.46-.18.54.43.3.52Z"/>
    <path class="cls-5" d="M67.73,70.8c-.07-.1-.29-.07-.2-.39.16-.56,1.08.26.2.39Z"/>
    <path class="cls-5" d="M19.96,45s-.01-.35-.04-.45c.36-.2.82.25.49.47-.02.01-.44,0-.46-.02Z"/>
    <path class="cls-5" d="M28.58,51.17c.71-.19.64.95.18.54-.13-.12-.17-.37-.18-.54Z"/>
    <path class="cls-5" d="M33.08,55.06c-.1-.48.02-.61.51-.59.14.4-.17.48-.51.59Z"/>
    <path class="cls-5" d="M46.83,42.86c-.37.12-.47-.7.04-.65.25.03.08.6-.04.65Z"/>
    <path class="cls-5" d="M50.2,43.08c-.09-.31.03-.44.32-.53.55-.17.12.67-.32.53Z"/>
    <path class="cls-5" d="M32.46,46.48c.1.06.15.81-.33.53-.32-.19.04-.7.33-.53Z"/>
    <path class="cls-5" d="M57.52,75.49c-.07,0-.3.17-.36.12-.16-.15.13-.42.34-.39.02.08,0,.2.02.27.45-.06.75.62.46.7-.24.07-.41-.55-.46-.7Z"/>
    <path class="cls-5" d="M65.71,57c.05-.56-.02-.61.6-.59-.13.33-.16.65-.6.59Z"/>
    <path class="cls-5" d="M24.41,66.52c-.32.13-.59-.17-.29-.42.42-.34.56.31.29.42Z"/>
    <path class="cls-5" d="M63.12,47.92l.39-.58c.31-.26.42.21.09.44-.14.11-.31.14-.48.14Z"/>
    <path class="cls-5" d="M11.35,52.79c-.26-.23.5-.94.49-.31,0,.33-.36.42-.49.31Z"/>
    <path class="cls-5" d="M21.77,88.74c-.1-.09,0-.7.27-.66.41.06-.03.89-.27.66Z"/>
    <path class="cls-5" d="M19.08,48.1c.42-.07.63.38.27.62-.27.08-.28-.46-.27-.62Z"/>
    <path class="cls-5" d="M59.69,79.9c-.27-.26-.34-.98.12-.48.34.38.17.75-.12.48Z"/>
    <path class="cls-5" d="M51.07,42.46l.46-.03.04.55c-.35.07-.52-.19-.5-.51Z"/>
    <path class="cls-5" d="M23.69,57.12c-.08-.33.41-.32.5-.43.05-.06,0-.22.14-.35.06-.06.54-.26.57-.23.3.29-.53.5-.6.55-.18.13-.16.55-.61.45Z"/>
    <path class="cls-5" d="M22.83,50.39l.36-.03c.23.92-.39.89-.36.03Z"/>
    <path class="cls-5" d="M40.99,53.93c-.23-.31.54-.51.62-.26.12.42-.54.36-.62.26Z"/>
    <path class="cls-5" d="M55.27,81.16c.1-.02.73-.05.65.18-.14.43-.65.24-.65-.18Z"/>
    <path class="cls-5" d="M19.17,56.81s.59-.18.63-.14c.09.8-.76.34-.63.14Z"/>
    <path class="cls-5" d="M7.98,56.89s-.08-.73.08-.74c.11,0,.3.4.26.56s-.29.22-.35.18Z"/>
    <path class="cls-5" d="M15.18,83.9l.7-.42c.2.19-.65,1.05-.7.42Z"/>
    <path class="cls-5" d="M34.82,54.09c-.38.42-.63-.3-.32-.41.23-.08.53.19.32.41Z"/>
    <path class="cls-5" d="M30.47,45.71c.03-.1-.16-.73.09-.65.36.12.49.78-.09.65Z"/>
    <path class="cls-5" d="M40.83,41.74c-.18-.13.73-1.01.54-.05l-.54.05Z"/>
    <path class="cls-5" d="M20.71,66.61c.03-.1-.16-.73.09-.65.36.12.46.67-.09.65Z"/>
    <path class="cls-5" d="M26.92,46.06c.12.41-.39.52-.62.27-.08-.27.46-.28.62-.27Z"/>
    <path class="cls-5" d="M22.92,51.67c.16.23.23.35.14.63-.17.15-.73-.5-.14-.63Z"/>
    <path class="cls-5" d="M55.74,39.74l-.03-.46c1.19-.23.19.61.03.46Z"/>
    <path class="cls-5" d="M50.45,85.3s.46-.44.52-.19c.04.15-.31.55-.46.63-.09-.06-.09-.36-.06-.43Z"/>
    <path class="cls-5" d="M46.82,86.09c-.3-.75.61-1.22.21-.2-.05.14.03.23-.21.2Z"/>
    <polygon class="cls-5" points="20.54 56.71 20.64 56.24 21.07 56.44 20.54 56.71"/>
    <path class="cls-5" d="M24.82,76.5c.15.33-.41.68-.52.36s.3-.37.52-.36Z"/>
    <path class="cls-5" d="M63.9,64.84c.77-.24.92.57.21.3-.11-.04-.22-.17-.21-.3Z"/>
    <path class="cls-5" d="M24.07,47.18c-.21-.17.4-.7.52-.36s-.45.42-.52.36Z"/>
    <path class="cls-5" d="M25.47,51.4c.07-.11.8-.34.74.13-.13.04-.96.2-.74-.13Z"/>
    <path class="cls-5" d="M62.46,77.79c-.06-.03-.1-.48,0-.55.68.16.35.76,0,.55Z"/>
    <path class="cls-5" d="M40.5,39.75c-.05.53-.45.4-.72.1l.72-.1Z"/>
    <path class="cls-5" d="M28.09,58.27c-.38-.17-.4-.22-.42-.7.4,0,.38.44.42.7Z"/>
    <path class="cls-5" d="M62.32,49.44l.46-.03c-.06.66-.43.84-.46.03Z"/>
    <path class="cls-5" d="M11.42,54.99c.02.1.02.65-.19.56-.34-.14-.33-.67.19-.56Z"/>
    <path class="cls-5" d="M51.59,82c.34-.38.64.18.28.37-.14.08-.5-.13-.28-.37Z"/>
    <path class="cls-5" d="M60.07,62.73c-.27-.22.38-.61.63-.18.12.21-.6.2-.63.18Z"/>
    <path class="cls-5" d="M63.62,84.49c-.47.16-.32-.52.07-.45.24.04.13.38-.07.45Z"/>
    <path class="cls-5" d="M47.14,52.75c.59-.19.6.54.17.44-.16-.04-.18-.31-.17-.44Z"/>
    <path class="cls-5" d="M19.06,70.49c-.24-.2.36-.54.52-.4.24.2-.36.54-.52.4Z"/>
    <path class="cls-5" d="M19.24,66.63c.18-.22.71.38.27.53-.24.08-.31-.47-.27-.53Z"/>
    <path class="cls-5" d="M12.09,51.64c-.08-.27.54-.52.62-.27.09.27-.49.28-.62.27Z"/>
    <path class="cls-5" d="M61.47,91.71c-.06-.03-.18-.48-.14-.53.43-.06.71.82.14.53Z"/>
    <path class="cls-5" d="M49.5,85.07c-.29-.26.52-.84.46-.03-.1,0-.43.06-.46.03Z"/>
    <path class="cls-5" d="M19.03,46.99c-.42.07-.22-.83.32-.24,0,.05-.25.23-.32.24Z"/>
    <path class="cls-5" d="M40.83,51.84c-.02-.21-.14-.63.18-.65.19-.02.18.85-.18.65Z"/>
    <path class="cls-5" d="M27.15,63.11c.13-.19.6.53.27.62-.27.08-.28-.46-.27-.62Z"/>
    <path class="cls-5" d="M68.45,63.13c.1.03.73-.17.65.09-.11.33-.6.28-.65-.09Z"/>
    <path class="cls-5" d="M8.82,69.68c-.11-.08.24-.77.52-.36-.02.21-.37.48-.52.36Z"/>
    <path class="cls-5" d="M26.9,60.84c.62-.36.64.62.11.31-.13-.07-.11-.19-.11-.31Z"/>
    <path class="cls-5" d="M44.04,46.74c-.06-.28.06-.41.34-.39l.22.53c-.19-.11-.33-.2-.56-.14Z"/>
    <path class="cls-5" d="M43.24,47.07c-.02.09.16.75-.09.65-.29-.12-.29-.62.09-.65Z"/>
    <path class="cls-5" d="M66.15,69.26c-.09-.37.12-.66.43-.35l-.43.35Z"/>
    <path class="cls-5" d="M51.77,85.16c-.18.19-.47,0-.45-.17.04-.28.78-.19.45.17Z"/>
    <path class="cls-5" d="M19.53,40.36c.16-.18.61.26.5.51-.21.09-.57-.44-.5-.51Z"/>
    <path class="cls-5" d="M8.49,70.25c-.15-.12.48-.6.6-.5.15.12-.41.59-.6.5Z"/>
    <path class="cls-5" d="M62.76,50.51c-.19-.16.32-.58.42-.49.21.2-.22.66-.42.49Z"/>
    <path class="cls-5" d="M13.43,59.98c.22-.09.44-.16.64,0-.15.28-.59.42-.64,0Z"/>
    <path class="cls-5" d="M53.83,50.06c-.11-.09-.03-.71.32-.57.05.17-.07.79-.32.57Z"/>
    <path class="cls-5" d="M28.8,57.94c-.07,0-.26.03-.27.02-.03-.02-.07-.61-.05-.64.02-.02.2,0,.27-.02,0,.21.05.43.05.64Z"/>
    <path class="cls-5" d="M53.25,48.45s-.2.63-.17.75c-.36-.18-.11-.98.17-.75Z"/>
    <path class="cls-5" d="M13.49,71.44c-.13,0-.23-.26-.01-.35.13-.05.49-.05.5.09,0,.07-.44.26-.49.26Z"/>
    <path class="cls-5" d="M68.54,73.13c.14-.16.63.26.49.42s-.63-.26-.49-.42Z"/>
    <path class="cls-5" d="M60.99,72.85c.24.26-.58.43-.55,0,.01-.21.53-.01.55,0Z"/>
    <path class="cls-5" d="M52.45,47.5c-.02-.63.37-.78.36-.03l-.36.03Z"/>
    <path class="cls-5" d="M15.04,73.17c-.19-.4.34-.65.43-.35.05.18-.38.4-.43.35Z"/>
    <path class="cls-5" d="M63.85,51.53c-.11-.09.32-.59.42-.49.2.2-.2.66-.42.49Z"/>
    <path class="cls-5" d="M65.58,57.65c-.12-.55.73-.65.35-.17-.05.06-.3.21-.35.17Z"/>
    <path class="cls-5" d="M27.83,47.28l.56.1c-.19.35-.47.29-.56-.1Z"/>
    <path class="cls-5" d="M11.02,68.42c-.27-.27.36-.63.43-.35.05.2-.36.43-.43.35Z"/>
    <path class="cls-5" d="M18.1,56.06s.64.07.57.32c-.29.05-.61.07-.57-.32Z"/>
    <path class="cls-5" d="M6.87,58.8c-.16.06-.31.03-.41-.1.1-.14.2-.27.39-.26.18.09.2.29.02.36Z"/>
    <path class="cls-5" d="M20.55,68.18c.08-.09.47-.11.38.28-.1.43-.53-.11-.38-.28Z"/>
    <path class="cls-5" d="M31.13,50.89c-.05-.62.43-.72.36-.03l-.36.03Z"/>
    <path class="cls-5" d="M16.48,50.12c-.16-.15.22-.53.42-.49.14.23-.28.61-.42.49Z"/>
    <path class="cls-5" d="M65.32,64.18c-.09-.07.18-.39.24-.43.39-.24.28.53-.24.43Z"/>
    <path class="cls-5" d="M38.35,44.22c.32-.08.29.43.32.62l-.32-.62Z"/>
    <path class="cls-5" d="M24.97,44.46c0-.21.06-.79.32-.57.04.03,0,.75-.32.57Z"/>
    <path class="cls-5" d="M13.06,62.4c.05-.06.51-.03.47.19-.05.36-.67.03-.47-.19Z"/>
    <path class="cls-5" d="M33.58,45.48c-.19.22-.6-.33-.26-.44.22-.07.31.38.26.44Z"/>
    <path class="cls-5" d="M58.47,49.54s0-.2-.02-.27l.55-.04c.12.28-.46.37-.53.31Z"/>
    <path class="cls-5" d="M40.48,50.85c.04.16-.07.6-.28.57-.33-.04.11-.58.28-.57Z"/>
    <path class="cls-5" d="M63.19,55.07l.46-.03-.07.37c-.27.06-.41-.05-.39-.34Z"/>
    <path class="cls-5" d="M14.45,60.09c-.23-.2.33-.49.43-.4.2.18-.27.53-.43.4Z"/>
    <path class="cls-5" d="M48.43,85.61s-.04-.35-.03-.36c.04-.05.45-.02.46.1.02.21-.33.35-.44.26Z"/>
    <path class="cls-5" d="M55.86,85.43c.05-.06.51-.03.47.19-.05.36-.67.03-.47-.19Z"/>
    <path class="cls-5" d="M29.95,51.16c-.2-.18.13-.57.34-.39s-.13.57-.34.39Z"/>
    <path class="cls-5" d="M52.38,49.71c-.11.03-.26-.09-.24-.21l.3-.25c.27.17.11.28-.06.46Z"/>
    <path class="cls-5" d="M27.87,46.54c.1-.11.67.21.35.43l-.35-.43Z"/>
    <path class="cls-5" d="M67.69,72.73c-.2-.18.13-.57.34-.39s-.13.57-.34.39Z"/>
    <path class="cls-5" d="M45.99,84.87c-.2-.18.13-.57.34-.39s-.13.57-.34.39Z"/>
    <path class="cls-5" d="M33.83,55.28l-.03-.36.46-.03c.1.19-.37.46-.43.4Z"/>
    <path class="cls-5" d="M26.46,56.1c-.06-.44.18-.41.45-.17-.01.33-.23.15-.45.17Z"/>
    <path class="cls-5" d="M46.73,89.87c.33-.25.37.38.16.44-.26.08-.26-.36-.16-.44Z"/>
    <path class="cls-5" d="M10.99,41.62c.09-.11.55.13.48.33-.24.14-.63-.15-.48-.33Z"/>
    <path class="cls-5" d="M27.74,64.91c.23.2-.23.66-.34.34-.09-.27.24-.43.34-.34Z"/>
    <path class="cls-5" d="M53.41,88.36c-.1-.08.08-.4.19-.47.18.1.17.25.17.44-.09,0-.34.05-.36.03Z"/>
    <path class="cls-5" d="M65.35,68.31c-.2-.18.13-.57.34-.39s-.13.57-.34.39Z"/>
    <path class="cls-5" d="M47.56,44.65c-.02-.15-.05-.39.1-.47.39-.19.26.48-.1.47Z"/>
    <path class="cls-5" d="M20.74,53.85c-.24.07-.34-.38-.12-.45.24-.07.34.38.12.45Z"/>
    <path class="cls-5" d="M23.93,81.79s-.12-.48.2-.38c.4.12.02.57-.2.38Z"/>
    <path class="cls-5" d="M21.38,67.02l.27-.02.04.55c-.24-.07-.33-.28-.31-.53Z"/>
    <path class="cls-5" d="M36.17,42.08s-.12-.48.2-.38c.4.12.02.57-.2.38Z"/>
    <path class="cls-5" d="M15.31,64.25c-.15-.12.32-.51.52-.4-.02.15-.39.51-.52.4Z"/>
    <path class="cls-5" d="M60.61,57.46c-.03-.12.02-.21.11-.29.43-.38.51.32-.11.29Z"/>
    <path class="cls-5" d="M17.24,65.67c-.25-.22.4-.54.44-.26.03.22-.35.34-.44.26Z"/>
    <path class="cls-5" d="M31.68,93.71c-.19.16-.45-.36-.17-.45s.25.38.17.45Z"/>
    <path class="cls-5" d="M42.55,41.43c.35-.27.27.3.22.53-.22,0-.32-.45-.22-.53Z"/>
    <path class="cls-5" d="M26.04,61.63s0-.2-.02-.27l.46-.03c.09.26-.32.44-.44.31Z"/>
    <path class="cls-5" d="M8.47,68.7c-.2.17-.57-.24-.25-.35s.36.26.25.35Z"/>
    <path class="cls-5" d="M29.96,84.02c-.2.17-.57-.24-.25-.35s.36.26.25.35Z"/>
    <path class="cls-5" d="M59.93,59.53c-.2-.18.13-.57.34-.39.16.14-.18.53-.34.39Z"/>
    <path class="cls-5" d="M55.78,40.38s-.03-.28-.12-.36c.78-.14.36.54.12.36Z"/>
    <path class="cls-5" d="M37.73,48.3c.15-.17.61.2.26.44-.13-.05-.34-.34-.26-.44Z"/>
    <path class="cls-5" d="M36.11,51.26c.17.15-.2.61-.44.26.05-.13.34-.34.44-.26Z"/>
    <path class="cls-5" d="M21.84,51.94c.37-.11.7.18.26.35-.12-.11-.28-.17-.26-.35Z"/>
    <path class="cls-5" d="M25.34,64.62c-.17-.15.2-.61.44-.26-.05.13-.34.34-.44.26Z"/>
    <path class="cls-5" d="M47.83,45.82c-.05-.24,0-.46.23-.57l.04.55-.27.02Z"/>
    <path class="cls-5" d="M19.63,54.3c-.16-.14.18-.53.34-.39.2.18-.13.57-.34.39Z"/>
    <path class="cls-5" d="M53.39,86.9c.05.15.03.51-.19.47-.3-.04.07-.6.19-.47Z"/>
    <path class="cls-5" d="M41.85,49.47c-.01.11.03.25.03.36l-.39-.29.36-.16c.08.02.08.05,0,.09Z"/>
    <path class="cls-5" d="M8.93,49.85s.12.47-.2.38c-.36-.11.04-.52.2-.38Z"/>
    <path class="cls-5" d="M41.38,40.42c0,.17,0,.53-.19.47-.3-.09-.05-.49.19-.47Z"/>
    <path class="cls-5" d="M52.13,40c-.19.01-.22-.5.06-.46s.05.45-.06.46Z"/>
    <path class="cls-5" d="M57.42,88.62c-.35.12-.36-.28-.12-.36.21-.06.33.28.12.36Z"/>
    <path class="cls-5" d="M19.55,82.21c.24.28-.45.56-.36.07.03-.15.32-.12.36-.07Z"/>
    <path class="cls-5" d="M13.19,80.56c-.05-.28.21-.31.44-.31l.02.27-.46.03Z"/>
    <path class="cls-5" d="M15.98,78.61c.18.66-.68.51-.14.01h.14Z"/>
    <path class="cls-5" d="M8.87,59.03l-.02-.27.46-.03c.05.28-.21.31-.44.31Z"/>
    <path class="cls-5" d="M63.58,81.74s-.16-.32-.13-.35l.36-.03c.07.23.04.52-.24.37Z"/>
    <path class="cls-5" d="M25.81,53.48c-.04-.32.28-.31.53-.31-.07.24-.28.33-.53.31Z"/>
    <path class="cls-5" d="M56.41,87.32c-.19.01-.22-.5.06-.46s.05.45-.06.46Z"/>
    <path class="cls-5" d="M14.62,53.56s-.12-.47.2-.38c.36.11-.04.52-.2.38Z"/>
    <path class="cls-5" d="M23.93,65.46s-.04-.2-.11-.26c.76-.29.38.44.11.26Z"/>
    <path class="cls-5" d="M26.2,65.11l.02.27c-.19.03-.34.06-.46-.1.1-.18.25-.17.44-.17Z"/>
    <path class="cls-5" d="M55.76,53.96s.06-.35.07-.36c.34-.24.44.42-.07.36Z"/>
    <path class="cls-5" d="M9.97,57.76c.07.06-.13.36-.2.38-.34.1-.2-.45.2-.38Z"/>
    <path class="cls-5" d="M58.28,46.89l-.03-.46.27-.02c0,.22.01.53-.24.48Z"/>
    <path class="cls-5" d="M71.43,53.64c-.13-.12.29-.51.43-.4s-.34.48-.43.4Z"/>
    <path class="cls-5" d="M37.85,48.75c0,.13.04.27.02.4-.08.38-.53-.15-.02-.4Z"/>
    <path class="cls-5" d="M61.51,73.64c.08.01.62-.03.56.19-.08.29-.53-.06-.56-.19Z"/>
    <path class="cls-5" d="M40.88,86.52c-.13-.38.4-.6.35-.26-.01.08-.28.32-.35.26Z"/>
    <path class="cls-5" d="M34.64,86.43c-.07-.06,0-.41.2-.38.34.05-.01.54-.2.38Z"/>
    <path class="cls-5" d="M14.28,42.67c.09-.1.55-.03.38.25-.13.22-.54-.07-.38-.25Z"/>
    <path class="cls-5" d="M30.15,85.38l-.03-.46.27-.02c0,.22.01.53-.24.48Z"/>
    <path class="cls-5" d="M50.95,43.39c.02-.31.14-.3.44-.31.04.31-.22.28-.44.31Z"/>
    <path class="cls-5" d="M8.81,53.25s.11-.56.3-.3c.22.3-.05.25-.2.38l-.1-.08Z"/>
    <path class="cls-5" d="M64.08,62.26c-.1-.33.44-.16.63-.23l-.63.23Z"/>
    <path class="cls-5" d="M54.32,49.29c-.04-.22-.04-.48.24-.48.04.22.04.48-.24.48Z"/>
    <path class="cls-5" d="M61.18,77.89s-.13-.47.2-.38c.29.08,0,.54-.2.38Z"/>
    <path class="cls-5" d="M40.13,53.54c-.13-.11.09-.49.34-.39.07.2-.17.53-.34.39Z"/>
    <path class="cls-5" d="M31.82,47.81c-.19-.16.25-.59.35-.25.06.19-.28.31-.35.25Z"/>
    <path class="cls-5" d="M66.91,53.33c-.1-.07.26-1.04.27-.02-.08,0-.25.04-.27.02Z"/>
    <rect class="cls-5" x="18.73" y="48.11" width=".27" height=".37" transform="translate(-3.46 1.5) rotate(-4.17)"/>
    <path class="cls-5" d="M69.35,89.22s0-.28-.03-.36c.62.03.22.53.03.36Z"/>
    <rect class="cls-5" x="7.6" y="75.45" width=".37" height=".27" transform="translate(-5.47 .77) rotate(-4.17)"/>
    <path class="cls-5" d="M59.59,75.62c-.22.07-.33-.29-.12-.36s.33.29.12.36Z"/>
    <rect class="cls-5" x="23.72" y="67.39" width=".27" height=".37" transform="translate(-4.85 1.91) rotate(-4.17)"/>
    <path class="cls-5" d="M28.64,47.03c.19-.18.53.49.07.36-.15-.04-.13-.31-.07-.36Z"/>
    <path class="cls-5" d="M54.38,77.19c-.22.07-.33-.29-.12-.36s.33.29.12.36Z"/>
    <path class="cls-5" d="M15.02,47.75c-.07-.16.25-.47.34-.39.06.28-.06.41-.34.39Z"/>
    <path class="cls-5" d="M62.11,79.29c-.06-.28.06-.41.34-.39.07.16-.25.47-.34.39Z"/>
    <path class="cls-5" d="M32.11,51.83c.02-.13-.29-.35-.22-.44.12-.15.69.45.22.44Z"/>
    <path class="cls-5" d="M39.84,52c.27-.06.41.05.39.34-.07.09-.44-.16-.39-.34Z"/>
    <path class="cls-5" d="M62.76,65.66c.1.33-.43.36-.44.17,0-.12.32-.19.44-.17Z"/>
    <path class="cls-5" d="M55.97,55.6s.51.05.12.31c-.22.15-.19,0-.2-.22.03-.02.05-.07.08-.1Z"/>
    <path class="cls-5" d="M53.88,41.98c-.11-.16.09-.61.24-.48.05.05-.02.6-.24.48Z"/>
    <rect class="cls-5" x="28.39" y="43.37" width=".27" height=".37" transform="translate(-3.09 2.19) rotate(-4.17)"/>
    <path class="cls-5" d="M28.8,57.94c.06,0,.12-.01.18-.01l.03.46c-.44.1-.22-.12-.22-.44Z"/>
    <path class="cls-5" d="M60.38,82.07c.04.12.02.46-.1.46-.19.01-.24-.52.1-.46Z"/>
    <path class="cls-5" d="M65.32,51.61c-.13-.1.32-.51.44-.26.09.2-.41.28-.44.26Z"/>
    <path class="cls-5" d="M47.67,49.96c.27-.23.41.28.16.35s-.22-.3-.16-.35Z"/>
    <path class="cls-5" d="M56.22,55.12c-.07-.06,0-.41.2-.38.28.04,0,.56-.2.38Z"/>
    <path class="cls-5" d="M24.8,57.23c.1-.11.49.09.38.25-.15.22-.53-.08-.38-.25Z"/>
    <path class="cls-5" d="M16.15,52.62c-.22.07-.33-.29-.12-.36s.33.29.12.36Z"/>
    <path class="cls-5" d="M34.63,85.14c.28-.06.41.06.39.34-.07.09-.44-.16-.39-.34Z"/>
    <rect class="cls-5" x="61.49" y="61.79" width=".27" height=".37" transform="translate(-4.34 4.64) rotate(-4.17)"/>
    <path class="cls-5" d="M18.6,64.1c.24-.03.46-.1.38.2-.09.31-.46-.11-.38-.2Z"/>
    <path class="cls-5" d="M6.55,43.6c.23.54-.3.39-.26.16.02-.12.2-.13.26-.16Z"/>
    <rect class="cls-5" x="55.19" y="39.67" width=".27" height=".37" transform="translate(-2.75 4.13) rotate(-4.17)"/>
    <path class="cls-5" d="M14.82,55.02l-.02-.27.36-.03v.14c-.08.15-.17.17-.34.16Z"/>
    <path class="cls-5" d="M54.92,90.18c-.21-.16.43-.42.44-.17,0,.12-.38.22-.44.17Z"/>
    <path class="cls-5" d="M53.38,79.19l-.02-.27c.17-.03.27-.03.37.11v.14s-.35.03-.35.03Z"/>
    <path class="cls-5" d="M17.88,68.74c-.39.12-.1-.57.21-.24-.06.05-.16.23-.21.24Z"/>
    <path class="cls-5" d="M53.06,86.19c-.03-.17-.03-.27.11-.37h.14s.03.35.03.35l-.27.02Z"/>
    <path class="cls-5" d="M37.6,86.76v-.14c.32-.53.58.15,0,.14Z"/>
    <path class="cls-5" d="M16.61,80.95c-.09-.58.61-.41.14-.01h-.14Z"/>
    <path class="cls-5" d="M48.42,87.9l.27-.02.03.36h-.14c-.15-.08-.17-.17-.16-.34Z"/>
    <path class="cls-5" d="M23.82,55.1c-.03-.17-.03-.27.11-.37h.14s.03.35.03.35l-.27.02Z"/>
    <path class="cls-5" d="M32.35,86.6c.16-.14.44.27.16.35-.24.07-.23-.29-.16-.35Z"/>
    <path class="cls-5" d="M46.89,51.85c-.06-.2.17-.53.34-.39.09.07-.16.44-.34.39Z"/>
    <path class="cls-5" d="M46.36,87.41c-.21-.04-.32.17-.29-.25l.36-.03c.06.13-.06.2-.07.28Z"/>
    <path class="cls-5" d="M47.73,84.83c.03.08,0,.26.03.37l-.27.02c-.11-.37.16-.3.25-.38Z"/>
    <path class="cls-5" d="M71.24,67.33l-.02-.27.36-.03v.14c-.08.15-.17.17-.34.16Z"/>
    <path class="cls-5" d="M33.82,56.38l-.03-.36.27-.02c.03.17.03.27-.11.37h-.14Z"/>
    <path class="cls-5" d="M56.67,40.04v.14c-.32.53-.58-.15,0-.14Z"/>
    <path class="cls-5" d="M33.38,54.12l-.02-.27c.17-.03.27-.03.37.11v.14s-.35.03-.35.03Z"/>
    <path class="cls-5" d="M69.45,70.49l-.02-.27c.17-.03.27-.03.37.11v.14s-.35.03-.35.03Z"/>
    <path class="cls-5" d="M15.83,49.99l.36-.03.02.27c-.17.03-.27.03-.37-.11v-.14Z"/>
    <path class="cls-5" d="M47.07,48.08c.06.05-.02.37-.11.37-.35.03-.14-.59.11-.37Z"/>
    <path class="cls-5" d="M8.09,62.21c.05-.06.37.02.37.11.03.35-.59.14-.37-.11Z"/>
    <path class="cls-5" d="M34.71,54.67l-.02-.27.36-.03v.14c-.08.15-.17.17-.34.16Z"/>
    <path class="cls-5" d="M19.13,81.41s-.02.41-.1.47c-.34-.14-.04-.59.1-.47Z"/>
    <path class="cls-5" d="M10.96,56.22l-.02-.27.36-.03v.14c-.08.15-.17.17-.34.16Z"/>
    <path class="cls-5" d="M63.1,89.13c-.17-.16.18-.52.35-.25l-.21.24c-.05,0-.12.02-.14.01Z"/>
    <path class="cls-5" d="M48.08,89.58l.03.36c-.36.02-.39-.34-.03-.36Z"/>
    <path class="cls-5" d="M67.88,75.38c-.04-.12-.02-.46.1-.46.17-.01.16.56-.1.46Z"/>
    <path class="cls-5" d="M64.38,76.46c-.07-.28.02-.27.25-.38l.03.36-.27.02Z"/>
    <path class="cls-5" d="M22.86,79.76l-.03-.36c.36-.02.39.34.03.36Z"/>
    <rect class="cls-5" x="7.57" y="53.79" width=".46" height=".18" transform="translate(-3.9 .71) rotate(-4.17)"/>
    <path class="cls-5" d="M65.79,87c-.03-.36.34-.39.36-.03l-.36.03Z"/>
    <g>
      <path class="cls-5" d="M56.84,54.89c-.01-.22-.23-.53-.1-.73s.82-.24.93-.52c-.42-.05-.76-.31-1.21-.19.33-.82-.48-.65-.51-1-.06-.76.39-.26.5-.38.05-.05.1-.8.13-.83.04-.05.29.02.35-.04.04-.04.05-1.21.31-.93,0,.43.15.87,0,1.28.22.14,1.15-.91.75.22,1.14-.71,1.48.65,1.39,1.59-.06.62-.5.47-.58.57-.04.04.03.19-.01.24s-.27.04-.4.13c-.23.16-.46.54-.76.51s-.42-.25-.79.07Z"/>
      <rect class="cls-5" x="57.22" y="49.72" width=".18" height=".46" transform="translate(-3.48 4.3) rotate(-4.17)"/>
    </g>
    <path class="cls-5" d="M18.03,47.53c-.07-.06-.07-.37.21-.29.32.09-.08.4-.21.29Z"/>
    <path class="cls-5" d="M17.57,66.38c.06-.07.37-.07.29.21-.09.32-.4-.08-.29-.21Z"/>
    <path class="cls-5" d="M40.1,87.77c-.18.02-.19-.41.06-.37s0,.36-.06.37Z"/>
    <path class="cls-5" d="M7.01,57.42c-.03-.36.34-.39.36-.03l-.36.03Z"/>
    <path class="cls-5" d="M55.28,47.39l-.03-.36.27-.02c0,.2-.03.44-.25.38Z"/>
    <path class="cls-5" d="M48.59,43.65c-.03-.36.34-.39.36-.03l-.36.03Z"/>
    <path class="cls-5" d="M52.07,49.82c.08.07-.19.54-.24.48-.1-.16.08-.61.24-.48Z"/>
    <path class="cls-5" d="M62.3,51.74c.08-.16.05-.4.24-.48l.03.46-.27.02Z"/>
    <path class="cls-5" d="M65.05,61.73c.07.06.07.37-.21.29-.32-.09.08-.4.21-.29Z"/>
    <path class="cls-5" d="M70.79,81.31l-.02-.27.36-.03c-.08.24-.06.33-.34.3Z"/>
    <path class="cls-5" d="M41.86,91.78c-.31.09-.18-.35-.03-.36.13-.01.22.3.03.36Z"/>
    <path class="cls-5" d="M63.12,58.56c-.07,0-.36-.28-.12-.36s.3.35.12.36Z"/>
    <path class="cls-5" d="M41.8,57.55l-.03-.36c.36-.02.39.34.03.36Z"/>
    <path class="cls-5" d="M20.1,54.45c-.06-.06,0-.32.11-.37.31-.14.07.55-.11.37Z"/>
    <path class="cls-5" d="M10.73,60.09c-.07,0-.36-.28-.12-.36s.3.35.12.36Z"/>
    <path class="cls-5" d="M57.17,82.03c.06-.07.37-.07.29.21-.09.32-.4-.08-.29-.21Z"/>
    <path class="cls-5" d="M41.85,49.47s0-.06,0-.09c.01-.22.02-.18.25-.29.03.32.11.41-.25.39Z"/>
    <path class="cls-5" d="M70.58,46.91c-.07-.16.25-.47.34-.39.07.16-.25.47-.34.39Z"/>
    <path class="cls-5" d="M27.01,42.2c-.13-.11.12-.55.26-.25.12.26-.18.31-.26.25Z"/>
    <path class="cls-5" d="M70.52,67.57c.06-.07.37-.07.29.21-.09.32-.4-.08-.29-.21Z"/>
    <path class="cls-5" d="M33.88,54.73c-.08-.21.15-.26.34-.3l.02.27-.36.03Z"/>
    <path class="cls-5" d="M63.92,59.42c-.07,0-.36-.28-.12-.36s.3.35.12.36Z"/>
    <path class="cls-5" d="M8.36,65.95c-.07-.06-.07-.37.21-.29.32.09-.08.4-.21.29Z"/>
    <path class="cls-5" d="M52.09,51.38l-.03-.36c.36-.02.39.34.03.36Z"/>
    <path class="cls-5" d="M62.45,67.61c-.13-.11.12-.55.26-.25.12.26-.18.31-.26.25Z"/>
    <path class="cls-5" d="M46.23,51.63c-.2-.16.45-.49.35-.16-.04.12-.29.22-.35.16Z"/>
    <path class="cls-5" d="M28.2,59.82l-.03-.36.27-.02c0,.2-.03.44-.25.38Z"/>
    <path class="cls-5" d="M14.02,58.01c-.06-.06,0-.32.11-.37.31-.14.07.55-.11.37Z"/>
    <path class="cls-5" d="M26.2,42.53c-.13-.11.12-.55.26-.25.12.26-.18.31-.26.25Z"/>
    <path class="cls-5" d="M41.37,51.7c-.2-.16.45-.49.35-.16-.04.12-.29.22-.35.16Z"/>
    <path class="cls-5" d="M31.96,54.78c.02-.07.3-.28.36-.07.09.29-.42.26-.36.07Z"/>
    <path class="cls-5" d="M21.73,58c-.16-.13.1-.43.25-.29s-.1.43-.25.29Z"/>
    <path class="cls-5" d="M46.77,89.22c-.16-.13.1-.43.25-.29s-.1.43-.25.29Z"/>
    <path class="cls-5" d="M40.66,88.47c-.06-.06.02-.37.11-.37.27-.02.06.53-.11.37Z"/>
    <path class="cls-5" d="M46.36,87.41c.26.05.29.43.07.36-.24-.07-.09-.25-.07-.36Z"/>
    <path class="cls-5" d="M53.67,86.88c.08-.24.06-.33.34-.3.04.23-.12.32-.34.3Z"/>
    <path class="cls-5" d="M61.93,55.44c-.06-.06.02-.37.11-.37.27-.02.06.53-.11.37Z"/>
    <path class="cls-5" d="M56.41,38.95c-.15.19-.44-.34-.16-.35.09,0,.21.29.16.35Z"/>
    <path class="cls-5" d="M46.87,44.05c0-.09-.05-.33-.03-.36.13-.18.48.37.03.36Z"/>
    <path class="cls-5" d="M27.95,60.21c.06.06-.02.37-.11.37-.27.02-.06-.53.11-.37Z"/>
    <path class="cls-5" d="M32.1,49.08c.16-.15.35.29.3.34-.1.12-.37-.16-.3-.34Z"/>
    <path class="cls-5" d="M42.08,41.19c-.18-.13.37-.48.36-.03-.09,0-.33.05-.36.03Z"/>
    <path class="cls-5" d="M64.78,64.41c-.07.06-.22-.04-.28-.12.26-.47.43-.02.28.12Z"/>
    <path class="cls-5" d="M73.11,56.46c-.19-.15.34-.44.35-.16,0,.09-.29.21-.35.16Z"/>
    <path class="cls-5" d="M23.45,56.41c.1.24.1.34-.15.47-.02-.17-.06-.4.15-.47Z"/>
    <path class="cls-5" d="M11.29,63.35l.46-.03c.11.29-.35.27-.46.03Z"/>
    <path class="cls-5" d="M25.47,86.64c.11-.4.54-.15.37.07-.05.06-.28-.09-.37-.07Z"/>
    <path class="cls-5" d="M22.38,48.04c-.06-.06-.03-.46.15-.47l.03.46c-.06,0-.17.02-.18.01Z"/>
    <path class="cls-5" d="M6.53,54.7c-.15-.16.29-.35.34-.3.12.1-.16.37-.34.3Z"/>
    <path class="cls-5" d="M30.45,84.35c.18-.18.23.18.21.35-.24.09-.32-.24-.21-.35Z"/>
    <path class="cls-5" d="M54.74,81.48c-.16-.13.1-.43.25-.29s-.1.43-.25.29Z"/>
    <path class="cls-5" d="M29.74,75.86c-.19-.15.34-.44.35-.16,0,.09-.29.21-.35.16Z"/>
    <path class="cls-5" d="M22.99,50.11c-.19-.15.34-.44.35-.16,0,.09-.29.21-.35.16Z"/>
    <path class="cls-5" d="M29.73,43.01c.1.24.1.34-.15.47-.02-.17-.06-.4.15-.47Z"/>
    <path class="cls-5" d="M27.27,64.76c.05-.07-.18-.36.25-.29.11.43-.12.22-.25.29Z"/>
    <path class="cls-5" d="M42,42.67c.18-.18.23.18.21.35-.24.09-.32-.24-.21-.35Z"/>
    <path class="cls-5" d="M35.04,51.71c.19.15-.34.44-.35.16,0-.09.29-.21.35-.16Z"/>
    <path class="cls-5" d="M74.05,86.95c-.1-.08.16-.38.25-.29.15.15-.09.42-.25.29Z"/>
    <path class="cls-5" d="M56.26,77.14c.15-.15.42.09.29.25-.08.1-.38-.16-.29-.25Z"/>
    <path class="cls-5" d="M43.8,54.74c-.15-.15.09-.42.25-.29.1.08-.16.38-.25.29Z"/>
    <rect class="cls-5" x="71.61" y="47.1" width=".37" height=".18" transform="translate(-3.24 5.34) rotate(-4.17)"/>
    <path class="cls-5" d="M13.76,42.98c-.15-.15.09-.42.25-.29.1.08-.16.38-.25.29Z"/>
    <path class="cls-5" d="M39.49,40.92c-.1-.08.16-.38.25-.29.15.15-.09.42-.25.29Z"/>
    <path class="cls-5" d="M27.27,64.76s-.19.34-.35.21c-.32-.25.34-.19.35-.21Z"/>
    <path class="cls-5" d="M22.23,50.9c.15-.15.42.09.29.25-.08.1-.38-.16-.29-.25Z"/>
    <path class="cls-5" d="M21.81,64.78c-.16.01-.18-.35-.03-.36s.18.35.03.36Z"/>
    <path class="cls-5" d="M44.66,55.23c.22.22-.35.26-.36.07-.01-.14.3-.13.36-.07Z"/>
    <path class="cls-5" d="M28.27,53.3c-.1-.08.16-.38.25-.29.15.15-.09.42-.25.29Z"/>
    <path class="cls-5" d="M51.74,39.02c-.1-.08.16-.38.25-.29.15.15-.09.42-.25.29Z"/>
    <path class="cls-5" d="M37.72,51.97c-.04.32-.51.09-.37-.06.03-.03.25,0,.27-.02.03.03.07.06.1.08Z"/>
    <path class="cls-5" d="M43.46,91.66c-.1-.08.16-.38.25-.29.15.15-.09.42-.25.29Z"/>
    <path class="cls-5" d="M35.52,52.04c-.15-.15.09-.42.25-.29.1.08-.16.38-.25.29Z"/>
    <path class="cls-5" d="M61.58,61.43c-.16.01-.18-.35-.03-.36s.18.35.03.36Z"/>
    <path class="cls-5" d="M56.81,86c-.1-.08.16-.38.25-.29.15.15-.09.42-.25.29Z"/>
    <path class="cls-5" d="M25.59,40.46c-.1-.08.16-.38.25-.29.15.15-.09.42-.25.29Z"/>
    <path class="cls-5" d="M62.4,55.68c-.12-.1.15-.38.34-.3-.01.12-.26.37-.34.3Z"/>
    <rect class="cls-5" x="65.64" y="64.7" width=".37" height=".18" transform="translate(-4.54 4.96) rotate(-4.17)"/>
    <path class="cls-5" d="M57.98,44.07c.22-.22.26.35.07.36-.14.01-.13-.3-.07-.36Z"/>
    <path class="cls-5" d="M20.47,46.99s-.08-.34.12-.28c.34.1.06.43-.12.28Z"/>
    <path class="cls-5" d="M15.89,78.53c-.1-.08.16-.38.25-.29.15.14-.09.42-.25.29Z"/>
    <path class="cls-5" d="M69.89,65.14c-.15-.14.09-.42.25-.29.1.08-.16.38-.25.29Z"/>
    <path class="cls-5" d="M39.97,45.02c-.1-.08.16-.38.25-.29.15.15-.09.42-.25.29Z"/>
    <path class="cls-5" d="M53.47,79.82c-.16.01-.18-.35-.03-.36s.18.35.03.36Z"/>
    <path class="cls-5" d="M29.16,90.59c-.08-.07.13-.36.25-.38.1.18-.13.48-.25.38Z"/>
    <path class="cls-5" d="M69.33,73.9s-.08-.34.12-.28c.34.1.06.43-.12.28Z"/>
    <rect class="cls-5" x="34.36" y="44.68" width=".18" height=".37" transform="translate(-3.17 2.62) rotate(-4.17)"/>
    <path class="cls-5" d="M15.56,46.34c-.1-.08.16-.38.25-.29.15.15-.09.42-.25.29Z"/>
    <path class="cls-5" d="M25.05,45.55c-.1-.08.16-.38.25-.29.15.15-.09.42-.25.29Z"/>
    <path class="cls-5" d="M30.22,44.72c-.15-.15.09-.42.25-.29.1.08-.16.38-.25.29Z"/>
    <rect class="cls-5" x="48.82" y="48.03" width=".37" height=".18" transform="translate(-3.37 3.69) rotate(-4.17)"/>
    <path class="cls-5" d="M67.23,47.53c-.1-.08.16-.38.25-.29.15.15-.09.42-.25.29Z"/>
    <rect class="cls-5" x="31.82" y="50.19" width=".18" height=".37" transform="translate(-3.58 2.45) rotate(-4.17)"/>
    <path class="cls-5" d="M24.8,44.01c-.16.01-.18-.35-.03-.36s.18.35.03.36Z"/>
    <path class="cls-5" d="M25.83,43.66c-.1-.08.16-.38.25-.29.15.15-.09.42-.25.29Z"/>
    <path class="cls-5" d="M10.51,56.43c.15-.15.42.09.29.25-.08.1-.38-.16-.29-.25Z"/>
    <path class="cls-5" d="M22.17,71.55c-.15-.14.09-.42.25-.29.1.08-.16.38-.25.29Z"/>
    <path class="cls-5" d="M40.17,52.8s.08.34-.12.28c-.29-.08.02-.37.12-.28Z"/>
    <path class="cls-5" d="M26.4,57.84s.08.34-.12.28c-.29-.08.02-.37.12-.28Z"/>
    <path class="cls-5" d="M24.16,55.99s.08.34-.12.28c-.29-.08.02-.37.12-.28Z"/>
    <path class="cls-5" d="M18.57,63.74s-.08-.34.12-.28c.29.08-.02.37-.12.28Z"/>
    <path class="cls-5" d="M17.18,58.42s-.08-.34.12-.28c.29.08-.02.37-.12.28Z"/>
    <path class="cls-5" d="M12.36,64.19c-.1-.08.14-.43.26-.15.08.19-.23.18-.26.15Z"/>
    <path class="cls-5" d="M28.08,56.9c-.1-.08.14-.43.26-.15.08.19-.23.18-.26.15Z"/>
    <path class="cls-5" d="M50.49,42.05s-.08-.34.12-.28c.29.08-.02.37-.12.28Z"/>
    <path class="cls-5" d="M43.23,56.99s.08.34-.12.28c-.29-.08.02-.37.12-.28Z"/>
    <path class="cls-5" d="M50.52,46.17s.34-.08.28.12c-.08.29-.37-.02-.28-.12Z"/>
    <path class="cls-5" d="M19.35,69.37s-.08-.34.12-.28c.29.08-.02.37-.12.28Z"/>
    <path class="cls-5" d="M70.31,72.17l-.02-.27.27-.02c-.08.18-.03.34-.25.29Z"/>
    <path class="cls-5" d="M26.43,77.11s-.08-.34.12-.28c.29.08-.02.37-.12.28Z"/>
    <path class="cls-5" d="M25.64,65.06c-.1-.08.14-.43.26-.15.08.19-.23.18-.26.15Z"/>
    <path class="cls-5" d="M42.96,48.29s.08.34-.12.28c-.29-.08.02-.37.12-.28Z"/>
    <path class="cls-5" d="M71.73,81.62l.36-.03v.18c-.16.04-.3.02-.36-.15Z"/>
    <path class="cls-5" d="M60.36,74.18c-.1-.09.15-.38.25-.29s-.15.38-.25.29Z"/>
    <path class="cls-5" d="M58.78,48.69c-.1-.09.15-.38.25-.29s-.15.38-.25.29Z"/>
    <path class="cls-5" d="M27.67,58.85h.18s.03.35.03.35c-.19-.04-.22-.18-.21-.35Z"/>
    <path class="cls-5" d="M24.95,51.71s-.08-.34.12-.28c.29.08-.02.37-.12.28Z"/>
    <path class="cls-5" d="M40.82,57.99l.27-.02c.08.22-.08.19-.25.29l-.02-.27Z"/>
    <path class="cls-5" d="M51.33,48.5l-.02-.27.27-.02c-.08.18-.03.34-.25.29Z"/>
    <path class="cls-5" d="M28.67,58.78c.09-.1.38.15.29.25s-.38-.15-.29-.25Z"/>
    <path class="cls-5" d="M41.29,58.04s-.08-.34.12-.28c.29.08-.02.37-.12.28Z"/>
    <path class="cls-5" d="M30.17,44.08c-.1-.09.15-.38.25-.29s-.15.38-.25.29Z"/>
    <path class="cls-5" d="M25.89,63.39c-.1-.08.15-.38.25-.29s-.15.38-.25.29Z"/>
    <g>
      <path class="cls-5" d="M16.44,62.15c.9-.15.53.14.75.27.31.19,1.5-.36,1.91-.37-.1.33-.41.32-.71.33-.04.04.62,1.02-.16.99-.13,0-.61-.58-.89-.62-.23-.03-1,.19-1.42.17-.4-.02-1.28-.21-1.44-.62-.18-.46.79-1.67.8-2.14,0-.21-.53-.28-.18-.84.36-.59.73-.07,1.06-.18.18-.06.36-.48.68-.4l-.23.57c.12-.03.49,0,.54-.05.05-.05-.11-.33.12-.27.04.01.74.36.77.4.08.13-.02.28-.07.28l-1.55.11c-.61.04-1.86,1.97-1.56,2.5.03.05.15.16.21.16.11.01,1.59-1.07,1.9-1.25.4-.23,3.02-1.51,3.25-1.4.05.02.21.4.36.39.1,0,.56-.28.38-.46l-.54.13c-.09-.08.19-.7-.1-.72-.19-.01-.9.39-1.35.36-.31-.02-.41-.24-.59-.41-.15-.14-.28.04-.24-.37.07-.7.31-.24.68-.44.21-.11.43-.69.55-.73.14-.04.57.58.74.73.1.09.28.1.29.11.08.1-.25.38-.15.47s.66-.6.92-.62c.21-.01.42.33.48.33.05,0,.48-.56.73-.65.18-.07.62-.07.64-.09s-.06-.42.11-.46c.11-.03.23.15.38.16.41.01.57-.39,1.02.21.06.08.06.25.07.26.01.01.25-.12.4-.13.84-.07.53.29.87.59.12.11.41.14.58.21.13.06.31.25.38.26.14.01.4-.42.59-.49.23.2-.23.89-.4.94-.19.05-.75-.52-.96-.54-.24-.02-.49.53-1.04.41-.23-.05-.55-.44-.39-.69-.29-.14-.7.4-.75.41-.05,0-.21-.17-.33-.19-.76-.17-1.21.49-1.9.37-.02.21.02.15.13.2.07.03.65.2.68.2.04,0,.36-.78.23.08.53-.22.71.44.78.48.09.05.91-.01,1.12.02.13.02.13.33.28.4.18.09.49-.24.64.15.03.09.08.45.05.48s-.63.13-.66.13c-.13-.02-.46-.52-.84-.62-.48-.12-.3.11-.5.26-.16.12-.47.19-.54.26-.25.24-.04.84-.98.69.05-1.03-.31-1.18-1.27-1.01l.02-.37c-.45.27-.75-.1-.88.52-.32-.04-.16-.28-.35-.34.09.39-.06.68-.46.77-.34.07-.28-.38-.62-.37-.58.48-1.44.71-2.03,1.12q-.43.31,0,0Z"/>
      <path class="cls-5" d="M19.7,62.72c-.05-.07-.06-.46-.01-.54s.24-.07.29-.13c.04-.05-.02-.19.06-.26.24-.22.61-.12.68.21s-.18.24-.32.38c-.11.11-.46.68-.71.35Z"/>
      <path class="cls-5" d="M18.66,59.88s0-.2-.02-.27c1.01.1.14.44.02.27Z"/>
      <path class="cls-5" d="M23.97,59.67s.34-.08.28.12c-.08.29-.37-.02-.28-.12Z"/>
    </g>
    <path class="cls-5" d="M36.51,50.5s-.08-.34.12-.28c.29.08-.02.37-.12.28Z"/>
    <path class="cls-5" d="M59.46,41.67s-.08-.34.12-.28c.29.08-.02.37-.12.28Z"/>
    <path class="cls-5" d="M30.62,50.29c-.1-.08.14-.43.26-.15.08.19-.23.18-.26.15Z"/>
    <rect class="cls-5" x="67.93" y="49.49" width=".18" height=".27" transform="translate(-3.43 5.08) rotate(-4.17)"/>
    <path class="cls-5" d="M45.37,86.38c.06.05-.06.28-.12.28-.25.02-.03-.41.12-.28Z"/>
    <path class="cls-5" d="M62.93,46.46c-.06-.05.06-.28.12-.28.25-.02.03.41-.12.28Z"/>
    <path class="cls-5" d="M50.77,39.55c-.05.06-.28-.06-.28-.12-.02-.25.41-.03.28.12Z"/>
    <path class="cls-5" d="M16.78,47.99c-.04-.12.03-.25.16-.29l.02.27h-.18Z"/>
    <path class="cls-5" d="M67.18,67.08v-.18c.12-.04.18.03.27.12l-.27.06Z"/>
    <g>
      <path class="cls-5" d="M62.71,52.26c.15.47-.21.39-.31.5s-.13.9-.61.71c.03-.15.34-.24.35-.26.04-.07-.1-.26-.16-.26-.2,0-.6.74-.86.8-.23.05-.15-.41-.41-.43-.06,0-.71.52-.59-.35.01-.09.39-1.33.45-1.37.07-.06.35,0,.53-.1.07-.04.6-.74.69-.65.22.66-.01,1.34.84,1.41.02-.08.05-.08.09,0Z"/>
      <path class="cls-5" d="M64.25,52.95c-.12-.1-.09-.21-.36-.4-.22-.16.61-.87.79-.94.67-.26,1.01.63.68,1.1-.19.26-.85.47-1.1.24Z"/>
      <path class="cls-5" d="M63.67,53.82c-.32.07-.84-.12-1.02-.36-.28-.38,1.15-1.25,1.38-.31.1.42.08.57-.37.67Z"/>
      <path class="cls-5" d="M62.61,52.27c-.11-.46.08-.47.43-.26.7.42-.09.8-.14.54-.02-.08,0-.27-.02-.3,0-.01-.13.02-.18.01-.03,0-.06,0-.09,0Z"/>
    </g>
    <g>
      <path class="cls-5" d="M47.73,84.83c-.02-.06-.98-.81-1.04-.82-.2-.04-.73.1-.9.2-.22.14-.2.64-.64.3-.07-.06-.25-.31-.27-.39-.05-.23,1.12-.85,1.06-1.27-.17.03-.38-.17-.51-.15-.09,0-.06.36-.3.3-.1-.3.08-.71-.06-.96-.28-.53-.86-.56-1.33-.75-.38-.16.19-.36.26-.5.11-.23-.14-.75.32-.92.61-.23.82.63.95.65.58-.37.24-.33-.06-.52-.95-.62-1.34-1.2-2.04-1.99-.17-.19-.59-.81-.46-1.06.02-.04.76-.5.84-.52,0,.11-.08.24-.05.4.14.59.79.33.84.37.05.04-.03.79.26,1.13.33.38.45.09.69.11.18.02,1.35,1.25,1.45,1.47.25.54.02,1.36-.59,1.47-.31.06.02-.45-.34-.34.02.14-.19.6-.14.65.13.12.81.01.7.78.62-.39.44.56-.08.1.05.48-.12,1.46.66,1.13.11-.05.61-.82,1.02-.7-.42.45.2.61.17,1.03,0,.14-.29.71-.4.82Z"/>
      <path class="cls-5" d="M50.42,83.9c-.17.02-.05.25-.19.39-.16.16-1.04,0-1.2-.1-.15-.1.02-.63-.64-.42-.12-.09.48-1.76.39-2.09-.1-.35-.49.09-.58.08-.2-.05-.16-.47-.08-.53.15-.11.49.07.66.02.18-.06.75-.77,1.11-.16.28.47-.16.34-.19.39-.02.03.02.52-.02.71-.09.45-.41.81-.49,1.24.4-.09.84.22,1.18.25.22.02.53-.16.86.01.14.08-.15.68-.1.86.02.44-.35.08-.48-.1-.11-.16-.18-.38-.24-.56Z"/>
      <path class="cls-5" d="M52.85,84.46c.03-.14-.14-.06-.2-.14-.1-.15-.08-.38-.21-.53-.23-.27-.98-.18-.61-.94.23-.48,1.14-.37,1.19.22h.09c-.07-.41.39-.06.56.09,1.1,1.02-.25,1.47-.81,2.3-.53-.15-.67-.97-.02-1Z"/>
      <path class="cls-5" d="M49.9,78.07c-.49.55-.43-.28-.31-.66,0-.32-.81-.82-1.17-.79-.07-.06-.28-.21-.3-.23-.09-.14-.09-.42-.14-.47-.06-.05-.38.12-.27-.22.04-.13.3-.21.35-.16.07.06-.2.44.56.14.04.08.24.53.27.53.72-.03.08-1.21,1.1-.98.55.12.29.88.35,1.09.04.15.41.27.31.71-.02.11-.33.06-.35.22-.02.11.19.3.08.49-.08.15-.38.15-.49.31Z"/>
      <path class="cls-5" d="M43.33,86.07c0-.62-.66-1.12-.59-1.75.03-.29.36-.31.49-.48.08-.1.06-.23.09-.29.18-.32.19.18.21.19.07.05.76-.04.97.12.4.32-.02,1.13.07,1.56-.21.13-.48-.24-.52-.24-.08,0-.13.32-.2.42-.05.07-.18.12-.26.21-.1.11,0,.3-.25.25Z"/>
      <path class="cls-5" d="M42.86,80.96l-.36.07.44.93c-.21.08-.5-.08-.67-.03-.23.07-.24.51-.55.31-1.03-.68.35-2.06,1.15-1.28Z"/>
      <path class="cls-5" d="M27.09,74.86c-.03.5.17.13.49.16.64.07.74,1.13.38,1.24-.12.04-.34-.19-.55-.14-.04.52-.16.21-.45.17-.16-.02-.25.23-.24-.21l.38.16c.12-.49-.35-.63-.36-1.03s.16-.26.35-.35Z"/>
      <path class="cls-5" d="M63.12,73.97c-.47.15-.83-.47-.46-.92.67-.81,1.43.6.46.92Z"/>
      <path class="cls-5" d="M47.3,81.37s-.05-.22-.12-.3c-.09-.09-.19-.1-.22-.12-.27-.23.14-.16.18-.21.15-.18-.14-.96.69-.77.21.31-.08,1.69-.54,1.41Z"/>
      <path class="cls-5" d="M47.26,82.75c-.18.05-.47-.47-.44-.63.03-.18.58-.72.8-.67.43.18-.11,1.23-.36,1.3Z"/>
      <path class="cls-5" d="M32.91,81.69c-.37-.7.69-1.26,1-.72.37.64-.56.62-1,.72Z"/>
      <path class="cls-5" d="M53.27,77.73c.36.06.55-.16.85-.25.07.14.25.55.28.67.04.16.03.33.04.5-.44,0-.66-.39-.52-.79-.28.46-.61.45-.65-.14Z"/>
      <path class="cls-5" d="M54.47,76.34c-.11-.15.13-.76.43-.75.49.02.32.87.23,1.18-.06.06-.63-.4-.66-.43Z"/>
      <path class="cls-5" d="M60.32,73.72s-.19-.01-.24.04c-.13.13.1.65-.45.43-.68-.27.22-1.29.58-.87.08.09.16.35.11.41Z"/>
      <path class="cls-5" d="M31.16,78.97c.15-.19,1.51,1.41.44,1.12-.55-.15-.38-.67-.44-1.12Z"/>
      <path class="cls-5" d="M52.3,77.61c-.73.24-1.01-.97-.27-.67.13.05.53.58.27.67Z"/>
      <path class="cls-5" d="M48.63,75.68c-.11-.23-.21-.46-.24-.72.53-.16.87-.09.54.51-.1.18-.15.15-.3.21Z"/>
      <path class="cls-5" d="M50.7,76.45c.25-.28.71.4.6.69-.51.31-.74-.54-.6-.69Z"/>
      <path class="cls-5" d="M34.95,81.53c-.51.19-.53-.49-.19-.6.36-.12.61.45.19.6Z"/>
      <path class="cls-5" d="M49.05,84.81c-.38.13-.41-.47-.2-.52.28-.07.65.37.2.52Z"/>
      <path class="cls-5" d="M30.52,77.83c-.05-.22-.07-.64.28-.57s.07.67-.28.57Z"/>
      <path class="cls-5" d="M33.54,80.18c.29,0,.62.19.59.51-.39.1-.57-.14-.59-.51Z"/>
      <path class="cls-5" d="M52.3,82.02s-.02-.27.07-.33.47.06.64-.09l.03.46s-.36-.22-.43-.21c-.06,0-.22.26-.31.18Z"/>
      <path class="cls-5" d="M52.55,76.68c-.46.27-.48-.33-.26-.44.34-.17.21.26.26.44Z"/>
      <rect class="cls-5" x="50.61" y="79.93" width=".37" height=".46" transform="translate(-5.69 3.9) rotate(-4.17)"/>
      <path class="cls-5" d="M34.35,82.5c-.3-.27.61-.22.64,0-.03.24-.61.03-.64,0Z"/>
      <path class="cls-5" d="M30.39,78.57c-.16-.68.55-.51.28-.08-.07.12-.18.05-.28.08Z"/>
      <path class="cls-5" d="M39.47,80.94l.23-.57c-.05.2.12.56-.23.57Z"/>
      <g>
        <path class="cls-5" d="M30.39,78.57c.04.15.28.36.29.5.03.19-.3.42-.29.64s.27.58.24.86l.34-.3.02.27c.26.07.15-.16.18-.19.26-.2.22.27.23.31.09.45.42-.02.65-.02.2,0,.71.23.73.45.02.24-.41.78-.18,1.16.29-.09.66.21.88.18.16-.02.4-.38.57-.28.02.01.09.3.26.44.08.07,1.19.61,1.26.62.26.04.46-.29.68-.29.08,0,1.05.17,1.11.19.23.1.27.32.37.37.22.12.99-.58,1.04-.86-.33-.11-.75.22-.96.23-.28.02-.09-.16-.67.03-.7.22-.3-.46-.33-.6-.06-.3-.62-.55-.67-.72-.04-.15.15-.33.14-.36,0-.05-.89-.49.16-.33-.24-.36.15-.69.51-.54.31.12.5.98.42,1.3.5-.24.67-1.07,1.28-.99.66.08.99.94,1.09,1.52.02.13-.09.37-.06.4.02.02.32.04.48.2.17.17.17.43.36.57.93-.72.39.06.43.29.13.79,1.44-.11,1.69.73.37,1.25-1.11.31-1.5.54-.31.18-.05.7-.16.98-.17-.1-.38-.4-.54-.46s-.35,0-.47-.06c-.11-.05.03-.23-.11-.36-.05-.05-1.06-.68-1.12-.68-.27-.03-1.32.67-1.77.66-.41-.01-1.12-.74-1.34-.73-.07,0-.02.13-.1.19-.47.39-.71.31-1.18.5-.34.13-.67.65-.73,0-.48.58-.6-.5-.71-.87l-.44.22c-.02-.32-.22-.6-.56-.6-.82,0,0,.52-.11.92l-1.01-1.21c-.28-.03.09.34-.01.46-.02.02-.44.07-.54.13,0-.78-.03-.45-.52-.53-.54-.09-.87-.87-1.3-1.17-.09,0-.47.9-.73.69-.11-.08.63-.85.58-1.08l.11-.71c-.25.2-.2.56-.35.85-.04.08-.41.51-.46.55-.24.13-.41-.05-.58,0-.12.04-.18.23-.28.26s-.29-.07-.45-.04c-.2.04-.25.25-.37.3-.38.14-.75-.68-.19-.94l-.21-.4c.58.22,1.23.13,1.85.14,0-.47-.31-.88,0-1.33.13-.12.61.36.72.46-.05-.22.49-.57.35-.75-.02-.02-.49-.34-.52-.34-.11,0-.33.67-.75.37-.78-.55.56-1.02,1.06-.49l-.12-.36c.25.03.72-.19.93-.14.03,0,.58.27.6.3.12.14-.05.44.25.35.02-.23-.17-.38-.22-.58-.23-1.01.15-.67.76-.83ZM37.02,82.58c.31.04.21-.49.23-.66-.39,0-.11.43-.23.66ZM28.38,79.91l.84.21-.46-.61-.38.39Z"/>
        <path class="cls-5" d="M32.24,84.4c-.43.15-.3-.36-.02-.36.14,0,.21.3.02.36Z"/>
      </g>
      <path class="cls-5" d="M38.98,80.51l-.02-.27c.19-.03.34-.06.46.1-.1.18-.25.17-.44.17Z"/>
      <path class="cls-5" d="M35.45,80.59c-.22.07-.33-.29-.12-.36s.33.29.12.36Z"/>
      <path class="cls-5" d="M46.98,81.49c-.22.07-.33-.29-.12-.36s.33.29.12.36Z"/>
      <path class="cls-5" d="M28.14,76.71c-.13.04-.55.04-.56-.1-.02-.26.65.02.56.1Z"/>
      <path class="cls-5" d="M42.47,83.11c.07-.08.54.09.39.34-.02.03-.51-.2-.39-.34Z"/>
      <path class="cls-5" d="M45.2,76.48c0,.69-.39.17-.27.02,0-.01.21-.02.27-.02Z"/>
      <path class="cls-5" d="M43.95,77.03c-.03-.36.34-.39.36-.03l-.36.03Z"/>
      <path class="cls-5" d="M32.25,80.18c.06.06-.02.37-.11.37-.27.02-.06-.53.11-.37Z"/>
      <path class="cls-5" d="M51.33,80.07c-.05-.04.06-.51.25-.38.1.18-.13.48-.25.38Z"/>
      <path class="cls-5" d="M30.02,78.5c-.1-.08.16-.38.25-.29.15.14-.09.42-.25.29Z"/>
      <path class="cls-5" d="M36.18,79.98c-.15-.15.09-.42.25-.29.1.08-.16.38-.25.29Z"/>
      <path class="cls-5" d="M32.86,82.15c-.1-.08.16-.38.25-.29.15.15-.09.42-.25.29Z"/>
      <path class="cls-5" d="M51.48,79.51s-.08-.34.12-.28c.29.08-.02.37-.12.28Z"/>
      <path class="cls-5" d="M28.88,72.99s.08.34-.12.28c-.29-.08.02-.37.12-.28Z"/>
      <rect class="cls-5" x="52.29" y="84.22" width=".18" height=".27" transform="translate(-5.99 4.03) rotate(-4.17)"/>
      <g>
        <path class="cls-5" d="M53.27,77.73c-.25.94-.1,1.86-.28,2.79-.14.72-.34,1.13-1.18,1.08-.07-.22.14-.41.13-.6,0-.17-.17-.35-.21-.55-.08-.42-.21-.9.3-.8-.28-.9,0-.63.55-.94.5-.28.14-.39.1-.63-.09-.51.09-.66-.13-1.4.34-.2.61-.87.73-1.25-.41-.05-.26.72-.55.68-.31-.04-.24-.65-.29-.7-.03-.03-.31,0-.43-.09s-.29-.6-.36-.78c-.5.03.12.61.11.73-.01.11-.4.71-.51.76-.14.06-.36-.36-.39-.45-.06-.18.02-.42,0-.44-.05-.03-.89.29-.67-.32l-.45.12c.07-.25.06-.41-.05-.64-.23.09-.16.42-.28.57-.34.42-.38-.16-.24-.47.07-.16.23-.18.28-.27.06-.11.02-.28.07-.37.09-.15.88-.22.92-.66-.23-.18-.21.24-.3.25-.06,0-.29-.24-.26-.39.05-.21.77-.2.59-.65-.31-.06-.08.22-.22.3-.12.07-.88.3-.91.35-.06.07.05.49.03.63l-.21-.35c-.68.1-.46,1.08-.57,1.31-.05.1-.64.42-.66.45-.05.09.04.31-.08.4-.05.04-.26-.08-.37.1-.09.15-.09.59-.04.74.04.12.37-.1.3.21-.32.04-.71-.02-.98-.2-.4-.27-.5-1.23-.87-.67-.22.34.02.46.09.78.05.2,0,.48.05.62.04.12.77-.03.55.91-.14.59-.64,1.18-.57.07l-.81.15c-.04-.57.24-1.08.34-1.63,0-.02-.31-.02-.37-.02,0-.12-.13-.96-.16-1-.03-.03-.52.06-.64.05l.32.62c-.58-.19-.41.14-.59.21-.17.07-.41.01-.58.06,0-.08-.08-.18-.08-.3,0-.54.74-.27.77-.3-.19-.52-.33-1.11.17-1.48l-.64.05c.27.26.23.55.25.9l-1.12-.28c0,.16.2.06.28.22.35.79-.01,1.12-.84.97-1.02-.19-.68-1.57.36-1.36l-.11-.27c-.13-.04-.05.37-.26.2-.02-.02-.09-.29-.12-.36-.43.32-1.25.85-1.41,1.39-.02.07-.14.75-.13.79.05.51.81.04,1.15.16,0,.33.49.37.43.64-.07.3-.37-.12-.46-.01,0,.01,0,.26.02.27.03.03.56.05.85.26.42.3.21.48.37.76.06.11.58.21.3.44-.03.03-.48.21-.52.2-.17-.03-.19-.32-.33-.43-.36-.25-.82,0-.85-.02-.06-.06.15-.4-.39-.25-.1-.38.4-.47.31-.85-.7-.03-1.34-.03-1.08-.93-.58.14-.8-.12-.88-.67-.31.26-.53.24-.91.16-.04.04.69.89.76.95.13.1.3.06.32.07.3.21-.47.2-.52.24-.03.02-.26.71-.24.74,1.13-.76,2.19-.49,2.09,1.04.76-.61.4.32.61.78-.15.19-.52-.6-.68-.59-.11.33.19.87-.2.98-.44.12-.48-.5-.25-.77l-.69.6c0-.64.55-.69-.31-1.08l.06.82c-.34.14-.21-.22-.25-.25-.18-.13-.55.3-.62.23l.13-.74c-.15-.02-.08.18-.16.24-.08.06-.39.11-.45.07-.01-.01-.03-.51-.21-.25-.03.05.36.86-.4.75-.3-.24.05-.88.02-.91-.01-.01-.2.01-.33-.06-.54-.33-.22-.31-.11-.61.16-.44-.03-1.61-.47-1.79-.07-.03-.8.47-.83-.03,0-.17.66-.21.76-.37,0-.74-.36-.11-.6.08-.29.22-.57.1-.51.59.09.69.81.22.85.26-.07.75-.37,1.34.45.52.37.23-.1.51-.35.56-.15.03-.36-.05-.38-.04-.03.02-.01.2-.14.26-.52.23-.36-.19-.57-.4-.3-.3-.33.5-.59.68l-.07-.36c-1.05.02-1.27.94-2.11,1.25l.5-.68c-.64.1-1.66-.04-1.87-.76-.24-.82.28-.61.43-.88.1-.19-.31-.51-.43-.7-.29-.45-.1-.76-.82-.59-.11-.06.8-1.35.81-1.53.02-.2.11-.37.18-.13l-.18.13c-.4.11-1.68.84-1.82.84-.05,0-.56-.42-.59-.48-.2-.34.62-.58.65-.66s.07-.72.03-.76l-.45.12c.04-.66.29-.87.94-.94-.08-.17-.17-.64-.33-.72-.13-.06-.28.1-.4.08-.23-.05-.21-.59-.39-.75-.21-.19-.84-.19-1.11-.15-.08.08.46.46.11.82-.27.28-.46-.36-.8-.22.09.14-.07.54-.05.55.02.01.27,0,.41.07.21.1.36.35.58.43.13.05.33-.06.39.03.07.1.17,1.38.14,1.45-.5.19-1.02.27-1.51.49l-.22-.53c.12.57-.64,1.02-.44.22-.25.2-.41.52-.79.52-.04.05.39.25.31.56-.05.2-.86.25-.6.47.04.03.72-.38.92.07.1.21-.36.11-.42.42-.03.18.1.31.12.48-.07.08-.84-.21-.9-.3-.07-.1.05-.29-.02-.46-.11-.3-.69-.51-.68-.96-.24.12-.38.54-.65.6-.36.08-.43-.2-.57-.22-.17-.02-.57.21-.86.04.23.43.23.54.07,1,.48-.48.49,0,.82.39.15.18.36.31.53.47-.39.49-.72,1-.94,1.58-.19-.47-.64-.05-1.01-.02-.17.01-.34-.08-.51-.05-.09-.09.21-.45-.07-.36-.11.03-.81.31-.84.35-.06.11.13.66-.29.56-.35-.08,0-.7-.02-.87-.02-.13-.17-.2-.19-.28-.06-.21,1.98-2.17,1.9-2.49-.02-.06-.15-.15-.19-.29-.05-.17.03-.51-.18-.58-.42-.13-.05.32-.11.58-.15.7-1.6-.24-1.29-.85.14-.27.79-.3.64-.69-.52.17-1.03.45-1.57.57-.11.02-.29.07-.23-.11.22-.66,3.46-1.34,3.56-1.5.02-.04-.2-.49-.14-.63l.74.13c.15-.18-.71-.79-.15-1.11.36-.21.48-.09.59.26.27-.71,1.08-.49,1.74-.72.34-.12.78-.55.92-.58.23-.05.07.19.24.17-.21-.54.33-1.12.35-1.55.01-.26-.17-.5-.13-.69.03-.13.34-.46.39-.69.05-.25-.36-.04-.56-.14-.44-.23-.15-.68-.1-1.02.03-.17-.05-.47,0-.56.06-.11.52-.11.65-.17.19-.08.14-.4.4-.38l-.15.47c.33.14.32-.45.57-.41.06.01.51.82.92.67-.34-.7-.47-1.84.62-1.61l-.23-.63c-.09.17-.54.36-.59.43-.01.02-.01.47-.27.27-.1-.08.14-.28.14-.33,0-.03-.3-.27-.38-.43-.19-.35-.58-1.5-.2-1.76.07-.05.22,0,.27-.04.09-.05.06-.19.1-.19.14-.01.48.29.52.24-.03-.34-.39-.23-.48-.58-.06-.21-.17-1.47-.1-1.59.06-.1.7-.24.76-.33.03-.05-.18-.4-.13-.53.12-.07.52.09.55.05.02-.02,0-.4.2-.47.13-.01.14.86.53.37-.16-.26-.72-1.44-.58-1.65,0-.1.06-.2.16-.29.15,0,.78.04.81.02.02-.02.16-.39.26-.51.27-.37.63-.48.38-.99l.38.16c.09-.3-.12-.7-.07-.96.02-.12.36.03.27-.2-.02-.05-.17-.18-.24-.32-.06-.13-.08-.42-.09-.44-.06-.05-.41.16-.54.13.02-.27.24-.45.29-.73.08-.44-.16-.61.45-.88.23.14.52.55.47.81-.03.15-.31.34-.28.5.01.07.15.15.17.27.02.15-.08.29-.04.44.03.09.22.2.19.33,0,.01-.13.05-.15.16-.13.55.16.32.41.45.2.1.24.56.64.33.12.13-.14,1.26-.08,1.52s.33.17.4.43c.08.28.09.7-.17.89-.31.09-.22-.76-.56-.78-.03.26.15.52.15.76,0,.34-.54.63.06.87-.08-.63.48-.53.91-.8.28-.17.83-.7.65-1.06-.21.02-.27.32-.45.39-.37.14-.51-.22-.42-.54.03-.11.8-.48.92-.7.05-.1,0-.26.08-.4.11-.17.32-.28.41-.51.12-.3.02-.55.07-.79.03-.14.22-.27.3-.42.07-.13.15-.48.17-.5.04-.03.34.09.5.06.05-.01.46-.3.48-.33.04-.08-.22-.32.07-.58.05-.05.2-.04.24-.09.07-.09.12-.79.46-.93.08.04.39.38.44.33.06-.05-.02-.45.44-.22.02-.17-.1-.25-.21-.35-.08.03-.12,0-.1-.08.02-.03-.04-.28-.03-.37,1.08.36.5-1.33,1.66-1.13-.52-.46.21-.79.2-1.07-.01-.2-.59-1.02-.45-1.21.26-.07.26.27.45.32,1.08.28,1.2-1.4,2.16-1.61.06,0,.22.5.33.62.16.18.9.43.31.53-.23.04-.31,0-.55.13-.1.05-1.44,1.43-1.49,1.54-.26.52.05,1.61-.7,1.75.35-.93-.26-.33-.18.14.05.29.53.62.51.97,0,.21-.39.6-.18.99l-.76-.31c-.1.5.52.04.48.54-.06.73-.43.28-.51.33-.35.19-.25,1.63-.06,1.85.32.37.49-.2.69-.27.14-.05.42-.01.47-.06.03-.03,0-.26.11-.37.14-.13.66-.14.81-.42.07-.14-.32-.31-.04-.46.21-.11.12.24.16.26.04.03.65-.21.69-.26.08-.08.34-1.19.49-1.29.1-.07.3.07.4.04.12-.04.19-.46.26-.62.09-.2.29-.3.26-.5-.61.11-1.13-.98-.46-1.22.53-.19.88.84.93.81.3-.35.67-.76.88-1.16-.12-.13-.08-.18.08-.1.2-.18.99-.49,1.16-.25.08.1.17,1.84.45,2.16l-1.12-.19c.28.29.1.48.08.8,0,.13.12.3.06.39-.03.06-.98.61-1.11.67-.23.1-.47.17-.72.19.31.38.05.87.24,1.25.12.23.47.08.42.31-.01.06-.81.35-.49.91-.13.18-.54-.71-1.17-.45-.38.16.2,1.18-.11,1.19-.18,0-.19-.63-.4-.52-.1.05.14.48-.49.22.19.48-.21,1.02-.58.57-.05-.06-.02-.14-.03-.16q.04-.47,0,0c-.12.14-.38.03-.24.48l-.48-.24c.18.21.19.64.33.83.08.11,1.02.39,1.24.57.19.15.25.66.37.66.43-.03,0-.89-.02-1.06-.11-.97,1.05-1.37,1.16-.53.05.38-.36.82-.47,1.18.12-.03.61-.01.64-.05.03-.04-.13-.45.11-.55.32-.13.47.29.73.22.02-.11.21-.28.21-.3q.42,0,0,0s-.14-.18-.11-.3c.03-.13.25-.13.26-.23,0-.11-.14-.34-.15-.53-.03-.47.15-.31-.11-.7-.3-.46.29-.39.31-.41.09-.07.1-.39.23-.57.17-.23.51-.31.7-.51-.42.04-1-.36-.71-.78s1.24.13,1.3.05c-.22-.58.49-.46.51-.5.04-.08-.09-.26-.16-.26-.15-.02-.35.36-.57.32-.04-.44.27-.62.58-.82-.56.03-.65-.43-.09-.59.06.36.75,1.35.72,1.6q-.31.15,0,0c.18.05.3.15.47.15-.13-1.01.69.35.84.21.32-.45-.06-1.34-.02-1.6.05-.27.49-.03.54-.09.04-.05-.28-.36.25-.68.2-.12.46,0,.5-.34s-.47.07-.55,0c-.03-.21-.06-.66.12-.79.63-.43.44.42.49.47.02.02.35-.04.48-.02s.26.13.4.13c.59,0,1.19-1.01,1.42.08-.32-.09-.52-.27-.72.14.29-.08,1.12.15,1.27.37.08.11.05.34.08.36.05.04.34-.07.44-.02.03.01.17.43.25.55.09.14.33.25.36.36.11.42-.24.75.3,1.34.41.44.77.24,1.23.51-.12-.73-.21-.23-.65-.38-.59-.2.23-1.22.72-1.19.04.04-.11.8-.02,1.05.03.07.57.05.42.58.56-.29.26.05.28.07.12.12.08.17-.08.1-.16.1-.23.08-.3.3l-.06-.23-.18-.03c.24.77-.64.55-1.15.63.21-.44-.22-.5-.59-.6-.19.46.14.92.1,1.32-.03.33-.47.4-.5.6-.02.15.21.27.16.39-.12.3-1.05.64-1.38.65.05.49.23.41.52.43.05,0,.12.35.25.16.05-.07-.16-.4-.12-.45.4.09.95.11,1.17-.27l-.46.03c-.04-.57.63-.27.7-.33.08-.07.08-.52.14-.6.04-.05.99-.78,1.06-.81.19-.09.5.06.54,0,.01-.02-.02-.29.04-.44.04-.09.36-.51.4-.51.05,0,.18.39.43.24-.11.37-.54.27-.37.67.21.47.32.03.7.04l-.05.55c.55.06.29-.22.35-.3.14-.19.28.31.43.32.08,0,.31-.26.49-.2l-.41.67c.6-.02.66-.2.82-.7.19-.06.2.25.31.26.18.02.45-.17.66-.15,0-.18-.25-.03-.38-.1-.23-.13-.08-.79-.11-1.01-.02-.11-.21-.15-.16-.3.13,0,.24.07.37.03.2-.07.31-.43.52-.32.17.08-.08.33-.05.55s.26.37.29.55c.04.25-.2.36.1.39.4.04-.11.3-.2.42-.08.11-.06.3-.15.38-.1.1-.2-.2-.41-.18-.45.03-1.17.53-1.68.56,0,.17.22.03.37.11.06.03.07.15.14.19.08.05.23,0,.25,0,.03.02-.19.43,0,.65.21.24.62-.32.29.8.35-.35,1.46-.58.88.12-.3.36-.49.12-.18.7-.14.25-.32.11-.54.09-.04.43.28.83.36,1.22.04.2.05,1.09.09,1.13.03.02.6-.02.66.32-.26.05-.52-.1-.78-.04-.19.05-.24.24-.37.29s-.45.02-.48.06c-.02.02.02.25-.1.47-.19.33-.55.43-.83.65,0,.29.46-.03.56.24.08.21-.18.65-.45.62-.04,0-.06-.18-.11-.19-.2-.02-.5.21-.56.41.65-.11,2.04.32,1.74,1.16.2-.24,1.09-1.09,1.41-.84.07.05-.15.41.03.51.29.15.74-.24.67.27.78-.8,1.06.35,1.29.46.33.15,1.89.07,1.96.13.05.18-.13.82-.02.92.09.08,1.52.03,1.25,1.05-.03.13-.63.38-.75.39-.25.01-.16-.26-.33-.25.02.18.04.36-.03.53-.09.24-.64.66-.67.71-.07.12.02.35-.05.47-.07.13-.38.08-.46.2-.17.27.31.86-.66.97-.26.03-.12-.28-.17-.45-.74.38-.88-.08-1.38-.24-.28-.09-.71.08-.94-.09-.1-.08-.4-1.07-.36-1.12l.36-.12-.93-.21-.21.93c.34-.06.14-.81.45-.77.2.03.33.74.39.93-.48.02-.07.42-.43.45.7.49.08,1.15.04,1.83-.22.07-.32-.27-.5-.22-.04,0-.6.35-.64.39-.29.32.17.54.12.91-.27-.08-.68-.65-.87-.71-.25-.07-.67.43-.78,0-.13.23-.94.6-1,.76s.15.11.17.14c.09.12-.04.47-.17.54-.18.11-.12-.21-.25-.3-.16-.11-.48.01-.38-.41.03-.13.2-.19.14-.35-.2.06-.4.66-.55.67-.06,0-.18-.19-.24-.15-.02.02.06.29-.35.21l-.08-.45-.29.34.47.2-.25.38c.56-.14.32.68.15.94-.29.43-.36.05-.57.83ZM45.62,77.28l.03.46h.09s-.03-.46-.03-.46h-.09ZM52.55,75.3c.1.09.35-.2.25-.29s-.35.2-.25.29ZM47.35,74.58l.36-.03c-.01-.18.04-.32-.16-.26l-.21.29ZM58.55,73.31c.13.14.17-.03.17-.15.02-.3-.04-.68-.3-.85l-.39.26c.33.17.52.34.51.74ZM30.24,72.71c-.02.13.07.24.2.26l-.02-.27h-.18ZM60.43,67.57c0,.3-.23.52-.12.83.16,0,.06-.21.22-.28.11-.05.38-.02.4-.04.11-.12-.28-.59-.5-.51ZM27.23,67.97c.08.23.38.24.44,0,.03-.12.2-1.31.2-1.38-.02-.2-.11-.28-.26-.39-.04.19-.46.37-.48.4-.05.09.16.24.18.32.07.29-.08.63.28.97l-.36.07ZM33.85,64.28c-.65,0-.38.87.3.39.04-.03.4-.81.4-.85-.01-.32-.3-.09-.41-.12-.34-.08-.19-.92-.15-1.17-.76.4-.22.56-.12.98.08.31.02.49-.03.78ZM30.48,63.42c-.1.16.39.84.61.87.03-.29-.13-.79-.06-1.04.04-.16.24-.14.33-.23.22-.21.37-.72.56.01l.35-.21.16.35c.27-.7.49-.13.9-.24.07-.02-.06-.36.3-.34-1.02-.26-.44-.41-.53-.78-.08-.32-1.1-.68-1.4-.55.22.25,1.22.73.99,1.16-.01.02-.36.19-.39.19-.1,0-.23-.18-.39-.19-.18,0-1.11.25-1.22.16-.01-.42.33-.79.46-1.18-.01-.09-.78-.18-.87-.17-.07,0-.15.38-.26.39-.19.02-.15-.53-.2-.66-.17-.45-1.09.67-.22.6-.32.61,0,.25.13.41.12.14.02.38.03.39.08.09.71.14.98.6.29.5-.19.34-.26.46ZM29.54,64.41c.22.06.74-.35.69-.55-.06-.26-.51.2-.64,0l-.05.55ZM29.91,63.19c-.02.22.07.38.3.34.03-.29-.06-.27-.3-.34ZM58.9,60.43l.03.36h.09s.07-.38.07-.38h-.18ZM34.7,59.42c.07.04.24-.02.35.04.18.09.24.53.67.36-.33-.44.35-.74-.34-.89.14.4-.46.52-.53.27-.06-.22.31-.31.34-.36.03-.06-.11-.19-.09-.25,0-.03.37-.17.23-.49-.42.5-.62.4-1.18.18.07.17.5,1.1.56,1.13ZM37.94,57.46c-.38-.19-.43.16-.59.21-.09.03-1.1-.11-1.1.23,0,.04.14.34.19.36.03.02.71.1.74.08s.13-.55.3-.67c.27-.2.7.17.84-.62.08-.46-.6-.53-.88-.33.35.15.45.38.51.74ZM36.68,56.54c.05.05.31-.12.4-.11.19.03.08.37.26.34.17-1.26-.26-.44-.35-.43-.08,0-.18-.19-.16-.31.04-.23.35-.06.36-.07.05-.08-.12-.3-.11-.4,0-.03.37-.36.44-.55s.08-.52.18-.74c-.27.19-.33-.03-.56-.14l.06.82c-.51.18-.37-.36-.77-.5-.05.52.16.88.28,1.36-.28.04-.35-.31-.62-.32-.22-.01-.88.2-.44.32.26.07.45,0,.72.16.34.2.29.56.31.58ZM41.55,55.36c.39-.11.41.15.66.32-.02-.22.04-.4.19-.57.27-.3.78-.2.65-.6l-.26.2.05-.55c-.25.19-.49.25-.81.24.09.2.42.09.26.44l-.75.51ZM42.83,54.08c.35-.11.53.07.52-.4l-.46-.06-.06.46ZM43.59,53.1s.32.03.27-.11c-.38.03.01-.6-.59-.51.26.1.29.59.32.62ZM43.73,52.54c.42-.04.61-.45.27-.75l.07.27c-.4-.05-.21.2-.33.48Z"/>
        <path class="cls-5" d="M22.58,75.93c.38.07.43.28.08.45l-.08-.45Z"/>
        <path class="cls-5" d="M33.85,64.28c.54,0,.04.46-.06.37-.02-.13.04-.25.06-.37Z"/>
      </g>
      <g>
        <path class="cls-5" d="M49.9,78.07c.11,0,.26-.05.37.01.18.12.29,2.12.01,2.24-.59.25-1.11-.25-1.5-.61l-.15.47c-.27-.41-.71-.6-1.03-.89-.08-.07-.07-.24-.13-.29s-.23-.02-.3-.09c-.35-.34.38-.19.4-.21.04-.05-.1-.57.31-.72.28-.1.63.79.89.17.29-.69-1.47-.3-1.51-1.13-.02-.48.9-.4,1.16-.4,1.19.11,1.14,1.35.99,2.26l.28.05c-.12-.47-.05-.76.21-.85Z"/>
        <path class="cls-5" d="M49.38,78.47c.35-.29.33.43.07.36-.15-.04-.13-.31-.07-.36Z"/>
      </g>
    </g>
  </g>
  <g>
    <path d="M77.95,35.71l20.58-4.48-19.28-8.48,2.1-20.96-14.02,15.72-19.28-8.48,10.62,18.19-14.02,15.72,20.58-4.48,10.62,18.19,2.1-20.96ZM66.64,35.58l-14.59,3.17,9.94-11.14-7.53-12.9,13.67,6.01,9.94-11.14-1.49,14.86,13.67,6.01-14.59,3.17-1.49,14.86-7.53-12.9Z"/>
    <path d="M73.39,31.9l10.28-2.23-9.63-4.23,1.05-10.46-7,7.85-9.63-4.23,5.3,9.08-7,7.85,10.28-2.23,5.3,9.08,1.05-10.46ZM67.75,31.83l-7.29,1.58,4.96-5.56-3.76-6.44,6.83,3,4.96-5.56-.74,7.42,6.83,3-7.29,1.58-.74,7.42-3.76-6.44Z"/>
  </g>
  <g>
    <path d="M71.64,63.38l-6.68,10.68,11.68-4.71,8.09,9.65-.88-12.56,11.68-4.71-12.22-3.05-.88-12.56-6.68,10.68-12.22-3.05,8.09,9.65ZM76.41,58.59l4.73-7.57.62,8.91,8.66,2.16-8.28,3.34.62,8.91-5.74-6.84-8.28,3.34,4.73-7.57-5.74-6.84,8.66,2.16Z"/>
    <path d="M75.17,63.02l-3.33,5.33,5.83-2.35,4.04,4.82-.44-6.27,5.83-2.35-6.1-1.52-.44-6.27-3.33,5.33-6.1-1.52,4.04,4.82ZM77.56,60.63l2.36-3.78.31,4.45,4.33,1.08-4.13,1.67.31,4.45-2.86-3.42-4.13,1.67,2.36-3.78-2.86-3.42,4.33,1.08Z"/>
  </g>
  <g>
    <polygon class="cls-1" points="12.52 29.96 14.2 27.03 39.71 89.85 36.66 90.44 12.52 29.96"/>
    <polygon class="cls-3" points="72.82 74.1 39.71 89.85 14.2 27.03 50.18 16.52 72.82 74.1"/>
    <path class="cls-4" d="M14.26,26.42l35.47-10.33,16.01,22.62,23,5.88s-34.41,24.16-34.99,24.25-21.43-14.2-21.43-14.2L14.26,26.42Z"/>
    <rect class="cls-2" x="22.69" y="18.91" width="19.25" height="5.22" transform="translate(-5.06 11.01) rotate(-17.96)"/>
  </g>
  <path class="cls-4" d="M20.02,72.51l-1.4-1.71c-.96-1.42-.04-3.36,1.67-3.51l15.56-.3c1.38-.12,2.54,1.01,2.46,2.39l-3.11,16.88c-.12,1.96-2.45-.32-3.81-1.74l-.89-.92c-.81-.84-2.13-.93-3.05-.19l-7.93,6.95c-.91.73-1.72,1.25-2.54.41l-4.18-4.59c-.9-.93-.84-2.42.13-3.27l7.56-6.65c.85-.75.16-2.81-.48-3.75Z"/>
</svg>