<?xml version="1.0" encoding="UTF-8"?>
<svg id="icons" xmlns="http://www.w3.org/2000/svg" viewBox="0 0 100 100">
  <defs>
    <style>
      .cls-1, .cls-2, .cls-3, .cls-4, .cls-5, .cls-6 {
        stroke-miterlimit: 10;
      }

      .cls-1, .cls-2, .cls-3, .cls-4, .cls-6 {
        stroke: #231f20;
      }

      .cls-1, .cls-5 {
        fill: #c2d832;
      }

      .cls-7 {
        fill: #231f20;
      }

      .cls-2 {
        fill: #4a5a2d;
      }

      .cls-3 {
        fill: #818181;
      }

      .cls-4 {
        fill: #686868;
      }

      .cls-5 {
        stroke: #000;
      }

      .cls-6 {
        fill: #4c4c4c;
      }
    </style>
  </defs>
  <g>
    <path d="M44.59,36.83l-.87,2.32,2.1,1.31c-.1-1.14,1.02-2.63,2.21-2.42,2.64.45,2.51,3.8-.06,4.18l-1.99-.98c-.11.9-.38,1.75-1.14,2.31,3.19.26,2.59,4.93-.48,4.31-1-.2-.89-.71-1.6-1.22.13,1.43-.74,2.84-2.3,2.73-2.03-.15-2.83-2.48-1.29-3.81l-1.93-1.1c-1.77,4.31-6.95.27-3.21-2.41l-1.64-.26c-.93-.75-1.24-1.67-.95-2.83l1.15-1.2c-4.07-.2-2.09-5.67.85-3.7,1.39.93.87,2.92-.52,3.58l1.45.17,1.2,1.15c.29-.45-.05-.95.16-1.44.18-.41.67-.64.82-1.09-1.22-.48-2.03-.91-2.09-2.33.45-1.95,2.14-2.52,3.67-1.24.8,1.16.43,1.99-.26,3.12l1.98.98c.83-2.51,2.78-2.52,4.51-.79.38-4.45,6.1-1.61,3.42,1.16-.96.99-2.39.39-3.2-.5ZM42.06,39.7l-1.77-.87c.09.75-.34,1.02-.76,1.54l1.65,1.1.88-1.77ZM37.66,40.82c-1.04.08-1.53-.74-1.99-1.53l-.26,1.64-1.05,1.01,2.2.54,1.09-1.66ZM43.51,43.99l-1.87-1.21c-.15.95-.4,1.52-1.09,2.21,1,.1,1.52.51,2.1,1.31.18-.99-.03-1.58.87-2.32Z"/>
    <circle cx="36.25" cy="48.64" r="2.01"/>
    <circle cx="40.83" cy="32.76" r="2.01"/>
    <circle cx="49.35" cy="44.41" r="1.94"/>
    <circle cx="30.63" cy="45.58" r="1.9"/>
    <circle cx="41.99" cy="51.49" r="1.9"/>
    <circle cx="45.01" cy="31.54" r="1.87"/>
    <circle cx="46.28" cy="50.04" r="1.87"/>
    <circle cx="29.18" cy="41.29" r="1.87"/>
    <circle cx="37.7" cy="52.94" r="1.78"/>
    <circle cx="39.38" cy="28.47" r="1.78"/>
    <circle cx="50.75" cy="34.38" r="1.78"/>
    <circle cx="32.07" cy="49.87" r="1.78"/>
    <circle cx="35.09" cy="29.92" r="1.78"/>
    <circle cx="52.19" cy="38.67" r="1.78"/>
    <circle cx="30.8" cy="31.37" r="1.73"/>
    <circle cx="27.73" cy="37" r="1.73"/>
    <circle cx="50.58" cy="48.59" r="1.73"/>
    <circle cx="53.64" cy="42.96" r="1.69"/>
    <circle cx="49.3" cy="30.09" r="1.69"/>
    <circle cx="43.56" cy="27.25" r="1.69"/>
    <circle cx="33.41" cy="54.38" r="1.65"/>
    <circle cx="43.44" cy="55.78" r="1.65"/>
    <circle cx="24.89" cy="42.73" r="1.65"/>
    <circle cx="26.33" cy="47.03" r="1.65"/>
    <circle cx="47.73" cy="54.33" r="1.61"/>
    <circle cx="27.78" cy="51.32" r="1.57"/>
    <circle cx="26.51" cy="32.81" r="1.57"/>
    <circle cx="37.93" cy="24.18" r="1.52"/>
    <circle cx="29.35" cy="27.07" r="1.52"/>
    <circle cx="56.49" cy="37.23" r="1.52"/>
    <circle cx="47.85" cy="25.8" r="1.52"/>
    <circle cx="55.09" cy="47.26" r="1.52"/>
    <circle cx="55.04" cy="32.93" r="1.52"/>
    <circle cx="23.44" cy="38.44" r="1.52"/>
    <circle cx="52.02" cy="52.89" r="1.52"/>
    <circle cx="39.15" cy="57.23" r="1.52"/>
    <circle cx="33.64" cy="25.63" r="1.52"/>
    <circle cx="34.86" cy="58.67" r="1.47"/>
    <circle cx="53.59" cy="28.64" r="1.47"/>
    <circle cx="29.23" cy="55.61" r="1.47"/>
    <circle cx="57.93" cy="41.52" r="1.47"/>
    <circle cx="42.22" cy="22.73" r="1.47"/>
    <circle cx="25.06" cy="28.52" r="1.36"/>
    <circle cx="56.32" cy="51.44" r="1.36"/>
    <circle cx="20.6" cy="44.18" r="1.36"/>
    <circle cx="49.18" cy="58.62" r="1.36"/>
    <circle cx="21.99" cy="34.15" r="1.36"/>
    <circle cx="22.04" cy="48.47" r="1.36"/>
    <circle cx="44.89" cy="60.07" r="1.36"/>
    <circle cx="30.57" cy="60.12" r="1.31"/>
    <circle cx="36.48" cy="19.89" r="1.31"/>
    <circle cx="46.4" cy="21.51" r="1.31"/>
    <circle cx="40.6" cy="61.52" r="1.31"/>
    <circle cx="23.49" cy="52.76" r="1.31"/>
    <circle cx="59.38" cy="45.81" r="1.31"/>
    <circle cx="53.47" cy="57.18" r="1.31"/>
    <circle cx="60.78" cy="35.78" r="1.31"/>
    <circle cx="19.15" cy="39.89" r="1.31"/>
    <circle cx="32.19" cy="21.34" r="1.31"/>
    <circle cx="52.14" cy="24.35" r="1.31"/>
    <circle cx="59.33" cy="31.49" r="1.31"/>
    <circle cx="36.31" cy="62.97" r="1.26"/>
    <circle cx="24.94" cy="57.06" r="1.26"/>
    <circle cx="62.23" cy="40.07" r="1.26"/>
    <circle cx="20.77" cy="29.97" r="1.26"/>
    <circle cx="40.78" cy="18.44" r="1.26"/>
    <circle cx="57.88" cy="27.2" r="1.26"/>
    <circle cx="60.61" cy="49.99" r="1.26"/>
    <circle cx="27.9" cy="22.78" r="1.26"/>
    <circle cx="50.7" cy="20.06" r="1.21"/>
    <circle cx="17.7" cy="35.6" r="1.21"/>
    <circle cx="57.76" cy="55.73" r="1.21"/>
    <circle cx="23.61" cy="24.23" r="1.21"/>
    <circle cx="19.2" cy="54.21" r="1.15"/>
    <circle cx="16.3" cy="45.63" r="1.15"/>
    <circle cx="56.44" cy="22.9" r="1.15"/>
    <circle cx="45.07" cy="16.99" r="1.15"/>
    <circle cx="50.63" cy="62.91" r="1.15"/>
    <circle cx="42.04" cy="65.81" r="1.15"/>
    <circle cx="17.75" cy="49.92" r="1.15"/>
    <circle cx="63.67" cy="44.36" r="1.15"/>
    <circle cx="46.33" cy="64.36" r="1.15"/>
    <circle cx="26.38" cy="61.35" r="1.15"/>
    <circle cx="32.01" cy="64.41" r="1.15"/>
    <circle cx="30.75" cy="17.04" r="1.09"/>
    <circle cx="65.07" cy="34.33" r="1.09"/>
    <circle cx="54.92" cy="61.47" r="1.09"/>
    <circle cx="14.86" cy="41.34" r="1.09"/>
    <circle cx="19.32" cy="25.68" r="1.09"/>
    <circle cx="63.62" cy="30.04" r="1.09"/>
    <circle cx="35.04" cy="15.6" r="1.09"/>
    <circle cx="62.05" cy="54.28" r="1.09"/>
    <circle cx="16.47" cy="31.42" r="1.09"/>
    <circle cx="20.64" cy="58.5" r="1.09"/>
    <circle cx="60.73" cy="21.46" r="1"/>
    <circle cx="39.33" cy="14.15" r="1"/>
    <circle cx="62.17" cy="25.75" r="1"/>
    <circle cx="26.45" cy="18.49" r="1"/>
    <circle cx="66.52" cy="38.62" r="1"/>
    <circle cx="22.16" cy="19.94" r="1"/>
    <circle cx="67.96" cy="42.91" r="1"/>
    <circle cx="15.03" cy="27.13" r="1"/>
    <circle cx="66.34" cy="52.84" r="1"/>
    <circle cx="11.96" cy="32.75" r="1"/>
    <circle cx="65.12" cy="48.65" r="1"/>
    <circle cx="43.49" cy="70.1" r="1"/>
    <circle cx="13.41" cy="37.05" r="1"/>
    <circle cx="59.21" cy="60.02" r="1"/>
    <circle cx="12.01" cy="47.08" r="1"/>
    <circle cx="52.07" cy="67.21" r="1"/>
    <circle cx="13.46" cy="51.37" r="1"/>
    <circle cx="47.78" cy="68.65" r="1"/>
    <circle cx="43.62" cy="12.7" r="1"/>
    <circle cx="14.91" cy="55.66" r="1"/>
    <circle cx="49.25" cy="15.77" r="1"/>
    <circle cx="54.99" cy="18.61" r="1"/>
    <circle cx="37.75" cy="67.26" r="1"/>
    <circle cx="22.09" cy="62.8" r="1"/>
    <circle cx="27.72" cy="65.86" r="1"/>
    <circle cx="33.46" cy="68.7" r="1"/>
    <circle cx="29.3" cy="12.75" r=".93"/>
    <circle cx="63.5" cy="58.57" r=".93"/>
    <circle cx="17.87" cy="21.39" r=".93"/>
    <circle cx="56.37" cy="65.76" r=".93"/>
    <circle cx="53.54" cy="14.32" r=".93"/>
    <circle cx="33.59" cy="11.31" r=".93"/>
    <circle cx="69.36" cy="32.88" r=".93"/>
    <circle cx="47.91" cy="11.26" r=".93"/>
    <circle cx="67.91" cy="28.59" r=".93"/>
    <circle cx="59.28" cy="17.17" r=".93"/>
    <circle cx="10.57" cy="42.78" r=".93"/>
    <circle cx="25.01" cy="14.2" r=".93"/>
    <circle cx="16.35" cy="59.95" r=".93"/>
    <circle cx="69.41" cy="47.21" r=".93"/>
    <circle cx="39.2" cy="71.55" r=".93"/>
    <circle cx="23.54" cy="67.09" r=".93"/>
    <circle cx="27.85" cy="8.46" r=".79"/>
    <circle cx="66.47" cy="24.3" r=".79"/>
    <circle cx="37.88" cy="9.86" r=".79"/>
    <circle cx="32.14" cy="7.01" r=".79"/>
    <circle cx="65.02" cy="20.01" r=".79"/>
    <circle cx="42.17" cy="8.41" r=".79"/>
    <circle cx="6.27" cy="44.23" r=".79"/>
    <circle cx="57.81" cy="70.05" r=".79"/>
    <circle cx="63.57" cy="15.72" r=".79"/>
    <circle cx="9.29" cy="24.28" r=".79"/>
    <circle cx="57.83" cy="12.87" r=".79"/>
    <circle cx="52.09" cy="10.03" r=".79"/>
    <circle cx="13.58" cy="22.83" r=".79"/>
    <circle cx="7.72" cy="48.52" r=".79"/>
    <circle cx="7.67" cy="34.2" r=".79"/>
    <circle cx="53.52" cy="71.5" r=".79"/>
    <circle cx="70.86" cy="51.5" r=".79"/>
    <circle cx="64.95" cy="62.87" r=".79"/>
    <circle cx="67.79" cy="57.13" r=".79"/>
    <circle cx="10.73" cy="28.57" r=".79"/>
    <circle cx="9.17" cy="52.81" r=".79"/>
    <circle cx="73.7" cy="45.76" r=".79"/>
    <circle cx="9.12" cy="38.49" r=".79"/>
    <circle cx="49.23" cy="72.95" r=".79"/>
    <circle cx="60.66" cy="64.31" r=".79"/>
    <circle cx="70.81" cy="37.18" r=".79"/>
    <circle cx="10.61" cy="57.11" r=".79"/>
    <circle cx="16.42" cy="17.09" r=".79"/>
    <circle cx="72.25" cy="41.47" r=".79"/>
    <circle cx="46.46" cy="6.96" r=".79"/>
    <circle cx="44.94" cy="74.39" r=".79"/>
    <circle cx="20.72" cy="15.65" r=".79"/>
    <circle cx="12.06" cy="61.4" r=".79"/>
    <circle cx="17.8" cy="64.24" r=".79"/>
    <circle cx="29.17" cy="70.15" r=".79"/>
    <circle cx="34.91" cy="73" r=".79"/>
    <circle cx="40.65" cy="75.84" r=".79"/>
    <circle cx="19.25" cy="68.53" r=".79"/>
    <circle cx="24.99" cy="71.38" r=".79"/>
    <circle cx="30.62" cy="74.44" r=".79"/>
  </g>
  <path class="cls-5" d="M63.18,49.82l-3.71-4.27,11.81-11.96-12.93-8.94,3.07-4.88,13.85,7.54,4.9-15.79,5.59,1.32-2.63,16.18,15.86-.39.43,5.7-15.56,2.23,5.37,16.01-5.37,2.13-7.17-15.25-13.5,10.38Z"/>
  <g>
    <polygon class="cls-3" points="97.15 59.44 37.91 80.98 7.54 60.9 63.06 38.54 97.15 59.44"/>
    <polygon class="cls-4" points="97.15 59.44 37.91 80.98 37.95 91.82 97.15 68.36 97.15 59.44"/>
    <polygon class="cls-6" points="37.91 91.42 8.6 71.77 7.54 60.9 37.91 81.11 37.91 91.42"/>
  </g>
  <path class="cls-2" d="M21.42,61.16s24.14,19.57,59.2-.4c-.11-.13-2.47-10.69-2.47-10.69H23.1l-1.68,11.1Z"/>
  <ellipse class="cls-1" cx="50.62" cy="50.07" rx="27.52" ry="9.36"/>
  <path class="cls-7" d="M52.33,45.66c1.98.14,3.96.43,5.83,1.13,1.27.47,2.78,1.16,3.48,2.38,1.53,2.65-3.02,4.18-4.77,4.63-3.2.82-6.65.88-9.9.33-2.05-.35-7.81-1.69-6.77-4.8.41-1.23-1.76-1.29-2.09-.3-1.03,3.1,2.19,5.02,4.69,5.9,3.04,1.07,6.38,1.38,9.59,1.2s6.71-.82,9.42-2.65c1.91-1.29,3.19-3.6,1.57-5.65-2.27-2.89-6.91-3.6-10.32-3.84-.52-.04-1.2.14-1.41.68-.19.48.18.95.68.99h0Z"/>
  <path class="cls-7" d="M51.54,48.79c-1.94-1.22-3.87-2.43-5.81-3.65-.27-.17-.54-.34-.81-.51-.37-.23-1.03-.03-1.4.11-.12.05-.98.43-.64.64,1.94,1.22,3.87,2.43,5.81,3.65.27.17.54.34.81.51.37.23,1.03.03,1.4-.11.12-.05.98-.43.64-.64h0Z"/>
  <g>
    <polygon class="cls-5" points="36.67 39.12 39.61 31.21 36.27 25.47 33.33 33.38 24.99 32.03 28.33 37.77 36.67 39.12"/>
    <polygon class="cls-5" points="32.83 32.53 35.78 24.62 32.44 18.87 29.49 26.79 21.16 25.44 24.5 31.18 32.83 32.53"/>
    <polygon class="cls-5" points="28.82 25.63 31.76 17.72 28.42 11.98 25.48 19.89 17.14 18.54 20.48 24.28 28.82 25.63"/>
  </g>
</svg>